%TF.GenerationSoftware,KiCad,Pcbnew,9.0.7*%
%TF.CreationDate,2026-08-20T17:32:26+02:00*%
%TF.ProjectId,Robotdriver,526f626f-7464-4726-9976-65722e6b6963,rev?*%
%TF.SameCoordinates,Original*%
%TF.FileFunction,Copper,L2,Bot*%
%TF.FilePolarity,Positive*%
%FSLAX46Y46*%
G04 Gerber Fmt 4.6, Leading zero omitted, Abs format (unit mm)*
G04 Created by KiCad (PCBNEW 9.0.7) date 2026-08-20 17:32:26*
%MOMM*%
%LPD*%
G01*
G04 APERTURE LIST*
G04 Aperture macros list*
%AMRoundRect*
0 Rectangle with rounded corners*
0 $1 Rounding radius*
0 $2 $3 $4 $5 $6 $7 $8 $9 X,Y pos of 4 corners*
0 Add a 4 corners polygon primitive as box body*
4,1,4,$2,$3,$4,$5,$6,$7,$8,$9,$2,$3,0*
0 Add four circle primitives for the rounded corners*
1,1,$1+$1,$2,$3*
1,1,$1+$1,$4,$5*
1,1,$1+$1,$6,$7*
1,1,$1+$1,$8,$9*
0 Add four rect primitives between the rounded corners*
20,1,$1+$1,$2,$3,$4,$5,0*
20,1,$1+$1,$4,$5,$6,$7,0*
20,1,$1+$1,$6,$7,$8,$9,0*
20,1,$1+$1,$8,$9,$2,$3,0*%
%AMFreePoly0*
4,1,37,0.603843,0.796157,0.639018,0.796157,0.711114,0.766294,0.766294,0.711114,0.796157,0.639018,0.796157,0.603843,0.800000,0.600000,0.800000,-0.600000,0.796157,-0.603843,0.796157,-0.639018,0.766294,-0.711114,0.711114,-0.766294,0.639018,-0.796157,0.603843,-0.796157,0.600000,-0.800000,0.000000,-0.800000,0.000000,-0.796148,-0.078414,-0.796148,-0.232228,-0.765552,-0.377117,-0.705537,
-0.507515,-0.618408,-0.618408,-0.507515,-0.705537,-0.377117,-0.765552,-0.232228,-0.796148,-0.078414,-0.796148,0.078414,-0.765552,0.232228,-0.705537,0.377117,-0.618408,0.507515,-0.507515,0.618408,-0.377117,0.705537,-0.232228,0.765552,-0.078414,0.796148,0.000000,0.796148,0.000000,0.800000,0.600000,0.800000,0.603843,0.796157,0.603843,0.796157,$1*%
%AMFreePoly1*
4,1,37,0.000000,0.796148,0.078414,0.796148,0.232228,0.765552,0.377117,0.705537,0.507515,0.618408,0.618408,0.507515,0.705537,0.377117,0.765552,0.232228,0.796148,0.078414,0.796148,-0.078414,0.765552,-0.232228,0.705537,-0.377117,0.618408,-0.507515,0.507515,-0.618408,0.377117,-0.705537,0.232228,-0.765552,0.078414,-0.796148,0.000000,-0.796148,0.000000,-0.800000,-0.600000,-0.800000,
-0.603843,-0.796157,-0.639018,-0.796157,-0.711114,-0.766294,-0.766294,-0.711114,-0.796157,-0.639018,-0.796157,-0.603843,-0.800000,-0.600000,-0.800000,0.600000,-0.796157,0.603843,-0.796157,0.639018,-0.766294,0.711114,-0.711114,0.766294,-0.639018,0.796157,-0.603843,0.796157,-0.600000,0.800000,0.000000,0.800000,0.000000,0.796148,0.000000,0.796148,$1*%
G04 Aperture macros list end*
%TA.AperFunction,ComponentPad*%
%ADD10C,3.600000*%
%TD*%
%TA.AperFunction,ConnectorPad*%
%ADD11C,5.600000*%
%TD*%
%TA.AperFunction,ComponentPad*%
%ADD12RoundRect,0.200000X-0.600000X0.600000X-0.600000X-0.600000X0.600000X-0.600000X0.600000X0.600000X0*%
%TD*%
%TA.AperFunction,ComponentPad*%
%ADD13C,1.600000*%
%TD*%
%TA.AperFunction,ComponentPad*%
%ADD14FreePoly0,270.000000*%
%TD*%
%TA.AperFunction,ComponentPad*%
%ADD15FreePoly1,270.000000*%
%TD*%
%TA.AperFunction,ComponentPad*%
%ADD16RoundRect,0.250000X0.550000X-0.550000X0.550000X0.550000X-0.550000X0.550000X-0.550000X-0.550000X0*%
%TD*%
%TA.AperFunction,ComponentPad*%
%ADD17RoundRect,0.250000X0.600000X0.725000X-0.600000X0.725000X-0.600000X-0.725000X0.600000X-0.725000X0*%
%TD*%
%TA.AperFunction,ComponentPad*%
%ADD18O,1.700000X1.950000*%
%TD*%
%TA.AperFunction,ComponentPad*%
%ADD19RoundRect,0.250000X-0.725000X0.600000X-0.725000X-0.600000X0.725000X-0.600000X0.725000X0.600000X0*%
%TD*%
%TA.AperFunction,ComponentPad*%
%ADD20O,1.950000X1.700000*%
%TD*%
%TA.AperFunction,ComponentPad*%
%ADD21RoundRect,0.250000X0.725000X-0.600000X0.725000X0.600000X-0.725000X0.600000X-0.725000X-0.600000X0*%
%TD*%
%TA.AperFunction,ComponentPad*%
%ADD22C,2.400000*%
%TD*%
%TA.AperFunction,ComponentPad*%
%ADD23R,1.800000X1.800000*%
%TD*%
%TA.AperFunction,ComponentPad*%
%ADD24C,1.800000*%
%TD*%
%TA.AperFunction,ComponentPad*%
%ADD25RoundRect,0.250000X0.600000X0.750000X-0.600000X0.750000X-0.600000X-0.750000X0.600000X-0.750000X0*%
%TD*%
%TA.AperFunction,ComponentPad*%
%ADD26O,1.700000X2.000000*%
%TD*%
%TA.AperFunction,Conductor*%
%ADD27C,1.000000*%
%TD*%
%TA.AperFunction,Conductor*%
%ADD28C,0.700000*%
%TD*%
%TA.AperFunction,Conductor*%
%ADD29C,1.200000*%
%TD*%
%TA.AperFunction,Conductor*%
%ADD30C,1.500000*%
%TD*%
G04 APERTURE END LIST*
D10*
%TO.P,M3,1*%
%TO.N,N/C*%
X30000000Y-42020000D03*
D11*
X30000000Y-42020000D03*
%TD*%
D10*
%TO.P,M3,1*%
%TO.N,N/C*%
X115100000Y-97420000D03*
D11*
X115100000Y-97420000D03*
%TD*%
D12*
%TO.P,A1,1,GPIO0*%
%TO.N,Net-(A1-GPIO0)*%
X114272500Y-73710000D03*
D13*
%TO.P,A1,2,GPIO1*%
%TO.N,Net-(A1-GPIO1)*%
X111732500Y-73710000D03*
D14*
%TO.P,A1,3,GND*%
%TO.N,GND*%
X109192500Y-73710000D03*
D13*
%TO.P,A1,4,GPIO2*%
%TO.N,Net-(A1-GPIO2)*%
X106652500Y-73710000D03*
%TO.P,A1,5,GPIO3*%
%TO.N,Net-(A1-GPIO3)*%
X104112500Y-73710000D03*
%TO.P,A1,6,GPIO4*%
%TO.N,Net-(A1-GPIO4)*%
X101572500Y-73710000D03*
%TO.P,A1,7,GPIO5*%
%TO.N,Net-(A1-GPIO5)*%
X99032500Y-73710000D03*
D14*
%TO.P,A1,8,GND*%
%TO.N,GND*%
X96492500Y-73710000D03*
D13*
%TO.P,A1,9,GPIO6*%
%TO.N,Net-(A1-GPIO6)*%
X93952500Y-73710000D03*
%TO.P,A1,10,GPIO7*%
%TO.N,Net-(A1-GPIO7)*%
X91412500Y-73710000D03*
%TO.P,A1,11,GPIO8*%
%TO.N,Net-(A1-GPIO8)*%
X88872500Y-73710000D03*
%TO.P,A1,12,GPIO9*%
%TO.N,Net-(A1-GPIO9)*%
X86332500Y-73710000D03*
D14*
%TO.P,A1,13,GND*%
%TO.N,GND*%
X83792500Y-73710000D03*
D13*
%TO.P,A1,14,GPIO10*%
%TO.N,Net-(A1-GPIO10)*%
X81252500Y-73710000D03*
%TO.P,A1,15,GPIO11*%
%TO.N,Net-(A1-GPIO11)*%
X78712500Y-73710000D03*
%TO.P,A1,16,GPIO12*%
%TO.N,Net-(A1-GPIO12)*%
X76172500Y-73710000D03*
%TO.P,A1,17,GPIO13*%
%TO.N,Net-(A1-GPIO13)*%
X73632500Y-73710000D03*
D14*
%TO.P,A1,18,GND*%
%TO.N,GND*%
X71092500Y-73710000D03*
D13*
%TO.P,A1,19,GPIO14*%
%TO.N,Net-(A1-GPIO14)*%
X68552500Y-73710000D03*
%TO.P,A1,20,GPIO15*%
%TO.N,Net-(A1-GPIO15)*%
X66012500Y-73710000D03*
%TO.P,A1,21,GPIO16*%
%TO.N,Net-(A1-GPIO16)*%
X66012500Y-91490000D03*
%TO.P,A1,22,GPIO17*%
%TO.N,Net-(A1-GPIO17)*%
X68552500Y-91490000D03*
D15*
%TO.P,A1,23,GND*%
%TO.N,GND*%
X71092500Y-91490000D03*
D13*
%TO.P,A1,24,GPIO18*%
%TO.N,Net-(A1-GPIO18)*%
X73632500Y-91490000D03*
%TO.P,A1,25,GPIO19*%
%TO.N,Net-(A1-GPIO19)*%
X76172500Y-91490000D03*
%TO.P,A1,26,GPIO20*%
%TO.N,Net-(A1-GPIO20)*%
X78712500Y-91490000D03*
%TO.P,A1,27,GPIO21*%
%TO.N,Net-(A1-GPIO21)*%
X81252500Y-91490000D03*
D15*
%TO.P,A1,28,GND*%
%TO.N,GND*%
X83792500Y-91490000D03*
D13*
%TO.P,A1,29,GPIO22*%
%TO.N,Net-(A1-GPIO22)*%
X86332500Y-91490000D03*
%TO.P,A1,30,RUN*%
%TO.N,unconnected-(A1-RUN-Pad30)*%
X88872500Y-91490000D03*
%TO.P,A1,31,GPIO26_ADC0*%
%TO.N,unconnected-(A1-GPIO26_ADC0-Pad31)*%
X91412500Y-91490000D03*
%TO.P,A1,32,GPIO27_ADC1*%
%TO.N,unconnected-(A1-GPIO27_ADC1-Pad32)*%
X93952500Y-91490000D03*
D15*
%TO.P,A1,33,AGND*%
%TO.N,unconnected-(A1-AGND-Pad33)*%
X96492500Y-91490000D03*
D13*
%TO.P,A1,34,GPIO28_ADC2*%
%TO.N,unconnected-(A1-GPIO28_ADC2-Pad34)*%
X99032500Y-91490000D03*
%TO.P,A1,35,ADC_VREF*%
%TO.N,unconnected-(A1-ADC_VREF-Pad35)*%
X101572500Y-91490000D03*
%TO.P,A1,36,3V3*%
%TO.N,+3.3V*%
X104112500Y-91490000D03*
%TO.P,A1,37,3V3_EN*%
%TO.N,unconnected-(A1-3V3_EN-Pad37)*%
X106652500Y-91490000D03*
D15*
%TO.P,A1,38,GND*%
%TO.N,GND*%
X109192500Y-91490000D03*
D13*
%TO.P,A1,39,VSYS*%
%TO.N,unconnected-(A1-VSYS-Pad39)*%
X111732500Y-91490000D03*
%TO.P,A1,40,VBUS*%
%TO.N,unconnected-(A1-VBUS-Pad40)*%
X114272500Y-91490000D03*
%TD*%
D16*
%TO.P,U2,1,I1*%
%TO.N,Net-(A1-GPIO7)*%
X91441750Y-68060000D03*
D13*
%TO.P,U2,2,I2*%
%TO.N,Net-(A1-GPIO6)*%
X93981750Y-68060000D03*
%TO.P,U2,3,I3*%
%TO.N,Net-(A1-GPIO5)*%
X96521750Y-68060000D03*
%TO.P,U2,4,I4*%
%TO.N,Net-(A1-GPIO4)*%
X99061750Y-68060000D03*
%TO.P,U2,5,I5*%
%TO.N,Net-(A1-GPIO3)*%
X101601750Y-68060000D03*
%TO.P,U2,6,I6*%
%TO.N,Net-(A1-GPIO2)*%
X104141750Y-68060000D03*
%TO.P,U2,7,I7*%
%TO.N,Net-(A1-GPIO1)*%
X106681750Y-68060000D03*
%TO.P,U2,8,I8*%
%TO.N,Net-(A1-GPIO0)*%
X109221750Y-68060000D03*
%TO.P,U2,9,GND*%
%TO.N,GND*%
X111761750Y-68060000D03*
%TO.P,U2,10,COM*%
%TO.N,unconnected-(U2-COM-Pad10)*%
X111761750Y-60440000D03*
%TO.P,U2,11,O8*%
%TO.N,Net-(J11-Pin_1)*%
X109221750Y-60440000D03*
%TO.P,U2,12,O7*%
%TO.N,Net-(J10-Pin_1)*%
X106681750Y-60440000D03*
%TO.P,U2,13,O6*%
%TO.N,Net-(T6-PUL-)*%
X104141750Y-60440000D03*
%TO.P,U2,14,O5*%
%TO.N,Net-(T6-DIR-)*%
X101601750Y-60440000D03*
%TO.P,U2,15,O4*%
%TO.N,Net-(T5-PUL-)*%
X99061750Y-60440000D03*
%TO.P,U2,16,O3*%
%TO.N,Net-(T5-DIR-)*%
X96521750Y-60440000D03*
%TO.P,U2,17,O2*%
%TO.N,Net-(T4-PUL-)*%
X93981750Y-60440000D03*
%TO.P,U2,18,O1*%
%TO.N,Net-(T4-DIR-)*%
X91441750Y-60440000D03*
%TD*%
D10*
%TO.P,M3,1*%
%TO.N,N/C*%
X30000000Y-66020000D03*
D11*
X30000000Y-66020000D03*
%TD*%
D16*
%TO.P,U1,1,I1*%
%TO.N,Net-(A1-GPIO15)*%
X66051750Y-68060000D03*
D13*
%TO.P,U1,2,I2*%
%TO.N,Net-(A1-GPIO14)*%
X68591750Y-68060000D03*
%TO.P,U1,3,I3*%
%TO.N,Net-(A1-GPIO13)*%
X71131750Y-68060000D03*
%TO.P,U1,4,I4*%
%TO.N,Net-(A1-GPIO12)*%
X73671750Y-68060000D03*
%TO.P,U1,5,I5*%
%TO.N,Net-(A1-GPIO11)*%
X76211750Y-68060000D03*
%TO.P,U1,6,I6*%
%TO.N,Net-(A1-GPIO10)*%
X78751750Y-68060000D03*
%TO.P,U1,7,I7*%
%TO.N,Net-(A1-GPIO9)*%
X81291750Y-68060000D03*
%TO.P,U1,8,I8*%
%TO.N,Net-(A1-GPIO8)*%
X83831750Y-68060000D03*
%TO.P,U1,9,GND*%
%TO.N,GND*%
X86371750Y-68060000D03*
%TO.P,U1,10,COM*%
%TO.N,unconnected-(U1-COM-Pad10)*%
X86371750Y-60440000D03*
%TO.P,U1,11,O8*%
%TO.N,Net-(J9-Pin_1)*%
X83831750Y-60440000D03*
%TO.P,U1,12,O7*%
%TO.N,Net-(T3-PUL-)*%
X81291750Y-60440000D03*
%TO.P,U1,13,O6*%
%TO.N,Net-(T3-DIR-)*%
X78751750Y-60440000D03*
%TO.P,U1,14,O5*%
%TO.N,Net-(T2-PUL-)*%
X76211750Y-60440000D03*
%TO.P,U1,15,O4*%
%TO.N,Net-(T2-DIR-)*%
X73671750Y-60440000D03*
%TO.P,U1,16,O3*%
%TO.N,Net-(T1-PUL-)*%
X71131750Y-60440000D03*
%TO.P,U1,17,O2*%
%TO.N,Net-(T1-DIR-)*%
X68591750Y-60440000D03*
%TO.P,U1,18,O1*%
%TO.N,Net-(T1-ENA-)*%
X66051750Y-60440000D03*
%TD*%
D17*
%TO.P,J10,1,Pin_1*%
%TO.N,Net-(J10-Pin_1)*%
X57691750Y-62385000D03*
D18*
%TO.P,J10,2,Pin_2*%
%TO.N,Net-(A1-GPIO0)*%
X55191750Y-62385000D03*
%TO.P,J10,3,Pin_3*%
%TO.N,GND*%
X52691750Y-62385000D03*
%TO.P,J10,4,Pin_4*%
%TO.N,+5V*%
X50191750Y-62385000D03*
%TD*%
D19*
%TO.P,T2,1,ENA-*%
%TO.N,Net-(T1-ENA-)*%
X78637750Y-38070000D03*
D20*
%TO.P,T2,2,ENA+*%
%TO.N,+5V*%
X78637750Y-40570000D03*
%TO.P,T2,3,DIR-*%
%TO.N,Net-(T2-DIR-)*%
X78637750Y-43070000D03*
%TO.P,T2,4,DIR+*%
%TO.N,+5V*%
X78637750Y-45570000D03*
%TO.P,T2,5,PUL-*%
%TO.N,Net-(T2-PUL-)*%
X78637750Y-48070000D03*
%TO.P,T2,6,PUL+*%
%TO.N,+5V*%
X78637750Y-50570000D03*
%TD*%
D19*
%TO.P,T6,1,ENA-*%
%TO.N,Net-(T1-ENA-)*%
X110581750Y-38070000D03*
D20*
%TO.P,T6,2,ENA+*%
%TO.N,+5V*%
X110581750Y-40570000D03*
%TO.P,T6,3,DIR-*%
%TO.N,Net-(T6-DIR-)*%
X110581750Y-43070000D03*
%TO.P,T6,4,DIR+*%
%TO.N,+5V*%
X110581750Y-45570000D03*
%TO.P,T6,5,PUL-*%
%TO.N,Net-(T6-PUL-)*%
X110581750Y-48070000D03*
%TO.P,T6,6,PUL+*%
%TO.N,+5V*%
X110581750Y-50570000D03*
%TD*%
D21*
%TO.P,J7,1,Pin_1*%
%TO.N,+3.3V*%
X53701750Y-84010000D03*
D20*
%TO.P,J7,2,Pin_2*%
%TO.N,Net-(A1-GPIO16)*%
X53701750Y-81510000D03*
%TO.P,J7,3,Pin_3*%
%TO.N,GND*%
X53701750Y-79010000D03*
%TD*%
D17*
%TO.P,J11,1,Pin_1*%
%TO.N,Net-(J11-Pin_1)*%
X57691750Y-69770000D03*
D18*
%TO.P,J11,2,Pin_2*%
%TO.N,Net-(A1-GPIO1)*%
X55191750Y-69770000D03*
%TO.P,J11,3,Pin_3*%
%TO.N,GND*%
X52691750Y-69770000D03*
%TO.P,J11,4,Pin_4*%
%TO.N,+5V*%
X50191750Y-69770000D03*
%TD*%
D17*
%TO.P,J9,1,Pin_1*%
%TO.N,Net-(J9-Pin_1)*%
X57691750Y-55000000D03*
D18*
%TO.P,J9,2,Pin_2*%
%TO.N,Net-(A1-GPIO8)*%
X55191750Y-55000000D03*
%TO.P,J9,3,Pin_3*%
%TO.N,GND*%
X52691750Y-55000000D03*
%TO.P,J9,4,Pin_4*%
%TO.N,+5V*%
X50191750Y-55000000D03*
%TD*%
D17*
%TO.P,J1,1,Pin_1*%
%TO.N,+3.3V*%
X88821750Y-96820000D03*
D18*
%TO.P,J1,2,Pin_2*%
%TO.N,Net-(A1-GPIO22)*%
X86321750Y-96820000D03*
%TO.P,J1,3,Pin_3*%
%TO.N,GND*%
X83821750Y-96820000D03*
%TD*%
D21*
%TO.P,J5,1,Pin_1*%
%TO.N,+3.3V*%
X34071750Y-84010000D03*
D20*
%TO.P,J5,2,Pin_2*%
%TO.N,Net-(A1-GPIO18)*%
X34071750Y-81510000D03*
%TO.P,J5,3,Pin_3*%
%TO.N,GND*%
X34071750Y-79010000D03*
%TD*%
D19*
%TO.P,T4,1,ENA-*%
%TO.N,Net-(T1-ENA-)*%
X94609750Y-38070000D03*
D20*
%TO.P,T4,2,ENA+*%
%TO.N,+5V*%
X94609750Y-40570000D03*
%TO.P,T4,3,DIR-*%
%TO.N,Net-(T4-DIR-)*%
X94609750Y-43070000D03*
%TO.P,T4,4,DIR+*%
%TO.N,+5V*%
X94609750Y-45570000D03*
%TO.P,T4,5,PUL-*%
%TO.N,Net-(T4-PUL-)*%
X94609750Y-48070000D03*
%TO.P,T4,6,PUL+*%
%TO.N,+5V*%
X94609750Y-50570000D03*
%TD*%
D21*
%TO.P,J2,1,Pin_1*%
%TO.N,+3.3V*%
X34041750Y-96860000D03*
D20*
%TO.P,J2,2,Pin_2*%
%TO.N,Net-(A1-GPIO21)*%
X34041750Y-94360000D03*
%TO.P,J2,3,Pin_3*%
%TO.N,GND*%
X34041750Y-91860000D03*
%TD*%
D22*
%TO.P,R1,1*%
%TO.N,Net-(A1-GPIO15)*%
X41121750Y-71860000D03*
%TO.P,R1,2*%
%TO.N,Net-(D1-A)*%
X41121750Y-51540000D03*
%TD*%
D21*
%TO.P,J4,1,Pin_1*%
%TO.N,+3.3V*%
X53671750Y-96860000D03*
D20*
%TO.P,J4,2,Pin_2*%
%TO.N,Net-(A1-GPIO19)*%
X53671750Y-94360000D03*
%TO.P,J4,3,Pin_3*%
%TO.N,GND*%
X53671750Y-91860000D03*
%TD*%
D23*
%TO.P,D1,1,K*%
%TO.N,GND*%
X43621750Y-42980000D03*
D24*
%TO.P,D1,2,A*%
%TO.N,Net-(D1-A)*%
X41081750Y-42980000D03*
%TD*%
D19*
%TO.P,T3,1,ENA-*%
%TO.N,Net-(T1-ENA-)*%
X86623750Y-38070000D03*
D20*
%TO.P,T3,2,ENA+*%
%TO.N,+5V*%
X86623750Y-40570000D03*
%TO.P,T3,3,DIR-*%
%TO.N,Net-(T3-DIR-)*%
X86623750Y-43070000D03*
%TO.P,T3,4,DIR+*%
%TO.N,+5V*%
X86623750Y-45570000D03*
%TO.P,T3,5,PUL-*%
%TO.N,Net-(T3-PUL-)*%
X86623750Y-48070000D03*
%TO.P,T3,6,PUL+*%
%TO.N,+5V*%
X86623750Y-50570000D03*
%TD*%
D21*
%TO.P,J3,1,Pin_1*%
%TO.N,+3.3V*%
X43856750Y-96860000D03*
D20*
%TO.P,J3,2,Pin_2*%
%TO.N,Net-(A1-GPIO20)*%
X43856750Y-94360000D03*
%TO.P,J3,3,Pin_3*%
%TO.N,GND*%
X43856750Y-91860000D03*
%TD*%
D19*
%TO.P,T5,1,ENA-*%
%TO.N,Net-(T1-ENA-)*%
X102595750Y-38070000D03*
D20*
%TO.P,T5,2,ENA+*%
%TO.N,+5V*%
X102595750Y-40570000D03*
%TO.P,T5,3,DIR-*%
%TO.N,Net-(T5-DIR-)*%
X102595750Y-43070000D03*
%TO.P,T5,4,DIR+*%
%TO.N,+5V*%
X102595750Y-45570000D03*
%TO.P,T5,5,PUL-*%
%TO.N,Net-(T5-PUL-)*%
X102595750Y-48070000D03*
%TO.P,T5,6,PUL+*%
%TO.N,+5V*%
X102595750Y-50570000D03*
%TD*%
D21*
%TO.P,J6,1,Pin_1*%
%TO.N,+3.3V*%
X43886750Y-84010000D03*
D20*
%TO.P,J6,2,Pin_2*%
%TO.N,Net-(A1-GPIO17)*%
X43886750Y-81510000D03*
%TO.P,J6,3,Pin_3*%
%TO.N,GND*%
X43886750Y-79010000D03*
%TD*%
D25*
%TO.P,J8,1,Pin_1*%
%TO.N,+5V*%
X57101750Y-40560000D03*
D26*
%TO.P,J8,2,Pin_2*%
%TO.N,GND*%
X54601750Y-40560000D03*
%TD*%
D19*
%TO.P,T1,1,ENA-*%
%TO.N,Net-(T1-ENA-)*%
X70651750Y-38070000D03*
D20*
%TO.P,T1,2,ENA+*%
%TO.N,+5V*%
X70651750Y-40570000D03*
%TO.P,T1,3,DIR-*%
%TO.N,Net-(T1-DIR-)*%
X70651750Y-43070000D03*
%TO.P,T1,4,DIR+*%
%TO.N,+5V*%
X70651750Y-45570000D03*
%TO.P,T1,5,PUL-*%
%TO.N,Net-(T1-PUL-)*%
X70651750Y-48070000D03*
%TO.P,T1,6,PUL+*%
%TO.N,+5V*%
X70651750Y-50570000D03*
%TD*%
D27*
%TO.N,GND*%
X54651750Y-71730000D02*
X69251750Y-71730000D01*
D28*
X96492500Y-73710000D02*
X93052500Y-70270000D01*
D27*
X54601750Y-40560000D02*
X46041750Y-40560000D01*
D28*
X83821750Y-70610000D02*
X86371750Y-68060000D01*
D27*
X54591750Y-40570000D02*
X54601750Y-40560000D01*
X52691750Y-55000000D02*
X52691750Y-42470000D01*
X52691750Y-69770000D02*
X54651750Y-71730000D01*
X54651750Y-71730000D02*
X53701750Y-72680000D01*
D28*
X93052500Y-70270000D02*
X88581750Y-70270000D01*
D27*
X52691750Y-62385000D02*
X52691750Y-69770000D01*
X46041750Y-40560000D02*
X43621750Y-42980000D01*
X69251750Y-71730000D02*
X71121750Y-73600000D01*
D28*
X83821750Y-70610000D02*
X83821750Y-73600000D01*
D27*
X52691750Y-55000000D02*
X52691750Y-62385000D01*
X53701750Y-72680000D02*
X53701750Y-79010000D01*
D28*
X111761750Y-71060000D02*
X111761750Y-68060000D01*
X111761750Y-71060000D02*
X109221750Y-73600000D01*
X88581750Y-70270000D02*
X86371750Y-68060000D01*
D27*
X52691750Y-42470000D02*
X54601750Y-40560000D01*
D28*
%TO.N,Net-(A1-GPIO1)*%
X55191750Y-69770000D02*
X59081750Y-65880000D01*
X59081750Y-65880000D02*
X104501750Y-65880000D01*
X104501750Y-65880000D02*
X106681750Y-68060000D01*
%TO.N,Net-(A1-GPIO19)*%
X70971750Y-96610000D02*
X76201750Y-91380000D01*
X55921750Y-96610000D02*
X70971750Y-96610000D01*
X53671750Y-94360000D02*
X55921750Y-96610000D01*
%TO.N,Net-(A1-GPIO21)*%
X35140000Y-94360000D02*
X40550000Y-99770000D01*
X72891750Y-99770000D02*
X81281750Y-91380000D01*
X40550000Y-99770000D02*
X72891750Y-99770000D01*
X34041750Y-94360000D02*
X35140000Y-94360000D01*
%TO.N,Net-(A1-GPIO20)*%
X43856750Y-94360000D02*
X45240000Y-94360000D01*
X71681750Y-98440000D02*
X78741750Y-91380000D01*
X45240000Y-94360000D02*
X49320000Y-98440000D01*
X49320000Y-98440000D02*
X71681750Y-98440000D01*
%TO.N,Net-(A1-GPIO16)*%
X53701750Y-81510000D02*
X56190000Y-81510000D01*
X66041750Y-91361750D02*
X66041750Y-91380000D01*
X56190000Y-81510000D02*
X66041750Y-91361750D01*
%TO.N,Net-(A1-GPIO17)*%
X54761750Y-86730000D02*
X62261750Y-94230000D01*
X62261750Y-94230000D02*
X66931750Y-94230000D01*
X66931750Y-94230000D02*
X68581750Y-92580000D01*
X44860000Y-81510000D02*
X50080000Y-86730000D01*
X68581750Y-92580000D02*
X68581750Y-91380000D01*
X50080000Y-86730000D02*
X54761750Y-86730000D01*
X44011750Y-81510000D02*
X44860000Y-81510000D01*
D29*
%TO.N,+3.3V*%
X31041750Y-85600000D02*
X32631750Y-84010000D01*
X32631750Y-84010000D02*
X34071750Y-84010000D01*
X32721750Y-96860000D02*
X31041750Y-95180000D01*
X31041750Y-95180000D02*
X31041750Y-85600000D01*
X34041750Y-96860000D02*
X32721750Y-96860000D01*
D28*
%TO.N,Net-(A1-GPIO18)*%
X53760000Y-88070000D02*
X61170000Y-95480000D01*
X34071750Y-81510000D02*
X35460000Y-81510000D01*
X61170000Y-95480000D02*
X69561750Y-95480000D01*
X35460000Y-81510000D02*
X42020000Y-88070000D01*
X42020000Y-88070000D02*
X53760000Y-88070000D01*
X69561750Y-95480000D02*
X73661750Y-91380000D01*
%TO.N,Net-(A1-GPIO0)*%
X55191750Y-63521750D02*
X56330000Y-64660000D01*
X56330000Y-64660000D02*
X105821750Y-64660000D01*
X105821750Y-64660000D02*
X109221750Y-68060000D01*
X55191750Y-62385000D02*
X55191750Y-63521750D01*
D27*
%TO.N,Net-(D1-A)*%
X41121750Y-51540000D02*
X41121750Y-43020000D01*
D30*
%TO.N,+5V*%
X57131750Y-40530000D02*
X57101750Y-40560000D01*
X67951750Y-49111750D02*
X67951750Y-44230000D01*
X70651750Y-45570000D02*
X110581750Y-45570000D01*
X86531750Y-50570000D02*
X85170000Y-50570000D01*
X70651750Y-50570000D02*
X69410000Y-50570000D01*
X109130000Y-50570000D02*
X108201750Y-49641750D01*
X83841750Y-40570000D02*
X70651750Y-40570000D01*
X83831750Y-49231750D02*
X83831750Y-40580000D01*
X50191750Y-55000000D02*
X50191750Y-69770000D01*
X110581750Y-50570000D02*
X70651750Y-50570000D01*
X110581750Y-50570000D02*
X109130000Y-50570000D01*
X83831750Y-40580000D02*
X83841750Y-40570000D01*
X69410000Y-50570000D02*
X67951750Y-49111750D01*
X69291750Y-45570000D02*
X67951750Y-44230000D01*
X108201750Y-49641750D02*
X108201750Y-40570000D01*
X108201750Y-40570000D02*
X83841750Y-40570000D01*
X70651750Y-40570000D02*
X67951750Y-40570000D01*
X67941750Y-40560000D02*
X67951750Y-40570000D01*
X67951750Y-44230000D02*
X67951750Y-40570000D01*
X70651750Y-45570000D02*
X69291750Y-45570000D01*
X110581750Y-40570000D02*
X108201750Y-40570000D01*
X57101750Y-40560000D02*
X67941750Y-40560000D01*
X85170000Y-50570000D02*
X83831750Y-49231750D01*
D28*
%TO.N,Net-(J9-Pin_1)*%
X78391750Y-55000000D02*
X83831750Y-60440000D01*
X57691750Y-55000000D02*
X78391750Y-55000000D01*
%TD*%
%TA.AperFunction,Conductor*%
%TO.N,GND*%
G36*
X118144289Y-33420185D02*
G01*
X118190044Y-33472989D01*
X118201250Y-33524500D01*
X118201250Y-74877010D01*
X118181565Y-74944049D01*
X118128761Y-74989804D01*
X118077335Y-75001010D01*
X115469802Y-75002802D01*
X115402749Y-74983163D01*
X115356958Y-74930391D01*
X115346967Y-74861239D01*
X115375948Y-74797664D01*
X115382037Y-74791120D01*
X115427969Y-74745188D01*
X115427972Y-74745185D01*
X115515978Y-74599606D01*
X115566586Y-74437196D01*
X115573000Y-74366616D01*
X115573000Y-73053384D01*
X115566586Y-72982804D01*
X115515978Y-72820394D01*
X115427972Y-72674815D01*
X115427970Y-72674813D01*
X115427969Y-72674811D01*
X115307688Y-72554530D01*
X115162106Y-72466522D01*
X114999696Y-72415914D01*
X114999694Y-72415913D01*
X114999692Y-72415913D01*
X114950278Y-72411423D01*
X114929116Y-72409500D01*
X113615884Y-72409500D01*
X113596645Y-72411248D01*
X113545307Y-72415913D01*
X113382893Y-72466522D01*
X113237311Y-72554530D01*
X113117030Y-72674811D01*
X113029021Y-72820396D01*
X113001858Y-72907565D01*
X112963120Y-72965712D01*
X112899095Y-72993686D01*
X112830110Y-72982604D01*
X112783155Y-72943559D01*
X112724471Y-72862786D01*
X112579713Y-72718028D01*
X112414113Y-72597715D01*
X112414112Y-72597714D01*
X112414110Y-72597713D01*
X112329355Y-72554528D01*
X112231723Y-72504781D01*
X112037034Y-72441522D01*
X111862495Y-72413878D01*
X111834852Y-72409500D01*
X111630148Y-72409500D01*
X111605829Y-72413351D01*
X111427965Y-72441522D01*
X111233276Y-72504781D01*
X111050886Y-72597715D01*
X110885286Y-72718028D01*
X110740528Y-72862786D01*
X110620215Y-73028386D01*
X110527281Y-73210776D01*
X110464022Y-73405465D01*
X110432000Y-73607648D01*
X110432000Y-73812351D01*
X110464022Y-74014534D01*
X110527281Y-74209223D01*
X110591191Y-74334653D01*
X110607476Y-74366613D01*
X110620215Y-74391613D01*
X110740528Y-74557213D01*
X110740534Y-74557219D01*
X110885281Y-74701966D01*
X110994903Y-74781610D01*
X111037568Y-74836939D01*
X111043547Y-74906552D01*
X111010942Y-74968348D01*
X110950104Y-75002705D01*
X110922102Y-75005928D01*
X107459792Y-75008308D01*
X107392739Y-74988669D01*
X107346948Y-74935897D01*
X107336957Y-74866745D01*
X107365938Y-74803170D01*
X107386817Y-74783992D01*
X107499719Y-74701966D01*
X107644466Y-74557219D01*
X107644468Y-74557215D01*
X107644471Y-74557213D01*
X107703154Y-74476441D01*
X107764787Y-74391610D01*
X107857720Y-74209219D01*
X107920977Y-74014534D01*
X107953000Y-73812352D01*
X107953000Y-73607648D01*
X107920977Y-73405466D01*
X107857720Y-73210781D01*
X107857718Y-73210778D01*
X107857718Y-73210776D01*
X107812015Y-73121080D01*
X107764787Y-73028390D01*
X107739573Y-72993686D01*
X107644471Y-72862786D01*
X107499713Y-72718028D01*
X107334113Y-72597715D01*
X107334112Y-72597714D01*
X107334110Y-72597713D01*
X107249355Y-72554528D01*
X107151723Y-72504781D01*
X106957034Y-72441522D01*
X106782495Y-72413878D01*
X106754852Y-72409500D01*
X106550148Y-72409500D01*
X106525829Y-72413351D01*
X106347965Y-72441522D01*
X106153276Y-72504781D01*
X105970886Y-72597715D01*
X105805286Y-72718028D01*
X105660528Y-72862786D01*
X105540215Y-73028386D01*
X105492985Y-73121080D01*
X105445010Y-73171876D01*
X105377189Y-73188671D01*
X105311054Y-73166134D01*
X105272015Y-73121080D01*
X105271383Y-73119840D01*
X105224787Y-73028390D01*
X105199573Y-72993686D01*
X105104471Y-72862786D01*
X104959713Y-72718028D01*
X104794113Y-72597715D01*
X104794112Y-72597714D01*
X104794110Y-72597713D01*
X104709355Y-72554528D01*
X104611723Y-72504781D01*
X104417034Y-72441522D01*
X104242495Y-72413878D01*
X104214852Y-72409500D01*
X104010148Y-72409500D01*
X103985829Y-72413351D01*
X103807965Y-72441522D01*
X103613276Y-72504781D01*
X103430886Y-72597715D01*
X103265286Y-72718028D01*
X103120528Y-72862786D01*
X103000215Y-73028386D01*
X102952985Y-73121080D01*
X102905010Y-73171876D01*
X102837189Y-73188671D01*
X102771054Y-73166134D01*
X102732015Y-73121080D01*
X102731383Y-73119840D01*
X102684787Y-73028390D01*
X102659573Y-72993686D01*
X102564471Y-72862786D01*
X102419713Y-72718028D01*
X102254113Y-72597715D01*
X102254112Y-72597714D01*
X102254110Y-72597713D01*
X102169355Y-72554528D01*
X102071723Y-72504781D01*
X101877034Y-72441522D01*
X101702495Y-72413878D01*
X101674852Y-72409500D01*
X101470148Y-72409500D01*
X101445829Y-72413351D01*
X101267965Y-72441522D01*
X101073276Y-72504781D01*
X100890886Y-72597715D01*
X100725286Y-72718028D01*
X100580528Y-72862786D01*
X100460215Y-73028386D01*
X100412985Y-73121080D01*
X100365010Y-73171876D01*
X100297189Y-73188671D01*
X100231054Y-73166134D01*
X100192015Y-73121080D01*
X100191383Y-73119840D01*
X100144787Y-73028390D01*
X100119573Y-72993686D01*
X100024471Y-72862786D01*
X99879713Y-72718028D01*
X99714113Y-72597715D01*
X99714112Y-72597714D01*
X99714110Y-72597713D01*
X99629355Y-72554528D01*
X99531723Y-72504781D01*
X99337034Y-72441522D01*
X99162495Y-72413878D01*
X99134852Y-72409500D01*
X98930148Y-72409500D01*
X98905829Y-72413351D01*
X98727965Y-72441522D01*
X98533276Y-72504781D01*
X98350886Y-72597715D01*
X98185286Y-72718028D01*
X98040528Y-72862786D01*
X97920215Y-73028386D01*
X97827281Y-73210776D01*
X97764022Y-73405465D01*
X97732000Y-73607648D01*
X97732000Y-73812351D01*
X97764022Y-74014534D01*
X97827281Y-74209223D01*
X97891191Y-74334653D01*
X97907476Y-74366613D01*
X97920215Y-74391613D01*
X98040528Y-74557213D01*
X98040534Y-74557219D01*
X98185281Y-74701966D01*
X98306904Y-74790330D01*
X98349570Y-74845659D01*
X98355549Y-74915272D01*
X98322944Y-74977068D01*
X98262105Y-75011425D01*
X98234104Y-75014648D01*
X94747767Y-75017045D01*
X94680714Y-74997407D01*
X94634923Y-74944634D01*
X94624932Y-74875482D01*
X94653913Y-74811907D01*
X94674794Y-74792727D01*
X94799719Y-74701966D01*
X94944466Y-74557219D01*
X94944468Y-74557215D01*
X94944471Y-74557213D01*
X95003154Y-74476441D01*
X95064787Y-74391610D01*
X95157720Y-74209219D01*
X95220977Y-74014534D01*
X95253000Y-73812352D01*
X95253000Y-73607648D01*
X95220977Y-73405466D01*
X95157720Y-73210781D01*
X95157718Y-73210778D01*
X95157718Y-73210776D01*
X95112015Y-73121080D01*
X95064787Y-73028390D01*
X95039573Y-72993686D01*
X94944471Y-72862786D01*
X94799713Y-72718028D01*
X94634113Y-72597715D01*
X94634112Y-72597714D01*
X94634110Y-72597713D01*
X94549355Y-72554528D01*
X94451723Y-72504781D01*
X94257034Y-72441522D01*
X94082495Y-72413878D01*
X94054852Y-72409500D01*
X93850148Y-72409500D01*
X93825829Y-72413351D01*
X93647965Y-72441522D01*
X93453276Y-72504781D01*
X93270886Y-72597715D01*
X93105286Y-72718028D01*
X92960528Y-72862786D01*
X92840215Y-73028386D01*
X92792985Y-73121080D01*
X92745010Y-73171876D01*
X92677189Y-73188671D01*
X92611054Y-73166134D01*
X92572015Y-73121080D01*
X92571383Y-73119840D01*
X92524787Y-73028390D01*
X92499573Y-72993686D01*
X92404471Y-72862786D01*
X92259713Y-72718028D01*
X92094113Y-72597715D01*
X92094112Y-72597714D01*
X92094110Y-72597713D01*
X92009355Y-72554528D01*
X91911723Y-72504781D01*
X91717034Y-72441522D01*
X91542495Y-72413878D01*
X91514852Y-72409500D01*
X91310148Y-72409500D01*
X91285829Y-72413351D01*
X91107965Y-72441522D01*
X90913276Y-72504781D01*
X90730886Y-72597715D01*
X90565286Y-72718028D01*
X90420528Y-72862786D01*
X90300215Y-73028386D01*
X90252985Y-73121080D01*
X90205010Y-73171876D01*
X90137189Y-73188671D01*
X90071054Y-73166134D01*
X90032015Y-73121080D01*
X90031383Y-73119840D01*
X89984787Y-73028390D01*
X89959573Y-72993686D01*
X89864471Y-72862786D01*
X89719713Y-72718028D01*
X89554113Y-72597715D01*
X89554112Y-72597714D01*
X89554110Y-72597713D01*
X89469355Y-72554528D01*
X89371723Y-72504781D01*
X89177034Y-72441522D01*
X89002495Y-72413878D01*
X88974852Y-72409500D01*
X88770148Y-72409500D01*
X88745829Y-72413351D01*
X88567965Y-72441522D01*
X88373276Y-72504781D01*
X88190886Y-72597715D01*
X88025286Y-72718028D01*
X87880528Y-72862786D01*
X87760215Y-73028386D01*
X87712985Y-73121080D01*
X87665010Y-73171876D01*
X87597189Y-73188671D01*
X87531054Y-73166134D01*
X87492015Y-73121080D01*
X87491383Y-73119840D01*
X87444787Y-73028390D01*
X87419573Y-72993686D01*
X87324471Y-72862786D01*
X87179713Y-72718028D01*
X87014113Y-72597715D01*
X87014112Y-72597714D01*
X87014110Y-72597713D01*
X86929355Y-72554528D01*
X86831723Y-72504781D01*
X86637034Y-72441522D01*
X86462495Y-72413878D01*
X86434852Y-72409500D01*
X86230148Y-72409500D01*
X86205829Y-72413351D01*
X86027965Y-72441522D01*
X85833276Y-72504781D01*
X85650886Y-72597715D01*
X85485286Y-72718028D01*
X85340528Y-72862786D01*
X85220215Y-73028386D01*
X85127281Y-73210776D01*
X85064022Y-73405465D01*
X85032000Y-73607648D01*
X85032000Y-73812351D01*
X85064022Y-74014534D01*
X85127281Y-74209223D01*
X85191191Y-74334653D01*
X85207476Y-74366613D01*
X85220215Y-74391613D01*
X85340528Y-74557213D01*
X85485286Y-74701971D01*
X85618907Y-74799051D01*
X85661573Y-74854380D01*
X85667552Y-74923994D01*
X85634947Y-74985789D01*
X85574108Y-75020146D01*
X85546107Y-75023369D01*
X82035741Y-75025782D01*
X81968688Y-75006143D01*
X81922897Y-74953371D01*
X81912906Y-74884219D01*
X81941887Y-74820644D01*
X81962767Y-74801466D01*
X82099719Y-74701966D01*
X82244466Y-74557219D01*
X82244468Y-74557215D01*
X82244471Y-74557213D01*
X82303154Y-74476441D01*
X82364787Y-74391610D01*
X82457720Y-74209219D01*
X82520977Y-74014534D01*
X82553000Y-73812352D01*
X82553000Y-73607648D01*
X82520977Y-73405466D01*
X82457720Y-73210781D01*
X82457718Y-73210778D01*
X82457718Y-73210776D01*
X82412015Y-73121080D01*
X82364787Y-73028390D01*
X82339573Y-72993686D01*
X82244471Y-72862786D01*
X82099713Y-72718028D01*
X81934113Y-72597715D01*
X81934112Y-72597714D01*
X81934110Y-72597713D01*
X81849355Y-72554528D01*
X81751723Y-72504781D01*
X81557034Y-72441522D01*
X81382495Y-72413878D01*
X81354852Y-72409500D01*
X81150148Y-72409500D01*
X81125829Y-72413351D01*
X80947965Y-72441522D01*
X80753276Y-72504781D01*
X80570886Y-72597715D01*
X80405286Y-72718028D01*
X80260528Y-72862786D01*
X80140215Y-73028386D01*
X80092985Y-73121080D01*
X80045010Y-73171876D01*
X79977189Y-73188671D01*
X79911054Y-73166134D01*
X79872015Y-73121080D01*
X79871383Y-73119840D01*
X79824787Y-73028390D01*
X79799573Y-72993686D01*
X79704471Y-72862786D01*
X79559713Y-72718028D01*
X79394113Y-72597715D01*
X79394112Y-72597714D01*
X79394110Y-72597713D01*
X79309355Y-72554528D01*
X79211723Y-72504781D01*
X79017034Y-72441522D01*
X78842495Y-72413878D01*
X78814852Y-72409500D01*
X78610148Y-72409500D01*
X78585829Y-72413351D01*
X78407965Y-72441522D01*
X78213276Y-72504781D01*
X78030886Y-72597715D01*
X77865286Y-72718028D01*
X77720528Y-72862786D01*
X77600215Y-73028386D01*
X77552985Y-73121080D01*
X77505010Y-73171876D01*
X77437189Y-73188671D01*
X77371054Y-73166134D01*
X77332015Y-73121080D01*
X77331383Y-73119840D01*
X77284787Y-73028390D01*
X77259573Y-72993686D01*
X77164471Y-72862786D01*
X77019713Y-72718028D01*
X76854113Y-72597715D01*
X76854112Y-72597714D01*
X76854110Y-72597713D01*
X76769355Y-72554528D01*
X76671723Y-72504781D01*
X76477034Y-72441522D01*
X76302495Y-72413878D01*
X76274852Y-72409500D01*
X76070148Y-72409500D01*
X76045829Y-72413351D01*
X75867965Y-72441522D01*
X75673276Y-72504781D01*
X75490886Y-72597715D01*
X75325286Y-72718028D01*
X75180528Y-72862786D01*
X75060215Y-73028386D01*
X75012985Y-73121080D01*
X74965010Y-73171876D01*
X74897189Y-73188671D01*
X74831054Y-73166134D01*
X74792015Y-73121080D01*
X74791383Y-73119840D01*
X74744787Y-73028390D01*
X74719573Y-72993686D01*
X74624471Y-72862786D01*
X74479713Y-72718028D01*
X74314113Y-72597715D01*
X74314112Y-72597714D01*
X74314110Y-72597713D01*
X74229355Y-72554528D01*
X74131723Y-72504781D01*
X73937034Y-72441522D01*
X73762495Y-72413878D01*
X73734852Y-72409500D01*
X73530148Y-72409500D01*
X73505829Y-72413351D01*
X73327965Y-72441522D01*
X73133276Y-72504781D01*
X72950886Y-72597715D01*
X72785286Y-72718028D01*
X72640528Y-72862786D01*
X72520215Y-73028386D01*
X72427281Y-73210776D01*
X72364022Y-73405465D01*
X72332000Y-73607648D01*
X72332000Y-73812351D01*
X72364022Y-74014534D01*
X72427281Y-74209223D01*
X72491191Y-74334653D01*
X72507476Y-74366613D01*
X72520215Y-74391613D01*
X72640528Y-74557213D01*
X72785282Y-74701967D01*
X72785287Y-74701971D01*
X72930910Y-74807772D01*
X72973576Y-74863101D01*
X72979555Y-74932715D01*
X72946950Y-74994510D01*
X72886111Y-75028867D01*
X72858110Y-75032090D01*
X69323715Y-75034519D01*
X69256662Y-75014880D01*
X69210871Y-74962108D01*
X69200880Y-74892956D01*
X69229861Y-74829381D01*
X69250739Y-74810205D01*
X69399719Y-74701966D01*
X69544466Y-74557219D01*
X69544468Y-74557215D01*
X69544471Y-74557213D01*
X69603154Y-74476441D01*
X69664787Y-74391610D01*
X69757720Y-74209219D01*
X69820977Y-74014534D01*
X69853000Y-73812352D01*
X69853000Y-73607648D01*
X69820977Y-73405466D01*
X69757720Y-73210781D01*
X69757718Y-73210778D01*
X69757718Y-73210776D01*
X69712015Y-73121080D01*
X69664787Y-73028390D01*
X69639573Y-72993686D01*
X69544471Y-72862786D01*
X69399713Y-72718028D01*
X69234113Y-72597715D01*
X69234112Y-72597714D01*
X69234110Y-72597713D01*
X69149355Y-72554528D01*
X69051723Y-72504781D01*
X68857034Y-72441522D01*
X68682495Y-72413878D01*
X68654852Y-72409500D01*
X68450148Y-72409500D01*
X68425829Y-72413351D01*
X68247965Y-72441522D01*
X68053276Y-72504781D01*
X67870886Y-72597715D01*
X67705286Y-72718028D01*
X67560528Y-72862786D01*
X67440215Y-73028386D01*
X67392985Y-73121080D01*
X67345010Y-73171876D01*
X67277189Y-73188671D01*
X67211054Y-73166134D01*
X67172015Y-73121080D01*
X67171383Y-73119840D01*
X67124787Y-73028390D01*
X67099573Y-72993686D01*
X67004471Y-72862786D01*
X66859713Y-72718028D01*
X66694113Y-72597715D01*
X66694112Y-72597714D01*
X66694110Y-72597713D01*
X66609355Y-72554528D01*
X66511723Y-72504781D01*
X66317034Y-72441522D01*
X66142495Y-72413878D01*
X66114852Y-72409500D01*
X65910148Y-72409500D01*
X65885829Y-72413351D01*
X65707965Y-72441522D01*
X65513276Y-72504781D01*
X65330886Y-72597715D01*
X65165286Y-72718028D01*
X65020528Y-72862786D01*
X64900215Y-73028386D01*
X64807281Y-73210776D01*
X64744022Y-73405465D01*
X64712000Y-73607648D01*
X64712000Y-73812351D01*
X64744022Y-74014534D01*
X64807281Y-74209223D01*
X64871191Y-74334653D01*
X64887476Y-74366613D01*
X64900215Y-74391613D01*
X65020528Y-74557213D01*
X65165286Y-74701971D01*
X65318112Y-74813004D01*
X65360778Y-74868333D01*
X65366757Y-74937947D01*
X65334152Y-74999742D01*
X65273313Y-75034099D01*
X65245312Y-75037322D01*
X61350000Y-75039999D01*
X61350000Y-85167848D01*
X61330315Y-85234887D01*
X61277511Y-85280642D01*
X61208353Y-85290586D01*
X61144797Y-85261561D01*
X61138319Y-85255529D01*
X56732165Y-80849375D01*
X56732161Y-80849372D01*
X56592866Y-80756297D01*
X56592863Y-80756296D01*
X56483416Y-80710962D01*
X56483414Y-80710961D01*
X56438086Y-80692185D01*
X56438074Y-80692182D01*
X56273771Y-80659500D01*
X56273767Y-80659500D01*
X54937508Y-80659500D01*
X54870469Y-80639815D01*
X54849827Y-80623181D01*
X54706536Y-80479890D01*
X54534570Y-80354951D01*
X54345164Y-80258444D01*
X54345163Y-80258443D01*
X54345162Y-80258443D01*
X54142993Y-80192754D01*
X54142991Y-80192753D01*
X54142990Y-80192753D01*
X53981707Y-80167208D01*
X53933037Y-80159500D01*
X53470463Y-80159500D01*
X53421792Y-80167208D01*
X53260510Y-80192753D01*
X53058335Y-80258444D01*
X52868929Y-80354951D01*
X52696963Y-80479890D01*
X52546640Y-80630213D01*
X52421701Y-80802179D01*
X52325194Y-80991585D01*
X52259503Y-81193760D01*
X52226250Y-81403713D01*
X52226250Y-81616286D01*
X52259503Y-81826239D01*
X52325194Y-82028414D01*
X52421701Y-82217820D01*
X52546640Y-82389786D01*
X52685455Y-82528601D01*
X52718940Y-82589924D01*
X52713956Y-82659616D01*
X52672084Y-82715549D01*
X52662871Y-82721821D01*
X52508092Y-82817289D01*
X52384039Y-82941342D01*
X52291937Y-83090663D01*
X52291936Y-83090666D01*
X52236751Y-83257203D01*
X52236751Y-83257204D01*
X52236750Y-83257204D01*
X52226250Y-83359983D01*
X52226250Y-84660001D01*
X52226251Y-84660018D01*
X52236750Y-84762796D01*
X52236751Y-84762799D01*
X52276606Y-84883072D01*
X52291936Y-84929334D01*
X52384038Y-85078656D01*
X52508094Y-85202712D01*
X52657416Y-85294814D01*
X52823953Y-85349999D01*
X52926741Y-85360500D01*
X54476758Y-85360499D01*
X54579547Y-85349999D01*
X54746084Y-85294814D01*
X54895406Y-85202712D01*
X55019462Y-85078656D01*
X55111564Y-84929334D01*
X55166749Y-84762797D01*
X55177250Y-84660009D01*
X55177249Y-83359992D01*
X55166749Y-83257203D01*
X55111564Y-83090666D01*
X55019462Y-82941344D01*
X54895406Y-82817288D01*
X54746084Y-82725186D01*
X54746083Y-82725185D01*
X54740628Y-82721821D01*
X54725074Y-82704528D01*
X54706458Y-82690592D01*
X54702149Y-82679040D01*
X54693904Y-82669873D01*
X54690168Y-82646918D01*
X54682041Y-82625128D01*
X54684661Y-82613080D01*
X54682681Y-82600910D01*
X54691949Y-82579578D01*
X54696893Y-82556855D01*
X54708643Y-82541157D01*
X54710525Y-82536828D01*
X54718022Y-82528623D01*
X54849829Y-82396816D01*
X54911150Y-82363334D01*
X54937508Y-82360500D01*
X55786349Y-82360500D01*
X55853388Y-82380185D01*
X55874029Y-82396818D01*
X60152711Y-86675500D01*
X61313681Y-87836469D01*
X61347166Y-87897792D01*
X61350000Y-87924150D01*
X61350000Y-90229999D01*
X61350000Y-90230000D01*
X63649617Y-90224083D01*
X63716703Y-90243594D01*
X63737613Y-90260401D01*
X64688224Y-91211012D01*
X64721709Y-91272335D01*
X64723016Y-91318091D01*
X64712000Y-91387642D01*
X64712000Y-91592351D01*
X64744022Y-91794534D01*
X64807281Y-91989223D01*
X64856717Y-92086245D01*
X64900212Y-92171609D01*
X64900215Y-92171613D01*
X65020528Y-92337213D01*
X65165286Y-92481971D01*
X65320249Y-92594556D01*
X65330890Y-92602287D01*
X65447107Y-92661503D01*
X65513276Y-92695218D01*
X65513278Y-92695218D01*
X65513281Y-92695220D01*
X65608865Y-92726277D01*
X65707965Y-92758477D01*
X65809057Y-92774488D01*
X65910148Y-92790500D01*
X65910149Y-92790500D01*
X66114851Y-92790500D01*
X66114852Y-92790500D01*
X66317034Y-92758477D01*
X66511719Y-92695220D01*
X66694110Y-92602287D01*
X66791253Y-92531709D01*
X66859713Y-92481971D01*
X66859715Y-92481968D01*
X66859719Y-92481966D01*
X67004466Y-92337219D01*
X67004468Y-92337215D01*
X67004471Y-92337213D01*
X67124784Y-92171614D01*
X67124786Y-92171611D01*
X67124787Y-92171610D01*
X67172016Y-92078917D01*
X67219989Y-92028123D01*
X67287810Y-92011328D01*
X67353945Y-92033865D01*
X67392983Y-92078917D01*
X67396718Y-92086246D01*
X67440212Y-92171609D01*
X67524041Y-92286991D01*
X67547520Y-92352798D01*
X67531694Y-92420852D01*
X67511403Y-92447557D01*
X66615780Y-93343181D01*
X66554457Y-93376666D01*
X66528099Y-93379500D01*
X62665401Y-93379500D01*
X62598362Y-93359815D01*
X62577720Y-93343181D01*
X55303915Y-86069375D01*
X55303911Y-86069372D01*
X55164616Y-85976297D01*
X55164613Y-85976296D01*
X55055166Y-85930962D01*
X55055164Y-85930961D01*
X55009836Y-85912185D01*
X55009824Y-85912182D01*
X54845521Y-85879500D01*
X54845517Y-85879500D01*
X50483651Y-85879500D01*
X50416612Y-85859815D01*
X50395970Y-85843181D01*
X45402165Y-80849375D01*
X45402161Y-80849372D01*
X45262866Y-80756297D01*
X45262863Y-80756296D01*
X45153416Y-80710962D01*
X45153415Y-80710962D01*
X45110061Y-80693004D01*
X45110017Y-80692968D01*
X45057198Y-80651327D01*
X45041854Y-80630208D01*
X44891542Y-80479896D01*
X44891536Y-80479890D01*
X44719570Y-80354951D01*
X44530164Y-80258444D01*
X44530163Y-80258443D01*
X44530162Y-80258443D01*
X44327993Y-80192754D01*
X44327991Y-80192753D01*
X44327990Y-80192753D01*
X44166707Y-80167208D01*
X44118037Y-80159500D01*
X43655463Y-80159500D01*
X43606792Y-80167208D01*
X43445510Y-80192753D01*
X43243335Y-80258444D01*
X43053929Y-80354951D01*
X42881963Y-80479890D01*
X42731640Y-80630213D01*
X42606701Y-80802179D01*
X42510194Y-80991585D01*
X42444503Y-81193760D01*
X42411250Y-81403713D01*
X42411250Y-81616286D01*
X42444503Y-81826239D01*
X42510194Y-82028414D01*
X42606701Y-82217820D01*
X42731640Y-82389786D01*
X42870455Y-82528601D01*
X42903940Y-82589924D01*
X42898956Y-82659616D01*
X42857084Y-82715549D01*
X42847871Y-82721821D01*
X42693092Y-82817289D01*
X42569039Y-82941342D01*
X42476937Y-83090663D01*
X42476936Y-83090666D01*
X42421751Y-83257203D01*
X42421751Y-83257204D01*
X42421750Y-83257204D01*
X42411250Y-83359983D01*
X42411250Y-84660001D01*
X42411251Y-84660018D01*
X42421750Y-84762796D01*
X42421751Y-84762799D01*
X42461606Y-84883072D01*
X42476936Y-84929334D01*
X42569038Y-85078656D01*
X42693094Y-85202712D01*
X42842416Y-85294814D01*
X43008953Y-85349999D01*
X43111741Y-85360500D01*
X44661758Y-85360499D01*
X44764547Y-85349999D01*
X44931084Y-85294814D01*
X45080406Y-85202712D01*
X45204462Y-85078656D01*
X45296564Y-84929334D01*
X45351749Y-84762797D01*
X45362250Y-84660009D01*
X45362249Y-83514399D01*
X45381934Y-83447361D01*
X45434737Y-83401606D01*
X45503896Y-83391662D01*
X45567452Y-83420687D01*
X45573930Y-83426719D01*
X49155030Y-87007819D01*
X49188515Y-87069142D01*
X49183531Y-87138834D01*
X49141659Y-87194767D01*
X49076195Y-87219184D01*
X49067349Y-87219500D01*
X42423651Y-87219500D01*
X42356612Y-87199815D01*
X42335970Y-87183181D01*
X36002165Y-80849375D01*
X36002161Y-80849372D01*
X35862866Y-80756297D01*
X35862863Y-80756296D01*
X35753416Y-80710962D01*
X35753414Y-80710961D01*
X35708086Y-80692185D01*
X35708074Y-80692182D01*
X35543771Y-80659500D01*
X35543767Y-80659500D01*
X35307508Y-80659500D01*
X35240469Y-80639815D01*
X35219827Y-80623181D01*
X35076536Y-80479890D01*
X34904570Y-80354951D01*
X34715164Y-80258444D01*
X34715163Y-80258443D01*
X34715162Y-80258443D01*
X34512993Y-80192754D01*
X34512991Y-80192753D01*
X34512990Y-80192753D01*
X34351707Y-80167208D01*
X34303037Y-80159500D01*
X33840463Y-80159500D01*
X33791792Y-80167208D01*
X33630510Y-80192753D01*
X33428335Y-80258444D01*
X33238929Y-80354951D01*
X33066963Y-80479890D01*
X32916640Y-80630213D01*
X32791701Y-80802179D01*
X32695194Y-80991585D01*
X32629503Y-81193760D01*
X32596250Y-81403713D01*
X32596250Y-81616286D01*
X32629503Y-81826239D01*
X32695194Y-82028414D01*
X32791701Y-82217820D01*
X32916640Y-82389786D01*
X33055455Y-82528601D01*
X33088940Y-82589924D01*
X33083956Y-82659616D01*
X33042084Y-82715549D01*
X33032871Y-82721821D01*
X32878092Y-82817289D01*
X32822201Y-82873181D01*
X32760878Y-82906666D01*
X32734520Y-82909500D01*
X32545135Y-82909500D01*
X32521743Y-82913204D01*
X32374054Y-82936596D01*
X32374052Y-82936596D01*
X32374049Y-82936597D01*
X32291677Y-82963362D01*
X32209300Y-82990128D01*
X32054960Y-83068769D01*
X32054951Y-83068775D01*
X31953145Y-83142740D01*
X31953146Y-83142741D01*
X31914823Y-83170584D01*
X30202338Y-84883069D01*
X30202338Y-84883070D01*
X30202336Y-84883072D01*
X30168727Y-84929331D01*
X30100518Y-85023211D01*
X30021878Y-85177552D01*
X29968347Y-85342302D01*
X29941250Y-85513389D01*
X29941250Y-95266610D01*
X29966089Y-95423443D01*
X29968348Y-95437701D01*
X30021877Y-95602445D01*
X30100518Y-95756788D01*
X30202336Y-95896928D01*
X31882336Y-97576928D01*
X32004822Y-97699414D01*
X32144962Y-97801232D01*
X32299305Y-97879873D01*
X32464049Y-97933402D01*
X32635139Y-97960500D01*
X32704520Y-97960500D01*
X32771559Y-97980185D01*
X32792201Y-97996819D01*
X32848094Y-98052712D01*
X32997416Y-98144814D01*
X33163953Y-98199999D01*
X33266741Y-98210500D01*
X34816758Y-98210499D01*
X34919547Y-98199999D01*
X35086084Y-98144814D01*
X35235406Y-98052712D01*
X35359462Y-97928656D01*
X35451564Y-97779334D01*
X35506749Y-97612797D01*
X35517250Y-97510009D01*
X35517249Y-96239398D01*
X35536934Y-96172360D01*
X35589737Y-96126605D01*
X35658896Y-96116661D01*
X35722452Y-96145686D01*
X35728917Y-96151706D01*
X37457083Y-97879871D01*
X39875031Y-100297819D01*
X39908516Y-100359142D01*
X39903532Y-100428834D01*
X39861660Y-100484767D01*
X39796196Y-100509184D01*
X39787350Y-100509500D01*
X22864500Y-100509500D01*
X22797461Y-100489815D01*
X22751706Y-100437011D01*
X22740500Y-100385500D01*
X22740500Y-71748549D01*
X39421250Y-71748549D01*
X39421250Y-71971450D01*
X39421251Y-71971466D01*
X39450344Y-72192452D01*
X39450345Y-72192457D01*
X39450346Y-72192463D01*
X39450347Y-72192465D01*
X39508040Y-72407780D01*
X39508043Y-72407790D01*
X39568824Y-72554528D01*
X39593345Y-72613726D01*
X39704802Y-72806774D01*
X39704807Y-72806780D01*
X39704808Y-72806782D01*
X39840501Y-72983622D01*
X39840507Y-72983629D01*
X39998120Y-73141242D01*
X39998127Y-73141248D01*
X40088738Y-73210776D01*
X40174976Y-73276948D01*
X40368024Y-73388405D01*
X40573969Y-73473710D01*
X40789287Y-73531404D01*
X41010293Y-73560500D01*
X41010300Y-73560500D01*
X41233200Y-73560500D01*
X41233207Y-73560500D01*
X41454213Y-73531404D01*
X41669531Y-73473710D01*
X41875476Y-73388405D01*
X42068524Y-73276948D01*
X42245374Y-73141247D01*
X42402997Y-72983624D01*
X42538698Y-72806774D01*
X42650155Y-72613726D01*
X42735460Y-72407781D01*
X42793154Y-72192463D01*
X42822250Y-71971457D01*
X42822250Y-71748543D01*
X42793154Y-71527537D01*
X42735460Y-71312219D01*
X42650155Y-71106274D01*
X42538698Y-70913226D01*
X42499617Y-70862294D01*
X42402998Y-70736377D01*
X42402992Y-70736370D01*
X42245379Y-70578757D01*
X42245372Y-70578751D01*
X42068532Y-70443058D01*
X42068530Y-70443057D01*
X42068524Y-70443052D01*
X41875476Y-70331595D01*
X41875472Y-70331593D01*
X41669540Y-70246293D01*
X41669533Y-70246291D01*
X41669531Y-70246290D01*
X41454213Y-70188596D01*
X41454207Y-70188595D01*
X41454202Y-70188594D01*
X41233216Y-70159501D01*
X41233213Y-70159500D01*
X41233207Y-70159500D01*
X41010293Y-70159500D01*
X41010287Y-70159500D01*
X41010283Y-70159501D01*
X40789297Y-70188594D01*
X40789290Y-70188595D01*
X40789287Y-70188596D01*
X40704782Y-70211239D01*
X40573969Y-70246290D01*
X40573959Y-70246293D01*
X40368027Y-70331593D01*
X40368023Y-70331595D01*
X40174976Y-70443052D01*
X40174967Y-70443058D01*
X39998127Y-70578751D01*
X39998120Y-70578757D01*
X39840507Y-70736370D01*
X39840501Y-70736377D01*
X39704808Y-70913217D01*
X39704802Y-70913226D01*
X39593345Y-71106273D01*
X39593343Y-71106277D01*
X39508043Y-71312209D01*
X39508040Y-71312219D01*
X39450347Y-71527534D01*
X39450344Y-71527547D01*
X39421251Y-71748533D01*
X39421250Y-71748549D01*
X22740500Y-71748549D01*
X22740500Y-65857860D01*
X26699500Y-65857860D01*
X26699500Y-66182139D01*
X26731284Y-66504857D01*
X26731287Y-66504874D01*
X26794545Y-66822902D01*
X26794548Y-66822913D01*
X26794550Y-66822922D01*
X26794551Y-66822923D01*
X26796660Y-66829875D01*
X26888686Y-67133247D01*
X26921633Y-67212787D01*
X26990226Y-67378386D01*
X27012786Y-67432849D01*
X27012788Y-67432854D01*
X27165646Y-67718830D01*
X27165657Y-67718848D01*
X27345811Y-67988467D01*
X27345821Y-67988481D01*
X27551546Y-68239158D01*
X27780841Y-68468453D01*
X27780846Y-68468457D01*
X27780847Y-68468458D01*
X28031524Y-68674183D01*
X28301158Y-68854347D01*
X28301167Y-68854352D01*
X28301169Y-68854353D01*
X28587145Y-69007211D01*
X28587147Y-69007211D01*
X28587153Y-69007215D01*
X28886754Y-69131314D01*
X29197077Y-69225449D01*
X29197083Y-69225450D01*
X29197086Y-69225451D01*
X29197097Y-69225454D01*
X29396528Y-69265122D01*
X29515132Y-69288714D01*
X29837857Y-69320500D01*
X29837860Y-69320500D01*
X30162140Y-69320500D01*
X30162143Y-69320500D01*
X30484868Y-69288714D01*
X30642295Y-69257399D01*
X30802902Y-69225454D01*
X30802913Y-69225451D01*
X30802913Y-69225450D01*
X30802923Y-69225449D01*
X31113246Y-69131314D01*
X31412847Y-69007215D01*
X31698842Y-68854347D01*
X31968476Y-68674183D01*
X32219153Y-68468458D01*
X32448458Y-68239153D01*
X32654183Y-67988476D01*
X32834347Y-67718842D01*
X32987215Y-67432847D01*
X33111314Y-67133246D01*
X33205449Y-66822923D01*
X33205451Y-66822913D01*
X33205454Y-66822902D01*
X33237399Y-66662295D01*
X33268714Y-66504868D01*
X33300500Y-66182143D01*
X33300500Y-65857857D01*
X33268714Y-65535132D01*
X33245122Y-65416528D01*
X33205454Y-65217097D01*
X33205451Y-65217086D01*
X33205450Y-65217083D01*
X33205449Y-65217077D01*
X33111314Y-64906754D01*
X32987215Y-64607153D01*
X32834347Y-64321158D01*
X32654183Y-64051524D01*
X32448458Y-63800847D01*
X32448457Y-63800846D01*
X32448453Y-63800841D01*
X32219158Y-63571546D01*
X31968481Y-63365821D01*
X31968480Y-63365820D01*
X31968476Y-63365817D01*
X31698842Y-63185653D01*
X31698837Y-63185650D01*
X31698830Y-63185646D01*
X31412854Y-63032788D01*
X31412849Y-63032786D01*
X31407296Y-63030486D01*
X31325098Y-62996438D01*
X31113247Y-62908686D01*
X30802913Y-62814548D01*
X30802902Y-62814545D01*
X30484874Y-62751287D01*
X30484857Y-62751284D01*
X30240812Y-62727248D01*
X30162143Y-62719500D01*
X29837857Y-62719500D01*
X29765099Y-62726666D01*
X29515142Y-62751284D01*
X29515125Y-62751287D01*
X29197097Y-62814545D01*
X29197086Y-62814548D01*
X28886752Y-62908686D01*
X28587150Y-63032786D01*
X28587145Y-63032788D01*
X28301169Y-63185646D01*
X28301151Y-63185657D01*
X28031532Y-63365811D01*
X28031518Y-63365821D01*
X27780841Y-63571546D01*
X27551546Y-63800841D01*
X27345821Y-64051518D01*
X27345811Y-64051532D01*
X27165657Y-64321151D01*
X27165646Y-64321169D01*
X27012788Y-64607145D01*
X27012786Y-64607150D01*
X26888686Y-64906752D01*
X26794548Y-65217086D01*
X26794545Y-65217097D01*
X26731287Y-65535125D01*
X26731284Y-65535142D01*
X26699500Y-65857860D01*
X22740500Y-65857860D01*
X22740500Y-54768713D01*
X48841250Y-54768713D01*
X48841250Y-55231286D01*
X48874503Y-55441240D01*
X48935181Y-55627988D01*
X48941250Y-55666306D01*
X48941250Y-61718696D01*
X48935181Y-61757014D01*
X48874503Y-61943760D01*
X48841250Y-62153713D01*
X48841250Y-62616286D01*
X48874503Y-62826240D01*
X48935181Y-63012988D01*
X48941250Y-63051306D01*
X48941250Y-69103696D01*
X48935181Y-69142012D01*
X48885533Y-69294812D01*
X48874503Y-69328760D01*
X48841250Y-69538713D01*
X48841250Y-70001286D01*
X48870916Y-70188594D01*
X48874504Y-70211243D01*
X48913608Y-70331593D01*
X48940194Y-70413414D01*
X49036701Y-70602820D01*
X49161640Y-70774786D01*
X49311963Y-70925109D01*
X49483929Y-71050048D01*
X49483931Y-71050049D01*
X49483934Y-71050051D01*
X49673338Y-71146557D01*
X49875507Y-71212246D01*
X50085463Y-71245500D01*
X50085464Y-71245500D01*
X50298036Y-71245500D01*
X50298037Y-71245500D01*
X50507993Y-71212246D01*
X50710162Y-71146557D01*
X50899566Y-71050051D01*
X50921539Y-71034086D01*
X51071536Y-70925109D01*
X51071538Y-70925106D01*
X51071542Y-70925104D01*
X51221854Y-70774792D01*
X51221856Y-70774788D01*
X51221859Y-70774786D01*
X51346798Y-70602820D01*
X51346797Y-70602820D01*
X51346801Y-70602816D01*
X51443307Y-70413412D01*
X51508996Y-70211243D01*
X51542250Y-70001287D01*
X51542250Y-69538713D01*
X51508996Y-69328757D01*
X51448318Y-69142012D01*
X51442250Y-69103696D01*
X51442250Y-63051306D01*
X51448319Y-63012988D01*
X51466436Y-62957226D01*
X51508996Y-62826243D01*
X51542250Y-62616287D01*
X51542250Y-62153713D01*
X53841250Y-62153713D01*
X53841250Y-62616286D01*
X53874503Y-62826239D01*
X53874503Y-62826241D01*
X53874504Y-62826243D01*
X53935181Y-63012988D01*
X53940194Y-63028414D01*
X54036701Y-63217820D01*
X54161639Y-63389784D01*
X54161643Y-63389788D01*
X54161646Y-63389792D01*
X54305931Y-63534077D01*
X54339415Y-63595400D01*
X54340093Y-63599707D01*
X54363922Y-63719501D01*
X54373931Y-63769824D01*
X54373934Y-63769833D01*
X54438046Y-63924613D01*
X54438047Y-63924616D01*
X54531122Y-64063911D01*
X54531125Y-64063915D01*
X55787834Y-65320624D01*
X55787842Y-65320630D01*
X55927127Y-65413697D01*
X55927130Y-65413698D01*
X55927138Y-65413704D01*
X56017806Y-65451259D01*
X56081918Y-65477816D01*
X56246228Y-65510499D01*
X56246232Y-65510500D01*
X56246233Y-65510500D01*
X56246234Y-65510500D01*
X56413767Y-65510500D01*
X57949099Y-65510500D01*
X58016138Y-65530185D01*
X58061893Y-65582989D01*
X58071837Y-65652147D01*
X58042812Y-65715703D01*
X58036780Y-65722181D01*
X55486380Y-68272579D01*
X55425057Y-68306064D01*
X55379301Y-68307371D01*
X55352031Y-68303051D01*
X55298037Y-68294500D01*
X55085463Y-68294500D01*
X55036792Y-68302208D01*
X54875510Y-68327753D01*
X54673335Y-68393444D01*
X54483929Y-68489951D01*
X54311963Y-68614890D01*
X54161640Y-68765213D01*
X54036701Y-68937179D01*
X53940194Y-69126585D01*
X53874503Y-69328760D01*
X53841250Y-69538713D01*
X53841250Y-70001286D01*
X53870916Y-70188594D01*
X53874504Y-70211243D01*
X53913608Y-70331593D01*
X53940194Y-70413414D01*
X54036701Y-70602820D01*
X54161640Y-70774786D01*
X54311963Y-70925109D01*
X54483929Y-71050048D01*
X54483931Y-71050049D01*
X54483934Y-71050051D01*
X54673338Y-71146557D01*
X54875507Y-71212246D01*
X55085463Y-71245500D01*
X55085464Y-71245500D01*
X55298036Y-71245500D01*
X55298037Y-71245500D01*
X55507993Y-71212246D01*
X55710162Y-71146557D01*
X55899566Y-71050051D01*
X56071542Y-70925104D01*
X56210354Y-70786291D01*
X56271673Y-70752809D01*
X56341365Y-70757793D01*
X56397299Y-70799664D01*
X56403571Y-70808878D01*
X56406935Y-70814333D01*
X56406936Y-70814334D01*
X56499038Y-70963656D01*
X56623094Y-71087712D01*
X56772416Y-71179814D01*
X56938953Y-71234999D01*
X57041741Y-71245500D01*
X58341758Y-71245499D01*
X58444547Y-71234999D01*
X58611084Y-71179814D01*
X58760406Y-71087712D01*
X58884462Y-70963656D01*
X58976564Y-70814334D01*
X59031749Y-70647797D01*
X59042250Y-70545009D01*
X59042249Y-68994992D01*
X59031749Y-68892203D01*
X58976564Y-68725666D01*
X58884462Y-68576344D01*
X58760406Y-68452288D01*
X58665003Y-68393443D01*
X58611086Y-68360187D01*
X58611081Y-68360185D01*
X58595186Y-68354918D01*
X58444547Y-68305001D01*
X58444545Y-68305000D01*
X58341766Y-68294500D01*
X58341759Y-68294500D01*
X58169400Y-68294500D01*
X58102361Y-68274815D01*
X58056606Y-68222011D01*
X58046662Y-68152853D01*
X58075687Y-68089297D01*
X58081719Y-68082819D01*
X58693459Y-67471080D01*
X59397720Y-66766819D01*
X59459043Y-66733334D01*
X59485401Y-66730500D01*
X64920520Y-66730500D01*
X64987559Y-66750185D01*
X65033314Y-66802989D01*
X65043258Y-66872147D01*
X65014233Y-66935703D01*
X65008201Y-66942181D01*
X64909039Y-67041342D01*
X64816937Y-67190663D01*
X64816936Y-67190666D01*
X64761751Y-67357203D01*
X64761751Y-67357204D01*
X64761750Y-67357204D01*
X64751250Y-67459983D01*
X64751250Y-68660001D01*
X64751251Y-68660018D01*
X64761750Y-68762796D01*
X64761751Y-68762799D01*
X64804631Y-68892200D01*
X64816936Y-68929334D01*
X64909038Y-69078656D01*
X65033094Y-69202712D01*
X65182416Y-69294814D01*
X65348953Y-69349999D01*
X65451741Y-69360500D01*
X66651758Y-69360499D01*
X66754547Y-69349999D01*
X66921084Y-69294814D01*
X67070406Y-69202712D01*
X67194462Y-69078656D01*
X67286564Y-68929334D01*
X67313705Y-68847427D01*
X67353476Y-68789984D01*
X67417992Y-68763161D01*
X67486768Y-68775476D01*
X67531727Y-68813547D01*
X67561367Y-68854342D01*
X67599784Y-68907219D01*
X67744536Y-69051971D01*
X67868472Y-69142014D01*
X67910140Y-69172287D01*
X68014476Y-69225449D01*
X68092526Y-69265218D01*
X68092528Y-69265218D01*
X68092531Y-69265220D01*
X68183606Y-69294812D01*
X68287215Y-69328477D01*
X68388307Y-69344488D01*
X68489398Y-69360500D01*
X68489399Y-69360500D01*
X68694101Y-69360500D01*
X68694102Y-69360500D01*
X68896284Y-69328477D01*
X69090969Y-69265220D01*
X69273360Y-69172287D01*
X69402232Y-69078657D01*
X69438963Y-69051971D01*
X69438965Y-69051968D01*
X69438969Y-69051966D01*
X69583716Y-68907219D01*
X69583718Y-68907215D01*
X69583721Y-68907213D01*
X69704034Y-68741614D01*
X69704035Y-68741613D01*
X69704037Y-68741610D01*
X69751266Y-68648917D01*
X69799239Y-68598123D01*
X69867060Y-68581328D01*
X69933195Y-68603865D01*
X69972233Y-68648917D01*
X69985110Y-68674188D01*
X70019465Y-68741614D01*
X70139778Y-68907213D01*
X70284536Y-69051971D01*
X70408472Y-69142014D01*
X70450140Y-69172287D01*
X70554476Y-69225449D01*
X70632526Y-69265218D01*
X70632528Y-69265218D01*
X70632531Y-69265220D01*
X70723606Y-69294812D01*
X70827215Y-69328477D01*
X70928307Y-69344488D01*
X71029398Y-69360500D01*
X71029399Y-69360500D01*
X71234101Y-69360500D01*
X71234102Y-69360500D01*
X71436284Y-69328477D01*
X71630969Y-69265220D01*
X71813360Y-69172287D01*
X71942232Y-69078657D01*
X71978963Y-69051971D01*
X71978965Y-69051968D01*
X71978969Y-69051966D01*
X72123716Y-68907219D01*
X72123718Y-68907215D01*
X72123721Y-68907213D01*
X72244034Y-68741614D01*
X72244035Y-68741613D01*
X72244037Y-68741610D01*
X72291266Y-68648917D01*
X72339239Y-68598123D01*
X72407060Y-68581328D01*
X72473195Y-68603865D01*
X72512233Y-68648917D01*
X72525110Y-68674188D01*
X72559465Y-68741614D01*
X72679778Y-68907213D01*
X72824536Y-69051971D01*
X72948472Y-69142014D01*
X72990140Y-69172287D01*
X73094476Y-69225449D01*
X73172526Y-69265218D01*
X73172528Y-69265218D01*
X73172531Y-69265220D01*
X73263606Y-69294812D01*
X73367215Y-69328477D01*
X73468307Y-69344488D01*
X73569398Y-69360500D01*
X73569399Y-69360500D01*
X73774101Y-69360500D01*
X73774102Y-69360500D01*
X73976284Y-69328477D01*
X74170969Y-69265220D01*
X74353360Y-69172287D01*
X74482232Y-69078657D01*
X74518963Y-69051971D01*
X74518965Y-69051968D01*
X74518969Y-69051966D01*
X74663716Y-68907219D01*
X74663718Y-68907215D01*
X74663721Y-68907213D01*
X74784034Y-68741614D01*
X74784035Y-68741613D01*
X74784037Y-68741610D01*
X74831266Y-68648917D01*
X74879239Y-68598123D01*
X74947060Y-68581328D01*
X75013195Y-68603865D01*
X75052233Y-68648917D01*
X75065110Y-68674188D01*
X75099465Y-68741614D01*
X75219778Y-68907213D01*
X75364536Y-69051971D01*
X75488472Y-69142014D01*
X75530140Y-69172287D01*
X75634476Y-69225449D01*
X75712526Y-69265218D01*
X75712528Y-69265218D01*
X75712531Y-69265220D01*
X75803606Y-69294812D01*
X75907215Y-69328477D01*
X76008307Y-69344488D01*
X76109398Y-69360500D01*
X76109399Y-69360500D01*
X76314101Y-69360500D01*
X76314102Y-69360500D01*
X76516284Y-69328477D01*
X76710969Y-69265220D01*
X76893360Y-69172287D01*
X77022232Y-69078657D01*
X77058963Y-69051971D01*
X77058965Y-69051968D01*
X77058969Y-69051966D01*
X77203716Y-68907219D01*
X77203718Y-68907215D01*
X77203721Y-68907213D01*
X77324034Y-68741614D01*
X77324035Y-68741613D01*
X77324037Y-68741610D01*
X77371266Y-68648917D01*
X77419239Y-68598123D01*
X77487060Y-68581328D01*
X77553195Y-68603865D01*
X77592233Y-68648917D01*
X77605110Y-68674188D01*
X77639465Y-68741614D01*
X77759778Y-68907213D01*
X77904536Y-69051971D01*
X78028472Y-69142014D01*
X78070140Y-69172287D01*
X78174476Y-69225449D01*
X78252526Y-69265218D01*
X78252528Y-69265218D01*
X78252531Y-69265220D01*
X78343606Y-69294812D01*
X78447215Y-69328477D01*
X78548307Y-69344488D01*
X78649398Y-69360500D01*
X78649399Y-69360500D01*
X78854101Y-69360500D01*
X78854102Y-69360500D01*
X79056284Y-69328477D01*
X79250969Y-69265220D01*
X79433360Y-69172287D01*
X79562232Y-69078657D01*
X79598963Y-69051971D01*
X79598965Y-69051968D01*
X79598969Y-69051966D01*
X79743716Y-68907219D01*
X79743718Y-68907215D01*
X79743721Y-68907213D01*
X79864034Y-68741614D01*
X79864035Y-68741613D01*
X79864037Y-68741610D01*
X79911266Y-68648917D01*
X79959239Y-68598123D01*
X80027060Y-68581328D01*
X80093195Y-68603865D01*
X80132233Y-68648917D01*
X80145110Y-68674188D01*
X80179465Y-68741614D01*
X80299778Y-68907213D01*
X80444536Y-69051971D01*
X80568472Y-69142014D01*
X80610140Y-69172287D01*
X80714476Y-69225449D01*
X80792526Y-69265218D01*
X80792528Y-69265218D01*
X80792531Y-69265220D01*
X80883606Y-69294812D01*
X80987215Y-69328477D01*
X81088307Y-69344488D01*
X81189398Y-69360500D01*
X81189399Y-69360500D01*
X81394101Y-69360500D01*
X81394102Y-69360500D01*
X81596284Y-69328477D01*
X81790969Y-69265220D01*
X81973360Y-69172287D01*
X82102232Y-69078657D01*
X82138963Y-69051971D01*
X82138965Y-69051968D01*
X82138969Y-69051966D01*
X82283716Y-68907219D01*
X82283718Y-68907215D01*
X82283721Y-68907213D01*
X82404034Y-68741614D01*
X82404035Y-68741613D01*
X82404037Y-68741610D01*
X82451266Y-68648917D01*
X82499239Y-68598123D01*
X82567060Y-68581328D01*
X82633195Y-68603865D01*
X82672233Y-68648917D01*
X82685110Y-68674188D01*
X82719465Y-68741614D01*
X82839778Y-68907213D01*
X82984536Y-69051971D01*
X83108472Y-69142014D01*
X83150140Y-69172287D01*
X83254476Y-69225449D01*
X83332526Y-69265218D01*
X83332528Y-69265218D01*
X83332531Y-69265220D01*
X83423606Y-69294812D01*
X83527215Y-69328477D01*
X83628307Y-69344488D01*
X83729398Y-69360500D01*
X83729399Y-69360500D01*
X83934101Y-69360500D01*
X83934102Y-69360500D01*
X84136284Y-69328477D01*
X84330969Y-69265220D01*
X84513360Y-69172287D01*
X84642232Y-69078657D01*
X84678963Y-69051971D01*
X84678965Y-69051968D01*
X84678969Y-69051966D01*
X84823716Y-68907219D01*
X84823718Y-68907215D01*
X84823721Y-68907213D01*
X84891771Y-68813548D01*
X84944037Y-68741610D01*
X85036970Y-68559219D01*
X85100227Y-68364534D01*
X85132250Y-68162352D01*
X85132250Y-67957648D01*
X85100227Y-67755466D01*
X85036970Y-67560781D01*
X85036968Y-67560778D01*
X85036968Y-67560776D01*
X84985615Y-67459991D01*
X84944037Y-67378390D01*
X84891771Y-67306451D01*
X84823721Y-67212786D01*
X84678969Y-67068034D01*
X84642230Y-67041342D01*
X84523139Y-66954817D01*
X84480474Y-66899489D01*
X84474495Y-66829875D01*
X84507100Y-66768080D01*
X84567939Y-66733723D01*
X84596025Y-66730500D01*
X90310520Y-66730500D01*
X90377559Y-66750185D01*
X90423314Y-66802989D01*
X90433258Y-66872147D01*
X90404233Y-66935703D01*
X90398201Y-66942181D01*
X90299039Y-67041342D01*
X90206937Y-67190663D01*
X90206936Y-67190666D01*
X90151751Y-67357203D01*
X90151751Y-67357204D01*
X90151750Y-67357204D01*
X90141250Y-67459983D01*
X90141250Y-68660001D01*
X90141251Y-68660018D01*
X90151750Y-68762796D01*
X90151751Y-68762799D01*
X90194631Y-68892200D01*
X90206936Y-68929334D01*
X90299038Y-69078656D01*
X90423094Y-69202712D01*
X90572416Y-69294814D01*
X90738953Y-69349999D01*
X90841741Y-69360500D01*
X92041758Y-69360499D01*
X92144547Y-69349999D01*
X92311084Y-69294814D01*
X92460406Y-69202712D01*
X92584462Y-69078656D01*
X92676564Y-68929334D01*
X92703705Y-68847427D01*
X92743476Y-68789984D01*
X92807992Y-68763161D01*
X92876768Y-68775476D01*
X92921727Y-68813547D01*
X92951367Y-68854342D01*
X92989784Y-68907219D01*
X93134536Y-69051971D01*
X93258472Y-69142014D01*
X93300140Y-69172287D01*
X93404476Y-69225449D01*
X93482526Y-69265218D01*
X93482528Y-69265218D01*
X93482531Y-69265220D01*
X93573606Y-69294812D01*
X93677215Y-69328477D01*
X93778307Y-69344488D01*
X93879398Y-69360500D01*
X93879399Y-69360500D01*
X94084101Y-69360500D01*
X94084102Y-69360500D01*
X94286284Y-69328477D01*
X94480969Y-69265220D01*
X94663360Y-69172287D01*
X94792232Y-69078657D01*
X94828963Y-69051971D01*
X94828965Y-69051968D01*
X94828969Y-69051966D01*
X94973716Y-68907219D01*
X94973718Y-68907215D01*
X94973721Y-68907213D01*
X95094034Y-68741614D01*
X95094035Y-68741613D01*
X95094037Y-68741610D01*
X95141266Y-68648917D01*
X95189239Y-68598123D01*
X95257060Y-68581328D01*
X95323195Y-68603865D01*
X95362233Y-68648917D01*
X95375110Y-68674188D01*
X95409465Y-68741614D01*
X95529778Y-68907213D01*
X95674536Y-69051971D01*
X95798472Y-69142014D01*
X95840140Y-69172287D01*
X95944476Y-69225449D01*
X96022526Y-69265218D01*
X96022528Y-69265218D01*
X96022531Y-69265220D01*
X96113606Y-69294812D01*
X96217215Y-69328477D01*
X96318307Y-69344488D01*
X96419398Y-69360500D01*
X96419399Y-69360500D01*
X96624101Y-69360500D01*
X96624102Y-69360500D01*
X96826284Y-69328477D01*
X97020969Y-69265220D01*
X97203360Y-69172287D01*
X97332232Y-69078657D01*
X97368963Y-69051971D01*
X97368965Y-69051968D01*
X97368969Y-69051966D01*
X97513716Y-68907219D01*
X97513718Y-68907215D01*
X97513721Y-68907213D01*
X97634034Y-68741614D01*
X97634035Y-68741613D01*
X97634037Y-68741610D01*
X97681266Y-68648917D01*
X97729239Y-68598123D01*
X97797060Y-68581328D01*
X97863195Y-68603865D01*
X97902233Y-68648917D01*
X97915110Y-68674188D01*
X97949465Y-68741614D01*
X98069778Y-68907213D01*
X98214536Y-69051971D01*
X98338472Y-69142014D01*
X98380140Y-69172287D01*
X98484476Y-69225449D01*
X98562526Y-69265218D01*
X98562528Y-69265218D01*
X98562531Y-69265220D01*
X98653606Y-69294812D01*
X98757215Y-69328477D01*
X98858307Y-69344488D01*
X98959398Y-69360500D01*
X98959399Y-69360500D01*
X99164101Y-69360500D01*
X99164102Y-69360500D01*
X99366284Y-69328477D01*
X99560969Y-69265220D01*
X99743360Y-69172287D01*
X99872232Y-69078657D01*
X99908963Y-69051971D01*
X99908965Y-69051968D01*
X99908969Y-69051966D01*
X100053716Y-68907219D01*
X100053718Y-68907215D01*
X100053721Y-68907213D01*
X100174034Y-68741614D01*
X100174035Y-68741613D01*
X100174037Y-68741610D01*
X100221266Y-68648917D01*
X100269239Y-68598123D01*
X100337060Y-68581328D01*
X100403195Y-68603865D01*
X100442233Y-68648917D01*
X100455110Y-68674188D01*
X100489465Y-68741614D01*
X100609778Y-68907213D01*
X100754536Y-69051971D01*
X100878472Y-69142014D01*
X100920140Y-69172287D01*
X101024476Y-69225449D01*
X101102526Y-69265218D01*
X101102528Y-69265218D01*
X101102531Y-69265220D01*
X101193606Y-69294812D01*
X101297215Y-69328477D01*
X101398307Y-69344488D01*
X101499398Y-69360500D01*
X101499399Y-69360500D01*
X101704101Y-69360500D01*
X101704102Y-69360500D01*
X101906284Y-69328477D01*
X102100969Y-69265220D01*
X102283360Y-69172287D01*
X102412232Y-69078657D01*
X102448963Y-69051971D01*
X102448965Y-69051968D01*
X102448969Y-69051966D01*
X102593716Y-68907219D01*
X102593718Y-68907215D01*
X102593721Y-68907213D01*
X102714034Y-68741614D01*
X102714035Y-68741613D01*
X102714037Y-68741610D01*
X102761266Y-68648917D01*
X102809239Y-68598123D01*
X102877060Y-68581328D01*
X102943195Y-68603865D01*
X102982233Y-68648917D01*
X102995110Y-68674188D01*
X103029465Y-68741614D01*
X103149778Y-68907213D01*
X103294536Y-69051971D01*
X103418472Y-69142014D01*
X103460140Y-69172287D01*
X103564476Y-69225449D01*
X103642526Y-69265218D01*
X103642528Y-69265218D01*
X103642531Y-69265220D01*
X103733606Y-69294812D01*
X103837215Y-69328477D01*
X103938307Y-69344488D01*
X104039398Y-69360500D01*
X104039399Y-69360500D01*
X104244101Y-69360500D01*
X104244102Y-69360500D01*
X104446284Y-69328477D01*
X104640969Y-69265220D01*
X104823360Y-69172287D01*
X104952232Y-69078657D01*
X104988963Y-69051971D01*
X104988965Y-69051968D01*
X104988969Y-69051966D01*
X105133716Y-68907219D01*
X105133718Y-68907215D01*
X105133721Y-68907213D01*
X105254034Y-68741614D01*
X105254035Y-68741613D01*
X105254037Y-68741610D01*
X105301266Y-68648917D01*
X105349239Y-68598123D01*
X105417060Y-68581328D01*
X105483195Y-68603865D01*
X105522233Y-68648917D01*
X105535110Y-68674188D01*
X105569465Y-68741614D01*
X105689778Y-68907213D01*
X105834536Y-69051971D01*
X105958472Y-69142014D01*
X106000140Y-69172287D01*
X106104476Y-69225449D01*
X106182526Y-69265218D01*
X106182528Y-69265218D01*
X106182531Y-69265220D01*
X106273606Y-69294812D01*
X106377215Y-69328477D01*
X106478307Y-69344488D01*
X106579398Y-69360500D01*
X106579399Y-69360500D01*
X106784101Y-69360500D01*
X106784102Y-69360500D01*
X106986284Y-69328477D01*
X107180969Y-69265220D01*
X107363360Y-69172287D01*
X107492232Y-69078657D01*
X107528963Y-69051971D01*
X107528965Y-69051968D01*
X107528969Y-69051966D01*
X107673716Y-68907219D01*
X107673718Y-68907215D01*
X107673721Y-68907213D01*
X107794034Y-68741614D01*
X107794035Y-68741613D01*
X107794037Y-68741610D01*
X107841266Y-68648917D01*
X107889239Y-68598123D01*
X107957060Y-68581328D01*
X108023195Y-68603865D01*
X108062233Y-68648917D01*
X108075110Y-68674188D01*
X108109465Y-68741614D01*
X108229778Y-68907213D01*
X108374536Y-69051971D01*
X108498472Y-69142014D01*
X108540140Y-69172287D01*
X108644476Y-69225449D01*
X108722526Y-69265218D01*
X108722528Y-69265218D01*
X108722531Y-69265220D01*
X108813606Y-69294812D01*
X108917215Y-69328477D01*
X109018307Y-69344488D01*
X109119398Y-69360500D01*
X109119399Y-69360500D01*
X109324101Y-69360500D01*
X109324102Y-69360500D01*
X109526284Y-69328477D01*
X109720969Y-69265220D01*
X109903360Y-69172287D01*
X110032232Y-69078657D01*
X110068963Y-69051971D01*
X110068965Y-69051968D01*
X110068969Y-69051966D01*
X110213716Y-68907219D01*
X110213718Y-68907215D01*
X110213721Y-68907213D01*
X110281771Y-68813548D01*
X110334037Y-68741610D01*
X110426970Y-68559219D01*
X110490227Y-68364534D01*
X110522250Y-68162352D01*
X110522250Y-67957648D01*
X110490227Y-67755466D01*
X110426970Y-67560781D01*
X110426968Y-67560778D01*
X110426968Y-67560776D01*
X110375615Y-67459991D01*
X110334037Y-67378390D01*
X110281771Y-67306451D01*
X110213721Y-67212786D01*
X110068963Y-67068028D01*
X109903363Y-66947715D01*
X109903362Y-66947714D01*
X109903360Y-66947713D01*
X109811365Y-66900839D01*
X109720973Y-66854781D01*
X109526284Y-66791522D01*
X109351745Y-66763878D01*
X109324102Y-66759500D01*
X109324101Y-66759500D01*
X109175400Y-66759500D01*
X109108361Y-66739815D01*
X109087719Y-66723181D01*
X106363915Y-63999375D01*
X106363911Y-63999372D01*
X106224616Y-63906297D01*
X106224613Y-63906296D01*
X106114048Y-63860499D01*
X106069832Y-63842184D01*
X106069824Y-63842182D01*
X105905521Y-63809500D01*
X105905517Y-63809500D01*
X58952980Y-63809500D01*
X58885941Y-63789815D01*
X58840186Y-63737011D01*
X58830242Y-63667853D01*
X58859267Y-63604297D01*
X58865299Y-63597819D01*
X58867718Y-63595400D01*
X58884462Y-63578656D01*
X58976564Y-63429334D01*
X59031749Y-63262797D01*
X59042250Y-63160009D01*
X59042249Y-61609992D01*
X59031749Y-61507203D01*
X58976564Y-61340666D01*
X58884462Y-61191344D01*
X58760406Y-61067288D01*
X58611084Y-60975186D01*
X58444547Y-60920001D01*
X58444545Y-60920000D01*
X58341760Y-60909500D01*
X57041748Y-60909500D01*
X57041731Y-60909501D01*
X56938953Y-60920000D01*
X56938950Y-60920001D01*
X56772418Y-60975185D01*
X56772413Y-60975187D01*
X56623092Y-61067289D01*
X56499039Y-61191342D01*
X56403571Y-61346121D01*
X56351623Y-61392845D01*
X56282660Y-61404068D01*
X56218578Y-61376224D01*
X56210351Y-61368705D01*
X56071536Y-61229890D01*
X55899570Y-61104951D01*
X55710164Y-61008444D01*
X55710163Y-61008443D01*
X55710162Y-61008443D01*
X55507993Y-60942754D01*
X55507991Y-60942753D01*
X55507990Y-60942753D01*
X55346707Y-60917208D01*
X55298037Y-60909500D01*
X55085463Y-60909500D01*
X55036792Y-60917208D01*
X54875510Y-60942753D01*
X54673335Y-61008444D01*
X54483929Y-61104951D01*
X54311963Y-61229890D01*
X54161640Y-61380213D01*
X54036701Y-61552179D01*
X53940194Y-61741585D01*
X53874503Y-61943760D01*
X53841250Y-62153713D01*
X51542250Y-62153713D01*
X51508996Y-61943757D01*
X51448318Y-61757012D01*
X51442250Y-61718696D01*
X51442250Y-55666306D01*
X51448319Y-55627988D01*
X51466436Y-55572226D01*
X51508996Y-55441243D01*
X51542250Y-55231287D01*
X51542250Y-54768713D01*
X53841250Y-54768713D01*
X53841250Y-55231286D01*
X53874503Y-55441239D01*
X53874503Y-55441241D01*
X53874504Y-55441243D01*
X53935181Y-55627988D01*
X53940194Y-55643414D01*
X54036701Y-55832820D01*
X54161640Y-56004786D01*
X54311963Y-56155109D01*
X54483929Y-56280048D01*
X54483931Y-56280049D01*
X54483934Y-56280051D01*
X54673338Y-56376557D01*
X54875507Y-56442246D01*
X55085463Y-56475500D01*
X55085464Y-56475500D01*
X55298036Y-56475500D01*
X55298037Y-56475500D01*
X55507993Y-56442246D01*
X55710162Y-56376557D01*
X55899566Y-56280051D01*
X56071542Y-56155104D01*
X56210354Y-56016291D01*
X56271673Y-55982809D01*
X56341365Y-55987793D01*
X56397299Y-56029664D01*
X56403571Y-56038878D01*
X56406935Y-56044333D01*
X56406936Y-56044334D01*
X56499038Y-56193656D01*
X56623094Y-56317712D01*
X56772416Y-56409814D01*
X56938953Y-56464999D01*
X57041741Y-56475500D01*
X58341758Y-56475499D01*
X58444547Y-56464999D01*
X58611084Y-56409814D01*
X58760406Y-56317712D01*
X58884462Y-56193656D01*
X58976564Y-56044334D01*
X59012629Y-55935494D01*
X59052402Y-55878051D01*
X59116917Y-55851228D01*
X59130335Y-55850500D01*
X77988099Y-55850500D01*
X78055138Y-55870185D01*
X78075780Y-55886819D01*
X81137363Y-58948402D01*
X81170848Y-59009725D01*
X81165864Y-59079417D01*
X81123992Y-59135350D01*
X81069081Y-59158556D01*
X80987214Y-59171523D01*
X80792526Y-59234781D01*
X80610136Y-59327715D01*
X80444536Y-59448028D01*
X80299778Y-59592786D01*
X80179465Y-59758386D01*
X80132235Y-59851080D01*
X80084260Y-59901876D01*
X80016439Y-59918671D01*
X79950304Y-59896134D01*
X79911265Y-59851080D01*
X79910633Y-59849840D01*
X79864037Y-59758390D01*
X79856306Y-59747749D01*
X79743721Y-59592786D01*
X79598963Y-59448028D01*
X79433363Y-59327715D01*
X79433362Y-59327714D01*
X79433360Y-59327713D01*
X79376403Y-59298691D01*
X79250973Y-59234781D01*
X79056284Y-59171522D01*
X78881745Y-59143878D01*
X78854102Y-59139500D01*
X78649398Y-59139500D01*
X78625079Y-59143351D01*
X78447215Y-59171522D01*
X78252526Y-59234781D01*
X78070136Y-59327715D01*
X77904536Y-59448028D01*
X77759778Y-59592786D01*
X77639465Y-59758386D01*
X77592235Y-59851080D01*
X77544260Y-59901876D01*
X77476439Y-59918671D01*
X77410304Y-59896134D01*
X77371265Y-59851080D01*
X77370633Y-59849840D01*
X77324037Y-59758390D01*
X77316306Y-59747749D01*
X77203721Y-59592786D01*
X77058963Y-59448028D01*
X76893363Y-59327715D01*
X76893362Y-59327714D01*
X76893360Y-59327713D01*
X76836403Y-59298691D01*
X76710973Y-59234781D01*
X76516284Y-59171522D01*
X76341745Y-59143878D01*
X76314102Y-59139500D01*
X76109398Y-59139500D01*
X76085079Y-59143351D01*
X75907215Y-59171522D01*
X75712526Y-59234781D01*
X75530136Y-59327715D01*
X75364536Y-59448028D01*
X75219778Y-59592786D01*
X75099465Y-59758386D01*
X75052235Y-59851080D01*
X75004260Y-59901876D01*
X74936439Y-59918671D01*
X74870304Y-59896134D01*
X74831265Y-59851080D01*
X74830633Y-59849840D01*
X74784037Y-59758390D01*
X74776306Y-59747749D01*
X74663721Y-59592786D01*
X74518963Y-59448028D01*
X74353363Y-59327715D01*
X74353362Y-59327714D01*
X74353360Y-59327713D01*
X74296403Y-59298691D01*
X74170973Y-59234781D01*
X73976284Y-59171522D01*
X73801745Y-59143878D01*
X73774102Y-59139500D01*
X73569398Y-59139500D01*
X73545079Y-59143351D01*
X73367215Y-59171522D01*
X73172526Y-59234781D01*
X72990136Y-59327715D01*
X72824536Y-59448028D01*
X72679778Y-59592786D01*
X72559465Y-59758386D01*
X72512235Y-59851080D01*
X72464260Y-59901876D01*
X72396439Y-59918671D01*
X72330304Y-59896134D01*
X72291265Y-59851080D01*
X72290633Y-59849840D01*
X72244037Y-59758390D01*
X72236306Y-59747749D01*
X72123721Y-59592786D01*
X71978963Y-59448028D01*
X71813363Y-59327715D01*
X71813362Y-59327714D01*
X71813360Y-59327713D01*
X71756403Y-59298691D01*
X71630973Y-59234781D01*
X71436284Y-59171522D01*
X71261745Y-59143878D01*
X71234102Y-59139500D01*
X71029398Y-59139500D01*
X71005079Y-59143351D01*
X70827215Y-59171522D01*
X70632526Y-59234781D01*
X70450136Y-59327715D01*
X70284536Y-59448028D01*
X70139778Y-59592786D01*
X70019465Y-59758386D01*
X69972235Y-59851080D01*
X69924260Y-59901876D01*
X69856439Y-59918671D01*
X69790304Y-59896134D01*
X69751265Y-59851080D01*
X69750633Y-59849840D01*
X69704037Y-59758390D01*
X69696306Y-59747749D01*
X69583721Y-59592786D01*
X69438963Y-59448028D01*
X69273363Y-59327715D01*
X69273362Y-59327714D01*
X69273360Y-59327713D01*
X69216403Y-59298691D01*
X69090973Y-59234781D01*
X68896284Y-59171522D01*
X68721745Y-59143878D01*
X68694102Y-59139500D01*
X68489398Y-59139500D01*
X68465079Y-59143351D01*
X68287215Y-59171522D01*
X68092526Y-59234781D01*
X67910136Y-59327715D01*
X67744536Y-59448028D01*
X67599778Y-59592786D01*
X67479465Y-59758386D01*
X67432235Y-59851080D01*
X67384260Y-59901876D01*
X67316439Y-59918671D01*
X67250304Y-59896134D01*
X67211265Y-59851080D01*
X67210633Y-59849840D01*
X67164037Y-59758390D01*
X67156306Y-59747749D01*
X67043721Y-59592786D01*
X66898963Y-59448028D01*
X66733363Y-59327715D01*
X66733362Y-59327714D01*
X66733360Y-59327713D01*
X66676403Y-59298691D01*
X66550973Y-59234781D01*
X66356284Y-59171522D01*
X66181745Y-59143878D01*
X66154102Y-59139500D01*
X65949398Y-59139500D01*
X65925079Y-59143351D01*
X65747215Y-59171522D01*
X65552526Y-59234781D01*
X65370136Y-59327715D01*
X65204536Y-59448028D01*
X65059778Y-59592786D01*
X64939465Y-59758386D01*
X64846531Y-59940776D01*
X64783272Y-60135465D01*
X64751250Y-60337648D01*
X64751250Y-60542351D01*
X64783272Y-60744534D01*
X64846531Y-60939223D01*
X64939465Y-61121613D01*
X65059778Y-61287213D01*
X65204536Y-61431971D01*
X65359499Y-61544556D01*
X65370140Y-61552287D01*
X65483371Y-61609981D01*
X65552526Y-61645218D01*
X65552528Y-61645218D01*
X65552531Y-61645220D01*
X65656887Y-61679127D01*
X65747215Y-61708477D01*
X65811735Y-61718696D01*
X65949398Y-61740500D01*
X65949399Y-61740500D01*
X66154101Y-61740500D01*
X66154102Y-61740500D01*
X66356284Y-61708477D01*
X66550969Y-61645220D01*
X66733360Y-61552287D01*
X66826340Y-61484732D01*
X66898963Y-61431971D01*
X66898965Y-61431968D01*
X66898969Y-61431966D01*
X67043716Y-61287219D01*
X67043718Y-61287215D01*
X67043721Y-61287213D01*
X67164034Y-61121614D01*
X67164035Y-61121613D01*
X67164037Y-61121610D01*
X67211266Y-61028917D01*
X67259239Y-60978123D01*
X67327060Y-60961328D01*
X67393195Y-60983865D01*
X67432235Y-61028919D01*
X67479465Y-61121614D01*
X67599778Y-61287213D01*
X67744536Y-61431971D01*
X67899499Y-61544556D01*
X67910140Y-61552287D01*
X68023371Y-61609981D01*
X68092526Y-61645218D01*
X68092528Y-61645218D01*
X68092531Y-61645220D01*
X68196887Y-61679127D01*
X68287215Y-61708477D01*
X68351735Y-61718696D01*
X68489398Y-61740500D01*
X68489399Y-61740500D01*
X68694101Y-61740500D01*
X68694102Y-61740500D01*
X68896284Y-61708477D01*
X69090969Y-61645220D01*
X69273360Y-61552287D01*
X69366340Y-61484732D01*
X69438963Y-61431971D01*
X69438965Y-61431968D01*
X69438969Y-61431966D01*
X69583716Y-61287219D01*
X69583718Y-61287215D01*
X69583721Y-61287213D01*
X69704034Y-61121614D01*
X69704035Y-61121613D01*
X69704037Y-61121610D01*
X69751266Y-61028917D01*
X69799239Y-60978123D01*
X69867060Y-60961328D01*
X69933195Y-60983865D01*
X69972235Y-61028919D01*
X70019465Y-61121614D01*
X70139778Y-61287213D01*
X70284536Y-61431971D01*
X70439499Y-61544556D01*
X70450140Y-61552287D01*
X70563371Y-61609981D01*
X70632526Y-61645218D01*
X70632528Y-61645218D01*
X70632531Y-61645220D01*
X70736887Y-61679127D01*
X70827215Y-61708477D01*
X70891735Y-61718696D01*
X71029398Y-61740500D01*
X71029399Y-61740500D01*
X71234101Y-61740500D01*
X71234102Y-61740500D01*
X71436284Y-61708477D01*
X71630969Y-61645220D01*
X71813360Y-61552287D01*
X71906340Y-61484732D01*
X71978963Y-61431971D01*
X71978965Y-61431968D01*
X71978969Y-61431966D01*
X72123716Y-61287219D01*
X72123718Y-61287215D01*
X72123721Y-61287213D01*
X72244034Y-61121614D01*
X72244035Y-61121613D01*
X72244037Y-61121610D01*
X72291266Y-61028917D01*
X72339239Y-60978123D01*
X72407060Y-60961328D01*
X72473195Y-60983865D01*
X72512235Y-61028919D01*
X72559465Y-61121614D01*
X72679778Y-61287213D01*
X72824536Y-61431971D01*
X72979499Y-61544556D01*
X72990140Y-61552287D01*
X73103371Y-61609981D01*
X73172526Y-61645218D01*
X73172528Y-61645218D01*
X73172531Y-61645220D01*
X73276887Y-61679127D01*
X73367215Y-61708477D01*
X73431735Y-61718696D01*
X73569398Y-61740500D01*
X73569399Y-61740500D01*
X73774101Y-61740500D01*
X73774102Y-61740500D01*
X73976284Y-61708477D01*
X74170969Y-61645220D01*
X74353360Y-61552287D01*
X74446340Y-61484732D01*
X74518963Y-61431971D01*
X74518965Y-61431968D01*
X74518969Y-61431966D01*
X74663716Y-61287219D01*
X74663718Y-61287215D01*
X74663721Y-61287213D01*
X74784034Y-61121614D01*
X74784035Y-61121613D01*
X74784037Y-61121610D01*
X74831266Y-61028917D01*
X74879239Y-60978123D01*
X74947060Y-60961328D01*
X75013195Y-60983865D01*
X75052235Y-61028919D01*
X75099465Y-61121614D01*
X75219778Y-61287213D01*
X75364536Y-61431971D01*
X75519499Y-61544556D01*
X75530140Y-61552287D01*
X75643371Y-61609981D01*
X75712526Y-61645218D01*
X75712528Y-61645218D01*
X75712531Y-61645220D01*
X75816887Y-61679127D01*
X75907215Y-61708477D01*
X75971735Y-61718696D01*
X76109398Y-61740500D01*
X76109399Y-61740500D01*
X76314101Y-61740500D01*
X76314102Y-61740500D01*
X76516284Y-61708477D01*
X76710969Y-61645220D01*
X76893360Y-61552287D01*
X76986340Y-61484732D01*
X77058963Y-61431971D01*
X77058965Y-61431968D01*
X77058969Y-61431966D01*
X77203716Y-61287219D01*
X77203718Y-61287215D01*
X77203721Y-61287213D01*
X77324034Y-61121614D01*
X77324035Y-61121613D01*
X77324037Y-61121610D01*
X77371266Y-61028917D01*
X77419239Y-60978123D01*
X77487060Y-60961328D01*
X77553195Y-60983865D01*
X77592235Y-61028919D01*
X77639465Y-61121614D01*
X77759778Y-61287213D01*
X77904536Y-61431971D01*
X78059499Y-61544556D01*
X78070140Y-61552287D01*
X78183371Y-61609981D01*
X78252526Y-61645218D01*
X78252528Y-61645218D01*
X78252531Y-61645220D01*
X78356887Y-61679127D01*
X78447215Y-61708477D01*
X78511735Y-61718696D01*
X78649398Y-61740500D01*
X78649399Y-61740500D01*
X78854101Y-61740500D01*
X78854102Y-61740500D01*
X79056284Y-61708477D01*
X79250969Y-61645220D01*
X79433360Y-61552287D01*
X79526340Y-61484732D01*
X79598963Y-61431971D01*
X79598965Y-61431968D01*
X79598969Y-61431966D01*
X79743716Y-61287219D01*
X79743718Y-61287215D01*
X79743721Y-61287213D01*
X79864034Y-61121614D01*
X79864035Y-61121613D01*
X79864037Y-61121610D01*
X79911266Y-61028917D01*
X79959239Y-60978123D01*
X80027060Y-60961328D01*
X80093195Y-60983865D01*
X80132235Y-61028919D01*
X80179465Y-61121614D01*
X80299778Y-61287213D01*
X80444536Y-61431971D01*
X80599499Y-61544556D01*
X80610140Y-61552287D01*
X80723371Y-61609981D01*
X80792526Y-61645218D01*
X80792528Y-61645218D01*
X80792531Y-61645220D01*
X80896887Y-61679127D01*
X80987215Y-61708477D01*
X81051735Y-61718696D01*
X81189398Y-61740500D01*
X81189399Y-61740500D01*
X81394101Y-61740500D01*
X81394102Y-61740500D01*
X81596284Y-61708477D01*
X81790969Y-61645220D01*
X81973360Y-61552287D01*
X82066340Y-61484732D01*
X82138963Y-61431971D01*
X82138965Y-61431968D01*
X82138969Y-61431966D01*
X82283716Y-61287219D01*
X82283718Y-61287215D01*
X82283721Y-61287213D01*
X82404034Y-61121614D01*
X82404035Y-61121613D01*
X82404037Y-61121610D01*
X82451266Y-61028917D01*
X82499239Y-60978123D01*
X82567060Y-60961328D01*
X82633195Y-60983865D01*
X82672235Y-61028919D01*
X82719465Y-61121614D01*
X82839778Y-61287213D01*
X82984536Y-61431971D01*
X83139499Y-61544556D01*
X83150140Y-61552287D01*
X83263371Y-61609981D01*
X83332526Y-61645218D01*
X83332528Y-61645218D01*
X83332531Y-61645220D01*
X83436887Y-61679127D01*
X83527215Y-61708477D01*
X83591735Y-61718696D01*
X83729398Y-61740500D01*
X83729399Y-61740500D01*
X83934101Y-61740500D01*
X83934102Y-61740500D01*
X84136284Y-61708477D01*
X84330969Y-61645220D01*
X84513360Y-61552287D01*
X84606340Y-61484732D01*
X84678963Y-61431971D01*
X84678965Y-61431968D01*
X84678969Y-61431966D01*
X84823716Y-61287219D01*
X84823718Y-61287215D01*
X84823721Y-61287213D01*
X84944034Y-61121614D01*
X84944035Y-61121613D01*
X84944037Y-61121610D01*
X84991266Y-61028917D01*
X85039239Y-60978123D01*
X85107060Y-60961328D01*
X85173195Y-60983865D01*
X85212235Y-61028919D01*
X85259465Y-61121614D01*
X85379778Y-61287213D01*
X85524536Y-61431971D01*
X85679499Y-61544556D01*
X85690140Y-61552287D01*
X85803371Y-61609981D01*
X85872526Y-61645218D01*
X85872528Y-61645218D01*
X85872531Y-61645220D01*
X85976887Y-61679127D01*
X86067215Y-61708477D01*
X86131735Y-61718696D01*
X86269398Y-61740500D01*
X86269399Y-61740500D01*
X86474101Y-61740500D01*
X86474102Y-61740500D01*
X86676284Y-61708477D01*
X86870969Y-61645220D01*
X87053360Y-61552287D01*
X87146340Y-61484732D01*
X87218963Y-61431971D01*
X87218965Y-61431968D01*
X87218969Y-61431966D01*
X87363716Y-61287219D01*
X87363718Y-61287215D01*
X87363721Y-61287213D01*
X87416482Y-61214590D01*
X87484037Y-61121610D01*
X87576970Y-60939219D01*
X87640227Y-60744534D01*
X87672250Y-60542352D01*
X87672250Y-60337648D01*
X90141250Y-60337648D01*
X90141250Y-60542351D01*
X90173272Y-60744534D01*
X90236531Y-60939223D01*
X90329465Y-61121613D01*
X90449778Y-61287213D01*
X90594536Y-61431971D01*
X90749499Y-61544556D01*
X90760140Y-61552287D01*
X90873371Y-61609981D01*
X90942526Y-61645218D01*
X90942528Y-61645218D01*
X90942531Y-61645220D01*
X91046887Y-61679127D01*
X91137215Y-61708477D01*
X91201735Y-61718696D01*
X91339398Y-61740500D01*
X91339399Y-61740500D01*
X91544101Y-61740500D01*
X91544102Y-61740500D01*
X91746284Y-61708477D01*
X91940969Y-61645220D01*
X92123360Y-61552287D01*
X92216340Y-61484732D01*
X92288963Y-61431971D01*
X92288965Y-61431968D01*
X92288969Y-61431966D01*
X92433716Y-61287219D01*
X92433718Y-61287215D01*
X92433721Y-61287213D01*
X92554034Y-61121614D01*
X92554035Y-61121613D01*
X92554037Y-61121610D01*
X92601266Y-61028917D01*
X92649239Y-60978123D01*
X92717060Y-60961328D01*
X92783195Y-60983865D01*
X92822235Y-61028919D01*
X92869465Y-61121614D01*
X92989778Y-61287213D01*
X93134536Y-61431971D01*
X93289499Y-61544556D01*
X93300140Y-61552287D01*
X93413371Y-61609981D01*
X93482526Y-61645218D01*
X93482528Y-61645218D01*
X93482531Y-61645220D01*
X93586887Y-61679127D01*
X93677215Y-61708477D01*
X93741735Y-61718696D01*
X93879398Y-61740500D01*
X93879399Y-61740500D01*
X94084101Y-61740500D01*
X94084102Y-61740500D01*
X94286284Y-61708477D01*
X94480969Y-61645220D01*
X94663360Y-61552287D01*
X94756340Y-61484732D01*
X94828963Y-61431971D01*
X94828965Y-61431968D01*
X94828969Y-61431966D01*
X94973716Y-61287219D01*
X94973718Y-61287215D01*
X94973721Y-61287213D01*
X95094034Y-61121614D01*
X95094035Y-61121613D01*
X95094037Y-61121610D01*
X95141266Y-61028917D01*
X95189239Y-60978123D01*
X95257060Y-60961328D01*
X95323195Y-60983865D01*
X95362235Y-61028919D01*
X95409465Y-61121614D01*
X95529778Y-61287213D01*
X95674536Y-61431971D01*
X95829499Y-61544556D01*
X95840140Y-61552287D01*
X95953371Y-61609981D01*
X96022526Y-61645218D01*
X96022528Y-61645218D01*
X96022531Y-61645220D01*
X96126887Y-61679127D01*
X96217215Y-61708477D01*
X96281735Y-61718696D01*
X96419398Y-61740500D01*
X96419399Y-61740500D01*
X96624101Y-61740500D01*
X96624102Y-61740500D01*
X96826284Y-61708477D01*
X97020969Y-61645220D01*
X97203360Y-61552287D01*
X97296340Y-61484732D01*
X97368963Y-61431971D01*
X97368965Y-61431968D01*
X97368969Y-61431966D01*
X97513716Y-61287219D01*
X97513718Y-61287215D01*
X97513721Y-61287213D01*
X97634034Y-61121614D01*
X97634035Y-61121613D01*
X97634037Y-61121610D01*
X97681266Y-61028917D01*
X97729239Y-60978123D01*
X97797060Y-60961328D01*
X97863195Y-60983865D01*
X97902235Y-61028919D01*
X97949465Y-61121614D01*
X98069778Y-61287213D01*
X98214536Y-61431971D01*
X98369499Y-61544556D01*
X98380140Y-61552287D01*
X98493371Y-61609981D01*
X98562526Y-61645218D01*
X98562528Y-61645218D01*
X98562531Y-61645220D01*
X98666887Y-61679127D01*
X98757215Y-61708477D01*
X98821735Y-61718696D01*
X98959398Y-61740500D01*
X98959399Y-61740500D01*
X99164101Y-61740500D01*
X99164102Y-61740500D01*
X99366284Y-61708477D01*
X99560969Y-61645220D01*
X99743360Y-61552287D01*
X99836340Y-61484732D01*
X99908963Y-61431971D01*
X99908965Y-61431968D01*
X99908969Y-61431966D01*
X100053716Y-61287219D01*
X100053718Y-61287215D01*
X100053721Y-61287213D01*
X100174034Y-61121614D01*
X100174035Y-61121613D01*
X100174037Y-61121610D01*
X100221266Y-61028917D01*
X100269239Y-60978123D01*
X100337060Y-60961328D01*
X100403195Y-60983865D01*
X100442235Y-61028919D01*
X100489465Y-61121614D01*
X100609778Y-61287213D01*
X100754536Y-61431971D01*
X100909499Y-61544556D01*
X100920140Y-61552287D01*
X101033371Y-61609981D01*
X101102526Y-61645218D01*
X101102528Y-61645218D01*
X101102531Y-61645220D01*
X101206887Y-61679127D01*
X101297215Y-61708477D01*
X101361735Y-61718696D01*
X101499398Y-61740500D01*
X101499399Y-61740500D01*
X101704101Y-61740500D01*
X101704102Y-61740500D01*
X101906284Y-61708477D01*
X102100969Y-61645220D01*
X102283360Y-61552287D01*
X102376340Y-61484732D01*
X102448963Y-61431971D01*
X102448965Y-61431968D01*
X102448969Y-61431966D01*
X102593716Y-61287219D01*
X102593718Y-61287215D01*
X102593721Y-61287213D01*
X102714034Y-61121614D01*
X102714035Y-61121613D01*
X102714037Y-61121610D01*
X102761266Y-61028917D01*
X102809239Y-60978123D01*
X102877060Y-60961328D01*
X102943195Y-60983865D01*
X102982235Y-61028919D01*
X103029465Y-61121614D01*
X103149778Y-61287213D01*
X103294536Y-61431971D01*
X103449499Y-61544556D01*
X103460140Y-61552287D01*
X103573371Y-61609981D01*
X103642526Y-61645218D01*
X103642528Y-61645218D01*
X103642531Y-61645220D01*
X103746887Y-61679127D01*
X103837215Y-61708477D01*
X103901735Y-61718696D01*
X104039398Y-61740500D01*
X104039399Y-61740500D01*
X104244101Y-61740500D01*
X104244102Y-61740500D01*
X104446284Y-61708477D01*
X104640969Y-61645220D01*
X104823360Y-61552287D01*
X104916340Y-61484732D01*
X104988963Y-61431971D01*
X104988965Y-61431968D01*
X104988969Y-61431966D01*
X105133716Y-61287219D01*
X105133718Y-61287215D01*
X105133721Y-61287213D01*
X105254034Y-61121614D01*
X105254035Y-61121613D01*
X105254037Y-61121610D01*
X105301266Y-61028917D01*
X105349239Y-60978123D01*
X105417060Y-60961328D01*
X105483195Y-60983865D01*
X105522235Y-61028919D01*
X105569465Y-61121614D01*
X105689778Y-61287213D01*
X105834536Y-61431971D01*
X105989499Y-61544556D01*
X106000140Y-61552287D01*
X106113371Y-61609981D01*
X106182526Y-61645218D01*
X106182528Y-61645218D01*
X106182531Y-61645220D01*
X106286887Y-61679127D01*
X106377215Y-61708477D01*
X106441735Y-61718696D01*
X106579398Y-61740500D01*
X106579399Y-61740500D01*
X106784101Y-61740500D01*
X106784102Y-61740500D01*
X106986284Y-61708477D01*
X107180969Y-61645220D01*
X107363360Y-61552287D01*
X107456340Y-61484732D01*
X107528963Y-61431971D01*
X107528965Y-61431968D01*
X107528969Y-61431966D01*
X107673716Y-61287219D01*
X107673718Y-61287215D01*
X107673721Y-61287213D01*
X107794034Y-61121614D01*
X107794035Y-61121613D01*
X107794037Y-61121610D01*
X107841266Y-61028917D01*
X107889239Y-60978123D01*
X107957060Y-60961328D01*
X108023195Y-60983865D01*
X108062235Y-61028919D01*
X108109465Y-61121614D01*
X108229778Y-61287213D01*
X108374536Y-61431971D01*
X108529499Y-61544556D01*
X108540140Y-61552287D01*
X108653371Y-61609981D01*
X108722526Y-61645218D01*
X108722528Y-61645218D01*
X108722531Y-61645220D01*
X108826887Y-61679127D01*
X108917215Y-61708477D01*
X108981735Y-61718696D01*
X109119398Y-61740500D01*
X109119399Y-61740500D01*
X109324101Y-61740500D01*
X109324102Y-61740500D01*
X109526284Y-61708477D01*
X109720969Y-61645220D01*
X109903360Y-61552287D01*
X109996340Y-61484732D01*
X110068963Y-61431971D01*
X110068965Y-61431968D01*
X110068969Y-61431966D01*
X110213716Y-61287219D01*
X110213718Y-61287215D01*
X110213721Y-61287213D01*
X110334034Y-61121614D01*
X110334035Y-61121613D01*
X110334037Y-61121610D01*
X110381266Y-61028917D01*
X110429239Y-60978123D01*
X110497060Y-60961328D01*
X110563195Y-60983865D01*
X110602235Y-61028919D01*
X110649465Y-61121614D01*
X110769778Y-61287213D01*
X110914536Y-61431971D01*
X111069499Y-61544556D01*
X111080140Y-61552287D01*
X111193371Y-61609981D01*
X111262526Y-61645218D01*
X111262528Y-61645218D01*
X111262531Y-61645220D01*
X111366887Y-61679127D01*
X111457215Y-61708477D01*
X111521735Y-61718696D01*
X111659398Y-61740500D01*
X111659399Y-61740500D01*
X111864101Y-61740500D01*
X111864102Y-61740500D01*
X112066284Y-61708477D01*
X112260969Y-61645220D01*
X112443360Y-61552287D01*
X112536340Y-61484732D01*
X112608963Y-61431971D01*
X112608965Y-61431968D01*
X112608969Y-61431966D01*
X112753716Y-61287219D01*
X112753718Y-61287215D01*
X112753721Y-61287213D01*
X112806482Y-61214590D01*
X112874037Y-61121610D01*
X112966970Y-60939219D01*
X113030227Y-60744534D01*
X113062250Y-60542352D01*
X113062250Y-60337648D01*
X113030227Y-60135466D01*
X112966970Y-59940781D01*
X112966968Y-59940778D01*
X112966968Y-59940776D01*
X112921265Y-59851080D01*
X112874037Y-59758390D01*
X112866306Y-59747749D01*
X112753721Y-59592786D01*
X112608963Y-59448028D01*
X112443363Y-59327715D01*
X112443362Y-59327714D01*
X112443360Y-59327713D01*
X112386403Y-59298691D01*
X112260973Y-59234781D01*
X112066284Y-59171522D01*
X111891745Y-59143878D01*
X111864102Y-59139500D01*
X111659398Y-59139500D01*
X111635079Y-59143351D01*
X111457215Y-59171522D01*
X111262526Y-59234781D01*
X111080136Y-59327715D01*
X110914536Y-59448028D01*
X110769778Y-59592786D01*
X110649465Y-59758386D01*
X110602235Y-59851080D01*
X110554260Y-59901876D01*
X110486439Y-59918671D01*
X110420304Y-59896134D01*
X110381265Y-59851080D01*
X110380633Y-59849840D01*
X110334037Y-59758390D01*
X110326306Y-59747749D01*
X110213721Y-59592786D01*
X110068963Y-59448028D01*
X109903363Y-59327715D01*
X109903362Y-59327714D01*
X109903360Y-59327713D01*
X109846403Y-59298691D01*
X109720973Y-59234781D01*
X109526284Y-59171522D01*
X109351745Y-59143878D01*
X109324102Y-59139500D01*
X109119398Y-59139500D01*
X109095079Y-59143351D01*
X108917215Y-59171522D01*
X108722526Y-59234781D01*
X108540136Y-59327715D01*
X108374536Y-59448028D01*
X108229778Y-59592786D01*
X108109465Y-59758386D01*
X108062235Y-59851080D01*
X108014260Y-59901876D01*
X107946439Y-59918671D01*
X107880304Y-59896134D01*
X107841265Y-59851080D01*
X107840633Y-59849840D01*
X107794037Y-59758390D01*
X107786306Y-59747749D01*
X107673721Y-59592786D01*
X107528963Y-59448028D01*
X107363363Y-59327715D01*
X107363362Y-59327714D01*
X107363360Y-59327713D01*
X107306403Y-59298691D01*
X107180973Y-59234781D01*
X106986284Y-59171522D01*
X106811745Y-59143878D01*
X106784102Y-59139500D01*
X106579398Y-59139500D01*
X106555079Y-59143351D01*
X106377215Y-59171522D01*
X106182526Y-59234781D01*
X106000136Y-59327715D01*
X105834536Y-59448028D01*
X105689778Y-59592786D01*
X105569465Y-59758386D01*
X105522235Y-59851080D01*
X105474260Y-59901876D01*
X105406439Y-59918671D01*
X105340304Y-59896134D01*
X105301265Y-59851080D01*
X105300633Y-59849840D01*
X105254037Y-59758390D01*
X105246306Y-59747749D01*
X105133721Y-59592786D01*
X104988963Y-59448028D01*
X104823363Y-59327715D01*
X104823362Y-59327714D01*
X104823360Y-59327713D01*
X104766403Y-59298691D01*
X104640973Y-59234781D01*
X104446284Y-59171522D01*
X104271745Y-59143878D01*
X104244102Y-59139500D01*
X104039398Y-59139500D01*
X104015079Y-59143351D01*
X103837215Y-59171522D01*
X103642526Y-59234781D01*
X103460136Y-59327715D01*
X103294536Y-59448028D01*
X103149778Y-59592786D01*
X103029465Y-59758386D01*
X102982235Y-59851080D01*
X102934260Y-59901876D01*
X102866439Y-59918671D01*
X102800304Y-59896134D01*
X102761265Y-59851080D01*
X102760633Y-59849840D01*
X102714037Y-59758390D01*
X102706306Y-59747749D01*
X102593721Y-59592786D01*
X102448963Y-59448028D01*
X102283363Y-59327715D01*
X102283362Y-59327714D01*
X102283360Y-59327713D01*
X102226403Y-59298691D01*
X102100973Y-59234781D01*
X101906284Y-59171522D01*
X101731745Y-59143878D01*
X101704102Y-59139500D01*
X101499398Y-59139500D01*
X101475079Y-59143351D01*
X101297215Y-59171522D01*
X101102526Y-59234781D01*
X100920136Y-59327715D01*
X100754536Y-59448028D01*
X100609778Y-59592786D01*
X100489465Y-59758386D01*
X100442235Y-59851080D01*
X100394260Y-59901876D01*
X100326439Y-59918671D01*
X100260304Y-59896134D01*
X100221265Y-59851080D01*
X100220633Y-59849840D01*
X100174037Y-59758390D01*
X100166306Y-59747749D01*
X100053721Y-59592786D01*
X99908963Y-59448028D01*
X99743363Y-59327715D01*
X99743362Y-59327714D01*
X99743360Y-59327713D01*
X99686403Y-59298691D01*
X99560973Y-59234781D01*
X99366284Y-59171522D01*
X99191745Y-59143878D01*
X99164102Y-59139500D01*
X98959398Y-59139500D01*
X98935079Y-59143351D01*
X98757215Y-59171522D01*
X98562526Y-59234781D01*
X98380136Y-59327715D01*
X98214536Y-59448028D01*
X98069778Y-59592786D01*
X97949465Y-59758386D01*
X97902235Y-59851080D01*
X97854260Y-59901876D01*
X97786439Y-59918671D01*
X97720304Y-59896134D01*
X97681265Y-59851080D01*
X97680633Y-59849840D01*
X97634037Y-59758390D01*
X97626306Y-59747749D01*
X97513721Y-59592786D01*
X97368963Y-59448028D01*
X97203363Y-59327715D01*
X97203362Y-59327714D01*
X97203360Y-59327713D01*
X97146403Y-59298691D01*
X97020973Y-59234781D01*
X96826284Y-59171522D01*
X96651745Y-59143878D01*
X96624102Y-59139500D01*
X96419398Y-59139500D01*
X96395079Y-59143351D01*
X96217215Y-59171522D01*
X96022526Y-59234781D01*
X95840136Y-59327715D01*
X95674536Y-59448028D01*
X95529778Y-59592786D01*
X95409465Y-59758386D01*
X95362235Y-59851080D01*
X95314260Y-59901876D01*
X95246439Y-59918671D01*
X95180304Y-59896134D01*
X95141265Y-59851080D01*
X95140633Y-59849840D01*
X95094037Y-59758390D01*
X95086306Y-59747749D01*
X94973721Y-59592786D01*
X94828963Y-59448028D01*
X94663363Y-59327715D01*
X94663362Y-59327714D01*
X94663360Y-59327713D01*
X94606403Y-59298691D01*
X94480973Y-59234781D01*
X94286284Y-59171522D01*
X94111745Y-59143878D01*
X94084102Y-59139500D01*
X93879398Y-59139500D01*
X93855079Y-59143351D01*
X93677215Y-59171522D01*
X93482526Y-59234781D01*
X93300136Y-59327715D01*
X93134536Y-59448028D01*
X92989778Y-59592786D01*
X92869465Y-59758386D01*
X92822235Y-59851080D01*
X92774260Y-59901876D01*
X92706439Y-59918671D01*
X92640304Y-59896134D01*
X92601265Y-59851080D01*
X92600633Y-59849840D01*
X92554037Y-59758390D01*
X92546306Y-59747749D01*
X92433721Y-59592786D01*
X92288963Y-59448028D01*
X92123363Y-59327715D01*
X92123362Y-59327714D01*
X92123360Y-59327713D01*
X92066403Y-59298691D01*
X91940973Y-59234781D01*
X91746284Y-59171522D01*
X91571745Y-59143878D01*
X91544102Y-59139500D01*
X91339398Y-59139500D01*
X91315079Y-59143351D01*
X91137215Y-59171522D01*
X90942526Y-59234781D01*
X90760136Y-59327715D01*
X90594536Y-59448028D01*
X90449778Y-59592786D01*
X90329465Y-59758386D01*
X90236531Y-59940776D01*
X90173272Y-60135465D01*
X90141250Y-60337648D01*
X87672250Y-60337648D01*
X87640227Y-60135466D01*
X87576970Y-59940781D01*
X87576968Y-59940778D01*
X87576968Y-59940776D01*
X87531265Y-59851080D01*
X87484037Y-59758390D01*
X87476306Y-59747749D01*
X87363721Y-59592786D01*
X87218963Y-59448028D01*
X87053363Y-59327715D01*
X87053362Y-59327714D01*
X87053360Y-59327713D01*
X86996403Y-59298691D01*
X86870973Y-59234781D01*
X86676284Y-59171522D01*
X86501745Y-59143878D01*
X86474102Y-59139500D01*
X86269398Y-59139500D01*
X86245079Y-59143351D01*
X86067215Y-59171522D01*
X85872526Y-59234781D01*
X85690136Y-59327715D01*
X85524536Y-59448028D01*
X85379778Y-59592786D01*
X85259465Y-59758386D01*
X85212235Y-59851080D01*
X85164260Y-59901876D01*
X85096439Y-59918671D01*
X85030304Y-59896134D01*
X84991265Y-59851080D01*
X84990633Y-59849840D01*
X84944037Y-59758390D01*
X84936306Y-59747749D01*
X84823721Y-59592786D01*
X84678963Y-59448028D01*
X84513363Y-59327715D01*
X84513362Y-59327714D01*
X84513360Y-59327713D01*
X84456403Y-59298691D01*
X84330973Y-59234781D01*
X84136284Y-59171522D01*
X83961745Y-59143878D01*
X83934102Y-59139500D01*
X83934101Y-59139500D01*
X83785401Y-59139500D01*
X83718362Y-59119815D01*
X83697720Y-59103181D01*
X78933915Y-54339375D01*
X78933911Y-54339372D01*
X78794616Y-54246297D01*
X78794613Y-54246296D01*
X78685166Y-54200962D01*
X78685164Y-54200961D01*
X78639836Y-54182185D01*
X78639824Y-54182182D01*
X78475521Y-54149500D01*
X78475517Y-54149500D01*
X59130335Y-54149500D01*
X59063296Y-54129815D01*
X59017541Y-54077011D01*
X59012629Y-54064504D01*
X58993854Y-54007845D01*
X58976564Y-53955666D01*
X58884462Y-53806344D01*
X58760406Y-53682288D01*
X58611084Y-53590186D01*
X58444547Y-53535001D01*
X58444545Y-53535000D01*
X58341760Y-53524500D01*
X57041748Y-53524500D01*
X57041731Y-53524501D01*
X56938953Y-53535000D01*
X56938950Y-53535001D01*
X56772418Y-53590185D01*
X56772413Y-53590187D01*
X56623092Y-53682289D01*
X56499039Y-53806342D01*
X56403571Y-53961121D01*
X56351623Y-54007845D01*
X56282660Y-54019068D01*
X56218578Y-53991224D01*
X56210351Y-53983705D01*
X56071536Y-53844890D01*
X55899570Y-53719951D01*
X55710164Y-53623444D01*
X55710163Y-53623443D01*
X55710162Y-53623443D01*
X55507993Y-53557754D01*
X55507991Y-53557753D01*
X55507990Y-53557753D01*
X55346707Y-53532208D01*
X55298037Y-53524500D01*
X55085463Y-53524500D01*
X55036792Y-53532208D01*
X54875510Y-53557753D01*
X54673335Y-53623444D01*
X54483929Y-53719951D01*
X54311963Y-53844890D01*
X54161640Y-53995213D01*
X54036701Y-54167179D01*
X53940194Y-54356585D01*
X53874503Y-54558760D01*
X53841250Y-54768713D01*
X51542250Y-54768713D01*
X51508996Y-54558757D01*
X51443307Y-54356588D01*
X51346801Y-54167184D01*
X51346799Y-54167181D01*
X51346798Y-54167179D01*
X51221859Y-53995213D01*
X51071536Y-53844890D01*
X50899570Y-53719951D01*
X50710164Y-53623444D01*
X50710163Y-53623443D01*
X50710162Y-53623443D01*
X50507993Y-53557754D01*
X50507991Y-53557753D01*
X50507990Y-53557753D01*
X50346707Y-53532208D01*
X50298037Y-53524500D01*
X50085463Y-53524500D01*
X50036792Y-53532208D01*
X49875510Y-53557753D01*
X49673335Y-53623444D01*
X49483929Y-53719951D01*
X49311963Y-53844890D01*
X49161640Y-53995213D01*
X49036701Y-54167179D01*
X48940194Y-54356585D01*
X48874503Y-54558760D01*
X48841250Y-54768713D01*
X22740500Y-54768713D01*
X22740500Y-51428549D01*
X39421250Y-51428549D01*
X39421250Y-51651450D01*
X39421251Y-51651466D01*
X39450344Y-51872452D01*
X39450345Y-51872457D01*
X39450346Y-51872463D01*
X39508040Y-52087780D01*
X39508043Y-52087790D01*
X39593343Y-52293722D01*
X39593345Y-52293726D01*
X39704802Y-52486774D01*
X39704807Y-52486780D01*
X39704808Y-52486782D01*
X39840501Y-52663622D01*
X39840507Y-52663629D01*
X39998120Y-52821242D01*
X39998126Y-52821247D01*
X40174976Y-52956948D01*
X40368024Y-53068405D01*
X40573969Y-53153710D01*
X40789287Y-53211404D01*
X41010293Y-53240500D01*
X41010300Y-53240500D01*
X41233200Y-53240500D01*
X41233207Y-53240500D01*
X41454213Y-53211404D01*
X41669531Y-53153710D01*
X41875476Y-53068405D01*
X42068524Y-52956948D01*
X42245374Y-52821247D01*
X42402997Y-52663624D01*
X42538698Y-52486774D01*
X42650155Y-52293726D01*
X42735460Y-52087781D01*
X42793154Y-51872463D01*
X42822250Y-51651457D01*
X42822250Y-51428543D01*
X42793154Y-51207537D01*
X42735460Y-50992219D01*
X42650155Y-50786274D01*
X42538698Y-50593226D01*
X42402997Y-50416376D01*
X42402992Y-50416370D01*
X42245379Y-50258757D01*
X42170763Y-50201502D01*
X42129561Y-50145074D01*
X42122250Y-50103126D01*
X42122250Y-43970593D01*
X42141935Y-43903554D01*
X42147253Y-43896397D01*
X42147129Y-43896307D01*
X42259269Y-43741957D01*
X42279565Y-43714022D01*
X42379645Y-43517606D01*
X42447765Y-43307951D01*
X42482250Y-43090222D01*
X42482250Y-42869778D01*
X42447765Y-42652049D01*
X42399940Y-42504857D01*
X42379646Y-42442396D01*
X42379645Y-42442393D01*
X42344987Y-42374375D01*
X42279565Y-42245978D01*
X42239046Y-42190208D01*
X42149997Y-42067641D01*
X42149993Y-42067636D01*
X41994113Y-41911756D01*
X41994108Y-41911752D01*
X41815775Y-41782187D01*
X41815774Y-41782186D01*
X41815772Y-41782185D01*
X41752846Y-41750122D01*
X41619356Y-41682104D01*
X41619353Y-41682103D01*
X41409702Y-41613985D01*
X41300836Y-41596742D01*
X41191972Y-41579500D01*
X40971528Y-41579500D01*
X40898951Y-41590995D01*
X40753797Y-41613985D01*
X40544146Y-41682103D01*
X40544143Y-41682104D01*
X40347724Y-41782187D01*
X40169391Y-41911752D01*
X40169386Y-41911756D01*
X40013506Y-42067636D01*
X40013502Y-42067641D01*
X39883937Y-42245974D01*
X39783854Y-42442393D01*
X39783853Y-42442396D01*
X39715735Y-42652047D01*
X39681250Y-42869778D01*
X39681250Y-43090221D01*
X39715735Y-43307952D01*
X39783853Y-43517603D01*
X39783854Y-43517606D01*
X39851872Y-43651096D01*
X39874777Y-43696049D01*
X39883937Y-43714025D01*
X40013502Y-43892358D01*
X40013506Y-43892363D01*
X40084931Y-43963788D01*
X40118416Y-44025111D01*
X40121250Y-44051469D01*
X40121250Y-50103126D01*
X40101565Y-50170165D01*
X40072737Y-50201502D01*
X39998120Y-50258757D01*
X39840507Y-50416370D01*
X39840501Y-50416377D01*
X39704808Y-50593217D01*
X39704802Y-50593226D01*
X39593345Y-50786273D01*
X39593343Y-50786277D01*
X39508043Y-50992209D01*
X39508040Y-50992219D01*
X39450347Y-51207534D01*
X39450344Y-51207547D01*
X39421251Y-51428533D01*
X39421250Y-51428549D01*
X22740500Y-51428549D01*
X22740500Y-41857857D01*
X26699500Y-41857857D01*
X26699500Y-42182143D01*
X26700295Y-42190213D01*
X26731284Y-42504857D01*
X26731287Y-42504874D01*
X26794545Y-42822902D01*
X26794548Y-42822913D01*
X26888686Y-43133247D01*
X27012786Y-43432849D01*
X27012788Y-43432854D01*
X27165646Y-43718830D01*
X27165657Y-43718848D01*
X27345811Y-43988467D01*
X27345821Y-43988481D01*
X27551546Y-44239158D01*
X27780841Y-44468453D01*
X27780846Y-44468457D01*
X27780847Y-44468458D01*
X28031524Y-44674183D01*
X28301158Y-44854347D01*
X28301167Y-44854352D01*
X28301169Y-44854353D01*
X28587145Y-45007211D01*
X28587147Y-45007211D01*
X28587153Y-45007215D01*
X28886754Y-45131314D01*
X29197077Y-45225449D01*
X29197083Y-45225450D01*
X29197086Y-45225451D01*
X29197097Y-45225454D01*
X29396528Y-45265122D01*
X29515132Y-45288714D01*
X29837857Y-45320500D01*
X29837860Y-45320500D01*
X30162140Y-45320500D01*
X30162143Y-45320500D01*
X30484868Y-45288714D01*
X30660609Y-45253757D01*
X30802902Y-45225454D01*
X30802913Y-45225451D01*
X30802913Y-45225450D01*
X30802923Y-45225449D01*
X31113246Y-45131314D01*
X31412847Y-45007215D01*
X31698842Y-44854347D01*
X31968476Y-44674183D01*
X32219153Y-44468458D01*
X32448458Y-44239153D01*
X32654183Y-43988476D01*
X32834347Y-43718842D01*
X32987215Y-43432847D01*
X33111314Y-43133246D01*
X33205449Y-42822923D01*
X33205451Y-42822913D01*
X33205454Y-42822902D01*
X33239438Y-42652047D01*
X33268714Y-42504868D01*
X33300500Y-42182143D01*
X33300500Y-41857857D01*
X33268714Y-41535132D01*
X33233880Y-41360008D01*
X33205454Y-41217097D01*
X33205451Y-41217086D01*
X33205450Y-41217083D01*
X33205449Y-41217077D01*
X33111314Y-40906754D01*
X32987215Y-40607153D01*
X32910544Y-40463713D01*
X32834353Y-40321169D01*
X32834352Y-40321167D01*
X32834347Y-40321158D01*
X32654183Y-40051524D01*
X32448458Y-39800847D01*
X32448456Y-39800845D01*
X32448452Y-39800840D01*
X32407595Y-39759983D01*
X55751250Y-39759983D01*
X55751250Y-41360001D01*
X55751251Y-41360018D01*
X55761750Y-41462796D01*
X55761751Y-41462799D01*
X55807250Y-41600103D01*
X55816936Y-41629334D01*
X55909038Y-41778656D01*
X56033094Y-41902712D01*
X56182416Y-41994814D01*
X56348953Y-42049999D01*
X56451741Y-42060500D01*
X57751758Y-42060499D01*
X57854547Y-42049999D01*
X58021084Y-41994814D01*
X58170406Y-41902712D01*
X58226299Y-41846819D01*
X58287622Y-41813334D01*
X58313980Y-41810500D01*
X66577250Y-41810500D01*
X66644289Y-41830185D01*
X66690044Y-41882989D01*
X66701250Y-41934500D01*
X66701250Y-49210172D01*
X66732040Y-49404576D01*
X66792867Y-49591780D01*
X66843022Y-49690213D01*
X66882226Y-49767155D01*
X66997922Y-49926396D01*
X68595354Y-51523828D01*
X68754595Y-51639524D01*
X68778033Y-51651466D01*
X68929969Y-51728882D01*
X68929971Y-51728882D01*
X68929974Y-51728884D01*
X69030318Y-51761487D01*
X69117173Y-51789709D01*
X69311578Y-51820500D01*
X69311583Y-51820500D01*
X69311584Y-51820500D01*
X69508417Y-51820500D01*
X69985444Y-51820500D01*
X70023762Y-51826569D01*
X70096538Y-51850215D01*
X70210507Y-51887246D01*
X70420463Y-51920500D01*
X70420464Y-51920500D01*
X70883036Y-51920500D01*
X70883037Y-51920500D01*
X71092993Y-51887246D01*
X71223976Y-51844686D01*
X71279738Y-51826569D01*
X71318056Y-51820500D01*
X77971444Y-51820500D01*
X78009762Y-51826569D01*
X78082538Y-51850215D01*
X78196507Y-51887246D01*
X78406463Y-51920500D01*
X78406464Y-51920500D01*
X78869036Y-51920500D01*
X78869037Y-51920500D01*
X79078993Y-51887246D01*
X79209976Y-51844686D01*
X79265738Y-51826569D01*
X79304056Y-51820500D01*
X85071583Y-51820500D01*
X85268416Y-51820500D01*
X85957444Y-51820500D01*
X85995762Y-51826569D01*
X86068538Y-51850215D01*
X86182507Y-51887246D01*
X86392463Y-51920500D01*
X86392464Y-51920500D01*
X86855036Y-51920500D01*
X86855037Y-51920500D01*
X87064993Y-51887246D01*
X87195976Y-51844686D01*
X87251738Y-51826569D01*
X87290056Y-51820500D01*
X93943444Y-51820500D01*
X93981762Y-51826569D01*
X94054538Y-51850215D01*
X94168507Y-51887246D01*
X94378463Y-51920500D01*
X94378464Y-51920500D01*
X94841036Y-51920500D01*
X94841037Y-51920500D01*
X95050993Y-51887246D01*
X95181976Y-51844686D01*
X95237738Y-51826569D01*
X95276056Y-51820500D01*
X101929444Y-51820500D01*
X101967762Y-51826569D01*
X102040538Y-51850215D01*
X102154507Y-51887246D01*
X102364463Y-51920500D01*
X102364464Y-51920500D01*
X102827036Y-51920500D01*
X102827037Y-51920500D01*
X103036993Y-51887246D01*
X103167976Y-51844686D01*
X103223738Y-51826569D01*
X103262056Y-51820500D01*
X109031583Y-51820500D01*
X109031584Y-51820500D01*
X109228417Y-51820500D01*
X109915444Y-51820500D01*
X109953762Y-51826569D01*
X110026538Y-51850215D01*
X110140507Y-51887246D01*
X110350463Y-51920500D01*
X110350464Y-51920500D01*
X110813036Y-51920500D01*
X110813037Y-51920500D01*
X111022993Y-51887246D01*
X111225162Y-51821557D01*
X111414566Y-51725051D01*
X111515848Y-51651466D01*
X111586536Y-51600109D01*
X111586538Y-51600106D01*
X111586542Y-51600104D01*
X111736854Y-51449792D01*
X111736856Y-51449788D01*
X111736859Y-51449786D01*
X111861798Y-51277820D01*
X111861797Y-51277820D01*
X111861801Y-51277816D01*
X111958307Y-51088412D01*
X112023996Y-50886243D01*
X112057250Y-50676287D01*
X112057250Y-50463713D01*
X112023996Y-50253757D01*
X111958307Y-50051588D01*
X111861801Y-49862184D01*
X111861799Y-49862181D01*
X111861798Y-49862179D01*
X111736859Y-49690213D01*
X111586542Y-49539896D01*
X111421954Y-49420316D01*
X111379290Y-49364989D01*
X111373311Y-49295376D01*
X111405916Y-49233580D01*
X111421949Y-49219686D01*
X111586542Y-49100104D01*
X111736854Y-48949792D01*
X111736856Y-48949788D01*
X111736859Y-48949786D01*
X111861798Y-48777820D01*
X111861797Y-48777820D01*
X111861801Y-48777816D01*
X111958307Y-48588412D01*
X112023996Y-48386243D01*
X112057250Y-48176287D01*
X112057250Y-47963713D01*
X112023996Y-47753757D01*
X111958307Y-47551588D01*
X111861801Y-47362184D01*
X111861799Y-47362181D01*
X111861798Y-47362179D01*
X111736859Y-47190213D01*
X111586542Y-47039896D01*
X111567007Y-47025703D01*
X111421954Y-46920316D01*
X111379290Y-46864989D01*
X111373311Y-46795376D01*
X111405916Y-46733580D01*
X111421949Y-46719686D01*
X111586542Y-46600104D01*
X111736854Y-46449792D01*
X111736856Y-46449788D01*
X111736859Y-46449786D01*
X111861798Y-46277820D01*
X111861797Y-46277820D01*
X111861801Y-46277816D01*
X111958307Y-46088412D01*
X112023996Y-45886243D01*
X112057250Y-45676287D01*
X112057250Y-45463713D01*
X112023996Y-45253757D01*
X111958307Y-45051588D01*
X111861801Y-44862184D01*
X111861799Y-44862181D01*
X111861798Y-44862179D01*
X111736859Y-44690213D01*
X111586542Y-44539896D01*
X111488208Y-44468453D01*
X111421954Y-44420316D01*
X111379290Y-44364989D01*
X111373311Y-44295376D01*
X111405916Y-44233580D01*
X111421949Y-44219686D01*
X111586542Y-44100104D01*
X111736854Y-43949792D01*
X111736856Y-43949788D01*
X111736859Y-43949786D01*
X111861798Y-43777820D01*
X111861800Y-43777817D01*
X111861801Y-43777816D01*
X111958307Y-43588412D01*
X112023996Y-43386243D01*
X112057250Y-43176287D01*
X112057250Y-42963713D01*
X112023996Y-42753757D01*
X111958307Y-42551588D01*
X111861801Y-42362184D01*
X111861799Y-42362181D01*
X111861798Y-42362179D01*
X111736859Y-42190213D01*
X111586542Y-42039896D01*
X111548527Y-42012277D01*
X111421954Y-41920316D01*
X111379290Y-41864989D01*
X111373311Y-41795376D01*
X111405916Y-41733580D01*
X111421949Y-41719686D01*
X111586542Y-41600104D01*
X111736854Y-41449792D01*
X111736856Y-41449788D01*
X111736859Y-41449786D01*
X111861798Y-41277820D01*
X111861797Y-41277820D01*
X111861801Y-41277816D01*
X111958307Y-41088412D01*
X112023996Y-40886243D01*
X112057250Y-40676287D01*
X112057250Y-40463713D01*
X112023996Y-40253757D01*
X111958307Y-40051588D01*
X111861801Y-39862184D01*
X111861799Y-39862181D01*
X111861798Y-39862179D01*
X111736859Y-39690213D01*
X111598044Y-39551398D01*
X111564559Y-39490075D01*
X111569543Y-39420383D01*
X111611415Y-39364450D01*
X111620629Y-39358178D01*
X111626081Y-39354814D01*
X111626084Y-39354814D01*
X111775406Y-39262712D01*
X111899462Y-39138656D01*
X111991564Y-38989334D01*
X112046749Y-38822797D01*
X112057250Y-38720009D01*
X112057249Y-37419992D01*
X112046749Y-37317203D01*
X111991564Y-37150666D01*
X111899462Y-37001344D01*
X111775406Y-36877288D01*
X111626084Y-36785186D01*
X111459547Y-36730001D01*
X111459545Y-36730000D01*
X111356760Y-36719500D01*
X109806748Y-36719500D01*
X109806731Y-36719501D01*
X109703953Y-36730000D01*
X109703950Y-36730001D01*
X109537418Y-36785185D01*
X109537413Y-36785187D01*
X109388092Y-36877289D01*
X109264039Y-37001342D01*
X109171937Y-37150663D01*
X109171936Y-37150666D01*
X109116751Y-37317203D01*
X109116751Y-37317204D01*
X109116750Y-37317204D01*
X109106250Y-37419983D01*
X109106250Y-38720001D01*
X109106251Y-38720018D01*
X109116750Y-38822796D01*
X109116751Y-38822799D01*
X109171935Y-38989331D01*
X109171939Y-38989340D01*
X109258948Y-39130404D01*
X109277388Y-39197796D01*
X109256465Y-39264459D01*
X109202823Y-39309229D01*
X109153409Y-39319500D01*
X104024091Y-39319500D01*
X103957052Y-39299815D01*
X103911297Y-39247011D01*
X103901353Y-39177853D01*
X103918552Y-39130404D01*
X103962285Y-39059501D01*
X104005564Y-38989334D01*
X104060749Y-38822797D01*
X104071250Y-38720009D01*
X104071249Y-37419992D01*
X104060749Y-37317203D01*
X104005564Y-37150666D01*
X103913462Y-37001344D01*
X103789406Y-36877288D01*
X103640084Y-36785186D01*
X103473547Y-36730001D01*
X103473545Y-36730000D01*
X103370760Y-36719500D01*
X101820748Y-36719500D01*
X101820731Y-36719501D01*
X101717953Y-36730000D01*
X101717950Y-36730001D01*
X101551418Y-36785185D01*
X101551413Y-36785187D01*
X101402092Y-36877289D01*
X101278039Y-37001342D01*
X101185937Y-37150663D01*
X101185936Y-37150666D01*
X101130751Y-37317203D01*
X101130751Y-37317204D01*
X101130750Y-37317204D01*
X101120250Y-37419983D01*
X101120250Y-38720001D01*
X101120251Y-38720018D01*
X101130750Y-38822796D01*
X101130751Y-38822799D01*
X101185935Y-38989331D01*
X101185939Y-38989340D01*
X101272948Y-39130404D01*
X101291388Y-39197796D01*
X101270465Y-39264459D01*
X101216823Y-39309229D01*
X101167409Y-39319500D01*
X96038091Y-39319500D01*
X95971052Y-39299815D01*
X95925297Y-39247011D01*
X95915353Y-39177853D01*
X95932552Y-39130404D01*
X95976285Y-39059501D01*
X96019564Y-38989334D01*
X96074749Y-38822797D01*
X96085250Y-38720009D01*
X96085249Y-37419992D01*
X96074749Y-37317203D01*
X96019564Y-37150666D01*
X95927462Y-37001344D01*
X95803406Y-36877288D01*
X95654084Y-36785186D01*
X95487547Y-36730001D01*
X95487545Y-36730000D01*
X95384760Y-36719500D01*
X93834748Y-36719500D01*
X93834731Y-36719501D01*
X93731953Y-36730000D01*
X93731950Y-36730001D01*
X93565418Y-36785185D01*
X93565413Y-36785187D01*
X93416092Y-36877289D01*
X93292039Y-37001342D01*
X93199937Y-37150663D01*
X93199936Y-37150666D01*
X93144751Y-37317203D01*
X93144751Y-37317204D01*
X93144750Y-37317204D01*
X93134250Y-37419983D01*
X93134250Y-38720001D01*
X93134251Y-38720018D01*
X93144750Y-38822796D01*
X93144751Y-38822799D01*
X93199935Y-38989331D01*
X93199939Y-38989340D01*
X93286948Y-39130404D01*
X93305388Y-39197796D01*
X93284465Y-39264459D01*
X93230823Y-39309229D01*
X93181409Y-39319500D01*
X88052091Y-39319500D01*
X87985052Y-39299815D01*
X87939297Y-39247011D01*
X87929353Y-39177853D01*
X87946552Y-39130404D01*
X87990285Y-39059501D01*
X88033564Y-38989334D01*
X88088749Y-38822797D01*
X88099250Y-38720009D01*
X88099249Y-37419992D01*
X88088749Y-37317203D01*
X88033564Y-37150666D01*
X87941462Y-37001344D01*
X87817406Y-36877288D01*
X87668084Y-36785186D01*
X87501547Y-36730001D01*
X87501545Y-36730000D01*
X87398760Y-36719500D01*
X85848748Y-36719500D01*
X85848731Y-36719501D01*
X85745953Y-36730000D01*
X85745950Y-36730001D01*
X85579418Y-36785185D01*
X85579413Y-36785187D01*
X85430092Y-36877289D01*
X85306039Y-37001342D01*
X85213937Y-37150663D01*
X85213936Y-37150666D01*
X85158751Y-37317203D01*
X85158751Y-37317204D01*
X85158750Y-37317204D01*
X85148250Y-37419983D01*
X85148250Y-38720001D01*
X85148251Y-38720018D01*
X85158750Y-38822796D01*
X85158751Y-38822799D01*
X85213935Y-38989331D01*
X85213939Y-38989340D01*
X85300948Y-39130404D01*
X85319388Y-39197796D01*
X85298465Y-39264459D01*
X85244823Y-39309229D01*
X85195409Y-39319500D01*
X80066091Y-39319500D01*
X79999052Y-39299815D01*
X79953297Y-39247011D01*
X79943353Y-39177853D01*
X79960552Y-39130404D01*
X80004285Y-39059501D01*
X80047564Y-38989334D01*
X80102749Y-38822797D01*
X80113250Y-38720009D01*
X80113249Y-37419992D01*
X80102749Y-37317203D01*
X80047564Y-37150666D01*
X79955462Y-37001344D01*
X79831406Y-36877288D01*
X79682084Y-36785186D01*
X79515547Y-36730001D01*
X79515545Y-36730000D01*
X79412760Y-36719500D01*
X77862748Y-36719500D01*
X77862731Y-36719501D01*
X77759953Y-36730000D01*
X77759950Y-36730001D01*
X77593418Y-36785185D01*
X77593413Y-36785187D01*
X77444092Y-36877289D01*
X77320039Y-37001342D01*
X77227937Y-37150663D01*
X77227936Y-37150666D01*
X77172751Y-37317203D01*
X77172751Y-37317204D01*
X77172750Y-37317204D01*
X77162250Y-37419983D01*
X77162250Y-38720001D01*
X77162251Y-38720018D01*
X77172750Y-38822796D01*
X77172751Y-38822799D01*
X77227935Y-38989331D01*
X77227939Y-38989340D01*
X77314948Y-39130404D01*
X77333388Y-39197796D01*
X77312465Y-39264459D01*
X77258823Y-39309229D01*
X77209409Y-39319500D01*
X72080091Y-39319500D01*
X72013052Y-39299815D01*
X71967297Y-39247011D01*
X71957353Y-39177853D01*
X71974552Y-39130404D01*
X72018285Y-39059501D01*
X72061564Y-38989334D01*
X72116749Y-38822797D01*
X72127250Y-38720009D01*
X72127249Y-37419992D01*
X72116749Y-37317203D01*
X72061564Y-37150666D01*
X71969462Y-37001344D01*
X71845406Y-36877288D01*
X71696084Y-36785186D01*
X71529547Y-36730001D01*
X71529545Y-36730000D01*
X71426760Y-36719500D01*
X69876748Y-36719500D01*
X69876731Y-36719501D01*
X69773953Y-36730000D01*
X69773950Y-36730001D01*
X69607418Y-36785185D01*
X69607413Y-36785187D01*
X69458092Y-36877289D01*
X69334039Y-37001342D01*
X69241937Y-37150663D01*
X69241936Y-37150666D01*
X69186751Y-37317203D01*
X69186751Y-37317204D01*
X69186750Y-37317204D01*
X69176250Y-37419983D01*
X69176250Y-38720001D01*
X69176251Y-38720018D01*
X69186750Y-38822796D01*
X69186751Y-38822799D01*
X69241935Y-38989331D01*
X69241939Y-38989340D01*
X69328948Y-39130404D01*
X69347388Y-39197796D01*
X69326465Y-39264459D01*
X69272823Y-39309229D01*
X69223409Y-39319500D01*
X68113063Y-39319500D01*
X68093664Y-39317973D01*
X68040171Y-39309500D01*
X68040167Y-39309500D01*
X58313980Y-39309500D01*
X58246941Y-39289815D01*
X58226299Y-39273181D01*
X58170407Y-39217289D01*
X58170406Y-39217288D01*
X58042924Y-39138657D01*
X58021086Y-39125187D01*
X58021081Y-39125185D01*
X58019612Y-39124698D01*
X57854547Y-39070001D01*
X57854545Y-39070000D01*
X57751760Y-39059500D01*
X56451748Y-39059500D01*
X56451731Y-39059501D01*
X56348953Y-39070000D01*
X56348950Y-39070001D01*
X56182418Y-39125185D01*
X56182413Y-39125187D01*
X56033092Y-39217289D01*
X55909039Y-39341342D01*
X55816937Y-39490663D01*
X55816936Y-39490666D01*
X55761751Y-39657203D01*
X55761751Y-39657204D01*
X55761750Y-39657204D01*
X55751250Y-39759983D01*
X32407595Y-39759983D01*
X32219158Y-39571546D01*
X31968481Y-39365821D01*
X31968480Y-39365820D01*
X31968476Y-39365817D01*
X31698842Y-39185653D01*
X31698837Y-39185650D01*
X31698830Y-39185646D01*
X31412854Y-39032788D01*
X31412849Y-39032786D01*
X31113247Y-38908686D01*
X30802913Y-38814548D01*
X30802902Y-38814545D01*
X30484874Y-38751287D01*
X30484857Y-38751284D01*
X30240812Y-38727248D01*
X30162143Y-38719500D01*
X29837857Y-38719500D01*
X29765099Y-38726666D01*
X29515142Y-38751284D01*
X29515125Y-38751287D01*
X29197097Y-38814545D01*
X29197086Y-38814548D01*
X28886752Y-38908686D01*
X28587150Y-39032786D01*
X28587145Y-39032788D01*
X28301169Y-39185646D01*
X28301151Y-39185657D01*
X28031532Y-39365811D01*
X28031518Y-39365821D01*
X27780841Y-39571546D01*
X27551546Y-39800841D01*
X27345821Y-40051518D01*
X27345811Y-40051532D01*
X27165657Y-40321151D01*
X27165646Y-40321169D01*
X27012788Y-40607145D01*
X27012786Y-40607150D01*
X26888686Y-40906752D01*
X26794548Y-41217086D01*
X26794545Y-41217097D01*
X26731287Y-41535125D01*
X26731284Y-41535142D01*
X26716810Y-41682103D01*
X26699500Y-41857857D01*
X22740500Y-41857857D01*
X22740500Y-33524500D01*
X22760185Y-33457461D01*
X22812989Y-33411706D01*
X22864500Y-33400500D01*
X118077250Y-33400500D01*
X118144289Y-33420185D01*
G37*
%TD.AperFunction*%
%TA.AperFunction,Conductor*%
G36*
X118144021Y-90103557D02*
G01*
X118189911Y-90156243D01*
X118201250Y-90208045D01*
X118201250Y-95725462D01*
X118181565Y-95792501D01*
X118128761Y-95838256D01*
X118059603Y-95848200D01*
X117996047Y-95819175D01*
X117967892Y-95783916D01*
X117954672Y-95759184D01*
X117934347Y-95721158D01*
X117754183Y-95451524D01*
X117548458Y-95200847D01*
X117548457Y-95200846D01*
X117548453Y-95200841D01*
X117319158Y-94971546D01*
X117068481Y-94765821D01*
X117068480Y-94765820D01*
X117068476Y-94765817D01*
X116835003Y-94609815D01*
X116798848Y-94585657D01*
X116798847Y-94585656D01*
X116798842Y-94585653D01*
X116798837Y-94585650D01*
X116798830Y-94585646D01*
X116512854Y-94432788D01*
X116512849Y-94432786D01*
X116213247Y-94308686D01*
X115902913Y-94214548D01*
X115902902Y-94214545D01*
X115584874Y-94151287D01*
X115584857Y-94151284D01*
X115340812Y-94127248D01*
X115262143Y-94119500D01*
X114937857Y-94119500D01*
X114865099Y-94126666D01*
X114615142Y-94151284D01*
X114615125Y-94151287D01*
X114297097Y-94214545D01*
X114297086Y-94214548D01*
X113986752Y-94308686D01*
X113687150Y-94432786D01*
X113687145Y-94432788D01*
X113401169Y-94585646D01*
X113401151Y-94585657D01*
X113131532Y-94765811D01*
X113131518Y-94765821D01*
X112880841Y-94971546D01*
X112651546Y-95200841D01*
X112445821Y-95451518D01*
X112445811Y-95451532D01*
X112265657Y-95721151D01*
X112265646Y-95721169D01*
X112112788Y-96007145D01*
X112112786Y-96007150D01*
X111988686Y-96306752D01*
X111894548Y-96617086D01*
X111894545Y-96617097D01*
X111831287Y-96935125D01*
X111831284Y-96935142D01*
X111806666Y-97185099D01*
X111799500Y-97257857D01*
X111799500Y-97582143D01*
X111806404Y-97652235D01*
X111831284Y-97904857D01*
X111831287Y-97904874D01*
X111894545Y-98222902D01*
X111894548Y-98222913D01*
X111988686Y-98533247D01*
X112060997Y-98707819D01*
X112086397Y-98769142D01*
X112112786Y-98832849D01*
X112112788Y-98832854D01*
X112265646Y-99118830D01*
X112265657Y-99118848D01*
X112445811Y-99388467D01*
X112445821Y-99388481D01*
X112651546Y-99639158D01*
X112880841Y-99868453D01*
X112880846Y-99868457D01*
X112880847Y-99868458D01*
X113131524Y-100074183D01*
X113401158Y-100254347D01*
X113401167Y-100254352D01*
X113401169Y-100254353D01*
X113441933Y-100276142D01*
X113491778Y-100325104D01*
X113507238Y-100393242D01*
X113483406Y-100458922D01*
X113427848Y-100501291D01*
X113383480Y-100509500D01*
X73654402Y-100509500D01*
X73587363Y-100489815D01*
X73541608Y-100437011D01*
X73531664Y-100367853D01*
X73560689Y-100304297D01*
X73566721Y-100297819D01*
X76404039Y-97460500D01*
X77275826Y-96588713D01*
X84971250Y-96588713D01*
X84971250Y-97051286D01*
X85003967Y-97257857D01*
X85004504Y-97261243D01*
X85052525Y-97409037D01*
X85070194Y-97463414D01*
X85166701Y-97652820D01*
X85291640Y-97824786D01*
X85441963Y-97975109D01*
X85613929Y-98100048D01*
X85613931Y-98100049D01*
X85613934Y-98100051D01*
X85803338Y-98196557D01*
X86005507Y-98262246D01*
X86215463Y-98295500D01*
X86215464Y-98295500D01*
X86428036Y-98295500D01*
X86428037Y-98295500D01*
X86637993Y-98262246D01*
X86840162Y-98196557D01*
X87029566Y-98100051D01*
X87201542Y-97975104D01*
X87340354Y-97836291D01*
X87401673Y-97802809D01*
X87471365Y-97807793D01*
X87527299Y-97849664D01*
X87533571Y-97858878D01*
X87536935Y-97864333D01*
X87536936Y-97864334D01*
X87629038Y-98013656D01*
X87753094Y-98137712D01*
X87902416Y-98229814D01*
X88068953Y-98284999D01*
X88171741Y-98295500D01*
X89471758Y-98295499D01*
X89574547Y-98284999D01*
X89741084Y-98229814D01*
X89890406Y-98137712D01*
X90014462Y-98013656D01*
X90106564Y-97864334D01*
X90161749Y-97697797D01*
X90172250Y-97595009D01*
X90172249Y-96044992D01*
X90161749Y-95942203D01*
X90106564Y-95775666D01*
X90014462Y-95626344D01*
X89890406Y-95502288D01*
X89741084Y-95410186D01*
X89574547Y-95355001D01*
X89574545Y-95355000D01*
X89471760Y-95344500D01*
X88171748Y-95344500D01*
X88171731Y-95344501D01*
X88068953Y-95355000D01*
X88068950Y-95355001D01*
X87902418Y-95410185D01*
X87902413Y-95410187D01*
X87753092Y-95502289D01*
X87629039Y-95626342D01*
X87533571Y-95781121D01*
X87481623Y-95827845D01*
X87412660Y-95839068D01*
X87348578Y-95811224D01*
X87340351Y-95803705D01*
X87201536Y-95664890D01*
X87029570Y-95539951D01*
X86840164Y-95443444D01*
X86840163Y-95443443D01*
X86840162Y-95443443D01*
X86637993Y-95377754D01*
X86637991Y-95377753D01*
X86637990Y-95377753D01*
X86476707Y-95352208D01*
X86428037Y-95344500D01*
X86215463Y-95344500D01*
X86166792Y-95352208D01*
X86005510Y-95377753D01*
X85803335Y-95443444D01*
X85613929Y-95539951D01*
X85441963Y-95664890D01*
X85291640Y-95815213D01*
X85166701Y-95987179D01*
X85070194Y-96176585D01*
X85004503Y-96378760D01*
X84971250Y-96588713D01*
X77275826Y-96588713D01*
X81039770Y-92824767D01*
X81101091Y-92791284D01*
X81146846Y-92789977D01*
X81150148Y-92790500D01*
X81150152Y-92790500D01*
X81354851Y-92790500D01*
X81354852Y-92790500D01*
X81557034Y-92758477D01*
X81751719Y-92695220D01*
X81934110Y-92602287D01*
X82031253Y-92531709D01*
X82099713Y-92481971D01*
X82099715Y-92481968D01*
X82099719Y-92481966D01*
X82244466Y-92337219D01*
X82244468Y-92337215D01*
X82244471Y-92337213D01*
X82297232Y-92264590D01*
X82364787Y-92171610D01*
X82457720Y-91989219D01*
X82520977Y-91794534D01*
X82553000Y-91592352D01*
X82553000Y-91387648D01*
X82520977Y-91185466D01*
X82457720Y-90990781D01*
X82457718Y-90990778D01*
X82457718Y-90990776D01*
X82386099Y-90850218D01*
X82364787Y-90808390D01*
X82330886Y-90761729D01*
X82244471Y-90642786D01*
X82099713Y-90498028D01*
X81966283Y-90401087D01*
X81923617Y-90345758D01*
X81917638Y-90276144D01*
X81950243Y-90214349D01*
X82011082Y-90179992D01*
X82038845Y-90176769D01*
X85557978Y-90167715D01*
X85625065Y-90187226D01*
X85670955Y-90239912D01*
X85681077Y-90309045D01*
X85652216Y-90372675D01*
X85631179Y-90392032D01*
X85485287Y-90498028D01*
X85485282Y-90498032D01*
X85340528Y-90642786D01*
X85220215Y-90808386D01*
X85127281Y-90990776D01*
X85064022Y-91185465D01*
X85032000Y-91387648D01*
X85032000Y-91592351D01*
X85064022Y-91794534D01*
X85127281Y-91989223D01*
X85176717Y-92086245D01*
X85220212Y-92171609D01*
X85220215Y-92171613D01*
X85340528Y-92337213D01*
X85485286Y-92481971D01*
X85640249Y-92594556D01*
X85650890Y-92602287D01*
X85767107Y-92661503D01*
X85833276Y-92695218D01*
X85833278Y-92695218D01*
X85833281Y-92695220D01*
X85928865Y-92726277D01*
X86027965Y-92758477D01*
X86129057Y-92774488D01*
X86230148Y-92790500D01*
X86230149Y-92790500D01*
X86434851Y-92790500D01*
X86434852Y-92790500D01*
X86637034Y-92758477D01*
X86831719Y-92695220D01*
X87014110Y-92602287D01*
X87111253Y-92531709D01*
X87179713Y-92481971D01*
X87179715Y-92481968D01*
X87179719Y-92481966D01*
X87324466Y-92337219D01*
X87324468Y-92337215D01*
X87324471Y-92337213D01*
X87444784Y-92171614D01*
X87444786Y-92171611D01*
X87444787Y-92171610D01*
X87492016Y-92078917D01*
X87539989Y-92028123D01*
X87607810Y-92011328D01*
X87673945Y-92033865D01*
X87712983Y-92078917D01*
X87716718Y-92086246D01*
X87760215Y-92171614D01*
X87880528Y-92337213D01*
X88025286Y-92481971D01*
X88180249Y-92594556D01*
X88190890Y-92602287D01*
X88307107Y-92661503D01*
X88373276Y-92695218D01*
X88373278Y-92695218D01*
X88373281Y-92695220D01*
X88468865Y-92726277D01*
X88567965Y-92758477D01*
X88669057Y-92774488D01*
X88770148Y-92790500D01*
X88770149Y-92790500D01*
X88974851Y-92790500D01*
X88974852Y-92790500D01*
X89177034Y-92758477D01*
X89371719Y-92695220D01*
X89554110Y-92602287D01*
X89651253Y-92531709D01*
X89719713Y-92481971D01*
X89719715Y-92481968D01*
X89719719Y-92481966D01*
X89864466Y-92337219D01*
X89864468Y-92337215D01*
X89864471Y-92337213D01*
X89984784Y-92171614D01*
X89984786Y-92171611D01*
X89984787Y-92171610D01*
X90032016Y-92078917D01*
X90079989Y-92028123D01*
X90147810Y-92011328D01*
X90213945Y-92033865D01*
X90252983Y-92078917D01*
X90256718Y-92086246D01*
X90300215Y-92171614D01*
X90420528Y-92337213D01*
X90565286Y-92481971D01*
X90720249Y-92594556D01*
X90730890Y-92602287D01*
X90847107Y-92661503D01*
X90913276Y-92695218D01*
X90913278Y-92695218D01*
X90913281Y-92695220D01*
X91008865Y-92726277D01*
X91107965Y-92758477D01*
X91209057Y-92774488D01*
X91310148Y-92790500D01*
X91310149Y-92790500D01*
X91514851Y-92790500D01*
X91514852Y-92790500D01*
X91717034Y-92758477D01*
X91911719Y-92695220D01*
X92094110Y-92602287D01*
X92191253Y-92531709D01*
X92259713Y-92481971D01*
X92259715Y-92481968D01*
X92259719Y-92481966D01*
X92404466Y-92337219D01*
X92404468Y-92337215D01*
X92404471Y-92337213D01*
X92524784Y-92171614D01*
X92524786Y-92171611D01*
X92524787Y-92171610D01*
X92572016Y-92078917D01*
X92619989Y-92028123D01*
X92687810Y-92011328D01*
X92753945Y-92033865D01*
X92792983Y-92078917D01*
X92796718Y-92086246D01*
X92840215Y-92171614D01*
X92960528Y-92337213D01*
X93105286Y-92481971D01*
X93260249Y-92594556D01*
X93270890Y-92602287D01*
X93387107Y-92661503D01*
X93453276Y-92695218D01*
X93453278Y-92695218D01*
X93453281Y-92695220D01*
X93548865Y-92726277D01*
X93647965Y-92758477D01*
X93749057Y-92774488D01*
X93850148Y-92790500D01*
X93850149Y-92790500D01*
X94054851Y-92790500D01*
X94054852Y-92790500D01*
X94257034Y-92758477D01*
X94451719Y-92695220D01*
X94634110Y-92602287D01*
X94731253Y-92531709D01*
X94799713Y-92481971D01*
X94799715Y-92481968D01*
X94799719Y-92481966D01*
X94944466Y-92337219D01*
X94944468Y-92337215D01*
X94944471Y-92337213D01*
X95064786Y-92171611D01*
X95064788Y-92171609D01*
X95108282Y-92086245D01*
X95156256Y-92035449D01*
X95224077Y-92018654D01*
X95290212Y-92041191D01*
X95328125Y-92084086D01*
X95363239Y-92149779D01*
X95363251Y-92149799D01*
X95450778Y-92280793D01*
X95450786Y-92280804D01*
X95450791Y-92280811D01*
X95513657Y-92357412D01*
X95625088Y-92468843D01*
X95701689Y-92531709D01*
X95701698Y-92531715D01*
X95701706Y-92531721D01*
X95832700Y-92619248D01*
X95832705Y-92619251D01*
X95832717Y-92619259D01*
X95832726Y-92619263D01*
X95832728Y-92619265D01*
X95920103Y-92665968D01*
X95920105Y-92665968D01*
X95920111Y-92665972D01*
X96065702Y-92726278D01*
X96160532Y-92755044D01*
X96315090Y-92785787D01*
X96413707Y-92795500D01*
X96413709Y-92795500D01*
X96571291Y-92795500D01*
X96571293Y-92795500D01*
X96669910Y-92785787D01*
X96824468Y-92755044D01*
X96919298Y-92726278D01*
X97064889Y-92665972D01*
X97152283Y-92619259D01*
X97283311Y-92531709D01*
X97359912Y-92468843D01*
X97471343Y-92357412D01*
X97534209Y-92280811D01*
X97621759Y-92149783D01*
X97656875Y-92084084D01*
X97705836Y-92034243D01*
X97773973Y-92018782D01*
X97839653Y-92042613D01*
X97876717Y-92086245D01*
X97920212Y-92171609D01*
X97920215Y-92171613D01*
X98040528Y-92337213D01*
X98185286Y-92481971D01*
X98340249Y-92594556D01*
X98350890Y-92602287D01*
X98467107Y-92661503D01*
X98533276Y-92695218D01*
X98533278Y-92695218D01*
X98533281Y-92695220D01*
X98628865Y-92726277D01*
X98727965Y-92758477D01*
X98829057Y-92774488D01*
X98930148Y-92790500D01*
X98930149Y-92790500D01*
X99134851Y-92790500D01*
X99134852Y-92790500D01*
X99337034Y-92758477D01*
X99531719Y-92695220D01*
X99714110Y-92602287D01*
X99811253Y-92531709D01*
X99879713Y-92481971D01*
X99879715Y-92481968D01*
X99879719Y-92481966D01*
X100024466Y-92337219D01*
X100024468Y-92337215D01*
X100024471Y-92337213D01*
X100144784Y-92171614D01*
X100144786Y-92171611D01*
X100144787Y-92171610D01*
X100192016Y-92078917D01*
X100239989Y-92028123D01*
X100307810Y-92011328D01*
X100373945Y-92033865D01*
X100412983Y-92078917D01*
X100416718Y-92086246D01*
X100460215Y-92171614D01*
X100580528Y-92337213D01*
X100725286Y-92481971D01*
X100880249Y-92594556D01*
X100890890Y-92602287D01*
X101007107Y-92661503D01*
X101073276Y-92695218D01*
X101073278Y-92695218D01*
X101073281Y-92695220D01*
X101168865Y-92726277D01*
X101267965Y-92758477D01*
X101369057Y-92774488D01*
X101470148Y-92790500D01*
X101470149Y-92790500D01*
X101674851Y-92790500D01*
X101674852Y-92790500D01*
X101877034Y-92758477D01*
X102071719Y-92695220D01*
X102254110Y-92602287D01*
X102351253Y-92531709D01*
X102419713Y-92481971D01*
X102419715Y-92481968D01*
X102419719Y-92481966D01*
X102564466Y-92337219D01*
X102564468Y-92337215D01*
X102564471Y-92337213D01*
X102684784Y-92171614D01*
X102684786Y-92171611D01*
X102684787Y-92171610D01*
X102732016Y-92078917D01*
X102779989Y-92028123D01*
X102847810Y-92011328D01*
X102913945Y-92033865D01*
X102952983Y-92078917D01*
X102956718Y-92086246D01*
X103000215Y-92171614D01*
X103120528Y-92337213D01*
X103265286Y-92481971D01*
X103420249Y-92594556D01*
X103430890Y-92602287D01*
X103547107Y-92661503D01*
X103613276Y-92695218D01*
X103613278Y-92695218D01*
X103613281Y-92695220D01*
X103708865Y-92726277D01*
X103807965Y-92758477D01*
X103909057Y-92774488D01*
X104010148Y-92790500D01*
X104010149Y-92790500D01*
X104214851Y-92790500D01*
X104214852Y-92790500D01*
X104417034Y-92758477D01*
X104611719Y-92695220D01*
X104794110Y-92602287D01*
X104891253Y-92531709D01*
X104959713Y-92481971D01*
X104959715Y-92481968D01*
X104959719Y-92481966D01*
X105104466Y-92337219D01*
X105104468Y-92337215D01*
X105104471Y-92337213D01*
X105224784Y-92171614D01*
X105224786Y-92171611D01*
X105224787Y-92171610D01*
X105272016Y-92078917D01*
X105319989Y-92028123D01*
X105387810Y-92011328D01*
X105453945Y-92033865D01*
X105492983Y-92078917D01*
X105496718Y-92086246D01*
X105540215Y-92171614D01*
X105660528Y-92337213D01*
X105805286Y-92481971D01*
X105960249Y-92594556D01*
X105970890Y-92602287D01*
X106087107Y-92661503D01*
X106153276Y-92695218D01*
X106153278Y-92695218D01*
X106153281Y-92695220D01*
X106248865Y-92726277D01*
X106347965Y-92758477D01*
X106449057Y-92774488D01*
X106550148Y-92790500D01*
X106550149Y-92790500D01*
X106754851Y-92790500D01*
X106754852Y-92790500D01*
X106957034Y-92758477D01*
X107151719Y-92695220D01*
X107334110Y-92602287D01*
X107431253Y-92531709D01*
X107499713Y-92481971D01*
X107499715Y-92481968D01*
X107499719Y-92481966D01*
X107644466Y-92337219D01*
X107644468Y-92337215D01*
X107644471Y-92337213D01*
X107697232Y-92264590D01*
X107764787Y-92171610D01*
X107857720Y-91989219D01*
X107920977Y-91794534D01*
X107953000Y-91592352D01*
X107953000Y-91387648D01*
X107920977Y-91185466D01*
X107857720Y-90990781D01*
X107857718Y-90990778D01*
X107857718Y-90990776D01*
X107786099Y-90850218D01*
X107764787Y-90808390D01*
X107730886Y-90761729D01*
X107644471Y-90642786D01*
X107499713Y-90498028D01*
X107334113Y-90377715D01*
X107334112Y-90377714D01*
X107334110Y-90377713D01*
X107272235Y-90346186D01*
X107221439Y-90298211D01*
X107204644Y-90230390D01*
X107227182Y-90164255D01*
X107281897Y-90120804D01*
X107328205Y-90111702D01*
X111075072Y-90102061D01*
X111142160Y-90121573D01*
X111188050Y-90174260D01*
X111198172Y-90243392D01*
X111169311Y-90307022D01*
X111131684Y-90336546D01*
X111050886Y-90377715D01*
X110885286Y-90498028D01*
X110740528Y-90642786D01*
X110620215Y-90808386D01*
X110527281Y-90990776D01*
X110464022Y-91185465D01*
X110432000Y-91387648D01*
X110432000Y-91592351D01*
X110464022Y-91794534D01*
X110527281Y-91989223D01*
X110576717Y-92086245D01*
X110620212Y-92171609D01*
X110620215Y-92171613D01*
X110740528Y-92337213D01*
X110885286Y-92481971D01*
X111040249Y-92594556D01*
X111050890Y-92602287D01*
X111167107Y-92661503D01*
X111233276Y-92695218D01*
X111233278Y-92695218D01*
X111233281Y-92695220D01*
X111328865Y-92726277D01*
X111427965Y-92758477D01*
X111529057Y-92774488D01*
X111630148Y-92790500D01*
X111630149Y-92790500D01*
X111834851Y-92790500D01*
X111834852Y-92790500D01*
X112037034Y-92758477D01*
X112231719Y-92695220D01*
X112414110Y-92602287D01*
X112511253Y-92531709D01*
X112579713Y-92481971D01*
X112579715Y-92481968D01*
X112579719Y-92481966D01*
X112724466Y-92337219D01*
X112724468Y-92337215D01*
X112724471Y-92337213D01*
X112844784Y-92171614D01*
X112844786Y-92171611D01*
X112844787Y-92171610D01*
X112892016Y-92078917D01*
X112939989Y-92028123D01*
X113007810Y-92011328D01*
X113073945Y-92033865D01*
X113112983Y-92078917D01*
X113116718Y-92086246D01*
X113160215Y-92171614D01*
X113280528Y-92337213D01*
X113425286Y-92481971D01*
X113580249Y-92594556D01*
X113590890Y-92602287D01*
X113707107Y-92661503D01*
X113773276Y-92695218D01*
X113773278Y-92695218D01*
X113773281Y-92695220D01*
X113868865Y-92726277D01*
X113967965Y-92758477D01*
X114069057Y-92774488D01*
X114170148Y-92790500D01*
X114170149Y-92790500D01*
X114374851Y-92790500D01*
X114374852Y-92790500D01*
X114577034Y-92758477D01*
X114771719Y-92695220D01*
X114954110Y-92602287D01*
X115051253Y-92531709D01*
X115119713Y-92481971D01*
X115119715Y-92481968D01*
X115119719Y-92481966D01*
X115264466Y-92337219D01*
X115264468Y-92337215D01*
X115264471Y-92337213D01*
X115317232Y-92264590D01*
X115384787Y-92171610D01*
X115477720Y-91989219D01*
X115540977Y-91794534D01*
X115573000Y-91592352D01*
X115573000Y-91387648D01*
X115540977Y-91185466D01*
X115477720Y-90990781D01*
X115477718Y-90990778D01*
X115477718Y-90990776D01*
X115406099Y-90850218D01*
X115384787Y-90808390D01*
X115350886Y-90761729D01*
X115264471Y-90642786D01*
X115119713Y-90498028D01*
X114954114Y-90377715D01*
X114924875Y-90362817D01*
X114853949Y-90326678D01*
X114803154Y-90278704D01*
X114786359Y-90210883D01*
X114808896Y-90144748D01*
X114863611Y-90101297D01*
X114909920Y-90092195D01*
X118076936Y-90084046D01*
X118144021Y-90103557D01*
G37*
%TD.AperFunction*%
%TA.AperFunction,Conductor*%
G36*
X35653422Y-82906455D02*
G01*
X35658179Y-82910968D01*
X41477834Y-88730624D01*
X41477838Y-88730627D01*
X41617137Y-88823704D01*
X41617139Y-88823705D01*
X41617143Y-88823707D01*
X41699222Y-88857703D01*
X41726584Y-88869037D01*
X41771918Y-88887816D01*
X41936228Y-88920499D01*
X41936232Y-88920500D01*
X41936233Y-88920500D01*
X53356349Y-88920500D01*
X53423388Y-88940185D01*
X53444030Y-88956819D01*
X56824430Y-92337219D01*
X60035031Y-95547819D01*
X60068516Y-95609142D01*
X60063532Y-95678834D01*
X60021660Y-95734767D01*
X59956196Y-95759184D01*
X59947350Y-95759500D01*
X56325401Y-95759500D01*
X56258362Y-95739815D01*
X56237720Y-95723181D01*
X55169170Y-94654631D01*
X55135685Y-94593308D01*
X55134378Y-94547551D01*
X55147250Y-94466285D01*
X55147250Y-94253713D01*
X55131027Y-94151286D01*
X55113996Y-94043757D01*
X55048307Y-93841588D01*
X54951801Y-93652184D01*
X54951799Y-93652181D01*
X54951798Y-93652179D01*
X54826859Y-93480213D01*
X54676536Y-93329890D01*
X54504570Y-93204951D01*
X54315164Y-93108444D01*
X54315163Y-93108443D01*
X54315162Y-93108443D01*
X54112993Y-93042754D01*
X54112991Y-93042753D01*
X54112990Y-93042753D01*
X53951707Y-93017208D01*
X53903037Y-93009500D01*
X53440463Y-93009500D01*
X53391792Y-93017208D01*
X53230510Y-93042753D01*
X53028335Y-93108444D01*
X52838929Y-93204951D01*
X52666963Y-93329890D01*
X52516640Y-93480213D01*
X52391701Y-93652179D01*
X52295194Y-93841585D01*
X52229503Y-94043760D01*
X52196250Y-94253713D01*
X52196250Y-94466286D01*
X52222100Y-94629500D01*
X52229504Y-94676243D01*
X52258608Y-94765817D01*
X52295194Y-94878414D01*
X52391701Y-95067820D01*
X52516640Y-95239786D01*
X52655455Y-95378601D01*
X52688940Y-95439924D01*
X52683956Y-95509616D01*
X52642084Y-95565549D01*
X52632871Y-95571821D01*
X52478092Y-95667289D01*
X52354039Y-95791342D01*
X52261937Y-95940663D01*
X52261935Y-95940668D01*
X52239907Y-96007145D01*
X52206751Y-96107203D01*
X52206751Y-96107204D01*
X52206750Y-96107204D01*
X52196250Y-96209983D01*
X52196250Y-96209996D01*
X52196251Y-97465500D01*
X52176566Y-97532539D01*
X52123763Y-97578294D01*
X52072251Y-97589500D01*
X49723650Y-97589500D01*
X49656611Y-97569815D01*
X49635969Y-97553181D01*
X45782165Y-93699375D01*
X45782161Y-93699372D01*
X45642866Y-93606297D01*
X45642863Y-93606296D01*
X45533416Y-93560962D01*
X45533414Y-93560961D01*
X45488086Y-93542185D01*
X45488074Y-93542182D01*
X45323771Y-93509500D01*
X45323767Y-93509500D01*
X45092508Y-93509500D01*
X45025469Y-93489815D01*
X45004827Y-93473181D01*
X44861536Y-93329890D01*
X44689570Y-93204951D01*
X44500164Y-93108444D01*
X44500163Y-93108443D01*
X44500162Y-93108443D01*
X44297993Y-93042754D01*
X44297991Y-93042753D01*
X44297990Y-93042753D01*
X44136707Y-93017208D01*
X44088037Y-93009500D01*
X43625463Y-93009500D01*
X43576792Y-93017208D01*
X43415510Y-93042753D01*
X43213335Y-93108444D01*
X43023929Y-93204951D01*
X42851963Y-93329890D01*
X42701640Y-93480213D01*
X42576701Y-93652179D01*
X42480194Y-93841585D01*
X42414503Y-94043760D01*
X42381250Y-94253713D01*
X42381250Y-94466286D01*
X42407100Y-94629500D01*
X42414504Y-94676243D01*
X42443608Y-94765817D01*
X42480194Y-94878414D01*
X42576701Y-95067820D01*
X42701640Y-95239786D01*
X42840455Y-95378601D01*
X42873940Y-95439924D01*
X42868956Y-95509616D01*
X42827084Y-95565549D01*
X42817871Y-95571821D01*
X42663092Y-95667289D01*
X42539039Y-95791342D01*
X42446937Y-95940663D01*
X42446935Y-95940668D01*
X42424907Y-96007145D01*
X42391751Y-96107203D01*
X42391751Y-96107204D01*
X42391750Y-96107204D01*
X42381250Y-96209983D01*
X42381250Y-97510001D01*
X42381251Y-97510018D01*
X42391750Y-97612796D01*
X42391751Y-97612799D01*
X42446935Y-97779331D01*
X42446937Y-97779336D01*
X42474971Y-97824786D01*
X42539038Y-97928656D01*
X42663094Y-98052712D01*
X42812416Y-98144814D01*
X42978953Y-98199999D01*
X43081741Y-98210500D01*
X44631758Y-98210499D01*
X44734547Y-98199999D01*
X44901084Y-98144814D01*
X45050406Y-98052712D01*
X45174462Y-97928656D01*
X45266564Y-97779334D01*
X45321749Y-97612797D01*
X45332250Y-97510009D01*
X45332249Y-96209992D01*
X45328836Y-96176585D01*
X45321749Y-96107203D01*
X45321748Y-96107200D01*
X45301134Y-96044992D01*
X45266564Y-95940666D01*
X45266560Y-95940660D01*
X45266559Y-95940657D01*
X45258008Y-95926794D01*
X45239567Y-95859402D01*
X45260489Y-95792739D01*
X45314131Y-95747969D01*
X45383461Y-95739307D01*
X45446469Y-95769503D01*
X45451227Y-95774016D01*
X48385031Y-98707819D01*
X48418516Y-98769142D01*
X48413532Y-98838834D01*
X48371660Y-98894767D01*
X48306196Y-98919184D01*
X48297350Y-98919500D01*
X40953650Y-98919500D01*
X40886611Y-98899815D01*
X40865969Y-98883181D01*
X35682165Y-93699375D01*
X35682161Y-93699372D01*
X35542866Y-93606297D01*
X35542863Y-93606296D01*
X35441246Y-93564205D01*
X35441241Y-93564203D01*
X35433415Y-93560962D01*
X35388082Y-93542184D01*
X35259980Y-93516703D01*
X35256385Y-93515761D01*
X35229502Y-93499577D01*
X35201717Y-93485043D01*
X35200138Y-93483492D01*
X35046536Y-93329890D01*
X34874570Y-93204951D01*
X34685164Y-93108444D01*
X34685163Y-93108443D01*
X34685162Y-93108443D01*
X34482993Y-93042754D01*
X34482991Y-93042753D01*
X34482990Y-93042753D01*
X34321707Y-93017208D01*
X34273037Y-93009500D01*
X33810463Y-93009500D01*
X33761792Y-93017208D01*
X33600510Y-93042753D01*
X33398335Y-93108444D01*
X33208929Y-93204951D01*
X33036963Y-93329890D01*
X32886640Y-93480213D01*
X32761701Y-93652179D01*
X32665194Y-93841585D01*
X32599503Y-94043760D01*
X32566250Y-94253713D01*
X32566250Y-94466286D01*
X32592100Y-94629500D01*
X32599504Y-94676243D01*
X32628608Y-94765817D01*
X32665195Y-94878417D01*
X32692770Y-94932537D01*
X32705666Y-95001206D01*
X32679389Y-95065946D01*
X32622283Y-95106203D01*
X32552477Y-95109195D01*
X32494604Y-95076512D01*
X32178569Y-94760477D01*
X32145084Y-94699154D01*
X32142250Y-94672796D01*
X32142250Y-86107203D01*
X32161935Y-86040164D01*
X32178565Y-86019526D01*
X32881361Y-85316729D01*
X32942682Y-85283246D01*
X33012373Y-85288230D01*
X33021442Y-85292029D01*
X33027410Y-85294812D01*
X33027415Y-85294813D01*
X33027416Y-85294814D01*
X33193953Y-85349999D01*
X33296741Y-85360500D01*
X34846758Y-85360499D01*
X34949547Y-85349999D01*
X35116084Y-85294814D01*
X35265406Y-85202712D01*
X35389462Y-85078656D01*
X35481564Y-84929334D01*
X35536749Y-84762797D01*
X35547250Y-84660009D01*
X35547249Y-83359992D01*
X35536749Y-83257203D01*
X35481564Y-83090666D01*
X35464958Y-83063743D01*
X35446519Y-82996354D01*
X35467441Y-82929690D01*
X35521083Y-82884920D01*
X35590414Y-82876259D01*
X35653422Y-82906455D01*
G37*
%TD.AperFunction*%
%TA.AperFunction,Conductor*%
G36*
X72843279Y-90209358D02*
G01*
X72874135Y-90216534D01*
X72876571Y-90219040D01*
X72879931Y-90220018D01*
X72900750Y-90243920D01*
X72922830Y-90266640D01*
X72923524Y-90270067D01*
X72925821Y-90272704D01*
X72930411Y-90304058D01*
X72936705Y-90335118D01*
X72935436Y-90338376D01*
X72935943Y-90341837D01*
X72922853Y-90370694D01*
X72911356Y-90400227D01*
X72907963Y-90403523D01*
X72907082Y-90405467D01*
X72886045Y-90424824D01*
X72785287Y-90498028D01*
X72785282Y-90498032D01*
X72640528Y-90642786D01*
X72520215Y-90808386D01*
X72427281Y-90990776D01*
X72364022Y-91185465D01*
X72332000Y-91387648D01*
X72332000Y-91455599D01*
X72312315Y-91522638D01*
X72295681Y-91543280D01*
X69245780Y-94593181D01*
X69184457Y-94626666D01*
X69158099Y-94629500D01*
X68034401Y-94629500D01*
X67967362Y-94609815D01*
X67921607Y-94557011D01*
X67911663Y-94487853D01*
X67940688Y-94424297D01*
X67946720Y-94417819D01*
X69242373Y-93122165D01*
X69242376Y-93122162D01*
X69251543Y-93108443D01*
X69335453Y-92982863D01*
X69399566Y-92828082D01*
X69432250Y-92663767D01*
X69432250Y-92500797D01*
X69451935Y-92433758D01*
X69468569Y-92413116D01*
X69544466Y-92337219D01*
X69544468Y-92337215D01*
X69544471Y-92337213D01*
X69597232Y-92264590D01*
X69664787Y-92171610D01*
X69757720Y-91989219D01*
X69820977Y-91794534D01*
X69853000Y-91592352D01*
X69853000Y-91387648D01*
X69820977Y-91185466D01*
X69757720Y-90990781D01*
X69757718Y-90990778D01*
X69757718Y-90990776D01*
X69686099Y-90850218D01*
X69664787Y-90808390D01*
X69630886Y-90761729D01*
X69544471Y-90642786D01*
X69399717Y-90498032D01*
X69399712Y-90498028D01*
X69311099Y-90433647D01*
X69268433Y-90378317D01*
X69262454Y-90308704D01*
X69295060Y-90246909D01*
X69355898Y-90212552D01*
X69383655Y-90209330D01*
X72812844Y-90200507D01*
X72843279Y-90209358D01*
G37*
%TD.AperFunction*%
%TD*%
M02*
