%TF.GenerationSoftware,KiCad,Pcbnew,9.0.7*%
%TF.CreationDate,2026-08-20T17:32:26+02:00*%
%TF.ProjectId,Robotdriver,526f626f-7464-4726-9976-65722e6b6963,rev?*%
%TF.SameCoordinates,Original*%
%TF.FileFunction,Soldermask,Bot*%
%TF.FilePolarity,Negative*%
%FSLAX46Y46*%
G04 Gerber Fmt 4.6, Leading zero omitted, Abs format (unit mm)*
G04 Created by KiCad (PCBNEW 9.0.7) date 2026-08-20 17:32:26*
%MOMM*%
%LPD*%
G01*
G04 APERTURE LIST*
G04 Aperture macros list*
%AMRoundRect*
0 Rectangle with rounded corners*
0 $1 Rounding radius*
0 $2 $3 $4 $5 $6 $7 $8 $9 X,Y pos of 4 corners*
0 Add a 4 corners polygon primitive as box body*
4,1,4,$2,$3,$4,$5,$6,$7,$8,$9,$2,$3,0*
0 Add four circle primitives for the rounded corners*
1,1,$1+$1,$2,$3*
1,1,$1+$1,$4,$5*
1,1,$1+$1,$6,$7*
1,1,$1+$1,$8,$9*
0 Add four rect primitives between the rounded corners*
20,1,$1+$1,$2,$3,$4,$5,0*
20,1,$1+$1,$4,$5,$6,$7,0*
20,1,$1+$1,$6,$7,$8,$9,0*
20,1,$1+$1,$8,$9,$2,$3,0*%
%AMFreePoly0*
4,1,37,0.603843,0.796157,0.639018,0.796157,0.711114,0.766294,0.766294,0.711114,0.796157,0.639018,0.796157,0.603843,0.800000,0.600000,0.800000,-0.600000,0.796157,-0.603843,0.796157,-0.639018,0.766294,-0.711114,0.711114,-0.766294,0.639018,-0.796157,0.603843,-0.796157,0.600000,-0.800000,0.000000,-0.800000,0.000000,-0.796148,-0.078414,-0.796148,-0.232228,-0.765552,-0.377117,-0.705537,
-0.507515,-0.618408,-0.618408,-0.507515,-0.705537,-0.377117,-0.765552,-0.232228,-0.796148,-0.078414,-0.796148,0.078414,-0.765552,0.232228,-0.705537,0.377117,-0.618408,0.507515,-0.507515,0.618408,-0.377117,0.705537,-0.232228,0.765552,-0.078414,0.796148,0.000000,0.796148,0.000000,0.800000,0.600000,0.800000,0.603843,0.796157,0.603843,0.796157,$1*%
%AMFreePoly1*
4,1,37,0.000000,0.796148,0.078414,0.796148,0.232228,0.765552,0.377117,0.705537,0.507515,0.618408,0.618408,0.507515,0.705537,0.377117,0.765552,0.232228,0.796148,0.078414,0.796148,-0.078414,0.765552,-0.232228,0.705537,-0.377117,0.618408,-0.507515,0.507515,-0.618408,0.377117,-0.705537,0.232228,-0.765552,0.078414,-0.796148,0.000000,-0.796148,0.000000,-0.800000,-0.600000,-0.800000,
-0.603843,-0.796157,-0.639018,-0.796157,-0.711114,-0.766294,-0.766294,-0.711114,-0.796157,-0.639018,-0.796157,-0.603843,-0.800000,-0.600000,-0.800000,0.600000,-0.796157,0.603843,-0.796157,0.639018,-0.766294,0.711114,-0.711114,0.766294,-0.639018,0.796157,-0.603843,0.796157,-0.600000,0.800000,0.000000,0.800000,0.000000,0.796148,0.000000,0.796148,$1*%
G04 Aperture macros list end*
%ADD10C,3.600000*%
%ADD11C,5.600000*%
%ADD12C,2.200000*%
%ADD13C,1.850000*%
%ADD14RoundRect,0.200000X-0.600000X0.600000X-0.600000X-0.600000X0.600000X-0.600000X0.600000X0.600000X0*%
%ADD15C,1.600000*%
%ADD16FreePoly0,270.000000*%
%ADD17FreePoly1,270.000000*%
%ADD18RoundRect,0.250000X0.550000X-0.550000X0.550000X0.550000X-0.550000X0.550000X-0.550000X-0.550000X0*%
%ADD19RoundRect,0.250000X0.600000X0.725000X-0.600000X0.725000X-0.600000X-0.725000X0.600000X-0.725000X0*%
%ADD20O,1.700000X1.950000*%
%ADD21RoundRect,0.250000X-0.725000X0.600000X-0.725000X-0.600000X0.725000X-0.600000X0.725000X0.600000X0*%
%ADD22O,1.950000X1.700000*%
%ADD23RoundRect,0.250000X0.725000X-0.600000X0.725000X0.600000X-0.725000X0.600000X-0.725000X-0.600000X0*%
%ADD24C,2.400000*%
%ADD25R,1.800000X1.800000*%
%ADD26C,1.800000*%
%ADD27RoundRect,0.250000X0.600000X0.750000X-0.600000X0.750000X-0.600000X-0.750000X0.600000X-0.750000X0*%
%ADD28O,1.700000X2.000000*%
G04 APERTURE END LIST*
D10*
%TO.C,M3*%
X30000000Y-42020000D03*
D11*
X30000000Y-42020000D03*
%TD*%
D10*
%TO.C,M3*%
X115100000Y-97420000D03*
D11*
X115100000Y-97420000D03*
%TD*%
D12*
%TO.C,A1*%
X114142500Y-79875000D03*
D13*
X111112500Y-80175000D03*
X111112500Y-85025000D03*
D12*
X114142500Y-85325000D03*
D14*
X114272500Y-73710000D03*
D15*
X111732500Y-73710000D03*
D16*
X109192500Y-73710000D03*
D15*
X106652500Y-73710000D03*
X104112500Y-73710000D03*
X101572500Y-73710000D03*
X99032500Y-73710000D03*
D16*
X96492500Y-73710000D03*
D15*
X93952500Y-73710000D03*
X91412500Y-73710000D03*
X88872500Y-73710000D03*
X86332500Y-73710000D03*
D16*
X83792500Y-73710000D03*
D15*
X81252500Y-73710000D03*
X78712500Y-73710000D03*
X76172500Y-73710000D03*
X73632500Y-73710000D03*
D16*
X71092500Y-73710000D03*
D15*
X68552500Y-73710000D03*
X66012500Y-73710000D03*
X66012500Y-91490000D03*
X68552500Y-91490000D03*
D17*
X71092500Y-91490000D03*
D15*
X73632500Y-91490000D03*
X76172500Y-91490000D03*
X78712500Y-91490000D03*
X81252500Y-91490000D03*
D17*
X83792500Y-91490000D03*
D15*
X86332500Y-91490000D03*
X88872500Y-91490000D03*
X91412500Y-91490000D03*
X93952500Y-91490000D03*
D17*
X96492500Y-91490000D03*
D15*
X99032500Y-91490000D03*
X101572500Y-91490000D03*
X104112500Y-91490000D03*
X106652500Y-91490000D03*
D17*
X109192500Y-91490000D03*
D15*
X111732500Y-91490000D03*
X114272500Y-91490000D03*
%TD*%
D18*
%TO.C,U2*%
X91441750Y-68060000D03*
D15*
X93981750Y-68060000D03*
X96521750Y-68060000D03*
X99061750Y-68060000D03*
X101601750Y-68060000D03*
X104141750Y-68060000D03*
X106681750Y-68060000D03*
X109221750Y-68060000D03*
X111761750Y-68060000D03*
X111761750Y-60440000D03*
X109221750Y-60440000D03*
X106681750Y-60440000D03*
X104141750Y-60440000D03*
X101601750Y-60440000D03*
X99061750Y-60440000D03*
X96521750Y-60440000D03*
X93981750Y-60440000D03*
X91441750Y-60440000D03*
%TD*%
D10*
%TO.C,M3*%
X30000000Y-66020000D03*
D11*
X30000000Y-66020000D03*
%TD*%
D18*
%TO.C,U1*%
X66051750Y-68060000D03*
D15*
X68591750Y-68060000D03*
X71131750Y-68060000D03*
X73671750Y-68060000D03*
X76211750Y-68060000D03*
X78751750Y-68060000D03*
X81291750Y-68060000D03*
X83831750Y-68060000D03*
X86371750Y-68060000D03*
X86371750Y-60440000D03*
X83831750Y-60440000D03*
X81291750Y-60440000D03*
X78751750Y-60440000D03*
X76211750Y-60440000D03*
X73671750Y-60440000D03*
X71131750Y-60440000D03*
X68591750Y-60440000D03*
X66051750Y-60440000D03*
%TD*%
D19*
%TO.C,J10*%
X57691750Y-62385000D03*
D20*
X55191750Y-62385000D03*
X52691750Y-62385000D03*
X50191750Y-62385000D03*
%TD*%
D21*
%TO.C,T2*%
X78637750Y-38070000D03*
D22*
X78637750Y-40570000D03*
X78637750Y-43070000D03*
X78637750Y-45570000D03*
X78637750Y-48070000D03*
X78637750Y-50570000D03*
%TD*%
D21*
%TO.C,T6*%
X110581750Y-38070000D03*
D22*
X110581750Y-40570000D03*
X110581750Y-43070000D03*
X110581750Y-45570000D03*
X110581750Y-48070000D03*
X110581750Y-50570000D03*
%TD*%
D23*
%TO.C,J7*%
X53701750Y-84010000D03*
D22*
X53701750Y-81510000D03*
X53701750Y-79010000D03*
%TD*%
D19*
%TO.C,J11*%
X57691750Y-69770000D03*
D20*
X55191750Y-69770000D03*
X52691750Y-69770000D03*
X50191750Y-69770000D03*
%TD*%
D19*
%TO.C,J9*%
X57691750Y-55000000D03*
D20*
X55191750Y-55000000D03*
X52691750Y-55000000D03*
X50191750Y-55000000D03*
%TD*%
D19*
%TO.C,J1*%
X88821750Y-96820000D03*
D20*
X86321750Y-96820000D03*
X83821750Y-96820000D03*
%TD*%
D23*
%TO.C,J5*%
X34071750Y-84010000D03*
D22*
X34071750Y-81510000D03*
X34071750Y-79010000D03*
%TD*%
D21*
%TO.C,T4*%
X94609750Y-38070000D03*
D22*
X94609750Y-40570000D03*
X94609750Y-43070000D03*
X94609750Y-45570000D03*
X94609750Y-48070000D03*
X94609750Y-50570000D03*
%TD*%
D23*
%TO.C,J2*%
X34041750Y-96860000D03*
D22*
X34041750Y-94360000D03*
X34041750Y-91860000D03*
%TD*%
D24*
%TO.C,R1*%
X41121750Y-71860000D03*
X41121750Y-51540000D03*
%TD*%
D23*
%TO.C,J4*%
X53671750Y-96860000D03*
D22*
X53671750Y-94360000D03*
X53671750Y-91860000D03*
%TD*%
D25*
%TO.C,D1*%
X43621750Y-42980000D03*
D26*
X41081750Y-42980000D03*
%TD*%
D21*
%TO.C,T3*%
X86623750Y-38070000D03*
D22*
X86623750Y-40570000D03*
X86623750Y-43070000D03*
X86623750Y-45570000D03*
X86623750Y-48070000D03*
X86623750Y-50570000D03*
%TD*%
D23*
%TO.C,J3*%
X43856750Y-96860000D03*
D22*
X43856750Y-94360000D03*
X43856750Y-91860000D03*
%TD*%
D21*
%TO.C,T5*%
X102595750Y-38070000D03*
D22*
X102595750Y-40570000D03*
X102595750Y-43070000D03*
X102595750Y-45570000D03*
X102595750Y-48070000D03*
X102595750Y-50570000D03*
%TD*%
D23*
%TO.C,J6*%
X43886750Y-84010000D03*
D22*
X43886750Y-81510000D03*
X43886750Y-79010000D03*
%TD*%
D27*
%TO.C,J8*%
X57101750Y-40560000D03*
D28*
X54601750Y-40560000D03*
%TD*%
D21*
%TO.C,T1*%
X70651750Y-38070000D03*
D22*
X70651750Y-40570000D03*
X70651750Y-43070000D03*
X70651750Y-45570000D03*
X70651750Y-48070000D03*
X70651750Y-50570000D03*
%TD*%
M02*
