%TF.GenerationSoftware,KiCad,Pcbnew,9.0.7*%
%TF.CreationDate,2026-08-20T17:32:26+02:00*%
%TF.ProjectId,Robotdriver,526f626f-7464-4726-9976-65722e6b6963,rev?*%
%TF.SameCoordinates,Original*%
%TF.FileFunction,Legend,Bot*%
%TF.FilePolarity,Positive*%
%FSLAX46Y46*%
G04 Gerber Fmt 4.6, Leading zero omitted, Abs format (unit mm)*
G04 Created by KiCad (PCBNEW 9.0.7) date 2026-08-20 17:32:26*
%MOMM*%
%LPD*%
G01*
G04 APERTURE LIST*
%ADD10C,0.100000*%
%ADD11C,0.200000*%
%ADD12C,0.150000*%
%ADD13C,0.120000*%
G04 APERTURE END LIST*
D10*
X117262419Y-39303884D02*
X116262419Y-39303884D01*
X116643371Y-39303884D02*
X116595752Y-39399122D01*
X116595752Y-39399122D02*
X116595752Y-39589598D01*
X116595752Y-39589598D02*
X116643371Y-39684836D01*
X116643371Y-39684836D02*
X116690990Y-39732455D01*
X116690990Y-39732455D02*
X116786228Y-39780074D01*
X116786228Y-39780074D02*
X117071942Y-39780074D01*
X117071942Y-39780074D02*
X117167180Y-39732455D01*
X117167180Y-39732455D02*
X117214800Y-39684836D01*
X117214800Y-39684836D02*
X117262419Y-39589598D01*
X117262419Y-39589598D02*
X117262419Y-39399122D01*
X117262419Y-39399122D02*
X117214800Y-39303884D01*
X116595752Y-40113408D02*
X117262419Y-40351503D01*
X116595752Y-40589598D02*
X117262419Y-40351503D01*
X117262419Y-40351503D02*
X117500514Y-40256265D01*
X117500514Y-40256265D02*
X117548133Y-40208646D01*
X117548133Y-40208646D02*
X117595752Y-40113408D01*
X117262419Y-41732456D02*
X116262419Y-41732456D01*
X116738609Y-41732456D02*
X116738609Y-42303884D01*
X117262419Y-42303884D02*
X116262419Y-42303884D01*
X116595752Y-43208646D02*
X117262419Y-43208646D01*
X116595752Y-42780075D02*
X117119561Y-42780075D01*
X117119561Y-42780075D02*
X117214800Y-42827694D01*
X117214800Y-42827694D02*
X117262419Y-42922932D01*
X117262419Y-42922932D02*
X117262419Y-43065789D01*
X117262419Y-43065789D02*
X117214800Y-43161027D01*
X117214800Y-43161027D02*
X117167180Y-43208646D01*
X117262419Y-43684837D02*
X116595752Y-43684837D01*
X116690990Y-43684837D02*
X116643371Y-43732456D01*
X116643371Y-43732456D02*
X116595752Y-43827694D01*
X116595752Y-43827694D02*
X116595752Y-43970551D01*
X116595752Y-43970551D02*
X116643371Y-44065789D01*
X116643371Y-44065789D02*
X116738609Y-44113408D01*
X116738609Y-44113408D02*
X117262419Y-44113408D01*
X116738609Y-44113408D02*
X116643371Y-44161027D01*
X116643371Y-44161027D02*
X116595752Y-44256265D01*
X116595752Y-44256265D02*
X116595752Y-44399122D01*
X116595752Y-44399122D02*
X116643371Y-44494361D01*
X116643371Y-44494361D02*
X116738609Y-44541980D01*
X116738609Y-44541980D02*
X117262419Y-44541980D01*
X117262419Y-45018170D02*
X116595752Y-45018170D01*
X116690990Y-45018170D02*
X116643371Y-45065789D01*
X116643371Y-45065789D02*
X116595752Y-45161027D01*
X116595752Y-45161027D02*
X116595752Y-45303884D01*
X116595752Y-45303884D02*
X116643371Y-45399122D01*
X116643371Y-45399122D02*
X116738609Y-45446741D01*
X116738609Y-45446741D02*
X117262419Y-45446741D01*
X116738609Y-45446741D02*
X116643371Y-45494360D01*
X116643371Y-45494360D02*
X116595752Y-45589598D01*
X116595752Y-45589598D02*
X116595752Y-45732455D01*
X116595752Y-45732455D02*
X116643371Y-45827694D01*
X116643371Y-45827694D02*
X116738609Y-45875313D01*
X116738609Y-45875313D02*
X117262419Y-45875313D01*
X117214800Y-46732455D02*
X117262419Y-46637217D01*
X117262419Y-46637217D02*
X117262419Y-46446741D01*
X117262419Y-46446741D02*
X117214800Y-46351503D01*
X117214800Y-46351503D02*
X117119561Y-46303884D01*
X117119561Y-46303884D02*
X116738609Y-46303884D01*
X116738609Y-46303884D02*
X116643371Y-46351503D01*
X116643371Y-46351503D02*
X116595752Y-46446741D01*
X116595752Y-46446741D02*
X116595752Y-46637217D01*
X116595752Y-46637217D02*
X116643371Y-46732455D01*
X116643371Y-46732455D02*
X116738609Y-46780074D01*
X116738609Y-46780074D02*
X116833847Y-46780074D01*
X116833847Y-46780074D02*
X116929085Y-46303884D01*
X117262419Y-47351503D02*
X117214800Y-47256265D01*
X117214800Y-47256265D02*
X117119561Y-47208646D01*
X117119561Y-47208646D02*
X116262419Y-47208646D01*
X117262419Y-47732456D02*
X116262419Y-47732456D01*
X116881466Y-47827694D02*
X117262419Y-48113408D01*
X116595752Y-48113408D02*
X116976704Y-47732456D01*
X117262419Y-48684837D02*
X117214800Y-48589599D01*
X117214800Y-48589599D02*
X117167180Y-48541980D01*
X117167180Y-48541980D02*
X117071942Y-48494361D01*
X117071942Y-48494361D02*
X116786228Y-48494361D01*
X116786228Y-48494361D02*
X116690990Y-48541980D01*
X116690990Y-48541980D02*
X116643371Y-48589599D01*
X116643371Y-48589599D02*
X116595752Y-48684837D01*
X116595752Y-48684837D02*
X116595752Y-48827694D01*
X116595752Y-48827694D02*
X116643371Y-48922932D01*
X116643371Y-48922932D02*
X116690990Y-48970551D01*
X116690990Y-48970551D02*
X116786228Y-49018170D01*
X116786228Y-49018170D02*
X117071942Y-49018170D01*
X117071942Y-49018170D02*
X117167180Y-48970551D01*
X117167180Y-48970551D02*
X117214800Y-48922932D01*
X117214800Y-48922932D02*
X117262419Y-48827694D01*
X117262419Y-48827694D02*
X117262419Y-48684837D01*
X117214800Y-49827694D02*
X117262419Y-49732456D01*
X117262419Y-49732456D02*
X117262419Y-49541980D01*
X117262419Y-49541980D02*
X117214800Y-49446742D01*
X117214800Y-49446742D02*
X117119561Y-49399123D01*
X117119561Y-49399123D02*
X116738609Y-49399123D01*
X116738609Y-49399123D02*
X116643371Y-49446742D01*
X116643371Y-49446742D02*
X116595752Y-49541980D01*
X116595752Y-49541980D02*
X116595752Y-49732456D01*
X116595752Y-49732456D02*
X116643371Y-49827694D01*
X116643371Y-49827694D02*
X116738609Y-49875313D01*
X116738609Y-49875313D02*
X116833847Y-49875313D01*
X116833847Y-49875313D02*
X116929085Y-49399123D01*
X116595752Y-50303885D02*
X117262419Y-50303885D01*
X116690990Y-50303885D02*
X116643371Y-50351504D01*
X116643371Y-50351504D02*
X116595752Y-50446742D01*
X116595752Y-50446742D02*
X116595752Y-50589599D01*
X116595752Y-50589599D02*
X116643371Y-50684837D01*
X116643371Y-50684837D02*
X116738609Y-50732456D01*
X116738609Y-50732456D02*
X117262419Y-50732456D01*
X117262419Y-51208647D02*
X116595752Y-51208647D01*
X116262419Y-51208647D02*
X116310038Y-51161028D01*
X116310038Y-51161028D02*
X116357657Y-51208647D01*
X116357657Y-51208647D02*
X116310038Y-51256266D01*
X116310038Y-51256266D02*
X116262419Y-51208647D01*
X116262419Y-51208647D02*
X116357657Y-51208647D01*
X116595752Y-52113408D02*
X117405276Y-52113408D01*
X117405276Y-52113408D02*
X117500514Y-52065789D01*
X117500514Y-52065789D02*
X117548133Y-52018170D01*
X117548133Y-52018170D02*
X117595752Y-51922932D01*
X117595752Y-51922932D02*
X117595752Y-51780075D01*
X117595752Y-51780075D02*
X117548133Y-51684837D01*
X117214800Y-52113408D02*
X117262419Y-52018170D01*
X117262419Y-52018170D02*
X117262419Y-51827694D01*
X117262419Y-51827694D02*
X117214800Y-51732456D01*
X117214800Y-51732456D02*
X117167180Y-51684837D01*
X117167180Y-51684837D02*
X117071942Y-51637218D01*
X117071942Y-51637218D02*
X116786228Y-51637218D01*
X116786228Y-51637218D02*
X116690990Y-51684837D01*
X116690990Y-51684837D02*
X116643371Y-51732456D01*
X116643371Y-51732456D02*
X116595752Y-51827694D01*
X116595752Y-51827694D02*
X116595752Y-52018170D01*
X116595752Y-52018170D02*
X116643371Y-52113408D01*
D11*
X115787219Y-36519673D02*
X114787219Y-36519673D01*
X114787219Y-36519673D02*
X115501504Y-36853006D01*
X115501504Y-36853006D02*
X114787219Y-37186339D01*
X114787219Y-37186339D02*
X115787219Y-37186339D01*
X115787219Y-37805387D02*
X115739600Y-37710149D01*
X115739600Y-37710149D02*
X115691980Y-37662530D01*
X115691980Y-37662530D02*
X115596742Y-37614911D01*
X115596742Y-37614911D02*
X115311028Y-37614911D01*
X115311028Y-37614911D02*
X115215790Y-37662530D01*
X115215790Y-37662530D02*
X115168171Y-37710149D01*
X115168171Y-37710149D02*
X115120552Y-37805387D01*
X115120552Y-37805387D02*
X115120552Y-37948244D01*
X115120552Y-37948244D02*
X115168171Y-38043482D01*
X115168171Y-38043482D02*
X115215790Y-38091101D01*
X115215790Y-38091101D02*
X115311028Y-38138720D01*
X115311028Y-38138720D02*
X115596742Y-38138720D01*
X115596742Y-38138720D02*
X115691980Y-38091101D01*
X115691980Y-38091101D02*
X115739600Y-38043482D01*
X115739600Y-38043482D02*
X115787219Y-37948244D01*
X115787219Y-37948244D02*
X115787219Y-37805387D01*
X115120552Y-38424435D02*
X115120552Y-38805387D01*
X114787219Y-38567292D02*
X115644361Y-38567292D01*
X115644361Y-38567292D02*
X115739600Y-38614911D01*
X115739600Y-38614911D02*
X115787219Y-38710149D01*
X115787219Y-38710149D02*
X115787219Y-38805387D01*
X115787219Y-39138721D02*
X115120552Y-39138721D01*
X114787219Y-39138721D02*
X114834838Y-39091102D01*
X114834838Y-39091102D02*
X114882457Y-39138721D01*
X114882457Y-39138721D02*
X114834838Y-39186340D01*
X114834838Y-39186340D02*
X114787219Y-39138721D01*
X114787219Y-39138721D02*
X114882457Y-39138721D01*
X115787219Y-39757768D02*
X115739600Y-39662530D01*
X115739600Y-39662530D02*
X115691980Y-39614911D01*
X115691980Y-39614911D02*
X115596742Y-39567292D01*
X115596742Y-39567292D02*
X115311028Y-39567292D01*
X115311028Y-39567292D02*
X115215790Y-39614911D01*
X115215790Y-39614911D02*
X115168171Y-39662530D01*
X115168171Y-39662530D02*
X115120552Y-39757768D01*
X115120552Y-39757768D02*
X115120552Y-39900625D01*
X115120552Y-39900625D02*
X115168171Y-39995863D01*
X115168171Y-39995863D02*
X115215790Y-40043482D01*
X115215790Y-40043482D02*
X115311028Y-40091101D01*
X115311028Y-40091101D02*
X115596742Y-40091101D01*
X115596742Y-40091101D02*
X115691980Y-40043482D01*
X115691980Y-40043482D02*
X115739600Y-39995863D01*
X115739600Y-39995863D02*
X115787219Y-39900625D01*
X115787219Y-39900625D02*
X115787219Y-39757768D01*
X115120552Y-40519673D02*
X115787219Y-40519673D01*
X115215790Y-40519673D02*
X115168171Y-40567292D01*
X115168171Y-40567292D02*
X115120552Y-40662530D01*
X115120552Y-40662530D02*
X115120552Y-40805387D01*
X115120552Y-40805387D02*
X115168171Y-40900625D01*
X115168171Y-40900625D02*
X115263409Y-40948244D01*
X115263409Y-40948244D02*
X115787219Y-40948244D01*
X115691980Y-42757768D02*
X115739600Y-42710149D01*
X115739600Y-42710149D02*
X115787219Y-42567292D01*
X115787219Y-42567292D02*
X115787219Y-42472054D01*
X115787219Y-42472054D02*
X115739600Y-42329197D01*
X115739600Y-42329197D02*
X115644361Y-42233959D01*
X115644361Y-42233959D02*
X115549123Y-42186340D01*
X115549123Y-42186340D02*
X115358647Y-42138721D01*
X115358647Y-42138721D02*
X115215790Y-42138721D01*
X115215790Y-42138721D02*
X115025314Y-42186340D01*
X115025314Y-42186340D02*
X114930076Y-42233959D01*
X114930076Y-42233959D02*
X114834838Y-42329197D01*
X114834838Y-42329197D02*
X114787219Y-42472054D01*
X114787219Y-42472054D02*
X114787219Y-42567292D01*
X114787219Y-42567292D02*
X114834838Y-42710149D01*
X114834838Y-42710149D02*
X114882457Y-42757768D01*
X115787219Y-43329197D02*
X115739600Y-43233959D01*
X115739600Y-43233959D02*
X115691980Y-43186340D01*
X115691980Y-43186340D02*
X115596742Y-43138721D01*
X115596742Y-43138721D02*
X115311028Y-43138721D01*
X115311028Y-43138721D02*
X115215790Y-43186340D01*
X115215790Y-43186340D02*
X115168171Y-43233959D01*
X115168171Y-43233959D02*
X115120552Y-43329197D01*
X115120552Y-43329197D02*
X115120552Y-43472054D01*
X115120552Y-43472054D02*
X115168171Y-43567292D01*
X115168171Y-43567292D02*
X115215790Y-43614911D01*
X115215790Y-43614911D02*
X115311028Y-43662530D01*
X115311028Y-43662530D02*
X115596742Y-43662530D01*
X115596742Y-43662530D02*
X115691980Y-43614911D01*
X115691980Y-43614911D02*
X115739600Y-43567292D01*
X115739600Y-43567292D02*
X115787219Y-43472054D01*
X115787219Y-43472054D02*
X115787219Y-43329197D01*
X115120552Y-44091102D02*
X115787219Y-44091102D01*
X115215790Y-44091102D02*
X115168171Y-44138721D01*
X115168171Y-44138721D02*
X115120552Y-44233959D01*
X115120552Y-44233959D02*
X115120552Y-44376816D01*
X115120552Y-44376816D02*
X115168171Y-44472054D01*
X115168171Y-44472054D02*
X115263409Y-44519673D01*
X115263409Y-44519673D02*
X115787219Y-44519673D01*
X115120552Y-44853007D02*
X115120552Y-45233959D01*
X114787219Y-44995864D02*
X115644361Y-44995864D01*
X115644361Y-44995864D02*
X115739600Y-45043483D01*
X115739600Y-45043483D02*
X115787219Y-45138721D01*
X115787219Y-45138721D02*
X115787219Y-45233959D01*
X115787219Y-45567293D02*
X115120552Y-45567293D01*
X115311028Y-45567293D02*
X115215790Y-45614912D01*
X115215790Y-45614912D02*
X115168171Y-45662531D01*
X115168171Y-45662531D02*
X115120552Y-45757769D01*
X115120552Y-45757769D02*
X115120552Y-45853007D01*
X115787219Y-46329198D02*
X115739600Y-46233960D01*
X115739600Y-46233960D02*
X115691980Y-46186341D01*
X115691980Y-46186341D02*
X115596742Y-46138722D01*
X115596742Y-46138722D02*
X115311028Y-46138722D01*
X115311028Y-46138722D02*
X115215790Y-46186341D01*
X115215790Y-46186341D02*
X115168171Y-46233960D01*
X115168171Y-46233960D02*
X115120552Y-46329198D01*
X115120552Y-46329198D02*
X115120552Y-46472055D01*
X115120552Y-46472055D02*
X115168171Y-46567293D01*
X115168171Y-46567293D02*
X115215790Y-46614912D01*
X115215790Y-46614912D02*
X115311028Y-46662531D01*
X115311028Y-46662531D02*
X115596742Y-46662531D01*
X115596742Y-46662531D02*
X115691980Y-46614912D01*
X115691980Y-46614912D02*
X115739600Y-46567293D01*
X115739600Y-46567293D02*
X115787219Y-46472055D01*
X115787219Y-46472055D02*
X115787219Y-46329198D01*
X115787219Y-47233960D02*
X115739600Y-47138722D01*
X115739600Y-47138722D02*
X115644361Y-47091103D01*
X115644361Y-47091103D02*
X114787219Y-47091103D01*
X115787219Y-47757770D02*
X115739600Y-47662532D01*
X115739600Y-47662532D02*
X115644361Y-47614913D01*
X115644361Y-47614913D02*
X114787219Y-47614913D01*
X115739600Y-48519675D02*
X115787219Y-48424437D01*
X115787219Y-48424437D02*
X115787219Y-48233961D01*
X115787219Y-48233961D02*
X115739600Y-48138723D01*
X115739600Y-48138723D02*
X115644361Y-48091104D01*
X115644361Y-48091104D02*
X115263409Y-48091104D01*
X115263409Y-48091104D02*
X115168171Y-48138723D01*
X115168171Y-48138723D02*
X115120552Y-48233961D01*
X115120552Y-48233961D02*
X115120552Y-48424437D01*
X115120552Y-48424437D02*
X115168171Y-48519675D01*
X115168171Y-48519675D02*
X115263409Y-48567294D01*
X115263409Y-48567294D02*
X115358647Y-48567294D01*
X115358647Y-48567294D02*
X115453885Y-48091104D01*
X115787219Y-48995866D02*
X115120552Y-48995866D01*
X115311028Y-48995866D02*
X115215790Y-49043485D01*
X115215790Y-49043485D02*
X115168171Y-49091104D01*
X115168171Y-49091104D02*
X115120552Y-49186342D01*
X115120552Y-49186342D02*
X115120552Y-49281580D01*
X115691980Y-50948247D02*
X115739600Y-50900628D01*
X115739600Y-50900628D02*
X115787219Y-50757771D01*
X115787219Y-50757771D02*
X115787219Y-50662533D01*
X115787219Y-50662533D02*
X115739600Y-50519676D01*
X115739600Y-50519676D02*
X115644361Y-50424438D01*
X115644361Y-50424438D02*
X115549123Y-50376819D01*
X115549123Y-50376819D02*
X115358647Y-50329200D01*
X115358647Y-50329200D02*
X115215790Y-50329200D01*
X115215790Y-50329200D02*
X115025314Y-50376819D01*
X115025314Y-50376819D02*
X114930076Y-50424438D01*
X114930076Y-50424438D02*
X114834838Y-50519676D01*
X114834838Y-50519676D02*
X114787219Y-50662533D01*
X114787219Y-50662533D02*
X114787219Y-50757771D01*
X114787219Y-50757771D02*
X114834838Y-50900628D01*
X114834838Y-50900628D02*
X114882457Y-50948247D01*
X115787219Y-51519676D02*
X115739600Y-51424438D01*
X115739600Y-51424438D02*
X115691980Y-51376819D01*
X115691980Y-51376819D02*
X115596742Y-51329200D01*
X115596742Y-51329200D02*
X115311028Y-51329200D01*
X115311028Y-51329200D02*
X115215790Y-51376819D01*
X115215790Y-51376819D02*
X115168171Y-51424438D01*
X115168171Y-51424438D02*
X115120552Y-51519676D01*
X115120552Y-51519676D02*
X115120552Y-51662533D01*
X115120552Y-51662533D02*
X115168171Y-51757771D01*
X115168171Y-51757771D02*
X115215790Y-51805390D01*
X115215790Y-51805390D02*
X115311028Y-51853009D01*
X115311028Y-51853009D02*
X115596742Y-51853009D01*
X115596742Y-51853009D02*
X115691980Y-51805390D01*
X115691980Y-51805390D02*
X115739600Y-51757771D01*
X115739600Y-51757771D02*
X115787219Y-51662533D01*
X115787219Y-51662533D02*
X115787219Y-51519676D01*
X115120552Y-52281581D02*
X115787219Y-52281581D01*
X115215790Y-52281581D02*
X115168171Y-52329200D01*
X115168171Y-52329200D02*
X115120552Y-52424438D01*
X115120552Y-52424438D02*
X115120552Y-52567295D01*
X115120552Y-52567295D02*
X115168171Y-52662533D01*
X115168171Y-52662533D02*
X115263409Y-52710152D01*
X115263409Y-52710152D02*
X115787219Y-52710152D01*
X115120552Y-53186343D02*
X115787219Y-53186343D01*
X115215790Y-53186343D02*
X115168171Y-53233962D01*
X115168171Y-53233962D02*
X115120552Y-53329200D01*
X115120552Y-53329200D02*
X115120552Y-53472057D01*
X115120552Y-53472057D02*
X115168171Y-53567295D01*
X115168171Y-53567295D02*
X115263409Y-53614914D01*
X115263409Y-53614914D02*
X115787219Y-53614914D01*
X115739600Y-54472057D02*
X115787219Y-54376819D01*
X115787219Y-54376819D02*
X115787219Y-54186343D01*
X115787219Y-54186343D02*
X115739600Y-54091105D01*
X115739600Y-54091105D02*
X115644361Y-54043486D01*
X115644361Y-54043486D02*
X115263409Y-54043486D01*
X115263409Y-54043486D02*
X115168171Y-54091105D01*
X115168171Y-54091105D02*
X115120552Y-54186343D01*
X115120552Y-54186343D02*
X115120552Y-54376819D01*
X115120552Y-54376819D02*
X115168171Y-54472057D01*
X115168171Y-54472057D02*
X115263409Y-54519676D01*
X115263409Y-54519676D02*
X115358647Y-54519676D01*
X115358647Y-54519676D02*
X115453885Y-54043486D01*
X115739600Y-55376819D02*
X115787219Y-55281581D01*
X115787219Y-55281581D02*
X115787219Y-55091105D01*
X115787219Y-55091105D02*
X115739600Y-54995867D01*
X115739600Y-54995867D02*
X115691980Y-54948248D01*
X115691980Y-54948248D02*
X115596742Y-54900629D01*
X115596742Y-54900629D02*
X115311028Y-54900629D01*
X115311028Y-54900629D02*
X115215790Y-54948248D01*
X115215790Y-54948248D02*
X115168171Y-54995867D01*
X115168171Y-54995867D02*
X115120552Y-55091105D01*
X115120552Y-55091105D02*
X115120552Y-55281581D01*
X115120552Y-55281581D02*
X115168171Y-55376819D01*
X115120552Y-55662534D02*
X115120552Y-56043486D01*
X114787219Y-55805391D02*
X115644361Y-55805391D01*
X115644361Y-55805391D02*
X115739600Y-55853010D01*
X115739600Y-55853010D02*
X115787219Y-55948248D01*
X115787219Y-55948248D02*
X115787219Y-56043486D01*
X115787219Y-56519677D02*
X115739600Y-56424439D01*
X115739600Y-56424439D02*
X115691980Y-56376820D01*
X115691980Y-56376820D02*
X115596742Y-56329201D01*
X115596742Y-56329201D02*
X115311028Y-56329201D01*
X115311028Y-56329201D02*
X115215790Y-56376820D01*
X115215790Y-56376820D02*
X115168171Y-56424439D01*
X115168171Y-56424439D02*
X115120552Y-56519677D01*
X115120552Y-56519677D02*
X115120552Y-56662534D01*
X115120552Y-56662534D02*
X115168171Y-56757772D01*
X115168171Y-56757772D02*
X115215790Y-56805391D01*
X115215790Y-56805391D02*
X115311028Y-56853010D01*
X115311028Y-56853010D02*
X115596742Y-56853010D01*
X115596742Y-56853010D02*
X115691980Y-56805391D01*
X115691980Y-56805391D02*
X115739600Y-56757772D01*
X115739600Y-56757772D02*
X115787219Y-56662534D01*
X115787219Y-56662534D02*
X115787219Y-56519677D01*
X115787219Y-57281582D02*
X115120552Y-57281582D01*
X115311028Y-57281582D02*
X115215790Y-57329201D01*
X115215790Y-57329201D02*
X115168171Y-57376820D01*
X115168171Y-57376820D02*
X115120552Y-57472058D01*
X115120552Y-57472058D02*
X115120552Y-57567296D01*
D12*
X54751273Y-59039819D02*
X54751273Y-59754104D01*
X54751273Y-59754104D02*
X54798892Y-59896961D01*
X54798892Y-59896961D02*
X54894130Y-59992200D01*
X54894130Y-59992200D02*
X55036987Y-60039819D01*
X55036987Y-60039819D02*
X55132225Y-60039819D01*
X53751273Y-60039819D02*
X54322701Y-60039819D01*
X54036987Y-60039819D02*
X54036987Y-59039819D01*
X54036987Y-59039819D02*
X54132225Y-59182676D01*
X54132225Y-59182676D02*
X54227463Y-59277914D01*
X54227463Y-59277914D02*
X54322701Y-59325533D01*
X53132225Y-59039819D02*
X53036987Y-59039819D01*
X53036987Y-59039819D02*
X52941749Y-59087438D01*
X52941749Y-59087438D02*
X52894130Y-59135057D01*
X52894130Y-59135057D02*
X52846511Y-59230295D01*
X52846511Y-59230295D02*
X52798892Y-59420771D01*
X52798892Y-59420771D02*
X52798892Y-59658866D01*
X52798892Y-59658866D02*
X52846511Y-59849342D01*
X52846511Y-59849342D02*
X52894130Y-59944580D01*
X52894130Y-59944580D02*
X52941749Y-59992200D01*
X52941749Y-59992200D02*
X53036987Y-60039819D01*
X53036987Y-60039819D02*
X53132225Y-60039819D01*
X53132225Y-60039819D02*
X53227463Y-59992200D01*
X53227463Y-59992200D02*
X53275082Y-59944580D01*
X53275082Y-59944580D02*
X53322701Y-59849342D01*
X53322701Y-59849342D02*
X53370320Y-59658866D01*
X53370320Y-59658866D02*
X53370320Y-59420771D01*
X53370320Y-59420771D02*
X53322701Y-59230295D01*
X53322701Y-59230295D02*
X53275082Y-59135057D01*
X53275082Y-59135057D02*
X53227463Y-59087438D01*
X53227463Y-59087438D02*
X53132225Y-59039819D01*
X78082569Y-53578095D02*
X78082569Y-54149523D01*
X79082569Y-53863809D02*
X78082569Y-53863809D01*
X78177807Y-54435238D02*
X78130188Y-54482857D01*
X78130188Y-54482857D02*
X78082569Y-54578095D01*
X78082569Y-54578095D02*
X78082569Y-54816190D01*
X78082569Y-54816190D02*
X78130188Y-54911428D01*
X78130188Y-54911428D02*
X78177807Y-54959047D01*
X78177807Y-54959047D02*
X78273045Y-55006666D01*
X78273045Y-55006666D02*
X78368283Y-55006666D01*
X78368283Y-55006666D02*
X78511140Y-54959047D01*
X78511140Y-54959047D02*
X79082569Y-54387619D01*
X79082569Y-54387619D02*
X79082569Y-55006666D01*
X110026569Y-53578095D02*
X110026569Y-54149523D01*
X111026569Y-53863809D02*
X110026569Y-53863809D01*
X110026569Y-54911428D02*
X110026569Y-54720952D01*
X110026569Y-54720952D02*
X110074188Y-54625714D01*
X110074188Y-54625714D02*
X110121807Y-54578095D01*
X110121807Y-54578095D02*
X110264664Y-54482857D01*
X110264664Y-54482857D02*
X110455140Y-54435238D01*
X110455140Y-54435238D02*
X110836092Y-54435238D01*
X110836092Y-54435238D02*
X110931330Y-54482857D01*
X110931330Y-54482857D02*
X110978950Y-54530476D01*
X110978950Y-54530476D02*
X111026569Y-54625714D01*
X111026569Y-54625714D02*
X111026569Y-54816190D01*
X111026569Y-54816190D02*
X110978950Y-54911428D01*
X110978950Y-54911428D02*
X110931330Y-54959047D01*
X110931330Y-54959047D02*
X110836092Y-55006666D01*
X110836092Y-55006666D02*
X110597997Y-55006666D01*
X110597997Y-55006666D02*
X110502759Y-54959047D01*
X110502759Y-54959047D02*
X110455140Y-54911428D01*
X110455140Y-54911428D02*
X110407521Y-54816190D01*
X110407521Y-54816190D02*
X110407521Y-54625714D01*
X110407521Y-54625714D02*
X110455140Y-54530476D01*
X110455140Y-54530476D02*
X110502759Y-54482857D01*
X110502759Y-54482857D02*
X110597997Y-54435238D01*
X55956569Y-81176666D02*
X56670854Y-81176666D01*
X56670854Y-81176666D02*
X56813711Y-81129047D01*
X56813711Y-81129047D02*
X56908950Y-81033809D01*
X56908950Y-81033809D02*
X56956569Y-80890952D01*
X56956569Y-80890952D02*
X56956569Y-80795714D01*
X55956569Y-81557619D02*
X55956569Y-82224285D01*
X55956569Y-82224285D02*
X56956569Y-81795714D01*
X54751273Y-66424819D02*
X54751273Y-67139104D01*
X54751273Y-67139104D02*
X54798892Y-67281961D01*
X54798892Y-67281961D02*
X54894130Y-67377200D01*
X54894130Y-67377200D02*
X55036987Y-67424819D01*
X55036987Y-67424819D02*
X55132225Y-67424819D01*
X53751273Y-67424819D02*
X54322701Y-67424819D01*
X54036987Y-67424819D02*
X54036987Y-66424819D01*
X54036987Y-66424819D02*
X54132225Y-66567676D01*
X54132225Y-66567676D02*
X54227463Y-66662914D01*
X54227463Y-66662914D02*
X54322701Y-66710533D01*
X52798892Y-67424819D02*
X53370320Y-67424819D01*
X53084606Y-67424819D02*
X53084606Y-66424819D01*
X53084606Y-66424819D02*
X53179844Y-66567676D01*
X53179844Y-66567676D02*
X53275082Y-66662914D01*
X53275082Y-66662914D02*
X53370320Y-66710533D01*
X54275083Y-51654819D02*
X54275083Y-52369104D01*
X54275083Y-52369104D02*
X54322702Y-52511961D01*
X54322702Y-52511961D02*
X54417940Y-52607200D01*
X54417940Y-52607200D02*
X54560797Y-52654819D01*
X54560797Y-52654819D02*
X54656035Y-52654819D01*
X53751273Y-52654819D02*
X53560797Y-52654819D01*
X53560797Y-52654819D02*
X53465559Y-52607200D01*
X53465559Y-52607200D02*
X53417940Y-52559580D01*
X53417940Y-52559580D02*
X53322702Y-52416723D01*
X53322702Y-52416723D02*
X53275083Y-52226247D01*
X53275083Y-52226247D02*
X53275083Y-51845295D01*
X53275083Y-51845295D02*
X53322702Y-51750057D01*
X53322702Y-51750057D02*
X53370321Y-51702438D01*
X53370321Y-51702438D02*
X53465559Y-51654819D01*
X53465559Y-51654819D02*
X53656035Y-51654819D01*
X53656035Y-51654819D02*
X53751273Y-51702438D01*
X53751273Y-51702438D02*
X53798892Y-51750057D01*
X53798892Y-51750057D02*
X53846511Y-51845295D01*
X53846511Y-51845295D02*
X53846511Y-52083390D01*
X53846511Y-52083390D02*
X53798892Y-52178628D01*
X53798892Y-52178628D02*
X53751273Y-52226247D01*
X53751273Y-52226247D02*
X53656035Y-52273866D01*
X53656035Y-52273866D02*
X53465559Y-52273866D01*
X53465559Y-52273866D02*
X53370321Y-52226247D01*
X53370321Y-52226247D02*
X53322702Y-52178628D01*
X53322702Y-52178628D02*
X53275083Y-52083390D01*
X86655083Y-93474819D02*
X86655083Y-94189104D01*
X86655083Y-94189104D02*
X86702702Y-94331961D01*
X86702702Y-94331961D02*
X86797940Y-94427200D01*
X86797940Y-94427200D02*
X86940797Y-94474819D01*
X86940797Y-94474819D02*
X87036035Y-94474819D01*
X85655083Y-94474819D02*
X86226511Y-94474819D01*
X85940797Y-94474819D02*
X85940797Y-93474819D01*
X85940797Y-93474819D02*
X86036035Y-93617676D01*
X86036035Y-93617676D02*
X86131273Y-93712914D01*
X86131273Y-93712914D02*
X86226511Y-93760533D01*
X36326569Y-81176666D02*
X37040854Y-81176666D01*
X37040854Y-81176666D02*
X37183711Y-81129047D01*
X37183711Y-81129047D02*
X37278950Y-81033809D01*
X37278950Y-81033809D02*
X37326569Y-80890952D01*
X37326569Y-80890952D02*
X37326569Y-80795714D01*
X36326569Y-82129047D02*
X36326569Y-81652857D01*
X36326569Y-81652857D02*
X36802759Y-81605238D01*
X36802759Y-81605238D02*
X36755140Y-81652857D01*
X36755140Y-81652857D02*
X36707521Y-81748095D01*
X36707521Y-81748095D02*
X36707521Y-81986190D01*
X36707521Y-81986190D02*
X36755140Y-82081428D01*
X36755140Y-82081428D02*
X36802759Y-82129047D01*
X36802759Y-82129047D02*
X36897997Y-82176666D01*
X36897997Y-82176666D02*
X37136092Y-82176666D01*
X37136092Y-82176666D02*
X37231330Y-82129047D01*
X37231330Y-82129047D02*
X37278950Y-82081428D01*
X37278950Y-82081428D02*
X37326569Y-81986190D01*
X37326569Y-81986190D02*
X37326569Y-81748095D01*
X37326569Y-81748095D02*
X37278950Y-81652857D01*
X37278950Y-81652857D02*
X37231330Y-81605238D01*
X94054569Y-53578095D02*
X94054569Y-54149523D01*
X95054569Y-53863809D02*
X94054569Y-53863809D01*
X94387902Y-54911428D02*
X95054569Y-54911428D01*
X94006950Y-54673333D02*
X94721235Y-54435238D01*
X94721235Y-54435238D02*
X94721235Y-55054285D01*
X36296569Y-94026666D02*
X37010854Y-94026666D01*
X37010854Y-94026666D02*
X37153711Y-93979047D01*
X37153711Y-93979047D02*
X37248950Y-93883809D01*
X37248950Y-93883809D02*
X37296569Y-93740952D01*
X37296569Y-93740952D02*
X37296569Y-93645714D01*
X36391807Y-94455238D02*
X36344188Y-94502857D01*
X36344188Y-94502857D02*
X36296569Y-94598095D01*
X36296569Y-94598095D02*
X36296569Y-94836190D01*
X36296569Y-94836190D02*
X36344188Y-94931428D01*
X36344188Y-94931428D02*
X36391807Y-94979047D01*
X36391807Y-94979047D02*
X36487045Y-95026666D01*
X36487045Y-95026666D02*
X36582283Y-95026666D01*
X36582283Y-95026666D02*
X36725140Y-94979047D01*
X36725140Y-94979047D02*
X37296569Y-94407619D01*
X37296569Y-94407619D02*
X37296569Y-95026666D01*
X41594819Y-61493333D02*
X41118628Y-61160000D01*
X41594819Y-60921905D02*
X40594819Y-60921905D01*
X40594819Y-60921905D02*
X40594819Y-61302857D01*
X40594819Y-61302857D02*
X40642438Y-61398095D01*
X40642438Y-61398095D02*
X40690057Y-61445714D01*
X40690057Y-61445714D02*
X40785295Y-61493333D01*
X40785295Y-61493333D02*
X40928152Y-61493333D01*
X40928152Y-61493333D02*
X41023390Y-61445714D01*
X41023390Y-61445714D02*
X41071009Y-61398095D01*
X41071009Y-61398095D02*
X41118628Y-61302857D01*
X41118628Y-61302857D02*
X41118628Y-60921905D01*
X41594819Y-62445714D02*
X41594819Y-61874286D01*
X41594819Y-62160000D02*
X40594819Y-62160000D01*
X40594819Y-62160000D02*
X40737676Y-62064762D01*
X40737676Y-62064762D02*
X40832914Y-61969524D01*
X40832914Y-61969524D02*
X40880533Y-61874286D01*
X55926569Y-94026666D02*
X56640854Y-94026666D01*
X56640854Y-94026666D02*
X56783711Y-93979047D01*
X56783711Y-93979047D02*
X56878950Y-93883809D01*
X56878950Y-93883809D02*
X56926569Y-93740952D01*
X56926569Y-93740952D02*
X56926569Y-93645714D01*
X56259902Y-94931428D02*
X56926569Y-94931428D01*
X55878950Y-94693333D02*
X56593235Y-94455238D01*
X56593235Y-94455238D02*
X56593235Y-95074285D01*
X43089844Y-39474819D02*
X43089844Y-38474819D01*
X43089844Y-38474819D02*
X42851749Y-38474819D01*
X42851749Y-38474819D02*
X42708892Y-38522438D01*
X42708892Y-38522438D02*
X42613654Y-38617676D01*
X42613654Y-38617676D02*
X42566035Y-38712914D01*
X42566035Y-38712914D02*
X42518416Y-38903390D01*
X42518416Y-38903390D02*
X42518416Y-39046247D01*
X42518416Y-39046247D02*
X42566035Y-39236723D01*
X42566035Y-39236723D02*
X42613654Y-39331961D01*
X42613654Y-39331961D02*
X42708892Y-39427200D01*
X42708892Y-39427200D02*
X42851749Y-39474819D01*
X42851749Y-39474819D02*
X43089844Y-39474819D01*
X41566035Y-39474819D02*
X42137463Y-39474819D01*
X41851749Y-39474819D02*
X41851749Y-38474819D01*
X41851749Y-38474819D02*
X41946987Y-38617676D01*
X41946987Y-38617676D02*
X42042225Y-38712914D01*
X42042225Y-38712914D02*
X42137463Y-38760533D01*
X86068569Y-53578095D02*
X86068569Y-54149523D01*
X87068569Y-53863809D02*
X86068569Y-53863809D01*
X86068569Y-54387619D02*
X86068569Y-55006666D01*
X86068569Y-55006666D02*
X86449521Y-54673333D01*
X86449521Y-54673333D02*
X86449521Y-54816190D01*
X86449521Y-54816190D02*
X86497140Y-54911428D01*
X86497140Y-54911428D02*
X86544759Y-54959047D01*
X86544759Y-54959047D02*
X86639997Y-55006666D01*
X86639997Y-55006666D02*
X86878092Y-55006666D01*
X86878092Y-55006666D02*
X86973330Y-54959047D01*
X86973330Y-54959047D02*
X87020950Y-54911428D01*
X87020950Y-54911428D02*
X87068569Y-54816190D01*
X87068569Y-54816190D02*
X87068569Y-54530476D01*
X87068569Y-54530476D02*
X87020950Y-54435238D01*
X87020950Y-54435238D02*
X86973330Y-54387619D01*
X46111569Y-94026666D02*
X46825854Y-94026666D01*
X46825854Y-94026666D02*
X46968711Y-93979047D01*
X46968711Y-93979047D02*
X47063950Y-93883809D01*
X47063950Y-93883809D02*
X47111569Y-93740952D01*
X47111569Y-93740952D02*
X47111569Y-93645714D01*
X46111569Y-94407619D02*
X46111569Y-95026666D01*
X46111569Y-95026666D02*
X46492521Y-94693333D01*
X46492521Y-94693333D02*
X46492521Y-94836190D01*
X46492521Y-94836190D02*
X46540140Y-94931428D01*
X46540140Y-94931428D02*
X46587759Y-94979047D01*
X46587759Y-94979047D02*
X46682997Y-95026666D01*
X46682997Y-95026666D02*
X46921092Y-95026666D01*
X46921092Y-95026666D02*
X47016330Y-94979047D01*
X47016330Y-94979047D02*
X47063950Y-94931428D01*
X47063950Y-94931428D02*
X47111569Y-94836190D01*
X47111569Y-94836190D02*
X47111569Y-94550476D01*
X47111569Y-94550476D02*
X47063950Y-94455238D01*
X47063950Y-94455238D02*
X47016330Y-94407619D01*
X102040569Y-53578095D02*
X102040569Y-54149523D01*
X103040569Y-53863809D02*
X102040569Y-53863809D01*
X102040569Y-54959047D02*
X102040569Y-54482857D01*
X102040569Y-54482857D02*
X102516759Y-54435238D01*
X102516759Y-54435238D02*
X102469140Y-54482857D01*
X102469140Y-54482857D02*
X102421521Y-54578095D01*
X102421521Y-54578095D02*
X102421521Y-54816190D01*
X102421521Y-54816190D02*
X102469140Y-54911428D01*
X102469140Y-54911428D02*
X102516759Y-54959047D01*
X102516759Y-54959047D02*
X102611997Y-55006666D01*
X102611997Y-55006666D02*
X102850092Y-55006666D01*
X102850092Y-55006666D02*
X102945330Y-54959047D01*
X102945330Y-54959047D02*
X102992950Y-54911428D01*
X102992950Y-54911428D02*
X103040569Y-54816190D01*
X103040569Y-54816190D02*
X103040569Y-54578095D01*
X103040569Y-54578095D02*
X102992950Y-54482857D01*
X102992950Y-54482857D02*
X102945330Y-54435238D01*
X46141569Y-81176666D02*
X46855854Y-81176666D01*
X46855854Y-81176666D02*
X46998711Y-81129047D01*
X46998711Y-81129047D02*
X47093950Y-81033809D01*
X47093950Y-81033809D02*
X47141569Y-80890952D01*
X47141569Y-80890952D02*
X47141569Y-80795714D01*
X46141569Y-82081428D02*
X46141569Y-81890952D01*
X46141569Y-81890952D02*
X46189188Y-81795714D01*
X46189188Y-81795714D02*
X46236807Y-81748095D01*
X46236807Y-81748095D02*
X46379664Y-81652857D01*
X46379664Y-81652857D02*
X46570140Y-81605238D01*
X46570140Y-81605238D02*
X46951092Y-81605238D01*
X46951092Y-81605238D02*
X47046330Y-81652857D01*
X47046330Y-81652857D02*
X47093950Y-81700476D01*
X47093950Y-81700476D02*
X47141569Y-81795714D01*
X47141569Y-81795714D02*
X47141569Y-81986190D01*
X47141569Y-81986190D02*
X47093950Y-82081428D01*
X47093950Y-82081428D02*
X47046330Y-82129047D01*
X47046330Y-82129047D02*
X46951092Y-82176666D01*
X46951092Y-82176666D02*
X46712997Y-82176666D01*
X46712997Y-82176666D02*
X46617759Y-82129047D01*
X46617759Y-82129047D02*
X46570140Y-82081428D01*
X46570140Y-82081428D02*
X46522521Y-81986190D01*
X46522521Y-81986190D02*
X46522521Y-81795714D01*
X46522521Y-81795714D02*
X46570140Y-81700476D01*
X46570140Y-81700476D02*
X46617759Y-81652857D01*
X46617759Y-81652857D02*
X46712997Y-81605238D01*
X56185083Y-37214819D02*
X56185083Y-37929104D01*
X56185083Y-37929104D02*
X56232702Y-38071961D01*
X56232702Y-38071961D02*
X56327940Y-38167200D01*
X56327940Y-38167200D02*
X56470797Y-38214819D01*
X56470797Y-38214819D02*
X56566035Y-38214819D01*
X55566035Y-37643390D02*
X55661273Y-37595771D01*
X55661273Y-37595771D02*
X55708892Y-37548152D01*
X55708892Y-37548152D02*
X55756511Y-37452914D01*
X55756511Y-37452914D02*
X55756511Y-37405295D01*
X55756511Y-37405295D02*
X55708892Y-37310057D01*
X55708892Y-37310057D02*
X55661273Y-37262438D01*
X55661273Y-37262438D02*
X55566035Y-37214819D01*
X55566035Y-37214819D02*
X55375559Y-37214819D01*
X55375559Y-37214819D02*
X55280321Y-37262438D01*
X55280321Y-37262438D02*
X55232702Y-37310057D01*
X55232702Y-37310057D02*
X55185083Y-37405295D01*
X55185083Y-37405295D02*
X55185083Y-37452914D01*
X55185083Y-37452914D02*
X55232702Y-37548152D01*
X55232702Y-37548152D02*
X55280321Y-37595771D01*
X55280321Y-37595771D02*
X55375559Y-37643390D01*
X55375559Y-37643390D02*
X55566035Y-37643390D01*
X55566035Y-37643390D02*
X55661273Y-37691009D01*
X55661273Y-37691009D02*
X55708892Y-37738628D01*
X55708892Y-37738628D02*
X55756511Y-37833866D01*
X55756511Y-37833866D02*
X55756511Y-38024342D01*
X55756511Y-38024342D02*
X55708892Y-38119580D01*
X55708892Y-38119580D02*
X55661273Y-38167200D01*
X55661273Y-38167200D02*
X55566035Y-38214819D01*
X55566035Y-38214819D02*
X55375559Y-38214819D01*
X55375559Y-38214819D02*
X55280321Y-38167200D01*
X55280321Y-38167200D02*
X55232702Y-38119580D01*
X55232702Y-38119580D02*
X55185083Y-38024342D01*
X55185083Y-38024342D02*
X55185083Y-37833866D01*
X55185083Y-37833866D02*
X55232702Y-37738628D01*
X55232702Y-37738628D02*
X55280321Y-37691009D01*
X55280321Y-37691009D02*
X55375559Y-37643390D01*
X70096569Y-53578095D02*
X70096569Y-54149523D01*
X71096569Y-53863809D02*
X70096569Y-53863809D01*
X71096569Y-55006666D02*
X71096569Y-54435238D01*
X71096569Y-54720952D02*
X70096569Y-54720952D01*
X70096569Y-54720952D02*
X70239426Y-54625714D01*
X70239426Y-54625714D02*
X70334664Y-54530476D01*
X70334664Y-54530476D02*
X70382283Y-54435238D01*
D13*
%TO.C,J10*%
X47581750Y-63195000D02*
X48581750Y-63195000D01*
X48081750Y-61175000D02*
X48081750Y-62385000D01*
X48081750Y-62385000D02*
X47581750Y-62385000D01*
X48581750Y-63195000D02*
X48581750Y-64695000D01*
X59301750Y-63195000D02*
X59301750Y-64695000D01*
X59801750Y-61175000D02*
X48081750Y-61175000D01*
X59801750Y-62385000D02*
X59801750Y-61175000D01*
X60301750Y-62385000D02*
X59801750Y-62385000D01*
X60301750Y-63195000D02*
X59301750Y-63195000D01*
X60601750Y-62495000D02*
X60601750Y-64995000D01*
X60601750Y-64995000D02*
X58101750Y-64995000D01*
X60301750Y-60675000D02*
X47581750Y-60675000D01*
X47581750Y-64695000D01*
X60301750Y-64695000D01*
X60301750Y-60675000D01*
%TO.C,T2*%
X77427750Y-35960000D02*
X77427750Y-52680000D01*
X77427750Y-52680000D02*
X78637750Y-52680000D01*
X78637750Y-35460000D02*
X78637750Y-35960000D01*
X78637750Y-35960000D02*
X77427750Y-35960000D01*
X78637750Y-52680000D02*
X78637750Y-53180000D01*
X78747750Y-35160000D02*
X81247750Y-35160000D01*
X79447750Y-35460000D02*
X79447750Y-36460000D01*
X79447750Y-36460000D02*
X80947750Y-36460000D01*
X79447750Y-52180000D02*
X80947750Y-52180000D01*
X79447750Y-53180000D02*
X79447750Y-52180000D01*
X81247750Y-35160000D02*
X81247750Y-37660000D01*
X76927750Y-35460000D02*
X80947750Y-35460000D01*
X80947750Y-53180000D01*
X76927750Y-53180000D01*
X76927750Y-35460000D01*
%TO.C,T6*%
X109371750Y-35960000D02*
X109371750Y-52680000D01*
X109371750Y-52680000D02*
X110581750Y-52680000D01*
X110581750Y-35460000D02*
X110581750Y-35960000D01*
X110581750Y-35960000D02*
X109371750Y-35960000D01*
X110581750Y-52680000D02*
X110581750Y-53180000D01*
X110691750Y-35160000D02*
X113191750Y-35160000D01*
X111391750Y-35460000D02*
X111391750Y-36460000D01*
X111391750Y-36460000D02*
X112891750Y-36460000D01*
X111391750Y-52180000D02*
X112891750Y-52180000D01*
X111391750Y-53180000D02*
X111391750Y-52180000D01*
X113191750Y-35160000D02*
X113191750Y-37660000D01*
X108871750Y-35460000D02*
X112891750Y-35460000D01*
X112891750Y-53180000D01*
X108871750Y-53180000D01*
X108871750Y-35460000D01*
%TO.C,J7*%
X51091750Y-86920000D02*
X51091750Y-84420000D01*
X52891750Y-76400000D02*
X52891750Y-77400000D01*
X52891750Y-77400000D02*
X51391750Y-77400000D01*
X52891750Y-85620000D02*
X51391750Y-85620000D01*
X52891750Y-86620000D02*
X52891750Y-85620000D01*
X53591750Y-86920000D02*
X51091750Y-86920000D01*
X53701750Y-76900000D02*
X53701750Y-76400000D01*
X53701750Y-86120000D02*
X54911750Y-86120000D01*
X53701750Y-86620000D02*
X53701750Y-86120000D01*
X54911750Y-76900000D02*
X53701750Y-76900000D01*
X54911750Y-86120000D02*
X54911750Y-76900000D01*
X55411750Y-86620000D02*
X51391750Y-86620000D01*
X51391750Y-76400000D01*
X55411750Y-76400000D01*
X55411750Y-86620000D01*
%TO.C,J11*%
X47581750Y-70580000D02*
X48581750Y-70580000D01*
X48081750Y-68560000D02*
X48081750Y-69770000D01*
X48081750Y-69770000D02*
X47581750Y-69770000D01*
X48581750Y-70580000D02*
X48581750Y-72080000D01*
X59301750Y-70580000D02*
X59301750Y-72080000D01*
X59801750Y-68560000D02*
X48081750Y-68560000D01*
X59801750Y-69770000D02*
X59801750Y-68560000D01*
X60301750Y-69770000D02*
X59801750Y-69770000D01*
X60301750Y-70580000D02*
X59301750Y-70580000D01*
X60601750Y-69880000D02*
X60601750Y-72380000D01*
X60601750Y-72380000D02*
X58101750Y-72380000D01*
X60301750Y-68060000D02*
X47581750Y-68060000D01*
X47581750Y-72080000D01*
X60301750Y-72080000D01*
X60301750Y-68060000D01*
%TO.C,J9*%
X47581750Y-55810000D02*
X48581750Y-55810000D01*
X48081750Y-53790000D02*
X48081750Y-55000000D01*
X48081750Y-55000000D02*
X47581750Y-55000000D01*
X48581750Y-55810000D02*
X48581750Y-57310000D01*
X59301750Y-55810000D02*
X59301750Y-57310000D01*
X59801750Y-53790000D02*
X48081750Y-53790000D01*
X59801750Y-55000000D02*
X59801750Y-53790000D01*
X60301750Y-55000000D02*
X59801750Y-55000000D01*
X60301750Y-55810000D02*
X59301750Y-55810000D01*
X60601750Y-55110000D02*
X60601750Y-57610000D01*
X60601750Y-57610000D02*
X58101750Y-57610000D01*
X60301750Y-53290000D02*
X47581750Y-53290000D01*
X47581750Y-57310000D01*
X60301750Y-57310000D01*
X60301750Y-53290000D01*
%TO.C,J1*%
X81211750Y-97630000D02*
X82211750Y-97630000D01*
X81711750Y-95610000D02*
X81711750Y-96820000D01*
X81711750Y-96820000D02*
X81211750Y-96820000D01*
X82211750Y-97630000D02*
X82211750Y-99130000D01*
X90431750Y-97630000D02*
X90431750Y-99130000D01*
X90931750Y-95610000D02*
X81711750Y-95610000D01*
X90931750Y-96820000D02*
X90931750Y-95610000D01*
X91431750Y-96820000D02*
X90931750Y-96820000D01*
X91431750Y-97630000D02*
X90431750Y-97630000D01*
X91731750Y-96930000D02*
X91731750Y-99430000D01*
X91731750Y-99430000D02*
X89231750Y-99430000D01*
X91431750Y-95110000D02*
X81211750Y-95110000D01*
X81211750Y-99130000D01*
X91431750Y-99130000D01*
X91431750Y-95110000D01*
%TO.C,J5*%
X31461750Y-86920000D02*
X31461750Y-84420000D01*
X33261750Y-76400000D02*
X33261750Y-77400000D01*
X33261750Y-77400000D02*
X31761750Y-77400000D01*
X33261750Y-85620000D02*
X31761750Y-85620000D01*
X33261750Y-86620000D02*
X33261750Y-85620000D01*
X33961750Y-86920000D02*
X31461750Y-86920000D01*
X34071750Y-76900000D02*
X34071750Y-76400000D01*
X34071750Y-86120000D02*
X35281750Y-86120000D01*
X34071750Y-86620000D02*
X34071750Y-86120000D01*
X35281750Y-76900000D02*
X34071750Y-76900000D01*
X35281750Y-86120000D02*
X35281750Y-76900000D01*
X35781750Y-86620000D02*
X31761750Y-86620000D01*
X31761750Y-76400000D01*
X35781750Y-76400000D01*
X35781750Y-86620000D01*
%TO.C,T4*%
X93399750Y-35960000D02*
X93399750Y-52680000D01*
X93399750Y-52680000D02*
X94609750Y-52680000D01*
X94609750Y-35460000D02*
X94609750Y-35960000D01*
X94609750Y-35960000D02*
X93399750Y-35960000D01*
X94609750Y-52680000D02*
X94609750Y-53180000D01*
X94719750Y-35160000D02*
X97219750Y-35160000D01*
X95419750Y-35460000D02*
X95419750Y-36460000D01*
X95419750Y-36460000D02*
X96919750Y-36460000D01*
X95419750Y-52180000D02*
X96919750Y-52180000D01*
X95419750Y-53180000D02*
X95419750Y-52180000D01*
X97219750Y-35160000D02*
X97219750Y-37660000D01*
X92899750Y-35460000D02*
X96919750Y-35460000D01*
X96919750Y-53180000D01*
X92899750Y-53180000D01*
X92899750Y-35460000D01*
%TO.C,J2*%
X31431750Y-99770000D02*
X31431750Y-97270000D01*
X33231750Y-89250000D02*
X33231750Y-90250000D01*
X33231750Y-90250000D02*
X31731750Y-90250000D01*
X33231750Y-98470000D02*
X31731750Y-98470000D01*
X33231750Y-99470000D02*
X33231750Y-98470000D01*
X33931750Y-99770000D02*
X31431750Y-99770000D01*
X34041750Y-89750000D02*
X34041750Y-89250000D01*
X34041750Y-98970000D02*
X35251750Y-98970000D01*
X34041750Y-99470000D02*
X34041750Y-98970000D01*
X35251750Y-89750000D02*
X34041750Y-89750000D01*
X35251750Y-98970000D02*
X35251750Y-89750000D01*
X35751750Y-99470000D02*
X31731750Y-99470000D01*
X31731750Y-89250000D01*
X35751750Y-89250000D01*
X35751750Y-99470000D01*
%TO.C,R1*%
X41121750Y-52980000D02*
X41121750Y-53830000D01*
X41121750Y-70420000D02*
X41121750Y-69570000D01*
X43741750Y-69570000D02*
X38501750Y-69570000D01*
X38501750Y-53830000D01*
X43741750Y-53830000D01*
X43741750Y-69570000D01*
%TO.C,J4*%
X51061750Y-99770000D02*
X51061750Y-97270000D01*
X52861750Y-89250000D02*
X52861750Y-90250000D01*
X52861750Y-90250000D02*
X51361750Y-90250000D01*
X52861750Y-98470000D02*
X51361750Y-98470000D01*
X52861750Y-99470000D02*
X52861750Y-98470000D01*
X53561750Y-99770000D02*
X51061750Y-99770000D01*
X53671750Y-89750000D02*
X53671750Y-89250000D01*
X53671750Y-98970000D02*
X54881750Y-98970000D01*
X53671750Y-99470000D02*
X53671750Y-98970000D01*
X54881750Y-89750000D02*
X53671750Y-89750000D01*
X54881750Y-98970000D02*
X54881750Y-89750000D01*
X55381750Y-99470000D02*
X51361750Y-99470000D01*
X51361750Y-89250000D01*
X55381750Y-89250000D01*
X55381750Y-99470000D01*
%TO.C,D1*%
X44911750Y-41435000D02*
X44911750Y-44525000D01*
X39361750Y-42980000D02*
G75*
G02*
X44911750Y-41435170I2990000J0D01*
G01*
X44911750Y-44524830D02*
G75*
G02*
X39361750Y-42980000I-2560000J1544830D01*
G01*
X44851750Y-42980000D02*
G75*
G02*
X39851750Y-42980000I-2500000J0D01*
G01*
X39851750Y-42980000D02*
G75*
G02*
X44851750Y-42980000I2500000J0D01*
G01*
%TO.C,T3*%
X85413750Y-35960000D02*
X85413750Y-52680000D01*
X85413750Y-52680000D02*
X86623750Y-52680000D01*
X86623750Y-35460000D02*
X86623750Y-35960000D01*
X86623750Y-35960000D02*
X85413750Y-35960000D01*
X86623750Y-52680000D02*
X86623750Y-53180000D01*
X86733750Y-35160000D02*
X89233750Y-35160000D01*
X87433750Y-35460000D02*
X87433750Y-36460000D01*
X87433750Y-36460000D02*
X88933750Y-36460000D01*
X87433750Y-52180000D02*
X88933750Y-52180000D01*
X87433750Y-53180000D02*
X87433750Y-52180000D01*
X89233750Y-35160000D02*
X89233750Y-37660000D01*
X84913750Y-35460000D02*
X88933750Y-35460000D01*
X88933750Y-53180000D01*
X84913750Y-53180000D01*
X84913750Y-35460000D01*
%TO.C,J3*%
X41246750Y-99770000D02*
X41246750Y-97270000D01*
X43046750Y-89250000D02*
X43046750Y-90250000D01*
X43046750Y-90250000D02*
X41546750Y-90250000D01*
X43046750Y-98470000D02*
X41546750Y-98470000D01*
X43046750Y-99470000D02*
X43046750Y-98470000D01*
X43746750Y-99770000D02*
X41246750Y-99770000D01*
X43856750Y-89750000D02*
X43856750Y-89250000D01*
X43856750Y-98970000D02*
X45066750Y-98970000D01*
X43856750Y-99470000D02*
X43856750Y-98970000D01*
X45066750Y-89750000D02*
X43856750Y-89750000D01*
X45066750Y-98970000D02*
X45066750Y-89750000D01*
X45566750Y-99470000D02*
X41546750Y-99470000D01*
X41546750Y-89250000D01*
X45566750Y-89250000D01*
X45566750Y-99470000D01*
%TO.C,T5*%
X101385750Y-35960000D02*
X101385750Y-52680000D01*
X101385750Y-52680000D02*
X102595750Y-52680000D01*
X102595750Y-35460000D02*
X102595750Y-35960000D01*
X102595750Y-35960000D02*
X101385750Y-35960000D01*
X102595750Y-52680000D02*
X102595750Y-53180000D01*
X102705750Y-35160000D02*
X105205750Y-35160000D01*
X103405750Y-35460000D02*
X103405750Y-36460000D01*
X103405750Y-36460000D02*
X104905750Y-36460000D01*
X103405750Y-52180000D02*
X104905750Y-52180000D01*
X103405750Y-53180000D02*
X103405750Y-52180000D01*
X105205750Y-35160000D02*
X105205750Y-37660000D01*
X100885750Y-35460000D02*
X104905750Y-35460000D01*
X104905750Y-53180000D01*
X100885750Y-53180000D01*
X100885750Y-35460000D01*
%TO.C,J6*%
X41276750Y-86920000D02*
X41276750Y-84420000D01*
X43076750Y-76400000D02*
X43076750Y-77400000D01*
X43076750Y-77400000D02*
X41576750Y-77400000D01*
X43076750Y-85620000D02*
X41576750Y-85620000D01*
X43076750Y-86620000D02*
X43076750Y-85620000D01*
X43776750Y-86920000D02*
X41276750Y-86920000D01*
X43886750Y-76900000D02*
X43886750Y-76400000D01*
X43886750Y-86120000D02*
X45096750Y-86120000D01*
X43886750Y-86620000D02*
X43886750Y-86120000D01*
X45096750Y-76900000D02*
X43886750Y-76900000D01*
X45096750Y-86120000D02*
X45096750Y-76900000D01*
X45596750Y-86620000D02*
X41576750Y-86620000D01*
X41576750Y-76400000D01*
X45596750Y-76400000D01*
X45596750Y-86620000D01*
%TO.C,J8*%
X51991750Y-41370000D02*
X52991750Y-41370000D01*
X52491750Y-39350000D02*
X52491750Y-40560000D01*
X52491750Y-40560000D02*
X51991750Y-40560000D01*
X52991750Y-41370000D02*
X52991750Y-42870000D01*
X58711750Y-41370000D02*
X58711750Y-42870000D01*
X59211750Y-39350000D02*
X52491750Y-39350000D01*
X59211750Y-40560000D02*
X59211750Y-39350000D01*
X59711750Y-40560000D02*
X59211750Y-40560000D01*
X59711750Y-41370000D02*
X58711750Y-41370000D01*
X60011750Y-40670000D02*
X60011750Y-43170000D01*
X60011750Y-43170000D02*
X57511750Y-43170000D01*
X59711750Y-38850000D02*
X51991750Y-38850000D01*
X51991750Y-42870000D01*
X59711750Y-42870000D01*
X59711750Y-38850000D01*
%TO.C,T1*%
X69441750Y-35960000D02*
X69441750Y-52680000D01*
X69441750Y-52680000D02*
X70651750Y-52680000D01*
X70651750Y-35460000D02*
X70651750Y-35960000D01*
X70651750Y-35960000D02*
X69441750Y-35960000D01*
X70651750Y-52680000D02*
X70651750Y-53180000D01*
X70761750Y-35160000D02*
X73261750Y-35160000D01*
X71461750Y-35460000D02*
X71461750Y-36460000D01*
X71461750Y-36460000D02*
X72961750Y-36460000D01*
X71461750Y-52180000D02*
X72961750Y-52180000D01*
X71461750Y-53180000D02*
X71461750Y-52180000D01*
X73261750Y-35160000D02*
X73261750Y-37660000D01*
X68941750Y-35460000D02*
X72961750Y-35460000D01*
X72961750Y-53180000D01*
X68941750Y-53180000D01*
X68941750Y-35460000D01*
%TD*%
M02*
