M48
; DRILL file {KiCad 9.0.7} date 2026-08-20T17:34:48+0200
; FORMAT={-:-/ absolute / metric / decimal}
; #@! TF.CreationDate,2026-08-20T17:34:48+02:00
; #@! TF.GenerationSoftware,Kicad,Pcbnew,9.0.7
; #@! TF.FileFunction,Plated,1,2,PTH
FMAT,2
METRIC
; #@! TA.AperFunction,Plated,PTH,ComponentDrill
T1C0.800
; #@! TA.AperFunction,Plated,PTH,ComponentDrill
T2C0.900
; #@! TA.AperFunction,Plated,PTH,ComponentDrill
T3C0.950
; #@! TA.AperFunction,Plated,PTH,ComponentDrill
T4C1.000
; #@! TA.AperFunction,Plated,PTH,ComponentDrill
T5C1.200
; #@! TA.AperFunction,Plated,PTH,ComponentDrill
T6C3.200
%
G90
G05
T1
X66.052Y-60.44
X66.052Y-68.06
X68.592Y-60.44
X68.592Y-68.06
X71.132Y-60.44
X71.132Y-68.06
X73.672Y-60.44
X73.672Y-68.06
X76.212Y-60.44
X76.212Y-68.06
X78.752Y-60.44
X78.752Y-68.06
X81.292Y-60.44
X81.292Y-68.06
X83.832Y-60.44
X83.832Y-68.06
X86.372Y-60.44
X86.372Y-68.06
X91.442Y-60.44
X91.442Y-68.06
X93.982Y-60.44
X93.982Y-68.06
X96.522Y-60.44
X96.522Y-68.06
X99.062Y-60.44
X99.062Y-68.06
X101.602Y-60.44
X101.602Y-68.06
X104.142Y-60.44
X104.142Y-68.06
X106.682Y-60.44
X106.682Y-68.06
X109.222Y-60.44
X109.222Y-68.06
X111.762Y-60.44
X111.762Y-68.06
T2
X41.082Y-42.98
X43.622Y-42.98
T3
X34.042Y-91.86
X34.042Y-94.36
X34.042Y-96.86
X34.072Y-79.01
X34.072Y-81.51
X34.072Y-84.01
X43.857Y-91.86
X43.857Y-94.36
X43.857Y-96.86
X43.887Y-79.01
X43.887Y-81.51
X43.887Y-84.01
X50.192Y-55.0
X50.192Y-62.385
X50.192Y-69.77
X52.692Y-55.0
X52.692Y-62.385
X52.692Y-69.77
X53.672Y-91.86
X53.672Y-94.36
X53.672Y-96.86
X53.702Y-79.01
X53.702Y-81.51
X53.702Y-84.01
X55.192Y-55.0
X55.192Y-62.385
X55.192Y-69.77
X57.692Y-55.0
X57.692Y-62.385
X57.692Y-69.77
X70.652Y-38.07
X70.652Y-40.57
X70.652Y-43.07
X70.652Y-45.57
X70.652Y-48.07
X70.652Y-50.57
X78.638Y-38.07
X78.638Y-40.57
X78.638Y-43.07
X78.638Y-45.57
X78.638Y-48.07
X78.638Y-50.57
X83.822Y-96.82
X86.322Y-96.82
X86.624Y-38.07
X86.624Y-40.57
X86.624Y-43.07
X86.624Y-45.57
X86.624Y-48.07
X86.624Y-50.57
X88.822Y-96.82
X94.61Y-38.07
X94.61Y-40.57
X94.61Y-43.07
X94.61Y-45.57
X94.61Y-48.07
X94.61Y-50.57
X102.596Y-38.07
X102.596Y-40.57
X102.596Y-43.07
X102.596Y-45.57
X102.596Y-48.07
X102.596Y-50.57
X110.582Y-38.07
X110.582Y-40.57
X110.582Y-43.07
X110.582Y-45.57
X110.582Y-48.07
X110.582Y-50.57
T4
X54.602Y-40.56
X57.102Y-40.56
X66.013Y-73.71
X66.013Y-91.49
X68.552Y-73.71
X68.552Y-91.49
X71.093Y-73.71
X71.093Y-91.49
X73.632Y-73.71
X73.632Y-91.49
X76.172Y-73.71
X76.172Y-91.49
X78.712Y-73.71
X78.712Y-91.49
X81.252Y-73.71
X81.252Y-91.49
X83.792Y-73.71
X83.792Y-91.49
X86.332Y-73.71
X86.332Y-91.49
X88.873Y-73.71
X88.873Y-91.49
X91.412Y-73.71
X91.412Y-91.49
X93.953Y-73.71
X93.953Y-91.49
X96.492Y-73.71
X96.492Y-91.49
X99.032Y-73.71
X99.032Y-91.49
X101.572Y-73.71
X101.572Y-91.49
X104.112Y-73.71
X104.112Y-91.49
X106.652Y-73.71
X106.652Y-91.49
X109.192Y-73.71
X109.192Y-91.49
X111.733Y-73.71
X111.733Y-91.49
X114.272Y-73.71
X114.272Y-91.49
T5
X41.122Y-51.54
X41.122Y-71.86
T6
X30.0Y-42.02
X30.0Y-66.02
X115.1Y-97.42
M30
