%TF.GenerationSoftware,KiCad,Pcbnew,9.0.7*%
%TF.CreationDate,2026-08-20T17:32:26+02:00*%
%TF.ProjectId,Robotdriver,526f626f-7464-4726-9976-65722e6b6963,rev?*%
%TF.SameCoordinates,Original*%
%TF.FileFunction,Copper,L1,Top*%
%TF.FilePolarity,Positive*%
%FSLAX46Y46*%
G04 Gerber Fmt 4.6, Leading zero omitted, Abs format (unit mm)*
G04 Created by KiCad (PCBNEW 9.0.7) date 2026-08-20 17:32:26*
%MOMM*%
%LPD*%
G01*
G04 APERTURE LIST*
G04 Aperture macros list*
%AMRoundRect*
0 Rectangle with rounded corners*
0 $1 Rounding radius*
0 $2 $3 $4 $5 $6 $7 $8 $9 X,Y pos of 4 corners*
0 Add a 4 corners polygon primitive as box body*
4,1,4,$2,$3,$4,$5,$6,$7,$8,$9,$2,$3,0*
0 Add four circle primitives for the rounded corners*
1,1,$1+$1,$2,$3*
1,1,$1+$1,$4,$5*
1,1,$1+$1,$6,$7*
1,1,$1+$1,$8,$9*
0 Add four rect primitives between the rounded corners*
20,1,$1+$1,$2,$3,$4,$5,0*
20,1,$1+$1,$4,$5,$6,$7,0*
20,1,$1+$1,$6,$7,$8,$9,0*
20,1,$1+$1,$8,$9,$2,$3,0*%
%AMFreePoly0*
4,1,37,0.800000,0.796148,0.878414,0.796148,1.032228,0.765552,1.177117,0.705537,1.307515,0.618408,1.418408,0.507515,1.505537,0.377117,1.565552,0.232228,1.596148,0.078414,1.596148,-0.078414,1.565552,-0.232228,1.505537,-0.377117,1.418408,-0.507515,1.307515,-0.618408,1.177117,-0.705537,1.032228,-0.765552,0.878414,-0.796148,0.800000,-0.796148,0.800000,-0.800000,-1.400000,-0.800000,
-1.403843,-0.796157,-1.439018,-0.796157,-1.511114,-0.766294,-1.566294,-0.711114,-1.596157,-0.639018,-1.596157,-0.603843,-1.600000,-0.600000,-1.600000,0.600000,-1.596157,0.603843,-1.596157,0.639018,-1.566294,0.711114,-1.511114,0.766294,-1.439018,0.796157,-1.403843,0.796157,-1.400000,0.800000,0.800000,0.800000,0.800000,0.796148,0.800000,0.796148,$1*%
%AMFreePoly1*
4,1,37,1.403843,0.796157,1.439018,0.796157,1.511114,0.766294,1.566294,0.711114,1.596157,0.639018,1.596157,0.603843,1.600000,0.600000,1.600000,-0.600000,1.596157,-0.603843,1.596157,-0.639018,1.566294,-0.711114,1.511114,-0.766294,1.439018,-0.796157,1.403843,-0.796157,1.400000,-0.800000,-0.800000,-0.800000,-0.800000,-0.796148,-0.878414,-0.796148,-1.032228,-0.765552,-1.177117,-0.705537,
-1.307515,-0.618408,-1.418408,-0.507515,-1.505537,-0.377117,-1.565552,-0.232228,-1.596148,-0.078414,-1.596148,0.078414,-1.565552,0.232228,-1.505537,0.377117,-1.418408,0.507515,-1.307515,0.618408,-1.177117,0.705537,-1.032228,0.765552,-0.878414,0.796148,-0.800000,0.796148,-0.800000,0.800000,1.400000,0.800000,1.403843,0.796157,1.403843,0.796157,$1*%
%AMFreePoly2*
4,1,37,0.603843,0.796157,0.639018,0.796157,0.711114,0.766294,0.766294,0.711114,0.796157,0.639018,0.796157,0.603843,0.800000,0.600000,0.800000,-0.600000,0.796157,-0.603843,0.796157,-0.639018,0.766294,-0.711114,0.711114,-0.766294,0.639018,-0.796157,0.603843,-0.796157,0.600000,-0.800000,0.000000,-0.800000,0.000000,-0.796148,-0.078414,-0.796148,-0.232228,-0.765552,-0.377117,-0.705537,
-0.507515,-0.618408,-0.618408,-0.507515,-0.705537,-0.377117,-0.765552,-0.232228,-0.796148,-0.078414,-0.796148,0.078414,-0.765552,0.232228,-0.705537,0.377117,-0.618408,0.507515,-0.507515,0.618408,-0.377117,0.705537,-0.232228,0.765552,-0.078414,0.796148,0.000000,0.796148,0.000000,0.800000,0.600000,0.800000,0.603843,0.796157,0.603843,0.796157,$1*%
%AMFreePoly3*
4,1,37,0.000000,0.796148,0.078414,0.796148,0.232228,0.765552,0.377117,0.705537,0.507515,0.618408,0.618408,0.507515,0.705537,0.377117,0.765552,0.232228,0.796148,0.078414,0.796148,-0.078414,0.765552,-0.232228,0.705537,-0.377117,0.618408,-0.507515,0.507515,-0.618408,0.377117,-0.705537,0.232228,-0.765552,0.078414,-0.796148,0.000000,-0.796148,0.000000,-0.800000,-0.600000,-0.800000,
-0.603843,-0.796157,-0.639018,-0.796157,-0.711114,-0.766294,-0.766294,-0.711114,-0.796157,-0.639018,-0.796157,-0.603843,-0.800000,-0.600000,-0.800000,0.600000,-0.796157,0.603843,-0.796157,0.639018,-0.766294,0.711114,-0.711114,0.766294,-0.639018,0.796157,-0.603843,0.796157,-0.600000,0.800000,0.000000,0.800000,0.000000,0.796148,0.000000,0.796148,$1*%
G04 Aperture macros list end*
%TA.AperFunction,ComponentPad*%
%ADD10C,3.600000*%
%TD*%
%TA.AperFunction,ConnectorPad*%
%ADD11C,5.600000*%
%TD*%
%TA.AperFunction,SMDPad,CuDef*%
%ADD12FreePoly0,270.000000*%
%TD*%
%TA.AperFunction,ComponentPad*%
%ADD13RoundRect,0.200000X-0.600000X0.600000X-0.600000X-0.600000X0.600000X-0.600000X0.600000X0.600000X0*%
%TD*%
%TA.AperFunction,SMDPad,CuDef*%
%ADD14RoundRect,0.800000X-0.000010X0.800000X-0.000010X-0.800000X0.000010X-0.800000X0.000010X0.800000X0*%
%TD*%
%TA.AperFunction,ComponentPad*%
%ADD15C,1.600000*%
%TD*%
%TA.AperFunction,SMDPad,CuDef*%
%ADD16FreePoly1,270.000000*%
%TD*%
%TA.AperFunction,ComponentPad*%
%ADD17FreePoly2,270.000000*%
%TD*%
%TA.AperFunction,ComponentPad*%
%ADD18FreePoly3,270.000000*%
%TD*%
%TA.AperFunction,ComponentPad*%
%ADD19RoundRect,0.250000X0.550000X-0.550000X0.550000X0.550000X-0.550000X0.550000X-0.550000X-0.550000X0*%
%TD*%
%TA.AperFunction,ComponentPad*%
%ADD20RoundRect,0.250000X0.600000X0.725000X-0.600000X0.725000X-0.600000X-0.725000X0.600000X-0.725000X0*%
%TD*%
%TA.AperFunction,ComponentPad*%
%ADD21O,1.700000X1.950000*%
%TD*%
%TA.AperFunction,ComponentPad*%
%ADD22RoundRect,0.250000X-0.725000X0.600000X-0.725000X-0.600000X0.725000X-0.600000X0.725000X0.600000X0*%
%TD*%
%TA.AperFunction,ComponentPad*%
%ADD23O,1.950000X1.700000*%
%TD*%
%TA.AperFunction,ComponentPad*%
%ADD24RoundRect,0.250000X0.725000X-0.600000X0.725000X0.600000X-0.725000X0.600000X-0.725000X-0.600000X0*%
%TD*%
%TA.AperFunction,ComponentPad*%
%ADD25C,2.400000*%
%TD*%
%TA.AperFunction,ComponentPad*%
%ADD26R,1.800000X1.800000*%
%TD*%
%TA.AperFunction,ComponentPad*%
%ADD27C,1.800000*%
%TD*%
%TA.AperFunction,ComponentPad*%
%ADD28RoundRect,0.250000X0.600000X0.750000X-0.600000X0.750000X-0.600000X-0.750000X0.600000X-0.750000X0*%
%TD*%
%TA.AperFunction,ComponentPad*%
%ADD29O,1.700000X2.000000*%
%TD*%
%TA.AperFunction,Conductor*%
%ADD30C,0.700000*%
%TD*%
%TA.AperFunction,Conductor*%
%ADD31C,1.000000*%
%TD*%
%TA.AperFunction,Conductor*%
%ADD32C,1.500000*%
%TD*%
%TA.AperFunction,Conductor*%
%ADD33C,1.200000*%
%TD*%
G04 APERTURE END LIST*
D10*
%TO.P,M3,1*%
%TO.N,N/C*%
X30000000Y-42020000D03*
D11*
X30000000Y-42020000D03*
%TD*%
D10*
%TO.P,M3,1*%
%TO.N,N/C*%
X115100000Y-97420000D03*
D11*
X115100000Y-97420000D03*
%TD*%
D12*
%TO.P,A1,1,GPIO0*%
%TO.N,Net-(A1-GPIO0)*%
X114272500Y-72910000D03*
D13*
X114272500Y-73710000D03*
D14*
%TO.P,A1,2,GPIO1*%
%TO.N,Net-(A1-GPIO1)*%
X111732500Y-72910000D03*
D15*
X111732500Y-73710000D03*
D16*
%TO.P,A1,3,GND*%
%TO.N,GND*%
X109192500Y-72910000D03*
D17*
X109192500Y-73710000D03*
D14*
%TO.P,A1,4,GPIO2*%
%TO.N,Net-(A1-GPIO2)*%
X106652500Y-72910000D03*
D15*
X106652500Y-73710000D03*
D14*
%TO.P,A1,5,GPIO3*%
%TO.N,Net-(A1-GPIO3)*%
X104112500Y-72910000D03*
D15*
X104112500Y-73710000D03*
D14*
%TO.P,A1,6,GPIO4*%
%TO.N,Net-(A1-GPIO4)*%
X101572500Y-72910000D03*
D15*
X101572500Y-73710000D03*
D14*
%TO.P,A1,7,GPIO5*%
%TO.N,Net-(A1-GPIO5)*%
X99032500Y-72910000D03*
D15*
X99032500Y-73710000D03*
D16*
%TO.P,A1,8,GND*%
%TO.N,GND*%
X96492500Y-72910000D03*
D17*
X96492500Y-73710000D03*
D14*
%TO.P,A1,9,GPIO6*%
%TO.N,Net-(A1-GPIO6)*%
X93952500Y-72910000D03*
D15*
X93952500Y-73710000D03*
D14*
%TO.P,A1,10,GPIO7*%
%TO.N,Net-(A1-GPIO7)*%
X91412500Y-72910000D03*
D15*
X91412500Y-73710000D03*
D14*
%TO.P,A1,11,GPIO8*%
%TO.N,Net-(A1-GPIO8)*%
X88872500Y-72910000D03*
D15*
X88872500Y-73710000D03*
D14*
%TO.P,A1,12,GPIO9*%
%TO.N,Net-(A1-GPIO9)*%
X86332500Y-72910000D03*
D15*
X86332500Y-73710000D03*
D16*
%TO.P,A1,13,GND*%
%TO.N,GND*%
X83792500Y-72910000D03*
D17*
X83792500Y-73710000D03*
D14*
%TO.P,A1,14,GPIO10*%
%TO.N,Net-(A1-GPIO10)*%
X81252500Y-72910000D03*
D15*
X81252500Y-73710000D03*
D14*
%TO.P,A1,15,GPIO11*%
%TO.N,Net-(A1-GPIO11)*%
X78712500Y-72910000D03*
D15*
X78712500Y-73710000D03*
D14*
%TO.P,A1,16,GPIO12*%
%TO.N,Net-(A1-GPIO12)*%
X76172500Y-72910000D03*
D15*
X76172500Y-73710000D03*
D14*
%TO.P,A1,17,GPIO13*%
%TO.N,Net-(A1-GPIO13)*%
X73632500Y-72910000D03*
D15*
X73632500Y-73710000D03*
D16*
%TO.P,A1,18,GND*%
%TO.N,GND*%
X71092500Y-72910000D03*
D17*
X71092500Y-73710000D03*
D14*
%TO.P,A1,19,GPIO14*%
%TO.N,Net-(A1-GPIO14)*%
X68552500Y-72910000D03*
D15*
X68552500Y-73710000D03*
D14*
%TO.P,A1,20,GPIO15*%
%TO.N,Net-(A1-GPIO15)*%
X66012500Y-72910000D03*
D15*
X66012500Y-73710000D03*
%TO.P,A1,21,GPIO16*%
%TO.N,Net-(A1-GPIO16)*%
X66012500Y-91490000D03*
D14*
X66012500Y-92290000D03*
D15*
%TO.P,A1,22,GPIO17*%
%TO.N,Net-(A1-GPIO17)*%
X68552500Y-91490000D03*
D14*
X68552500Y-92290000D03*
D18*
%TO.P,A1,23,GND*%
%TO.N,GND*%
X71092500Y-91490000D03*
D12*
X71092500Y-92290000D03*
D15*
%TO.P,A1,24,GPIO18*%
%TO.N,Net-(A1-GPIO18)*%
X73632500Y-91490000D03*
D14*
X73632500Y-92290000D03*
D15*
%TO.P,A1,25,GPIO19*%
%TO.N,Net-(A1-GPIO19)*%
X76172500Y-91490000D03*
D14*
X76172500Y-92290000D03*
D15*
%TO.P,A1,26,GPIO20*%
%TO.N,Net-(A1-GPIO20)*%
X78712500Y-91490000D03*
D14*
X78712500Y-92290000D03*
D15*
%TO.P,A1,27,GPIO21*%
%TO.N,Net-(A1-GPIO21)*%
X81252500Y-91490000D03*
D14*
X81252500Y-92290000D03*
D18*
%TO.P,A1,28,GND*%
%TO.N,GND*%
X83792500Y-91490000D03*
D12*
X83792500Y-92290000D03*
D15*
%TO.P,A1,29,GPIO22*%
%TO.N,Net-(A1-GPIO22)*%
X86332500Y-91490000D03*
D14*
X86332500Y-92290000D03*
D15*
%TO.P,A1,30,RUN*%
%TO.N,unconnected-(A1-RUN-Pad30)*%
X88872500Y-91490000D03*
D14*
X88872500Y-92290000D03*
D15*
%TO.P,A1,31,GPIO26_ADC0*%
%TO.N,unconnected-(A1-GPIO26_ADC0-Pad31)*%
X91412500Y-91490000D03*
D14*
X91412500Y-92290000D03*
D15*
%TO.P,A1,32,GPIO27_ADC1*%
%TO.N,unconnected-(A1-GPIO27_ADC1-Pad32)*%
X93952500Y-91490000D03*
D14*
X93952500Y-92290000D03*
D18*
%TO.P,A1,33,AGND*%
%TO.N,unconnected-(A1-AGND-Pad33)*%
X96492500Y-91490000D03*
D12*
X96492500Y-92290000D03*
D15*
%TO.P,A1,34,GPIO28_ADC2*%
%TO.N,unconnected-(A1-GPIO28_ADC2-Pad34)*%
X99032500Y-91490000D03*
D14*
X99032500Y-92290000D03*
D15*
%TO.P,A1,35,ADC_VREF*%
%TO.N,unconnected-(A1-ADC_VREF-Pad35)*%
X101572500Y-91490000D03*
D14*
X101572500Y-92290000D03*
D15*
%TO.P,A1,36,3V3*%
%TO.N,+3.3V*%
X104112500Y-91490000D03*
D14*
X104112500Y-92290000D03*
D15*
%TO.P,A1,37,3V3_EN*%
%TO.N,unconnected-(A1-3V3_EN-Pad37)*%
X106652500Y-91490000D03*
D14*
X106652500Y-92290000D03*
D18*
%TO.P,A1,38,GND*%
%TO.N,GND*%
X109192500Y-91490000D03*
D12*
X109192500Y-92290000D03*
D15*
%TO.P,A1,39,VSYS*%
%TO.N,unconnected-(A1-VSYS-Pad39)*%
X111732500Y-91490000D03*
D14*
X111732500Y-92290000D03*
D15*
%TO.P,A1,40,VBUS*%
%TO.N,unconnected-(A1-VBUS-Pad40)*%
X114272500Y-91490000D03*
D14*
X114272500Y-92290000D03*
%TD*%
D19*
%TO.P,U2,1,I1*%
%TO.N,Net-(A1-GPIO7)*%
X91441750Y-68060000D03*
D15*
%TO.P,U2,2,I2*%
%TO.N,Net-(A1-GPIO6)*%
X93981750Y-68060000D03*
%TO.P,U2,3,I3*%
%TO.N,Net-(A1-GPIO5)*%
X96521750Y-68060000D03*
%TO.P,U2,4,I4*%
%TO.N,Net-(A1-GPIO4)*%
X99061750Y-68060000D03*
%TO.P,U2,5,I5*%
%TO.N,Net-(A1-GPIO3)*%
X101601750Y-68060000D03*
%TO.P,U2,6,I6*%
%TO.N,Net-(A1-GPIO2)*%
X104141750Y-68060000D03*
%TO.P,U2,7,I7*%
%TO.N,Net-(A1-GPIO1)*%
X106681750Y-68060000D03*
%TO.P,U2,8,I8*%
%TO.N,Net-(A1-GPIO0)*%
X109221750Y-68060000D03*
%TO.P,U2,9,GND*%
%TO.N,GND*%
X111761750Y-68060000D03*
%TO.P,U2,10,COM*%
%TO.N,unconnected-(U2-COM-Pad10)*%
X111761750Y-60440000D03*
%TO.P,U2,11,O8*%
%TO.N,Net-(J11-Pin_1)*%
X109221750Y-60440000D03*
%TO.P,U2,12,O7*%
%TO.N,Net-(J10-Pin_1)*%
X106681750Y-60440000D03*
%TO.P,U2,13,O6*%
%TO.N,Net-(T6-PUL-)*%
X104141750Y-60440000D03*
%TO.P,U2,14,O5*%
%TO.N,Net-(T6-DIR-)*%
X101601750Y-60440000D03*
%TO.P,U2,15,O4*%
%TO.N,Net-(T5-PUL-)*%
X99061750Y-60440000D03*
%TO.P,U2,16,O3*%
%TO.N,Net-(T5-DIR-)*%
X96521750Y-60440000D03*
%TO.P,U2,17,O2*%
%TO.N,Net-(T4-PUL-)*%
X93981750Y-60440000D03*
%TO.P,U2,18,O1*%
%TO.N,Net-(T4-DIR-)*%
X91441750Y-60440000D03*
%TD*%
D10*
%TO.P,M3,1*%
%TO.N,N/C*%
X30000000Y-66020000D03*
D11*
X30000000Y-66020000D03*
%TD*%
D19*
%TO.P,U1,1,I1*%
%TO.N,Net-(A1-GPIO15)*%
X66051750Y-68060000D03*
D15*
%TO.P,U1,2,I2*%
%TO.N,Net-(A1-GPIO14)*%
X68591750Y-68060000D03*
%TO.P,U1,3,I3*%
%TO.N,Net-(A1-GPIO13)*%
X71131750Y-68060000D03*
%TO.P,U1,4,I4*%
%TO.N,Net-(A1-GPIO12)*%
X73671750Y-68060000D03*
%TO.P,U1,5,I5*%
%TO.N,Net-(A1-GPIO11)*%
X76211750Y-68060000D03*
%TO.P,U1,6,I6*%
%TO.N,Net-(A1-GPIO10)*%
X78751750Y-68060000D03*
%TO.P,U1,7,I7*%
%TO.N,Net-(A1-GPIO9)*%
X81291750Y-68060000D03*
%TO.P,U1,8,I8*%
%TO.N,Net-(A1-GPIO8)*%
X83831750Y-68060000D03*
%TO.P,U1,9,GND*%
%TO.N,GND*%
X86371750Y-68060000D03*
%TO.P,U1,10,COM*%
%TO.N,unconnected-(U1-COM-Pad10)*%
X86371750Y-60440000D03*
%TO.P,U1,11,O8*%
%TO.N,Net-(J9-Pin_1)*%
X83831750Y-60440000D03*
%TO.P,U1,12,O7*%
%TO.N,Net-(T3-PUL-)*%
X81291750Y-60440000D03*
%TO.P,U1,13,O6*%
%TO.N,Net-(T3-DIR-)*%
X78751750Y-60440000D03*
%TO.P,U1,14,O5*%
%TO.N,Net-(T2-PUL-)*%
X76211750Y-60440000D03*
%TO.P,U1,15,O4*%
%TO.N,Net-(T2-DIR-)*%
X73671750Y-60440000D03*
%TO.P,U1,16,O3*%
%TO.N,Net-(T1-PUL-)*%
X71131750Y-60440000D03*
%TO.P,U1,17,O2*%
%TO.N,Net-(T1-DIR-)*%
X68591750Y-60440000D03*
%TO.P,U1,18,O1*%
%TO.N,Net-(T1-ENA-)*%
X66051750Y-60440000D03*
%TD*%
D20*
%TO.P,J10,1,Pin_1*%
%TO.N,Net-(J10-Pin_1)*%
X57691750Y-62385000D03*
D21*
%TO.P,J10,2,Pin_2*%
%TO.N,Net-(A1-GPIO0)*%
X55191750Y-62385000D03*
%TO.P,J10,3,Pin_3*%
%TO.N,GND*%
X52691750Y-62385000D03*
%TO.P,J10,4,Pin_4*%
%TO.N,+5V*%
X50191750Y-62385000D03*
%TD*%
D22*
%TO.P,T2,1,ENA-*%
%TO.N,Net-(T1-ENA-)*%
X78637750Y-38070000D03*
D23*
%TO.P,T2,2,ENA+*%
%TO.N,+5V*%
X78637750Y-40570000D03*
%TO.P,T2,3,DIR-*%
%TO.N,Net-(T2-DIR-)*%
X78637750Y-43070000D03*
%TO.P,T2,4,DIR+*%
%TO.N,+5V*%
X78637750Y-45570000D03*
%TO.P,T2,5,PUL-*%
%TO.N,Net-(T2-PUL-)*%
X78637750Y-48070000D03*
%TO.P,T2,6,PUL+*%
%TO.N,+5V*%
X78637750Y-50570000D03*
%TD*%
D22*
%TO.P,T6,1,ENA-*%
%TO.N,Net-(T1-ENA-)*%
X110581750Y-38070000D03*
D23*
%TO.P,T6,2,ENA+*%
%TO.N,+5V*%
X110581750Y-40570000D03*
%TO.P,T6,3,DIR-*%
%TO.N,Net-(T6-DIR-)*%
X110581750Y-43070000D03*
%TO.P,T6,4,DIR+*%
%TO.N,+5V*%
X110581750Y-45570000D03*
%TO.P,T6,5,PUL-*%
%TO.N,Net-(T6-PUL-)*%
X110581750Y-48070000D03*
%TO.P,T6,6,PUL+*%
%TO.N,+5V*%
X110581750Y-50570000D03*
%TD*%
D24*
%TO.P,J7,1,Pin_1*%
%TO.N,+3.3V*%
X53701750Y-84010000D03*
D23*
%TO.P,J7,2,Pin_2*%
%TO.N,Net-(A1-GPIO16)*%
X53701750Y-81510000D03*
%TO.P,J7,3,Pin_3*%
%TO.N,GND*%
X53701750Y-79010000D03*
%TD*%
D20*
%TO.P,J11,1,Pin_1*%
%TO.N,Net-(J11-Pin_1)*%
X57691750Y-69770000D03*
D21*
%TO.P,J11,2,Pin_2*%
%TO.N,Net-(A1-GPIO1)*%
X55191750Y-69770000D03*
%TO.P,J11,3,Pin_3*%
%TO.N,GND*%
X52691750Y-69770000D03*
%TO.P,J11,4,Pin_4*%
%TO.N,+5V*%
X50191750Y-69770000D03*
%TD*%
D20*
%TO.P,J9,1,Pin_1*%
%TO.N,Net-(J9-Pin_1)*%
X57691750Y-55000000D03*
D21*
%TO.P,J9,2,Pin_2*%
%TO.N,Net-(A1-GPIO8)*%
X55191750Y-55000000D03*
%TO.P,J9,3,Pin_3*%
%TO.N,GND*%
X52691750Y-55000000D03*
%TO.P,J9,4,Pin_4*%
%TO.N,+5V*%
X50191750Y-55000000D03*
%TD*%
D20*
%TO.P,J1,1,Pin_1*%
%TO.N,+3.3V*%
X88821750Y-96820000D03*
D21*
%TO.P,J1,2,Pin_2*%
%TO.N,Net-(A1-GPIO22)*%
X86321750Y-96820000D03*
%TO.P,J1,3,Pin_3*%
%TO.N,GND*%
X83821750Y-96820000D03*
%TD*%
D24*
%TO.P,J5,1,Pin_1*%
%TO.N,+3.3V*%
X34071750Y-84010000D03*
D23*
%TO.P,J5,2,Pin_2*%
%TO.N,Net-(A1-GPIO18)*%
X34071750Y-81510000D03*
%TO.P,J5,3,Pin_3*%
%TO.N,GND*%
X34071750Y-79010000D03*
%TD*%
D22*
%TO.P,T4,1,ENA-*%
%TO.N,Net-(T1-ENA-)*%
X94609750Y-38070000D03*
D23*
%TO.P,T4,2,ENA+*%
%TO.N,+5V*%
X94609750Y-40570000D03*
%TO.P,T4,3,DIR-*%
%TO.N,Net-(T4-DIR-)*%
X94609750Y-43070000D03*
%TO.P,T4,4,DIR+*%
%TO.N,+5V*%
X94609750Y-45570000D03*
%TO.P,T4,5,PUL-*%
%TO.N,Net-(T4-PUL-)*%
X94609750Y-48070000D03*
%TO.P,T4,6,PUL+*%
%TO.N,+5V*%
X94609750Y-50570000D03*
%TD*%
D24*
%TO.P,J2,1,Pin_1*%
%TO.N,+3.3V*%
X34041750Y-96860000D03*
D23*
%TO.P,J2,2,Pin_2*%
%TO.N,Net-(A1-GPIO21)*%
X34041750Y-94360000D03*
%TO.P,J2,3,Pin_3*%
%TO.N,GND*%
X34041750Y-91860000D03*
%TD*%
D25*
%TO.P,R1,1*%
%TO.N,Net-(A1-GPIO15)*%
X41121750Y-71860000D03*
%TO.P,R1,2*%
%TO.N,Net-(D1-A)*%
X41121750Y-51540000D03*
%TD*%
D24*
%TO.P,J4,1,Pin_1*%
%TO.N,+3.3V*%
X53671750Y-96860000D03*
D23*
%TO.P,J4,2,Pin_2*%
%TO.N,Net-(A1-GPIO19)*%
X53671750Y-94360000D03*
%TO.P,J4,3,Pin_3*%
%TO.N,GND*%
X53671750Y-91860000D03*
%TD*%
D26*
%TO.P,D1,1,K*%
%TO.N,GND*%
X43621750Y-42980000D03*
D27*
%TO.P,D1,2,A*%
%TO.N,Net-(D1-A)*%
X41081750Y-42980000D03*
%TD*%
D22*
%TO.P,T3,1,ENA-*%
%TO.N,Net-(T1-ENA-)*%
X86623750Y-38070000D03*
D23*
%TO.P,T3,2,ENA+*%
%TO.N,+5V*%
X86623750Y-40570000D03*
%TO.P,T3,3,DIR-*%
%TO.N,Net-(T3-DIR-)*%
X86623750Y-43070000D03*
%TO.P,T3,4,DIR+*%
%TO.N,+5V*%
X86623750Y-45570000D03*
%TO.P,T3,5,PUL-*%
%TO.N,Net-(T3-PUL-)*%
X86623750Y-48070000D03*
%TO.P,T3,6,PUL+*%
%TO.N,+5V*%
X86623750Y-50570000D03*
%TD*%
D24*
%TO.P,J3,1,Pin_1*%
%TO.N,+3.3V*%
X43856750Y-96860000D03*
D23*
%TO.P,J3,2,Pin_2*%
%TO.N,Net-(A1-GPIO20)*%
X43856750Y-94360000D03*
%TO.P,J3,3,Pin_3*%
%TO.N,GND*%
X43856750Y-91860000D03*
%TD*%
D22*
%TO.P,T5,1,ENA-*%
%TO.N,Net-(T1-ENA-)*%
X102595750Y-38070000D03*
D23*
%TO.P,T5,2,ENA+*%
%TO.N,+5V*%
X102595750Y-40570000D03*
%TO.P,T5,3,DIR-*%
%TO.N,Net-(T5-DIR-)*%
X102595750Y-43070000D03*
%TO.P,T5,4,DIR+*%
%TO.N,+5V*%
X102595750Y-45570000D03*
%TO.P,T5,5,PUL-*%
%TO.N,Net-(T5-PUL-)*%
X102595750Y-48070000D03*
%TO.P,T5,6,PUL+*%
%TO.N,+5V*%
X102595750Y-50570000D03*
%TD*%
D24*
%TO.P,J6,1,Pin_1*%
%TO.N,+3.3V*%
X43886750Y-84010000D03*
D23*
%TO.P,J6,2,Pin_2*%
%TO.N,Net-(A1-GPIO17)*%
X43886750Y-81510000D03*
%TO.P,J6,3,Pin_3*%
%TO.N,GND*%
X43886750Y-79010000D03*
%TD*%
D28*
%TO.P,J8,1,Pin_1*%
%TO.N,+5V*%
X57101750Y-40560000D03*
D29*
%TO.P,J8,2,Pin_2*%
%TO.N,GND*%
X54601750Y-40560000D03*
%TD*%
D22*
%TO.P,T1,1,ENA-*%
%TO.N,Net-(T1-ENA-)*%
X70651750Y-38070000D03*
D23*
%TO.P,T1,2,ENA+*%
%TO.N,+5V*%
X70651750Y-40570000D03*
%TO.P,T1,3,DIR-*%
%TO.N,Net-(T1-DIR-)*%
X70651750Y-43070000D03*
%TO.P,T1,4,DIR+*%
%TO.N,+5V*%
X70651750Y-45570000D03*
%TO.P,T1,5,PUL-*%
%TO.N,Net-(T1-PUL-)*%
X70651750Y-48070000D03*
%TO.P,T1,6,PUL+*%
%TO.N,+5V*%
X70651750Y-50570000D03*
%TD*%
D30*
%TO.N,Net-(A1-GPIO6)*%
X93981750Y-68060000D02*
X93981750Y-73600000D01*
D31*
%TO.N,GND*%
X34041750Y-91860000D02*
X53671750Y-91860000D01*
X34071750Y-79010000D02*
X53701750Y-79010000D01*
X32701750Y-91860000D02*
X34041750Y-91860000D01*
X55361750Y-91860000D02*
X58891750Y-95390000D01*
X58891750Y-95390000D02*
X69131750Y-95390000D01*
D32*
X83821750Y-91380000D02*
X83821750Y-96820000D01*
D31*
X34071750Y-79010000D02*
X32731750Y-79010000D01*
X31151750Y-90310000D02*
X32701750Y-91860000D01*
X69131750Y-95390000D02*
X71121750Y-93400000D01*
X53671750Y-91860000D02*
X55361750Y-91860000D01*
X32731750Y-79010000D02*
X31151750Y-80590000D01*
X31151750Y-80590000D02*
X31151750Y-90310000D01*
X71121750Y-93400000D02*
X71121750Y-91380000D01*
D30*
%TO.N,Net-(A1-GPIO8)*%
X88872500Y-72222500D02*
X88872500Y-73710000D01*
X83831750Y-68060000D02*
X81091750Y-65320000D01*
X47120000Y-70090000D02*
X47120000Y-60220000D01*
X49140000Y-72110000D02*
X47120000Y-70090000D01*
X54940000Y-55000000D02*
X55191750Y-55000000D01*
X48420000Y-58920000D02*
X53040000Y-58920000D01*
X55191750Y-56768250D02*
X55191750Y-55000000D01*
X58680000Y-72110000D02*
X49140000Y-72110000D01*
X65470000Y-65320000D02*
X58680000Y-72110000D01*
X81091750Y-65320000D02*
X65470000Y-65320000D01*
X86530000Y-69880000D02*
X88872500Y-72222500D01*
X53040000Y-58920000D02*
X55191750Y-56768250D01*
X83831750Y-68060000D02*
X85651750Y-69880000D01*
X47120000Y-60220000D02*
X48420000Y-58920000D01*
X85651750Y-69880000D02*
X86530000Y-69880000D01*
%TO.N,Net-(A1-GPIO1)*%
X111761750Y-72670000D02*
X107151750Y-68060000D01*
X111761750Y-73600000D02*
X111761750Y-72670000D01*
X107151750Y-68060000D02*
X106681750Y-68060000D01*
D31*
%TO.N,Net-(A1-GPIO15)*%
X42911750Y-73650000D02*
X65991750Y-73650000D01*
D30*
X66051750Y-68060000D02*
X66051750Y-73590000D01*
D31*
X41121750Y-71860000D02*
X42911750Y-73650000D01*
D30*
%TO.N,Net-(A1-GPIO9)*%
X81291750Y-68060000D02*
X81291750Y-68911750D01*
X84600000Y-70610000D02*
X86361750Y-72371750D01*
X82990000Y-70610000D02*
X84600000Y-70610000D01*
X81291750Y-68911750D02*
X82990000Y-70610000D01*
X86361750Y-72371750D02*
X86361750Y-73600000D01*
%TO.N,Net-(A1-GPIO13)*%
X73661750Y-70590000D02*
X73661750Y-73600000D01*
X71131750Y-68060000D02*
X73661750Y-70590000D01*
%TO.N,Net-(A1-GPIO11)*%
X76211750Y-68060000D02*
X78741750Y-70590000D01*
X78741750Y-70590000D02*
X78741750Y-73600000D01*
%TO.N,Net-(A1-GPIO5)*%
X99061750Y-73600000D02*
X99061750Y-70600000D01*
X99061750Y-70600000D02*
X96521750Y-68060000D01*
%TO.N,Net-(A1-GPIO2)*%
X106681750Y-73600000D02*
X106681750Y-70600000D01*
X106681750Y-70600000D02*
X104141750Y-68060000D01*
D33*
%TO.N,+3.3V*%
X88800000Y-98170000D02*
X88821750Y-98148250D01*
X88821750Y-98148250D02*
X88821750Y-96820000D01*
X34041750Y-96860000D02*
X53671750Y-96860000D01*
X104112500Y-95217500D02*
X104112500Y-91490000D01*
X88800000Y-98690000D02*
X100640000Y-98690000D01*
X53691750Y-84020000D02*
X34081750Y-84020000D01*
X53671750Y-96860000D02*
X55501750Y-98690000D01*
X34081750Y-84020000D02*
X34071750Y-84010000D01*
X100640000Y-98690000D02*
X104112500Y-95217500D01*
X88800000Y-98690000D02*
X88800000Y-98170000D01*
X53701750Y-84010000D02*
X53691750Y-84020000D01*
X55501750Y-98690000D02*
X88800000Y-98690000D01*
D30*
%TO.N,Net-(A1-GPIO12)*%
X76201750Y-70590000D02*
X76201750Y-73600000D01*
X73671750Y-68060000D02*
X76201750Y-70590000D01*
%TO.N,Net-(A1-GPIO10)*%
X81281750Y-70590000D02*
X81281750Y-73600000D01*
X78751750Y-68060000D02*
X81281750Y-70590000D01*
%TO.N,Net-(A1-GPIO14)*%
X68591750Y-68060000D02*
X68591750Y-73590000D01*
%TO.N,Net-(A1-GPIO4)*%
X101601750Y-72800000D02*
X101601750Y-70600000D01*
X101601750Y-70600000D02*
X99061750Y-68060000D01*
%TO.N,Net-(A1-GPIO3)*%
X104141750Y-73600000D02*
X104141750Y-70600000D01*
X104141750Y-70600000D02*
X101601750Y-68060000D01*
%TO.N,Net-(A1-GPIO7)*%
X91441750Y-68060000D02*
X91441750Y-73600000D01*
D32*
%TO.N,Net-(A1-GPIO22)*%
X86361750Y-91380000D02*
X86361750Y-96780000D01*
D30*
%TO.N,Net-(A1-GPIO0)*%
X114272500Y-72739396D02*
X114272500Y-73710000D01*
X109593104Y-68060000D02*
X114272500Y-72739396D01*
X109221750Y-68060000D02*
X109593104Y-68060000D01*
D32*
%TO.N,+5V*%
X50191750Y-50858250D02*
X57101750Y-43948250D01*
X50191750Y-55000000D02*
X50191750Y-50858250D01*
X57101750Y-43948250D02*
X57101750Y-40560000D01*
D30*
%TO.N,Net-(J10-Pin_1)*%
X57696750Y-62390000D02*
X57691750Y-62385000D01*
X104731750Y-62390000D02*
X57696750Y-62390000D01*
X106681750Y-60440000D02*
X104731750Y-62390000D01*
%TO.N,Net-(J11-Pin_1)*%
X63941750Y-63520000D02*
X106141750Y-63520000D01*
X106141750Y-63520000D02*
X109221750Y-60440000D01*
X57691750Y-69770000D02*
X63941750Y-63520000D01*
%TO.N,Net-(T1-DIR-)*%
X67301750Y-46545000D02*
X70651750Y-43195000D01*
X67301750Y-59150000D02*
X67301750Y-46545000D01*
X70651750Y-43195000D02*
X70651750Y-43070000D01*
X68591750Y-60440000D02*
X67301750Y-59150000D01*
%TO.N,Net-(T1-PUL-)*%
X68590000Y-50131750D02*
X70651750Y-48070000D01*
X68590000Y-57898250D02*
X68590000Y-50131750D01*
X71131750Y-60440000D02*
X68590000Y-57898250D01*
%TO.N,Net-(T2-PUL-)*%
X76181750Y-50526000D02*
X78637750Y-48070000D01*
X76181750Y-60410000D02*
X76181750Y-50526000D01*
%TO.N,Net-(T2-DIR-)*%
X73681750Y-48026000D02*
X78637750Y-43070000D01*
X73681750Y-60430000D02*
X73681750Y-48026000D01*
%TO.N,Net-(T3-PUL-)*%
X84001750Y-54500000D02*
X81291750Y-57210000D01*
X84001750Y-50817000D02*
X84001750Y-54500000D01*
X86623750Y-48195000D02*
X84001750Y-50817000D01*
X81291750Y-57210000D02*
X81291750Y-60440000D01*
%TO.N,Net-(T3-DIR-)*%
X78751750Y-57800000D02*
X82661750Y-53890000D01*
X82661750Y-53890000D02*
X82661750Y-47032000D01*
X82661750Y-47032000D02*
X86623750Y-43070000D01*
X78751750Y-60440000D02*
X78751750Y-57800000D01*
%TO.N,Net-(T4-DIR-)*%
X90231750Y-59230000D02*
X90231750Y-47448000D01*
X90231750Y-47448000D02*
X94609750Y-43070000D01*
X91441750Y-60440000D02*
X90231750Y-59230000D01*
%TO.N,Net-(T4-PUL-)*%
X91891750Y-58350000D02*
X93981750Y-60440000D01*
X91891750Y-50788000D02*
X91891750Y-58350000D01*
X94609750Y-48070000D02*
X91891750Y-50788000D01*
%TO.N,Net-(T5-DIR-)*%
X97951750Y-47714000D02*
X97951750Y-59010000D01*
X97951750Y-59010000D02*
X96521750Y-60440000D01*
X102595750Y-43070000D02*
X97951750Y-47714000D01*
%TO.N,Net-(T5-PUL-)*%
X99581750Y-59920000D02*
X99061750Y-60440000D01*
X102595750Y-48070000D02*
X99581750Y-51084000D01*
X99581750Y-51084000D02*
X99581750Y-59920000D01*
%TO.N,Net-(T6-PUL-)*%
X107641750Y-51010000D02*
X107641750Y-56940000D01*
X107641750Y-56940000D02*
X104141750Y-60440000D01*
X110581750Y-48070000D02*
X107641750Y-51010000D01*
%TO.N,Net-(T6-DIR-)*%
X105981750Y-56060000D02*
X101601750Y-60440000D01*
X105981750Y-47670000D02*
X105981750Y-56060000D01*
X110581750Y-43070000D02*
X105981750Y-47670000D01*
D31*
%TO.N,Net-(T1-ENA-)*%
X70651750Y-38070000D02*
X66051750Y-42670000D01*
X66051750Y-42670000D02*
X66051750Y-60440000D01*
X110581750Y-38070000D02*
X70651750Y-38070000D01*
%TD*%
%TA.AperFunction,Conductor*%
%TO.N,GND*%
G36*
X118144289Y-33420185D02*
G01*
X118190044Y-33472989D01*
X118201250Y-33524500D01*
X118201250Y-74877010D01*
X118181565Y-74944049D01*
X118128761Y-74989804D01*
X118077335Y-75001010D01*
X115469802Y-75002802D01*
X115402749Y-74983163D01*
X115356958Y-74930391D01*
X115346967Y-74861239D01*
X115375948Y-74797664D01*
X115382037Y-74791120D01*
X115427969Y-74745188D01*
X115427972Y-74745185D01*
X115515978Y-74599606D01*
X115566586Y-74437196D01*
X115573000Y-74366616D01*
X115573000Y-73845650D01*
X115573597Y-73833496D01*
X115578000Y-73788793D01*
X115578000Y-71470218D01*
X115577449Y-71459946D01*
X115575104Y-71416185D01*
X115575103Y-71416181D01*
X115539523Y-71276778D01*
X115539519Y-71276766D01*
X115509080Y-71203280D01*
X115509068Y-71203252D01*
X115485720Y-71154451D01*
X115485717Y-71154446D01*
X115450753Y-71107740D01*
X115399494Y-71039267D01*
X115399489Y-71039262D01*
X115399484Y-71039256D01*
X115343247Y-70983019D01*
X115334225Y-70974915D01*
X115302975Y-70946843D01*
X115302967Y-70946837D01*
X115179236Y-70873426D01*
X115179237Y-70873426D01*
X115130229Y-70853127D01*
X115105726Y-70842978D01*
X115105712Y-70842973D01*
X115105704Y-70842970D01*
X115054699Y-70824976D01*
X115007226Y-70818150D01*
X114912282Y-70804500D01*
X113632718Y-70804500D01*
X113632714Y-70804500D01*
X113600305Y-70806237D01*
X113532308Y-70790169D01*
X113505988Y-70770096D01*
X110510732Y-67774839D01*
X110480483Y-67725477D01*
X110426970Y-67560781D01*
X110334037Y-67378390D01*
X110281771Y-67306451D01*
X110213721Y-67212786D01*
X110068963Y-67068028D01*
X109903363Y-66947715D01*
X109903362Y-66947714D01*
X109903360Y-66947713D01*
X109843648Y-66917288D01*
X109720973Y-66854781D01*
X109526284Y-66791522D01*
X109351745Y-66763878D01*
X109324102Y-66759500D01*
X109119398Y-66759500D01*
X109095079Y-66763351D01*
X108917215Y-66791522D01*
X108722526Y-66854781D01*
X108540136Y-66947715D01*
X108374536Y-67068028D01*
X108229778Y-67212786D01*
X108109465Y-67378386D01*
X108062235Y-67471080D01*
X108014260Y-67521876D01*
X107946439Y-67538671D01*
X107880304Y-67516134D01*
X107841265Y-67471080D01*
X107832164Y-67453218D01*
X107794037Y-67378390D01*
X107741771Y-67306451D01*
X107673721Y-67212786D01*
X107528963Y-67068028D01*
X107363363Y-66947715D01*
X107363362Y-66947714D01*
X107363360Y-66947713D01*
X107303648Y-66917288D01*
X107180973Y-66854781D01*
X106986284Y-66791522D01*
X106811745Y-66763878D01*
X106784102Y-66759500D01*
X106579398Y-66759500D01*
X106555079Y-66763351D01*
X106377215Y-66791522D01*
X106182526Y-66854781D01*
X106000136Y-66947715D01*
X105834536Y-67068028D01*
X105689778Y-67212786D01*
X105569465Y-67378386D01*
X105522235Y-67471080D01*
X105474260Y-67521876D01*
X105406439Y-67538671D01*
X105340304Y-67516134D01*
X105301265Y-67471080D01*
X105292164Y-67453218D01*
X105254037Y-67378390D01*
X105201771Y-67306451D01*
X105133721Y-67212786D01*
X104988963Y-67068028D01*
X104823363Y-66947715D01*
X104823362Y-66947714D01*
X104823360Y-66947713D01*
X104763648Y-66917288D01*
X104640973Y-66854781D01*
X104446284Y-66791522D01*
X104271745Y-66763878D01*
X104244102Y-66759500D01*
X104039398Y-66759500D01*
X104015079Y-66763351D01*
X103837215Y-66791522D01*
X103642526Y-66854781D01*
X103460136Y-66947715D01*
X103294536Y-67068028D01*
X103149778Y-67212786D01*
X103029465Y-67378386D01*
X102982235Y-67471080D01*
X102934260Y-67521876D01*
X102866439Y-67538671D01*
X102800304Y-67516134D01*
X102761265Y-67471080D01*
X102752164Y-67453218D01*
X102714037Y-67378390D01*
X102661771Y-67306451D01*
X102593721Y-67212786D01*
X102448963Y-67068028D01*
X102283363Y-66947715D01*
X102283362Y-66947714D01*
X102283360Y-66947713D01*
X102223648Y-66917288D01*
X102100973Y-66854781D01*
X101906284Y-66791522D01*
X101731745Y-66763878D01*
X101704102Y-66759500D01*
X101499398Y-66759500D01*
X101475079Y-66763351D01*
X101297215Y-66791522D01*
X101102526Y-66854781D01*
X100920136Y-66947715D01*
X100754536Y-67068028D01*
X100609778Y-67212786D01*
X100489465Y-67378386D01*
X100442235Y-67471080D01*
X100394260Y-67521876D01*
X100326439Y-67538671D01*
X100260304Y-67516134D01*
X100221265Y-67471080D01*
X100212164Y-67453218D01*
X100174037Y-67378390D01*
X100121771Y-67306451D01*
X100053721Y-67212786D01*
X99908963Y-67068028D01*
X99743363Y-66947715D01*
X99743362Y-66947714D01*
X99743360Y-66947713D01*
X99683648Y-66917288D01*
X99560973Y-66854781D01*
X99366284Y-66791522D01*
X99191745Y-66763878D01*
X99164102Y-66759500D01*
X98959398Y-66759500D01*
X98935079Y-66763351D01*
X98757215Y-66791522D01*
X98562526Y-66854781D01*
X98380136Y-66947715D01*
X98214536Y-67068028D01*
X98069778Y-67212786D01*
X97949465Y-67378386D01*
X97902235Y-67471080D01*
X97854260Y-67521876D01*
X97786439Y-67538671D01*
X97720304Y-67516134D01*
X97681265Y-67471080D01*
X97672164Y-67453218D01*
X97634037Y-67378390D01*
X97581771Y-67306451D01*
X97513721Y-67212786D01*
X97368963Y-67068028D01*
X97203363Y-66947715D01*
X97203362Y-66947714D01*
X97203360Y-66947713D01*
X97143648Y-66917288D01*
X97020973Y-66854781D01*
X96826284Y-66791522D01*
X96651745Y-66763878D01*
X96624102Y-66759500D01*
X96419398Y-66759500D01*
X96395079Y-66763351D01*
X96217215Y-66791522D01*
X96022526Y-66854781D01*
X95840136Y-66947715D01*
X95674536Y-67068028D01*
X95529778Y-67212786D01*
X95409465Y-67378386D01*
X95362235Y-67471080D01*
X95314260Y-67521876D01*
X95246439Y-67538671D01*
X95180304Y-67516134D01*
X95141265Y-67471080D01*
X95132164Y-67453218D01*
X95094037Y-67378390D01*
X95041771Y-67306451D01*
X94973721Y-67212786D01*
X94828963Y-67068028D01*
X94663363Y-66947715D01*
X94663362Y-66947714D01*
X94663360Y-66947713D01*
X94603648Y-66917288D01*
X94480973Y-66854781D01*
X94286284Y-66791522D01*
X94111745Y-66763878D01*
X94084102Y-66759500D01*
X93879398Y-66759500D01*
X93855079Y-66763351D01*
X93677215Y-66791522D01*
X93482526Y-66854781D01*
X93300136Y-66947715D01*
X93134536Y-67068028D01*
X92989782Y-67212782D01*
X92989778Y-67212787D01*
X92921728Y-67306451D01*
X92866398Y-67349117D01*
X92796785Y-67355096D01*
X92734990Y-67322490D01*
X92703704Y-67272570D01*
X92683894Y-67212787D01*
X92676564Y-67190666D01*
X92584462Y-67041344D01*
X92460406Y-66917288D01*
X92311084Y-66825186D01*
X92144547Y-66770001D01*
X92144545Y-66770000D01*
X92041760Y-66759500D01*
X90841748Y-66759500D01*
X90841731Y-66759501D01*
X90738953Y-66770000D01*
X90738950Y-66770001D01*
X90572418Y-66825185D01*
X90572413Y-66825187D01*
X90423092Y-66917289D01*
X90299039Y-67041342D01*
X90206937Y-67190663D01*
X90206936Y-67190666D01*
X90151751Y-67357203D01*
X90151751Y-67357204D01*
X90151750Y-67357204D01*
X90141250Y-67459983D01*
X90141250Y-68660001D01*
X90141251Y-68660018D01*
X90151750Y-68762796D01*
X90151751Y-68762799D01*
X90183322Y-68858072D01*
X90206936Y-68929334D01*
X90299038Y-69078656D01*
X90423094Y-69202712D01*
X90532347Y-69270099D01*
X90579071Y-69322047D01*
X90591250Y-69375638D01*
X90591250Y-71040701D01*
X90571565Y-71107740D01*
X90554931Y-71128382D01*
X90412454Y-71270858D01*
X90281932Y-71457265D01*
X90281931Y-71457267D01*
X90254882Y-71515275D01*
X90208709Y-71567714D01*
X90141516Y-71586866D01*
X90074635Y-71566650D01*
X90030118Y-71515275D01*
X90013755Y-71480185D01*
X90003068Y-71457266D01*
X89872547Y-71270861D01*
X89872545Y-71270858D01*
X89711641Y-71109954D01*
X89525234Y-70979432D01*
X89525232Y-70979431D01*
X89318997Y-70883261D01*
X89318988Y-70883258D01*
X89099197Y-70824366D01*
X89099187Y-70824364D01*
X88929285Y-70809500D01*
X88929284Y-70809500D01*
X88815716Y-70809500D01*
X88815709Y-70809500D01*
X88732231Y-70816803D01*
X88663731Y-70803036D01*
X88633744Y-70780956D01*
X87072165Y-69219375D01*
X87072161Y-69219372D01*
X86932866Y-69126297D01*
X86932863Y-69126296D01*
X86823416Y-69080962D01*
X86823414Y-69080961D01*
X86778086Y-69062185D01*
X86778074Y-69062182D01*
X86613771Y-69029500D01*
X86613767Y-69029500D01*
X86055401Y-69029500D01*
X85988362Y-69009815D01*
X85967720Y-68993181D01*
X85168569Y-68194030D01*
X85135084Y-68132707D01*
X85132250Y-68106349D01*
X85132250Y-67957648D01*
X85100227Y-67755465D01*
X85036968Y-67560776D01*
X84991265Y-67471080D01*
X84944037Y-67378390D01*
X84891771Y-67306451D01*
X84823721Y-67212786D01*
X84678963Y-67068028D01*
X84513363Y-66947715D01*
X84513362Y-66947714D01*
X84513360Y-66947713D01*
X84453648Y-66917288D01*
X84330973Y-66854781D01*
X84136284Y-66791522D01*
X83961745Y-66763878D01*
X83934102Y-66759500D01*
X83934101Y-66759500D01*
X83785400Y-66759500D01*
X83718361Y-66739815D01*
X83697719Y-66723181D01*
X81633915Y-64659375D01*
X81633911Y-64659372D01*
X81541466Y-64597602D01*
X81496661Y-64543990D01*
X81487954Y-64474665D01*
X81518109Y-64411637D01*
X81577552Y-64374918D01*
X81610357Y-64370500D01*
X106225518Y-64370500D01*
X106225519Y-64370499D01*
X106280288Y-64359605D01*
X106389824Y-64337818D01*
X106389828Y-64337816D01*
X106389832Y-64337816D01*
X106435165Y-64319037D01*
X106544613Y-64273704D01*
X106683912Y-64180627D01*
X109087720Y-61776819D01*
X109149043Y-61743334D01*
X109175401Y-61740500D01*
X109324101Y-61740500D01*
X109324102Y-61740500D01*
X109526284Y-61708477D01*
X109720969Y-61645220D01*
X109903360Y-61552287D01*
X109996340Y-61484732D01*
X110068963Y-61431971D01*
X110068965Y-61431968D01*
X110068969Y-61431966D01*
X110213716Y-61287219D01*
X110213718Y-61287215D01*
X110213721Y-61287213D01*
X110334034Y-61121614D01*
X110334035Y-61121613D01*
X110334037Y-61121610D01*
X110381266Y-61028917D01*
X110429239Y-60978123D01*
X110497060Y-60961328D01*
X110563195Y-60983865D01*
X110602235Y-61028919D01*
X110649465Y-61121614D01*
X110769778Y-61287213D01*
X110914536Y-61431971D01*
X111062105Y-61539184D01*
X111080140Y-61552287D01*
X111196357Y-61611503D01*
X111262526Y-61645218D01*
X111262528Y-61645218D01*
X111262531Y-61645220D01*
X111366887Y-61679127D01*
X111457215Y-61708477D01*
X111558307Y-61724488D01*
X111659398Y-61740500D01*
X111659399Y-61740500D01*
X111864101Y-61740500D01*
X111864102Y-61740500D01*
X112066284Y-61708477D01*
X112260969Y-61645220D01*
X112443360Y-61552287D01*
X112536340Y-61484732D01*
X112608963Y-61431971D01*
X112608965Y-61431968D01*
X112608969Y-61431966D01*
X112753716Y-61287219D01*
X112753718Y-61287215D01*
X112753721Y-61287213D01*
X112806482Y-61214590D01*
X112874037Y-61121610D01*
X112966970Y-60939219D01*
X113030227Y-60744534D01*
X113062250Y-60542352D01*
X113062250Y-60337648D01*
X113031750Y-60145081D01*
X113030227Y-60135465D01*
X112977087Y-59971918D01*
X112966970Y-59940781D01*
X112966968Y-59940778D01*
X112966968Y-59940776D01*
X112903970Y-59817137D01*
X112874037Y-59758390D01*
X112845446Y-59719037D01*
X112753721Y-59592786D01*
X112608963Y-59448028D01*
X112443363Y-59327715D01*
X112443362Y-59327714D01*
X112443360Y-59327713D01*
X112386403Y-59298691D01*
X112260973Y-59234781D01*
X112066284Y-59171522D01*
X111891745Y-59143878D01*
X111864102Y-59139500D01*
X111659398Y-59139500D01*
X111635079Y-59143351D01*
X111457215Y-59171522D01*
X111262526Y-59234781D01*
X111080136Y-59327715D01*
X110914536Y-59448028D01*
X110769778Y-59592786D01*
X110649465Y-59758386D01*
X110602235Y-59851080D01*
X110554260Y-59901876D01*
X110486439Y-59918671D01*
X110420304Y-59896134D01*
X110381265Y-59851080D01*
X110363970Y-59817137D01*
X110334037Y-59758390D01*
X110305446Y-59719037D01*
X110213721Y-59592786D01*
X110068963Y-59448028D01*
X109903363Y-59327715D01*
X109903362Y-59327714D01*
X109903360Y-59327713D01*
X109846403Y-59298691D01*
X109720973Y-59234781D01*
X109526284Y-59171522D01*
X109351745Y-59143878D01*
X109324102Y-59139500D01*
X109119398Y-59139500D01*
X109095079Y-59143351D01*
X108917215Y-59171522D01*
X108722526Y-59234781D01*
X108540136Y-59327715D01*
X108374536Y-59448028D01*
X108229778Y-59592786D01*
X108109465Y-59758386D01*
X108062235Y-59851080D01*
X108014260Y-59901876D01*
X107946439Y-59918671D01*
X107880304Y-59896134D01*
X107841265Y-59851080D01*
X107823970Y-59817137D01*
X107794037Y-59758390D01*
X107765446Y-59719037D01*
X107673721Y-59592786D01*
X107528963Y-59448028D01*
X107363363Y-59327715D01*
X107363362Y-59327714D01*
X107363360Y-59327713D01*
X107306403Y-59298691D01*
X107180973Y-59234781D01*
X106986285Y-59171523D01*
X106904417Y-59158556D01*
X106841283Y-59128626D01*
X106804352Y-59069315D01*
X106805350Y-58999452D01*
X106836133Y-58948404D01*
X108302376Y-57482162D01*
X108395453Y-57342863D01*
X108415789Y-57293767D01*
X108459566Y-57188082D01*
X108492250Y-57023767D01*
X108492250Y-51413650D01*
X108511935Y-51346611D01*
X108528565Y-51325973D01*
X108954436Y-50900101D01*
X109015757Y-50866618D01*
X109085448Y-50871602D01*
X109141382Y-50913473D01*
X109160046Y-50949465D01*
X109205194Y-51088416D01*
X109301701Y-51277820D01*
X109426640Y-51449786D01*
X109576963Y-51600109D01*
X109748929Y-51725048D01*
X109748931Y-51725049D01*
X109748934Y-51725051D01*
X109938338Y-51821557D01*
X110140507Y-51887246D01*
X110350463Y-51920500D01*
X110350464Y-51920500D01*
X110813036Y-51920500D01*
X110813037Y-51920500D01*
X111022993Y-51887246D01*
X111225162Y-51821557D01*
X111414566Y-51725051D01*
X111515848Y-51651466D01*
X111586536Y-51600109D01*
X111586538Y-51600106D01*
X111586542Y-51600104D01*
X111736854Y-51449792D01*
X111736856Y-51449788D01*
X111736859Y-51449786D01*
X111861798Y-51277820D01*
X111861797Y-51277820D01*
X111861801Y-51277816D01*
X111958307Y-51088412D01*
X112023996Y-50886243D01*
X112057250Y-50676287D01*
X112057250Y-50463713D01*
X112023996Y-50253757D01*
X111958307Y-50051588D01*
X111861801Y-49862184D01*
X111861799Y-49862181D01*
X111861798Y-49862179D01*
X111736859Y-49690213D01*
X111586542Y-49539896D01*
X111421954Y-49420316D01*
X111379290Y-49364989D01*
X111373311Y-49295376D01*
X111405916Y-49233580D01*
X111421949Y-49219686D01*
X111586542Y-49100104D01*
X111736854Y-48949792D01*
X111736856Y-48949788D01*
X111736859Y-48949786D01*
X111861798Y-48777820D01*
X111861797Y-48777820D01*
X111861801Y-48777816D01*
X111958307Y-48588412D01*
X112023996Y-48386243D01*
X112057250Y-48176287D01*
X112057250Y-47963713D01*
X112023996Y-47753757D01*
X111958307Y-47551588D01*
X111861801Y-47362184D01*
X111861799Y-47362181D01*
X111861798Y-47362179D01*
X111736859Y-47190213D01*
X111586542Y-47039896D01*
X111586534Y-47039890D01*
X111421954Y-46920316D01*
X111379290Y-46864989D01*
X111373311Y-46795376D01*
X111405916Y-46733580D01*
X111421949Y-46719686D01*
X111586542Y-46600104D01*
X111736854Y-46449792D01*
X111736856Y-46449788D01*
X111736859Y-46449786D01*
X111861798Y-46277820D01*
X111861797Y-46277820D01*
X111861801Y-46277816D01*
X111958307Y-46088412D01*
X112023996Y-45886243D01*
X112057250Y-45676287D01*
X112057250Y-45463713D01*
X112023996Y-45253757D01*
X111958307Y-45051588D01*
X111861801Y-44862184D01*
X111861799Y-44862181D01*
X111861798Y-44862179D01*
X111736859Y-44690213D01*
X111586542Y-44539896D01*
X111488208Y-44468453D01*
X111421954Y-44420316D01*
X111379290Y-44364989D01*
X111373311Y-44295376D01*
X111405916Y-44233580D01*
X111421949Y-44219686D01*
X111586542Y-44100104D01*
X111736854Y-43949792D01*
X111736856Y-43949788D01*
X111736859Y-43949786D01*
X111861798Y-43777820D01*
X111861797Y-43777820D01*
X111861801Y-43777816D01*
X111958307Y-43588412D01*
X112023996Y-43386243D01*
X112057250Y-43176287D01*
X112057250Y-42963713D01*
X112023996Y-42753757D01*
X111958307Y-42551588D01*
X111861801Y-42362184D01*
X111861799Y-42362181D01*
X111861798Y-42362179D01*
X111736859Y-42190213D01*
X111586542Y-42039896D01*
X111575974Y-42032218D01*
X111421954Y-41920316D01*
X111379290Y-41864989D01*
X111373311Y-41795376D01*
X111405916Y-41733580D01*
X111421949Y-41719686D01*
X111586542Y-41600104D01*
X111736854Y-41449792D01*
X111736856Y-41449788D01*
X111736859Y-41449786D01*
X111861798Y-41277820D01*
X111861797Y-41277820D01*
X111861801Y-41277816D01*
X111958307Y-41088412D01*
X112023996Y-40886243D01*
X112057250Y-40676287D01*
X112057250Y-40463713D01*
X112023996Y-40253757D01*
X111958307Y-40051588D01*
X111861801Y-39862184D01*
X111861799Y-39862181D01*
X111861798Y-39862179D01*
X111736859Y-39690213D01*
X111598044Y-39551398D01*
X111564559Y-39490075D01*
X111569543Y-39420383D01*
X111611415Y-39364450D01*
X111620629Y-39358178D01*
X111626081Y-39354814D01*
X111626084Y-39354814D01*
X111775406Y-39262712D01*
X111899462Y-39138656D01*
X111991564Y-38989334D01*
X112046749Y-38822797D01*
X112057250Y-38720009D01*
X112057249Y-37419992D01*
X112046749Y-37317203D01*
X111991564Y-37150666D01*
X111899462Y-37001344D01*
X111775406Y-36877288D01*
X111626084Y-36785186D01*
X111459547Y-36730001D01*
X111459545Y-36730000D01*
X111356760Y-36719500D01*
X109806748Y-36719500D01*
X109806731Y-36719501D01*
X109703953Y-36730000D01*
X109703950Y-36730001D01*
X109537418Y-36785185D01*
X109537413Y-36785187D01*
X109388092Y-36877289D01*
X109264037Y-37001344D01*
X109258330Y-37010598D01*
X109206382Y-37057322D01*
X109152792Y-37069500D01*
X104024708Y-37069500D01*
X103957669Y-37049815D01*
X103919170Y-37010598D01*
X103913462Y-37001344D01*
X103789407Y-36877289D01*
X103789406Y-36877288D01*
X103640084Y-36785186D01*
X103473547Y-36730001D01*
X103473545Y-36730000D01*
X103370760Y-36719500D01*
X101820748Y-36719500D01*
X101820731Y-36719501D01*
X101717953Y-36730000D01*
X101717950Y-36730001D01*
X101551418Y-36785185D01*
X101551413Y-36785187D01*
X101402092Y-36877289D01*
X101278037Y-37001344D01*
X101272330Y-37010598D01*
X101220382Y-37057322D01*
X101166792Y-37069500D01*
X96038708Y-37069500D01*
X95971669Y-37049815D01*
X95933170Y-37010598D01*
X95927462Y-37001344D01*
X95803407Y-36877289D01*
X95803406Y-36877288D01*
X95654084Y-36785186D01*
X95487547Y-36730001D01*
X95487545Y-36730000D01*
X95384760Y-36719500D01*
X93834748Y-36719500D01*
X93834731Y-36719501D01*
X93731953Y-36730000D01*
X93731950Y-36730001D01*
X93565418Y-36785185D01*
X93565413Y-36785187D01*
X93416092Y-36877289D01*
X93292037Y-37001344D01*
X93286330Y-37010598D01*
X93234382Y-37057322D01*
X93180792Y-37069500D01*
X88052708Y-37069500D01*
X87985669Y-37049815D01*
X87947170Y-37010598D01*
X87941462Y-37001344D01*
X87817407Y-36877289D01*
X87817406Y-36877288D01*
X87668084Y-36785186D01*
X87501547Y-36730001D01*
X87501545Y-36730000D01*
X87398760Y-36719500D01*
X85848748Y-36719500D01*
X85848731Y-36719501D01*
X85745953Y-36730000D01*
X85745950Y-36730001D01*
X85579418Y-36785185D01*
X85579413Y-36785187D01*
X85430092Y-36877289D01*
X85306037Y-37001344D01*
X85300330Y-37010598D01*
X85248382Y-37057322D01*
X85194792Y-37069500D01*
X80066708Y-37069500D01*
X79999669Y-37049815D01*
X79961170Y-37010598D01*
X79955462Y-37001344D01*
X79831407Y-36877289D01*
X79831406Y-36877288D01*
X79682084Y-36785186D01*
X79515547Y-36730001D01*
X79515545Y-36730000D01*
X79412760Y-36719500D01*
X77862748Y-36719500D01*
X77862731Y-36719501D01*
X77759953Y-36730000D01*
X77759950Y-36730001D01*
X77593418Y-36785185D01*
X77593413Y-36785187D01*
X77444092Y-36877289D01*
X77320037Y-37001344D01*
X77314330Y-37010598D01*
X77262382Y-37057322D01*
X77208792Y-37069500D01*
X72080708Y-37069500D01*
X72013669Y-37049815D01*
X71975170Y-37010598D01*
X71969462Y-37001344D01*
X71845407Y-36877289D01*
X71845406Y-36877288D01*
X71696084Y-36785186D01*
X71529547Y-36730001D01*
X71529545Y-36730000D01*
X71426760Y-36719500D01*
X69876748Y-36719500D01*
X69876731Y-36719501D01*
X69773953Y-36730000D01*
X69773950Y-36730001D01*
X69607418Y-36785185D01*
X69607413Y-36785187D01*
X69458092Y-36877289D01*
X69334039Y-37001342D01*
X69241937Y-37150663D01*
X69241936Y-37150666D01*
X69186751Y-37317203D01*
X69186751Y-37317204D01*
X69186750Y-37317204D01*
X69176250Y-37419983D01*
X69176250Y-38079216D01*
X69156565Y-38146255D01*
X69139930Y-38166897D01*
X65413970Y-41892859D01*
X65413968Y-41892861D01*
X65344288Y-41962540D01*
X65274609Y-42032219D01*
X65165121Y-42196079D01*
X65165114Y-42196092D01*
X65089700Y-42378160D01*
X65089697Y-42378170D01*
X65051250Y-42571456D01*
X65051250Y-59564237D01*
X65031565Y-59631276D01*
X65027568Y-59637122D01*
X64939465Y-59758386D01*
X64846531Y-59940776D01*
X64783272Y-60135465D01*
X64751250Y-60337648D01*
X64751250Y-60542351D01*
X64783272Y-60744534D01*
X64846531Y-60939223D01*
X64939465Y-61121613D01*
X65059778Y-61287213D01*
X65100384Y-61327819D01*
X65133869Y-61389142D01*
X65128885Y-61458834D01*
X65087013Y-61514767D01*
X65021549Y-61539184D01*
X65012703Y-61539500D01*
X59131992Y-61539500D01*
X59064953Y-61519815D01*
X59019198Y-61467011D01*
X59014286Y-61454504D01*
X58976564Y-61340666D01*
X58884462Y-61191344D01*
X58760406Y-61067288D01*
X58611084Y-60975186D01*
X58444547Y-60920001D01*
X58444545Y-60920000D01*
X58341760Y-60909500D01*
X57041748Y-60909500D01*
X57041731Y-60909501D01*
X56938953Y-60920000D01*
X56938950Y-60920001D01*
X56772418Y-60975185D01*
X56772413Y-60975187D01*
X56623092Y-61067289D01*
X56499039Y-61191342D01*
X56403571Y-61346121D01*
X56351623Y-61392845D01*
X56282660Y-61404068D01*
X56218578Y-61376224D01*
X56210351Y-61368705D01*
X56071536Y-61229890D01*
X55899570Y-61104951D01*
X55710164Y-61008444D01*
X55710163Y-61008443D01*
X55710162Y-61008443D01*
X55507993Y-60942754D01*
X55507991Y-60942753D01*
X55507990Y-60942753D01*
X55346707Y-60917208D01*
X55298037Y-60909500D01*
X55085463Y-60909500D01*
X55036792Y-60917208D01*
X54875510Y-60942753D01*
X54673335Y-61008444D01*
X54483929Y-61104951D01*
X54311963Y-61229890D01*
X54161640Y-61380213D01*
X54036701Y-61552179D01*
X53940194Y-61741585D01*
X53874503Y-61943760D01*
X53841250Y-62153713D01*
X53841250Y-62616286D01*
X53872651Y-62814548D01*
X53874504Y-62826243D01*
X53901291Y-62908686D01*
X53940194Y-63028414D01*
X54036701Y-63217820D01*
X54161640Y-63389786D01*
X54311963Y-63540109D01*
X54483929Y-63665048D01*
X54483931Y-63665049D01*
X54483934Y-63665051D01*
X54673338Y-63761557D01*
X54875507Y-63827246D01*
X55085463Y-63860500D01*
X55085464Y-63860500D01*
X55298036Y-63860500D01*
X55298037Y-63860500D01*
X55507993Y-63827246D01*
X55710162Y-63761557D01*
X55899566Y-63665051D01*
X56018479Y-63578656D01*
X56071534Y-63540110D01*
X56071534Y-63540109D01*
X56071542Y-63540104D01*
X56210354Y-63401291D01*
X56271673Y-63367809D01*
X56341365Y-63372793D01*
X56397299Y-63414664D01*
X56403571Y-63423878D01*
X56406935Y-63429333D01*
X56406936Y-63429334D01*
X56499038Y-63578656D01*
X56623094Y-63702712D01*
X56772416Y-63794814D01*
X56938953Y-63849999D01*
X57041741Y-63860500D01*
X58341758Y-63860499D01*
X58444547Y-63849999D01*
X58611084Y-63794814D01*
X58760406Y-63702712D01*
X58884462Y-63578656D01*
X58976564Y-63429334D01*
X59010973Y-63325494D01*
X59050745Y-63268051D01*
X59115260Y-63241228D01*
X59128678Y-63240500D01*
X62719099Y-63240500D01*
X62786138Y-63260185D01*
X62831893Y-63312989D01*
X62841837Y-63382147D01*
X62812812Y-63445703D01*
X62806780Y-63452181D01*
X58000778Y-68258181D01*
X57939455Y-68291666D01*
X57913097Y-68294500D01*
X57041748Y-68294500D01*
X57041730Y-68294501D01*
X56938953Y-68305000D01*
X56938950Y-68305001D01*
X56772418Y-68360185D01*
X56772413Y-68360187D01*
X56623092Y-68452289D01*
X56499039Y-68576342D01*
X56403571Y-68731121D01*
X56351623Y-68777845D01*
X56282660Y-68789068D01*
X56218578Y-68761224D01*
X56210351Y-68753705D01*
X56071536Y-68614890D01*
X55899570Y-68489951D01*
X55710164Y-68393444D01*
X55710163Y-68393443D01*
X55710162Y-68393443D01*
X55507993Y-68327754D01*
X55507991Y-68327753D01*
X55507990Y-68327753D01*
X55346707Y-68302208D01*
X55298037Y-68294500D01*
X55085463Y-68294500D01*
X55036792Y-68302208D01*
X54875510Y-68327753D01*
X54673335Y-68393444D01*
X54483929Y-68489951D01*
X54311963Y-68614890D01*
X54161640Y-68765213D01*
X54036701Y-68937179D01*
X53940194Y-69126585D01*
X53874503Y-69328760D01*
X53859960Y-69420582D01*
X53841250Y-69538713D01*
X53841250Y-70001287D01*
X53848623Y-70047838D01*
X53872269Y-70197137D01*
X53874504Y-70211243D01*
X53937185Y-70404155D01*
X53940194Y-70413414D01*
X54036701Y-70602820D01*
X54161640Y-70774786D01*
X54311959Y-70925105D01*
X54311964Y-70925109D01*
X54463467Y-71035182D01*
X54506133Y-71090511D01*
X54512112Y-71160125D01*
X54479507Y-71221920D01*
X54418668Y-71256277D01*
X54390582Y-71259500D01*
X50992918Y-71259500D01*
X50925879Y-71239815D01*
X50880124Y-71187011D01*
X50870180Y-71117853D01*
X50899205Y-71054297D01*
X50920033Y-71035182D01*
X51071535Y-70925109D01*
X51071533Y-70925109D01*
X51071542Y-70925104D01*
X51221854Y-70774792D01*
X51221856Y-70774788D01*
X51221859Y-70774786D01*
X51346798Y-70602820D01*
X51346797Y-70602820D01*
X51346801Y-70602816D01*
X51443307Y-70413412D01*
X51508996Y-70211243D01*
X51542250Y-70001287D01*
X51542250Y-69538713D01*
X51508996Y-69328757D01*
X51443307Y-69126588D01*
X51346801Y-68937184D01*
X51346799Y-68937181D01*
X51346798Y-68937179D01*
X51221859Y-68765213D01*
X51071536Y-68614890D01*
X50899570Y-68489951D01*
X50710164Y-68393444D01*
X50710163Y-68393443D01*
X50710162Y-68393443D01*
X50507993Y-68327754D01*
X50507991Y-68327753D01*
X50507990Y-68327753D01*
X50346707Y-68302208D01*
X50298037Y-68294500D01*
X50085463Y-68294500D01*
X50036792Y-68302208D01*
X49875510Y-68327753D01*
X49673335Y-68393444D01*
X49483929Y-68489951D01*
X49311963Y-68614890D01*
X49161640Y-68765213D01*
X49036701Y-68937179D01*
X48940194Y-69126585D01*
X48874503Y-69328760D01*
X48859960Y-69420582D01*
X48841250Y-69538713D01*
X48841250Y-70001287D01*
X48848623Y-70047838D01*
X48872269Y-70197137D01*
X48874504Y-70211243D01*
X48920215Y-70351925D01*
X48922087Y-70357687D01*
X48924082Y-70427528D01*
X48888002Y-70487361D01*
X48825301Y-70518189D01*
X48755887Y-70510224D01*
X48716475Y-70483686D01*
X48006819Y-69774030D01*
X47973334Y-69712707D01*
X47970500Y-69686349D01*
X47970500Y-62153713D01*
X48841250Y-62153713D01*
X48841250Y-62616286D01*
X48872651Y-62814548D01*
X48874504Y-62826243D01*
X48901291Y-62908686D01*
X48940194Y-63028414D01*
X49036701Y-63217820D01*
X49161640Y-63389786D01*
X49311963Y-63540109D01*
X49483929Y-63665048D01*
X49483931Y-63665049D01*
X49483934Y-63665051D01*
X49673338Y-63761557D01*
X49875507Y-63827246D01*
X50085463Y-63860500D01*
X50085464Y-63860500D01*
X50298036Y-63860500D01*
X50298037Y-63860500D01*
X50507993Y-63827246D01*
X50710162Y-63761557D01*
X50899566Y-63665051D01*
X50921539Y-63649086D01*
X51071536Y-63540109D01*
X51071538Y-63540106D01*
X51071542Y-63540104D01*
X51221854Y-63389792D01*
X51221856Y-63389788D01*
X51221859Y-63389786D01*
X51346798Y-63217820D01*
X51346797Y-63217820D01*
X51346801Y-63217816D01*
X51443307Y-63028412D01*
X51508996Y-62826243D01*
X51542250Y-62616287D01*
X51542250Y-62153713D01*
X51508996Y-61943757D01*
X51443307Y-61741588D01*
X51346801Y-61552184D01*
X51346799Y-61552181D01*
X51346798Y-61552179D01*
X51221859Y-61380213D01*
X51071536Y-61229890D01*
X50899570Y-61104951D01*
X50710164Y-61008444D01*
X50710163Y-61008443D01*
X50710162Y-61008443D01*
X50507993Y-60942754D01*
X50507991Y-60942753D01*
X50507990Y-60942753D01*
X50346707Y-60917208D01*
X50298037Y-60909500D01*
X50085463Y-60909500D01*
X50036792Y-60917208D01*
X49875510Y-60942753D01*
X49673335Y-61008444D01*
X49483929Y-61104951D01*
X49311963Y-61229890D01*
X49161640Y-61380213D01*
X49036701Y-61552179D01*
X48940194Y-61741585D01*
X48874503Y-61943760D01*
X48841250Y-62153713D01*
X47970500Y-62153713D01*
X47970500Y-60623651D01*
X47990185Y-60556612D01*
X48006819Y-60535970D01*
X48735970Y-59806819D01*
X48797293Y-59773334D01*
X48823651Y-59770500D01*
X53123768Y-59770500D01*
X53123769Y-59770499D01*
X53184669Y-59758386D01*
X53288074Y-59737818D01*
X53288078Y-59737816D01*
X53288082Y-59737816D01*
X53333415Y-59719037D01*
X53442863Y-59673704D01*
X53582162Y-59580627D01*
X55852377Y-57310412D01*
X55945454Y-57171113D01*
X56009566Y-57016331D01*
X56009566Y-57016328D01*
X56009568Y-57016324D01*
X56020390Y-56961918D01*
X56042249Y-56852021D01*
X56042250Y-56852018D01*
X56042250Y-56235758D01*
X56050895Y-56206314D01*
X56057418Y-56176332D01*
X56061172Y-56171316D01*
X56061935Y-56168719D01*
X56078563Y-56148082D01*
X56210354Y-56016291D01*
X56271673Y-55982809D01*
X56341365Y-55987793D01*
X56397299Y-56029664D01*
X56403571Y-56038878D01*
X56406935Y-56044333D01*
X56406936Y-56044334D01*
X56499038Y-56193656D01*
X56623094Y-56317712D01*
X56772416Y-56409814D01*
X56938953Y-56464999D01*
X57041741Y-56475500D01*
X58341758Y-56475499D01*
X58444547Y-56464999D01*
X58611084Y-56409814D01*
X58760406Y-56317712D01*
X58884462Y-56193656D01*
X58976564Y-56044334D01*
X59031749Y-55877797D01*
X59042250Y-55775009D01*
X59042249Y-54224992D01*
X59031749Y-54122203D01*
X58976564Y-53955666D01*
X58884462Y-53806344D01*
X58760406Y-53682288D01*
X58611084Y-53590186D01*
X58444547Y-53535001D01*
X58444545Y-53535000D01*
X58341760Y-53524500D01*
X57041748Y-53524500D01*
X57041731Y-53524501D01*
X56938953Y-53535000D01*
X56938950Y-53535001D01*
X56772418Y-53590185D01*
X56772413Y-53590187D01*
X56623092Y-53682289D01*
X56499039Y-53806342D01*
X56403571Y-53961121D01*
X56351623Y-54007845D01*
X56282660Y-54019068D01*
X56218578Y-53991224D01*
X56210351Y-53983705D01*
X56071536Y-53844890D01*
X55899570Y-53719951D01*
X55710164Y-53623444D01*
X55710163Y-53623443D01*
X55710162Y-53623443D01*
X55507993Y-53557754D01*
X55507991Y-53557753D01*
X55507990Y-53557753D01*
X55346707Y-53532208D01*
X55298037Y-53524500D01*
X55085463Y-53524500D01*
X55036792Y-53532208D01*
X54875510Y-53557753D01*
X54673335Y-53623444D01*
X54483929Y-53719951D01*
X54311963Y-53844890D01*
X54161640Y-53995213D01*
X54036701Y-54167179D01*
X53940194Y-54356585D01*
X53874503Y-54558760D01*
X53841250Y-54768713D01*
X53841250Y-55231286D01*
X53874503Y-55441239D01*
X53940194Y-55643414D01*
X54036701Y-55832820D01*
X54161640Y-56004786D01*
X54304931Y-56148077D01*
X54319634Y-56175004D01*
X54336227Y-56200823D01*
X54337118Y-56207023D01*
X54338416Y-56209400D01*
X54341250Y-56235758D01*
X54341250Y-56364599D01*
X54321565Y-56431638D01*
X54304931Y-56452280D01*
X52724030Y-58033181D01*
X52662707Y-58066666D01*
X52636349Y-58069500D01*
X48336228Y-58069500D01*
X48171925Y-58102182D01*
X48171913Y-58102185D01*
X48126583Y-58120962D01*
X48017143Y-58166292D01*
X48017130Y-58166299D01*
X47877838Y-58259372D01*
X47877834Y-58259375D01*
X46459375Y-59677834D01*
X46459372Y-59677838D01*
X46366297Y-59817133D01*
X46366296Y-59817136D01*
X46332869Y-59897837D01*
X46332869Y-59897838D01*
X46302184Y-59971917D01*
X46302182Y-59971925D01*
X46269500Y-60136228D01*
X46269500Y-70173771D01*
X46302181Y-70338073D01*
X46302184Y-70338082D01*
X46366296Y-70492863D01*
X46366297Y-70492866D01*
X46459372Y-70632161D01*
X46459375Y-70632165D01*
X48265031Y-72437819D01*
X48298516Y-72499142D01*
X48293532Y-72568833D01*
X48251660Y-72624767D01*
X48186196Y-72649184D01*
X48177350Y-72649500D01*
X43377533Y-72649500D01*
X43310494Y-72629815D01*
X43289852Y-72613181D01*
X42845232Y-72168561D01*
X42811747Y-72107238D01*
X42809974Y-72064699D01*
X42822250Y-71971457D01*
X42822250Y-71748543D01*
X42793154Y-71527537D01*
X42735460Y-71312219D01*
X42650155Y-71106274D01*
X42538698Y-70913226D01*
X42468578Y-70821843D01*
X42402998Y-70736377D01*
X42402992Y-70736370D01*
X42245379Y-70578757D01*
X42245372Y-70578751D01*
X42068532Y-70443058D01*
X42068530Y-70443057D01*
X42068524Y-70443052D01*
X41875476Y-70331595D01*
X41875472Y-70331593D01*
X41669540Y-70246293D01*
X41669533Y-70246291D01*
X41669531Y-70246290D01*
X41454213Y-70188596D01*
X41454207Y-70188595D01*
X41454202Y-70188594D01*
X41233216Y-70159501D01*
X41233213Y-70159500D01*
X41233207Y-70159500D01*
X41010293Y-70159500D01*
X41010287Y-70159500D01*
X41010283Y-70159501D01*
X40789297Y-70188594D01*
X40789290Y-70188595D01*
X40789287Y-70188596D01*
X40704782Y-70211239D01*
X40573969Y-70246290D01*
X40573959Y-70246293D01*
X40368027Y-70331593D01*
X40368023Y-70331595D01*
X40174976Y-70443052D01*
X40174967Y-70443058D01*
X39998127Y-70578751D01*
X39998120Y-70578757D01*
X39840507Y-70736370D01*
X39840501Y-70736377D01*
X39704808Y-70913217D01*
X39704802Y-70913226D01*
X39593345Y-71106273D01*
X39593343Y-71106277D01*
X39508043Y-71312209D01*
X39508040Y-71312219D01*
X39468309Y-71460500D01*
X39450347Y-71527534D01*
X39450344Y-71527547D01*
X39421251Y-71748533D01*
X39421250Y-71748549D01*
X39421250Y-71971450D01*
X39421251Y-71971466D01*
X39450344Y-72192452D01*
X39450345Y-72192457D01*
X39450346Y-72192463D01*
X39478129Y-72296151D01*
X39508040Y-72407780D01*
X39508043Y-72407790D01*
X39578137Y-72577011D01*
X39593345Y-72613726D01*
X39704802Y-72806774D01*
X39704807Y-72806780D01*
X39704808Y-72806782D01*
X39840501Y-72983622D01*
X39840507Y-72983629D01*
X39998120Y-73141242D01*
X39998126Y-73141247D01*
X40174976Y-73276948D01*
X40368024Y-73388405D01*
X40573969Y-73473710D01*
X40789287Y-73531404D01*
X41010293Y-73560500D01*
X41010300Y-73560500D01*
X41233200Y-73560500D01*
X41233207Y-73560500D01*
X41326446Y-73548224D01*
X41395479Y-73558989D01*
X41430311Y-73583482D01*
X42134610Y-74287781D01*
X42134611Y-74287782D01*
X42209559Y-74362730D01*
X42273969Y-74427140D01*
X42437829Y-74536628D01*
X42437842Y-74536635D01*
X42566583Y-74589961D01*
X42589859Y-74599602D01*
X42619914Y-74612051D01*
X42716562Y-74631275D01*
X42764885Y-74640887D01*
X42813208Y-74650500D01*
X42813209Y-74650500D01*
X42813210Y-74650500D01*
X43010290Y-74650500D01*
X65062451Y-74650500D01*
X65084683Y-74657028D01*
X65107764Y-74659076D01*
X65120858Y-74667650D01*
X65129490Y-74670185D01*
X65138447Y-74676517D01*
X65144614Y-74681300D01*
X65173361Y-74710047D01*
X65257300Y-74768821D01*
X65259765Y-74770612D01*
X65259769Y-74770615D01*
X65318113Y-74813004D01*
X65360779Y-74868333D01*
X65366758Y-74937947D01*
X65334153Y-74999742D01*
X65273314Y-75034099D01*
X65245313Y-75037322D01*
X61350000Y-75039999D01*
X61350000Y-90229999D01*
X61350000Y-90230000D01*
X65165033Y-90220184D01*
X65232123Y-90239696D01*
X65278013Y-90292383D01*
X65288135Y-90361515D01*
X65259274Y-90425145D01*
X65236477Y-90445758D01*
X65173358Y-90489955D01*
X65012454Y-90650859D01*
X64954281Y-90733934D01*
X64954282Y-90733935D01*
X64953632Y-90734863D01*
X64900213Y-90808390D01*
X64895035Y-90818550D01*
X64890060Y-90825656D01*
X64890058Y-90825656D01*
X64881933Y-90837262D01*
X64844338Y-90917882D01*
X64843420Y-90919849D01*
X64807280Y-90990781D01*
X64800235Y-91012458D01*
X64797032Y-91019329D01*
X64797029Y-91019338D01*
X64785761Y-91043503D01*
X64785761Y-91043504D01*
X64765959Y-91117404D01*
X64765958Y-91117403D01*
X64765114Y-91120551D01*
X64744023Y-91185466D01*
X64738675Y-91219224D01*
X64736992Y-91225507D01*
X64736992Y-91225511D01*
X64726866Y-91263304D01*
X64726864Y-91263313D01*
X64721283Y-91327106D01*
X64720228Y-91335697D01*
X64712000Y-91387643D01*
X64712000Y-93146785D01*
X64726864Y-93316687D01*
X64726866Y-93316697D01*
X64785758Y-93536488D01*
X64785761Y-93536497D01*
X64881931Y-93742732D01*
X64881932Y-93742734D01*
X65012454Y-93929141D01*
X65173358Y-94090045D01*
X65173361Y-94090047D01*
X65359766Y-94220568D01*
X65566004Y-94316739D01*
X65785808Y-94375635D01*
X65955714Y-94390499D01*
X65955715Y-94390500D01*
X65955716Y-94390500D01*
X66069285Y-94390500D01*
X66069285Y-94390499D01*
X66239192Y-94375635D01*
X66458996Y-94316739D01*
X66665234Y-94220568D01*
X66851639Y-94090047D01*
X67012547Y-93929139D01*
X67143068Y-93742734D01*
X67170118Y-93684724D01*
X67216290Y-93632285D01*
X67283483Y-93613133D01*
X67350365Y-93633348D01*
X67394882Y-93684725D01*
X67421929Y-93742728D01*
X67421932Y-93742734D01*
X67552454Y-93929141D01*
X67713358Y-94090045D01*
X67713361Y-94090047D01*
X67899766Y-94220568D01*
X68106004Y-94316739D01*
X68325808Y-94375635D01*
X68495714Y-94390499D01*
X68495715Y-94390500D01*
X68495716Y-94390500D01*
X68609285Y-94390500D01*
X68609285Y-94390499D01*
X68779192Y-94375635D01*
X68998996Y-94316739D01*
X69205234Y-94220568D01*
X69391639Y-94090047D01*
X69552547Y-93929139D01*
X69683068Y-93742734D01*
X69779239Y-93536496D01*
X69838135Y-93316692D01*
X69853000Y-93146784D01*
X69853000Y-91433216D01*
X69853000Y-91387648D01*
X69844093Y-91331417D01*
X69838135Y-91263308D01*
X69826325Y-91219233D01*
X69820977Y-91185466D01*
X69800878Y-91123609D01*
X69799035Y-91117386D01*
X69779242Y-91043513D01*
X69779240Y-91043510D01*
X69779239Y-91043504D01*
X69764766Y-91012467D01*
X69757720Y-90990781D01*
X69721567Y-90919827D01*
X69683068Y-90837266D01*
X69674936Y-90825652D01*
X69674936Y-90825651D01*
X69669962Y-90818548D01*
X69664787Y-90808390D01*
X69611321Y-90734800D01*
X69610715Y-90733935D01*
X69610705Y-90733920D01*
X69552545Y-90650858D01*
X69391641Y-90489954D01*
X69341091Y-90454559D01*
X69313019Y-90434903D01*
X69269395Y-90380328D01*
X69262201Y-90310830D01*
X69293723Y-90248475D01*
X69353953Y-90213060D01*
X69383818Y-90209329D01*
X72812843Y-90200507D01*
X72843279Y-90209358D01*
X72874138Y-90216536D01*
X72876572Y-90219041D01*
X72879930Y-90220018D01*
X72900745Y-90243916D01*
X72922831Y-90266643D01*
X72923525Y-90270069D01*
X72925820Y-90272704D01*
X72930410Y-90304054D01*
X72936704Y-90335122D01*
X72935435Y-90338379D01*
X72935942Y-90341837D01*
X72922850Y-90370699D01*
X72911352Y-90400230D01*
X72907962Y-90403524D01*
X72907081Y-90405467D01*
X72886041Y-90424827D01*
X72878195Y-90430527D01*
X72876439Y-90431779D01*
X72793359Y-90489954D01*
X72632454Y-90650859D01*
X72574281Y-90733934D01*
X72574282Y-90733935D01*
X72573632Y-90734863D01*
X72520213Y-90808390D01*
X72515035Y-90818550D01*
X72510060Y-90825656D01*
X72510058Y-90825656D01*
X72501933Y-90837262D01*
X72464338Y-90917882D01*
X72463420Y-90919849D01*
X72427280Y-90990781D01*
X72420235Y-91012458D01*
X72417032Y-91019329D01*
X72417029Y-91019338D01*
X72405761Y-91043503D01*
X72405761Y-91043504D01*
X72385959Y-91117404D01*
X72385958Y-91117403D01*
X72385114Y-91120551D01*
X72364023Y-91185466D01*
X72358675Y-91219224D01*
X72356992Y-91225507D01*
X72356992Y-91225511D01*
X72346866Y-91263304D01*
X72346864Y-91263313D01*
X72341283Y-91327106D01*
X72340228Y-91335697D01*
X72332000Y-91387643D01*
X72332000Y-93146785D01*
X72346864Y-93316687D01*
X72346866Y-93316697D01*
X72405758Y-93536488D01*
X72405761Y-93536497D01*
X72501931Y-93742732D01*
X72501932Y-93742734D01*
X72632454Y-93929141D01*
X72793358Y-94090045D01*
X72793361Y-94090047D01*
X72979766Y-94220568D01*
X73186004Y-94316739D01*
X73405808Y-94375635D01*
X73575714Y-94390499D01*
X73575715Y-94390500D01*
X73575716Y-94390500D01*
X73689285Y-94390500D01*
X73689285Y-94390499D01*
X73859192Y-94375635D01*
X74078996Y-94316739D01*
X74285234Y-94220568D01*
X74471639Y-94090047D01*
X74632547Y-93929139D01*
X74763068Y-93742734D01*
X74790118Y-93684724D01*
X74836290Y-93632285D01*
X74903483Y-93613133D01*
X74970365Y-93633348D01*
X75014882Y-93684725D01*
X75041929Y-93742728D01*
X75041932Y-93742734D01*
X75172454Y-93929141D01*
X75333358Y-94090045D01*
X75333361Y-94090047D01*
X75519766Y-94220568D01*
X75726004Y-94316739D01*
X75945808Y-94375635D01*
X76115714Y-94390499D01*
X76115715Y-94390500D01*
X76115716Y-94390500D01*
X76229285Y-94390500D01*
X76229285Y-94390499D01*
X76399192Y-94375635D01*
X76618996Y-94316739D01*
X76825234Y-94220568D01*
X77011639Y-94090047D01*
X77172547Y-93929139D01*
X77303068Y-93742734D01*
X77330118Y-93684724D01*
X77376290Y-93632285D01*
X77443483Y-93613133D01*
X77510365Y-93633348D01*
X77554882Y-93684725D01*
X77581929Y-93742728D01*
X77581932Y-93742734D01*
X77712454Y-93929141D01*
X77873358Y-94090045D01*
X77873361Y-94090047D01*
X78059766Y-94220568D01*
X78266004Y-94316739D01*
X78485808Y-94375635D01*
X78655714Y-94390499D01*
X78655715Y-94390500D01*
X78655716Y-94390500D01*
X78769285Y-94390500D01*
X78769285Y-94390499D01*
X78939192Y-94375635D01*
X79158996Y-94316739D01*
X79365234Y-94220568D01*
X79551639Y-94090047D01*
X79712547Y-93929139D01*
X79843068Y-93742734D01*
X79870118Y-93684724D01*
X79916290Y-93632285D01*
X79983483Y-93613133D01*
X80050365Y-93633348D01*
X80094882Y-93684725D01*
X80121929Y-93742728D01*
X80121932Y-93742734D01*
X80252454Y-93929141D01*
X80413358Y-94090045D01*
X80413361Y-94090047D01*
X80599766Y-94220568D01*
X80806004Y-94316739D01*
X81025808Y-94375635D01*
X81195714Y-94390499D01*
X81195715Y-94390500D01*
X81195716Y-94390500D01*
X81309285Y-94390500D01*
X81309285Y-94390499D01*
X81479192Y-94375635D01*
X81698996Y-94316739D01*
X81905234Y-94220568D01*
X82091639Y-94090047D01*
X82252547Y-93929139D01*
X82383068Y-93742734D01*
X82479239Y-93536496D01*
X82538135Y-93316692D01*
X82553000Y-93146784D01*
X82553000Y-91433216D01*
X82553000Y-91387648D01*
X82544093Y-91331417D01*
X82538135Y-91263308D01*
X82526325Y-91219233D01*
X82520977Y-91185466D01*
X82500878Y-91123609D01*
X82499035Y-91117386D01*
X82479242Y-91043513D01*
X82479240Y-91043510D01*
X82479239Y-91043504D01*
X82464766Y-91012467D01*
X82457720Y-90990781D01*
X82421567Y-90919827D01*
X82383068Y-90837266D01*
X82374936Y-90825652D01*
X82374936Y-90825651D01*
X82369962Y-90818548D01*
X82364787Y-90808390D01*
X82311321Y-90734800D01*
X82310715Y-90733935D01*
X82310705Y-90733920D01*
X82252545Y-90650858D01*
X82091640Y-90489953D01*
X82008578Y-90431793D01*
X82006817Y-90430537D01*
X81966283Y-90401088D01*
X81923616Y-90345758D01*
X81917636Y-90276145D01*
X81950242Y-90214350D01*
X82011080Y-90179992D01*
X82038844Y-90176769D01*
X85520758Y-90167810D01*
X85587846Y-90187322D01*
X85633736Y-90240008D01*
X85643858Y-90309141D01*
X85614997Y-90372771D01*
X85593962Y-90392127D01*
X85547106Y-90426170D01*
X85407924Y-90565351D01*
X85386983Y-90594172D01*
X85383250Y-90599050D01*
X85379062Y-90604250D01*
X85332453Y-90650861D01*
X85273678Y-90734800D01*
X85271234Y-90738162D01*
X85271221Y-90738180D01*
X85220209Y-90808395D01*
X85220208Y-90808397D01*
X85218960Y-90810847D01*
X85210063Y-90825651D01*
X85201933Y-90837262D01*
X85164338Y-90917882D01*
X85163420Y-90919849D01*
X85127280Y-90990781D01*
X85120235Y-91012458D01*
X85117032Y-91019329D01*
X85117029Y-91019338D01*
X85105761Y-91043503D01*
X85105761Y-91043504D01*
X85085959Y-91117404D01*
X85085958Y-91117403D01*
X85085114Y-91120551D01*
X85064023Y-91185466D01*
X85058675Y-91219224D01*
X85056992Y-91225507D01*
X85056992Y-91225511D01*
X85046866Y-91263304D01*
X85046864Y-91263313D01*
X85041283Y-91327106D01*
X85040228Y-91335697D01*
X85032000Y-91387643D01*
X85032000Y-93146785D01*
X85046864Y-93316687D01*
X85046866Y-93316697D01*
X85107025Y-93541214D01*
X85111250Y-93573307D01*
X85111250Y-96066238D01*
X85097735Y-96122532D01*
X85070196Y-96176580D01*
X85070192Y-96176590D01*
X85004503Y-96378760D01*
X84971250Y-96588713D01*
X84971250Y-97051286D01*
X85004503Y-97261240D01*
X85058421Y-97427182D01*
X85060416Y-97497023D01*
X85024336Y-97556856D01*
X84961635Y-97587684D01*
X84940490Y-97589500D01*
X56008954Y-97589500D01*
X55941915Y-97569815D01*
X55921273Y-97553181D01*
X55183568Y-96815476D01*
X55150083Y-96754153D01*
X55147249Y-96727795D01*
X55147249Y-96209998D01*
X55147248Y-96209981D01*
X55136749Y-96107203D01*
X55136748Y-96107200D01*
X55133039Y-96096008D01*
X55081564Y-95940666D01*
X54989462Y-95791344D01*
X54865406Y-95667288D01*
X54716084Y-95575186D01*
X54716083Y-95575185D01*
X54710628Y-95571821D01*
X54663904Y-95519873D01*
X54652681Y-95450910D01*
X54680525Y-95386828D01*
X54688022Y-95378623D01*
X54826854Y-95239792D01*
X54951801Y-95067816D01*
X55048307Y-94878412D01*
X55113996Y-94676243D01*
X55147250Y-94466287D01*
X55147250Y-94253713D01*
X55113996Y-94043757D01*
X55048307Y-93841588D01*
X54951801Y-93652184D01*
X54951799Y-93652181D01*
X54951798Y-93652179D01*
X54826859Y-93480213D01*
X54676536Y-93329890D01*
X54504570Y-93204951D01*
X54315164Y-93108444D01*
X54315163Y-93108443D01*
X54315162Y-93108443D01*
X54112993Y-93042754D01*
X54112991Y-93042753D01*
X54112990Y-93042753D01*
X53951707Y-93017208D01*
X53903037Y-93009500D01*
X53440463Y-93009500D01*
X53391792Y-93017208D01*
X53230510Y-93042753D01*
X53028335Y-93108444D01*
X52838929Y-93204951D01*
X52666963Y-93329890D01*
X52516640Y-93480213D01*
X52391701Y-93652179D01*
X52295194Y-93841585D01*
X52229503Y-94043760D01*
X52196250Y-94253713D01*
X52196250Y-94466286D01*
X52215155Y-94585651D01*
X52229504Y-94676243D01*
X52258608Y-94765817D01*
X52295194Y-94878414D01*
X52391701Y-95067820D01*
X52516640Y-95239786D01*
X52655455Y-95378601D01*
X52688940Y-95439924D01*
X52683956Y-95509616D01*
X52642084Y-95565549D01*
X52632871Y-95571821D01*
X52478092Y-95667289D01*
X52422201Y-95723181D01*
X52360878Y-95756666D01*
X52334520Y-95759500D01*
X45193980Y-95759500D01*
X45126941Y-95739815D01*
X45106299Y-95723181D01*
X45050407Y-95667289D01*
X45050406Y-95667288D01*
X44901084Y-95575186D01*
X44901083Y-95575185D01*
X44895628Y-95571821D01*
X44848904Y-95519873D01*
X44837681Y-95450910D01*
X44865525Y-95386828D01*
X44873022Y-95378623D01*
X45011854Y-95239792D01*
X45136801Y-95067816D01*
X45233307Y-94878412D01*
X45298996Y-94676243D01*
X45332250Y-94466287D01*
X45332250Y-94253713D01*
X45298996Y-94043757D01*
X45233307Y-93841588D01*
X45136801Y-93652184D01*
X45136799Y-93652181D01*
X45136798Y-93652179D01*
X45011859Y-93480213D01*
X44861536Y-93329890D01*
X44689570Y-93204951D01*
X44500164Y-93108444D01*
X44500163Y-93108443D01*
X44500162Y-93108443D01*
X44297993Y-93042754D01*
X44297991Y-93042753D01*
X44297990Y-93042753D01*
X44136707Y-93017208D01*
X44088037Y-93009500D01*
X43625463Y-93009500D01*
X43576792Y-93017208D01*
X43415510Y-93042753D01*
X43213335Y-93108444D01*
X43023929Y-93204951D01*
X42851963Y-93329890D01*
X42701640Y-93480213D01*
X42576701Y-93652179D01*
X42480194Y-93841585D01*
X42414503Y-94043760D01*
X42381250Y-94253713D01*
X42381250Y-94466286D01*
X42400155Y-94585651D01*
X42414504Y-94676243D01*
X42443608Y-94765817D01*
X42480194Y-94878414D01*
X42576701Y-95067820D01*
X42701640Y-95239786D01*
X42840455Y-95378601D01*
X42873940Y-95439924D01*
X42868956Y-95509616D01*
X42827084Y-95565549D01*
X42817871Y-95571821D01*
X42663092Y-95667289D01*
X42607201Y-95723181D01*
X42545878Y-95756666D01*
X42519520Y-95759500D01*
X35378980Y-95759500D01*
X35311941Y-95739815D01*
X35291299Y-95723181D01*
X35235407Y-95667289D01*
X35235406Y-95667288D01*
X35086084Y-95575186D01*
X35086083Y-95575185D01*
X35080628Y-95571821D01*
X35033904Y-95519873D01*
X35022681Y-95450910D01*
X35050525Y-95386828D01*
X35058022Y-95378623D01*
X35196854Y-95239792D01*
X35321801Y-95067816D01*
X35418307Y-94878412D01*
X35483996Y-94676243D01*
X35517250Y-94466287D01*
X35517250Y-94253713D01*
X35483996Y-94043757D01*
X35418307Y-93841588D01*
X35321801Y-93652184D01*
X35321799Y-93652181D01*
X35321798Y-93652179D01*
X35196859Y-93480213D01*
X35046536Y-93329890D01*
X34874570Y-93204951D01*
X34685164Y-93108444D01*
X34685163Y-93108443D01*
X34685162Y-93108443D01*
X34482993Y-93042754D01*
X34482991Y-93042753D01*
X34482990Y-93042753D01*
X34321707Y-93017208D01*
X34273037Y-93009500D01*
X33810463Y-93009500D01*
X33761792Y-93017208D01*
X33600510Y-93042753D01*
X33398335Y-93108444D01*
X33208929Y-93204951D01*
X33036963Y-93329890D01*
X32886640Y-93480213D01*
X32761701Y-93652179D01*
X32665194Y-93841585D01*
X32599503Y-94043760D01*
X32566250Y-94253713D01*
X32566250Y-94466286D01*
X32585155Y-94585651D01*
X32599504Y-94676243D01*
X32628608Y-94765817D01*
X32665194Y-94878414D01*
X32761701Y-95067820D01*
X32886640Y-95239786D01*
X33025455Y-95378601D01*
X33058940Y-95439924D01*
X33053956Y-95509616D01*
X33012084Y-95565549D01*
X33002871Y-95571821D01*
X32848092Y-95667289D01*
X32724039Y-95791342D01*
X32631937Y-95940663D01*
X32631935Y-95940668D01*
X32609907Y-96007145D01*
X32576751Y-96107203D01*
X32576751Y-96107204D01*
X32576750Y-96107204D01*
X32566250Y-96209983D01*
X32566250Y-97510001D01*
X32566251Y-97510018D01*
X32576750Y-97612796D01*
X32576751Y-97612799D01*
X32631935Y-97779331D01*
X32631936Y-97779334D01*
X32724038Y-97928656D01*
X32848094Y-98052712D01*
X32997416Y-98144814D01*
X33163953Y-98199999D01*
X33266741Y-98210500D01*
X34816758Y-98210499D01*
X34919547Y-98199999D01*
X35086084Y-98144814D01*
X35235406Y-98052712D01*
X35291299Y-97996819D01*
X35352622Y-97963334D01*
X35378980Y-97960500D01*
X42519520Y-97960500D01*
X42586559Y-97980185D01*
X42607201Y-97996819D01*
X42663094Y-98052712D01*
X42812416Y-98144814D01*
X42978953Y-98199999D01*
X43081741Y-98210500D01*
X44631758Y-98210499D01*
X44734547Y-98199999D01*
X44901084Y-98144814D01*
X45050406Y-98052712D01*
X45106299Y-97996819D01*
X45167622Y-97963334D01*
X45193980Y-97960500D01*
X52334520Y-97960500D01*
X52401559Y-97980185D01*
X52422201Y-97996819D01*
X52478094Y-98052712D01*
X52627416Y-98144814D01*
X52793953Y-98199999D01*
X52896741Y-98210500D01*
X53414545Y-98210499D01*
X53481584Y-98230183D01*
X53502226Y-98246818D01*
X54662336Y-99406928D01*
X54784822Y-99529414D01*
X54924962Y-99631232D01*
X55079305Y-99709873D01*
X55244049Y-99763402D01*
X55415139Y-99790500D01*
X55415140Y-99790500D01*
X100726610Y-99790500D01*
X100726611Y-99790500D01*
X100897701Y-99763402D01*
X101062445Y-99709873D01*
X101216788Y-99631232D01*
X101356928Y-99529414D01*
X104951915Y-95934428D01*
X105020428Y-95840127D01*
X105021788Y-95838256D01*
X105053729Y-95794292D01*
X105053728Y-95794292D01*
X105053732Y-95794288D01*
X105132373Y-95639945D01*
X105136793Y-95626342D01*
X105153416Y-95575185D01*
X105171346Y-95520001D01*
X105185903Y-95475201D01*
X105195216Y-95416399D01*
X105213000Y-95304115D01*
X105213000Y-93824772D01*
X105216272Y-93811367D01*
X105215308Y-93800957D01*
X105223537Y-93781605D01*
X105226947Y-93767637D01*
X105230721Y-93760365D01*
X105243068Y-93742734D01*
X105271237Y-93682324D01*
X105272447Y-93679995D01*
X105294882Y-93656599D01*
X105316290Y-93632286D01*
X105318916Y-93631537D01*
X105320807Y-93629566D01*
X105352318Y-93622016D01*
X105383483Y-93613134D01*
X105386097Y-93613924D01*
X105388754Y-93613288D01*
X105419342Y-93623972D01*
X105450365Y-93633349D01*
X105452178Y-93635442D01*
X105454715Y-93636328D01*
X105471041Y-93657210D01*
X105494882Y-93684725D01*
X105521931Y-93742732D01*
X105521932Y-93742734D01*
X105652454Y-93929141D01*
X105813358Y-94090045D01*
X105813361Y-94090047D01*
X105999766Y-94220568D01*
X106206004Y-94316739D01*
X106425808Y-94375635D01*
X106595714Y-94390499D01*
X106595715Y-94390500D01*
X106595716Y-94390500D01*
X106709285Y-94390500D01*
X106709285Y-94390499D01*
X106879192Y-94375635D01*
X107098996Y-94316739D01*
X107305234Y-94220568D01*
X107491639Y-94090047D01*
X107652547Y-93929139D01*
X107783068Y-93742734D01*
X107879239Y-93536496D01*
X107938135Y-93316692D01*
X107953000Y-93146784D01*
X107953000Y-91433216D01*
X107953000Y-91387648D01*
X107944093Y-91331417D01*
X107938135Y-91263308D01*
X107926325Y-91219233D01*
X107920977Y-91185466D01*
X107900878Y-91123609D01*
X107899035Y-91117386D01*
X107879242Y-91043513D01*
X107879240Y-91043510D01*
X107879239Y-91043504D01*
X107864766Y-91012467D01*
X107857720Y-90990781D01*
X107821567Y-90919827D01*
X107783068Y-90837266D01*
X107774936Y-90825652D01*
X107774936Y-90825651D01*
X107769962Y-90818548D01*
X107764787Y-90808390D01*
X107711321Y-90734800D01*
X107710715Y-90733935D01*
X107710705Y-90733920D01*
X107652545Y-90650858D01*
X107491640Y-90489953D01*
X107408578Y-90431793D01*
X107407680Y-90431164D01*
X107334110Y-90377713D01*
X107323948Y-90372535D01*
X107316846Y-90367562D01*
X107305234Y-90359432D01*
X107280871Y-90348071D01*
X107228432Y-90301898D01*
X107209280Y-90234705D01*
X107229496Y-90167824D01*
X107282662Y-90122489D01*
X107332952Y-90111689D01*
X111072039Y-90102069D01*
X111077334Y-90103609D01*
X111082741Y-90102504D01*
X111110516Y-90113260D01*
X111139124Y-90121580D01*
X111142749Y-90125741D01*
X111147896Y-90127735D01*
X111165449Y-90151803D01*
X111185014Y-90174266D01*
X111185813Y-90179727D01*
X111189066Y-90184187D01*
X111190820Y-90213923D01*
X111195136Y-90243399D01*
X111192855Y-90248425D01*
X111193181Y-90253935D01*
X111178580Y-90279898D01*
X111166275Y-90307029D01*
X111160923Y-90311297D01*
X111158934Y-90314836D01*
X111140658Y-90327463D01*
X111130418Y-90335633D01*
X111127607Y-90337122D01*
X111079766Y-90359432D01*
X111061877Y-90371956D01*
X111055099Y-90375549D01*
X111054741Y-90375622D01*
X111053347Y-90376460D01*
X111050897Y-90377708D01*
X111050894Y-90377710D01*
X110978196Y-90430526D01*
X110976439Y-90431779D01*
X110893359Y-90489954D01*
X110732454Y-90650859D01*
X110674281Y-90733934D01*
X110674282Y-90733935D01*
X110673632Y-90734863D01*
X110620213Y-90808390D01*
X110615035Y-90818550D01*
X110610060Y-90825656D01*
X110610058Y-90825656D01*
X110601933Y-90837262D01*
X110564338Y-90917882D01*
X110563420Y-90919849D01*
X110527280Y-90990781D01*
X110520235Y-91012458D01*
X110517032Y-91019329D01*
X110517029Y-91019338D01*
X110505761Y-91043503D01*
X110505761Y-91043504D01*
X110485959Y-91117404D01*
X110485958Y-91117403D01*
X110485114Y-91120551D01*
X110464023Y-91185466D01*
X110458675Y-91219224D01*
X110456992Y-91225507D01*
X110456992Y-91225511D01*
X110446866Y-91263304D01*
X110446864Y-91263313D01*
X110441283Y-91327106D01*
X110440228Y-91335697D01*
X110432000Y-91387643D01*
X110432000Y-93146785D01*
X110446864Y-93316687D01*
X110446866Y-93316697D01*
X110505758Y-93536488D01*
X110505761Y-93536497D01*
X110601931Y-93742732D01*
X110601932Y-93742734D01*
X110732454Y-93929141D01*
X110893358Y-94090045D01*
X110893361Y-94090047D01*
X111079766Y-94220568D01*
X111286004Y-94316739D01*
X111505808Y-94375635D01*
X111675714Y-94390499D01*
X111675715Y-94390500D01*
X111675716Y-94390500D01*
X111789285Y-94390500D01*
X111789285Y-94390499D01*
X111959192Y-94375635D01*
X112178996Y-94316739D01*
X112385234Y-94220568D01*
X112571639Y-94090047D01*
X112732547Y-93929139D01*
X112863068Y-93742734D01*
X112890118Y-93684724D01*
X112936290Y-93632285D01*
X113003483Y-93613133D01*
X113070365Y-93633348D01*
X113114882Y-93684725D01*
X113141929Y-93742728D01*
X113141932Y-93742734D01*
X113272454Y-93929141D01*
X113433358Y-94090045D01*
X113433361Y-94090047D01*
X113619766Y-94220568D01*
X113643010Y-94231407D01*
X113695448Y-94277576D01*
X113714601Y-94344770D01*
X113694386Y-94411651D01*
X113649059Y-94453146D01*
X113401161Y-94585651D01*
X113401151Y-94585657D01*
X113131532Y-94765811D01*
X113131518Y-94765821D01*
X112880841Y-94971546D01*
X112651546Y-95200841D01*
X112445821Y-95451518D01*
X112445811Y-95451532D01*
X112265657Y-95721151D01*
X112265646Y-95721169D01*
X112112788Y-96007145D01*
X112112786Y-96007150D01*
X111988686Y-96306752D01*
X111894548Y-96617086D01*
X111894545Y-96617097D01*
X111831287Y-96935125D01*
X111831284Y-96935142D01*
X111806666Y-97185099D01*
X111799500Y-97257857D01*
X111799500Y-97582143D01*
X111809054Y-97679152D01*
X111831284Y-97904857D01*
X111831287Y-97904874D01*
X111894545Y-98222902D01*
X111894548Y-98222913D01*
X111988686Y-98533247D01*
X112112786Y-98832849D01*
X112112788Y-98832854D01*
X112265646Y-99118830D01*
X112265657Y-99118848D01*
X112445811Y-99388467D01*
X112445821Y-99388481D01*
X112651546Y-99639158D01*
X112880841Y-99868453D01*
X112880846Y-99868457D01*
X112880847Y-99868458D01*
X113131524Y-100074183D01*
X113401158Y-100254347D01*
X113401167Y-100254352D01*
X113401169Y-100254353D01*
X113441933Y-100276142D01*
X113491778Y-100325104D01*
X113507238Y-100393242D01*
X113483406Y-100458922D01*
X113427848Y-100501291D01*
X113383480Y-100509500D01*
X22864500Y-100509500D01*
X22797461Y-100489815D01*
X22751706Y-100437011D01*
X22740500Y-100385500D01*
X22740500Y-81403713D01*
X32596250Y-81403713D01*
X32596250Y-81616287D01*
X32606284Y-81679644D01*
X32617683Y-81751612D01*
X32629504Y-81826243D01*
X32672260Y-81957833D01*
X32695194Y-82028414D01*
X32791701Y-82217820D01*
X32916640Y-82389786D01*
X33055455Y-82528601D01*
X33088940Y-82589924D01*
X33083956Y-82659616D01*
X33042084Y-82715549D01*
X33032871Y-82721821D01*
X32878092Y-82817289D01*
X32754039Y-82941342D01*
X32661937Y-83090663D01*
X32661936Y-83090666D01*
X32606751Y-83257203D01*
X32606751Y-83257204D01*
X32606750Y-83257204D01*
X32596250Y-83359983D01*
X32596250Y-84660001D01*
X32596251Y-84660018D01*
X32606750Y-84762796D01*
X32606751Y-84762799D01*
X32623106Y-84812154D01*
X32661936Y-84929334D01*
X32754038Y-85078656D01*
X32878094Y-85202712D01*
X33027416Y-85294814D01*
X33193953Y-85349999D01*
X33296741Y-85360500D01*
X34846758Y-85360499D01*
X34949547Y-85349999D01*
X35116084Y-85294814D01*
X35265406Y-85202712D01*
X35311299Y-85156819D01*
X35372622Y-85123334D01*
X35398980Y-85120500D01*
X42559520Y-85120500D01*
X42626559Y-85140185D01*
X42647201Y-85156819D01*
X42693094Y-85202712D01*
X42842416Y-85294814D01*
X43008953Y-85349999D01*
X43111741Y-85360500D01*
X44661758Y-85360499D01*
X44764547Y-85349999D01*
X44931084Y-85294814D01*
X45080406Y-85202712D01*
X45126299Y-85156819D01*
X45187622Y-85123334D01*
X45213980Y-85120500D01*
X52374520Y-85120500D01*
X52441559Y-85140185D01*
X52462201Y-85156819D01*
X52508094Y-85202712D01*
X52657416Y-85294814D01*
X52823953Y-85349999D01*
X52926741Y-85360500D01*
X54476758Y-85360499D01*
X54579547Y-85349999D01*
X54746084Y-85294814D01*
X54895406Y-85202712D01*
X55019462Y-85078656D01*
X55111564Y-84929334D01*
X55166749Y-84762797D01*
X55177250Y-84660009D01*
X55177249Y-83359992D01*
X55166749Y-83257203D01*
X55111564Y-83090666D01*
X55019462Y-82941344D01*
X54895406Y-82817288D01*
X54746084Y-82725186D01*
X54746083Y-82725185D01*
X54740628Y-82721821D01*
X54693904Y-82669873D01*
X54682681Y-82600910D01*
X54710525Y-82536828D01*
X54718022Y-82528623D01*
X54856854Y-82389792D01*
X54881628Y-82355694D01*
X54981798Y-82217820D01*
X54981797Y-82217820D01*
X54981801Y-82217816D01*
X55078307Y-82028412D01*
X55143996Y-81826243D01*
X55177250Y-81616287D01*
X55177250Y-81403713D01*
X55143996Y-81193757D01*
X55078307Y-80991588D01*
X54981801Y-80802184D01*
X54981799Y-80802181D01*
X54981798Y-80802179D01*
X54856859Y-80630213D01*
X54706536Y-80479890D01*
X54534570Y-80354951D01*
X54345164Y-80258444D01*
X54345163Y-80258443D01*
X54345162Y-80258443D01*
X54142993Y-80192754D01*
X54142991Y-80192753D01*
X54142990Y-80192753D01*
X53981707Y-80167208D01*
X53933037Y-80159500D01*
X53470463Y-80159500D01*
X53421792Y-80167208D01*
X53260510Y-80192753D01*
X53058335Y-80258444D01*
X52868929Y-80354951D01*
X52696963Y-80479890D01*
X52546640Y-80630213D01*
X52421701Y-80802179D01*
X52325194Y-80991585D01*
X52259503Y-81193760D01*
X52234678Y-81350500D01*
X52226250Y-81403713D01*
X52226250Y-81616287D01*
X52236284Y-81679644D01*
X52247683Y-81751612D01*
X52259504Y-81826243D01*
X52302260Y-81957833D01*
X52325194Y-82028414D01*
X52421701Y-82217820D01*
X52546640Y-82389786D01*
X52685455Y-82528601D01*
X52718940Y-82589924D01*
X52713956Y-82659616D01*
X52672084Y-82715549D01*
X52662871Y-82721821D01*
X52508092Y-82817289D01*
X52442201Y-82883181D01*
X52380878Y-82916666D01*
X52354520Y-82919500D01*
X45233980Y-82919500D01*
X45166941Y-82899815D01*
X45146299Y-82883181D01*
X45080407Y-82817289D01*
X45080406Y-82817288D01*
X44931084Y-82725186D01*
X44931083Y-82725185D01*
X44925628Y-82721821D01*
X44878904Y-82669873D01*
X44867681Y-82600910D01*
X44895525Y-82536828D01*
X44903022Y-82528623D01*
X45041854Y-82389792D01*
X45066628Y-82355694D01*
X45166798Y-82217820D01*
X45166797Y-82217820D01*
X45166801Y-82217816D01*
X45263307Y-82028412D01*
X45328996Y-81826243D01*
X45362250Y-81616287D01*
X45362250Y-81403713D01*
X45328996Y-81193757D01*
X45263307Y-80991588D01*
X45166801Y-80802184D01*
X45166799Y-80802181D01*
X45166798Y-80802179D01*
X45041859Y-80630213D01*
X44891536Y-80479890D01*
X44719570Y-80354951D01*
X44530164Y-80258444D01*
X44530163Y-80258443D01*
X44530162Y-80258443D01*
X44327993Y-80192754D01*
X44327991Y-80192753D01*
X44327990Y-80192753D01*
X44166707Y-80167208D01*
X44118037Y-80159500D01*
X43655463Y-80159500D01*
X43606792Y-80167208D01*
X43445510Y-80192753D01*
X43243335Y-80258444D01*
X43053929Y-80354951D01*
X42881963Y-80479890D01*
X42731640Y-80630213D01*
X42606701Y-80802179D01*
X42510194Y-80991585D01*
X42444503Y-81193760D01*
X42419678Y-81350500D01*
X42411250Y-81403713D01*
X42411250Y-81616287D01*
X42421284Y-81679644D01*
X42432683Y-81751612D01*
X42444504Y-81826243D01*
X42487260Y-81957833D01*
X42510194Y-82028414D01*
X42606701Y-82217820D01*
X42731640Y-82389786D01*
X42870455Y-82528601D01*
X42903940Y-82589924D01*
X42898956Y-82659616D01*
X42857084Y-82715549D01*
X42847871Y-82721821D01*
X42693092Y-82817289D01*
X42627201Y-82883181D01*
X42565878Y-82916666D01*
X42539520Y-82919500D01*
X35418980Y-82919500D01*
X35351941Y-82899815D01*
X35331299Y-82883181D01*
X35265407Y-82817289D01*
X35265406Y-82817288D01*
X35116084Y-82725186D01*
X35116083Y-82725185D01*
X35110628Y-82721821D01*
X35063904Y-82669873D01*
X35052681Y-82600910D01*
X35080525Y-82536828D01*
X35088022Y-82528623D01*
X35226854Y-82389792D01*
X35251628Y-82355694D01*
X35351798Y-82217820D01*
X35351797Y-82217820D01*
X35351801Y-82217816D01*
X35448307Y-82028412D01*
X35513996Y-81826243D01*
X35547250Y-81616287D01*
X35547250Y-81403713D01*
X35513996Y-81193757D01*
X35448307Y-80991588D01*
X35351801Y-80802184D01*
X35351799Y-80802181D01*
X35351798Y-80802179D01*
X35226859Y-80630213D01*
X35076536Y-80479890D01*
X34904570Y-80354951D01*
X34715164Y-80258444D01*
X34715163Y-80258443D01*
X34715162Y-80258443D01*
X34512993Y-80192754D01*
X34512991Y-80192753D01*
X34512990Y-80192753D01*
X34351707Y-80167208D01*
X34303037Y-80159500D01*
X33840463Y-80159500D01*
X33791792Y-80167208D01*
X33630510Y-80192753D01*
X33428335Y-80258444D01*
X33238929Y-80354951D01*
X33066963Y-80479890D01*
X32916640Y-80630213D01*
X32791701Y-80802179D01*
X32695194Y-80991585D01*
X32629503Y-81193760D01*
X32604678Y-81350500D01*
X32596250Y-81403713D01*
X22740500Y-81403713D01*
X22740500Y-65857857D01*
X26699500Y-65857857D01*
X26699500Y-66182143D01*
X26709054Y-66279152D01*
X26731284Y-66504857D01*
X26731287Y-66504874D01*
X26794545Y-66822902D01*
X26794548Y-66822913D01*
X26794550Y-66822922D01*
X26794551Y-66822923D01*
X26795238Y-66825187D01*
X26888686Y-67133247D01*
X26921633Y-67212787D01*
X27009417Y-67424717D01*
X27012786Y-67432849D01*
X27012788Y-67432854D01*
X27165646Y-67718830D01*
X27165657Y-67718848D01*
X27345811Y-67988467D01*
X27345821Y-67988481D01*
X27551546Y-68239158D01*
X27780841Y-68468453D01*
X27780846Y-68468457D01*
X27780847Y-68468458D01*
X28031524Y-68674183D01*
X28301158Y-68854347D01*
X28301167Y-68854352D01*
X28301169Y-68854353D01*
X28587145Y-69007211D01*
X28587147Y-69007211D01*
X28587153Y-69007215D01*
X28886754Y-69131314D01*
X29197077Y-69225449D01*
X29197083Y-69225450D01*
X29197086Y-69225451D01*
X29197097Y-69225454D01*
X29396528Y-69265122D01*
X29515132Y-69288714D01*
X29837857Y-69320500D01*
X29837860Y-69320500D01*
X30162140Y-69320500D01*
X30162143Y-69320500D01*
X30484868Y-69288714D01*
X30642295Y-69257399D01*
X30802902Y-69225454D01*
X30802913Y-69225451D01*
X30802913Y-69225450D01*
X30802923Y-69225449D01*
X31113246Y-69131314D01*
X31412847Y-69007215D01*
X31698842Y-68854347D01*
X31968476Y-68674183D01*
X32219153Y-68468458D01*
X32448458Y-68239153D01*
X32654183Y-67988476D01*
X32834347Y-67718842D01*
X32987215Y-67432847D01*
X33111314Y-67133246D01*
X33205449Y-66822923D01*
X33205451Y-66822913D01*
X33205454Y-66822902D01*
X33256076Y-66568402D01*
X33268714Y-66504868D01*
X33300500Y-66182143D01*
X33300500Y-65857857D01*
X33268714Y-65535132D01*
X33245122Y-65416528D01*
X33205454Y-65217097D01*
X33205451Y-65217086D01*
X33205450Y-65217083D01*
X33205449Y-65217077D01*
X33111314Y-64906754D01*
X32987215Y-64607153D01*
X32970044Y-64575029D01*
X32834353Y-64321169D01*
X32834352Y-64321167D01*
X32834347Y-64321158D01*
X32654183Y-64051524D01*
X32448458Y-63800847D01*
X32448457Y-63800846D01*
X32448453Y-63800841D01*
X32219158Y-63571546D01*
X31968481Y-63365821D01*
X31968480Y-63365820D01*
X31968476Y-63365817D01*
X31698842Y-63185653D01*
X31698837Y-63185650D01*
X31698830Y-63185646D01*
X31412854Y-63032788D01*
X31412849Y-63032786D01*
X31402289Y-63028412D01*
X31325098Y-62996438D01*
X31113247Y-62908686D01*
X30802913Y-62814548D01*
X30802902Y-62814545D01*
X30484874Y-62751287D01*
X30484857Y-62751284D01*
X30240812Y-62727248D01*
X30162143Y-62719500D01*
X29837857Y-62719500D01*
X29765099Y-62726666D01*
X29515142Y-62751284D01*
X29515125Y-62751287D01*
X29197097Y-62814545D01*
X29197086Y-62814548D01*
X28886752Y-62908686D01*
X28587150Y-63032786D01*
X28587145Y-63032788D01*
X28301169Y-63185646D01*
X28301151Y-63185657D01*
X28031532Y-63365811D01*
X28031518Y-63365821D01*
X27780841Y-63571546D01*
X27551546Y-63800841D01*
X27345821Y-64051518D01*
X27345811Y-64051532D01*
X27165657Y-64321151D01*
X27165646Y-64321169D01*
X27012788Y-64607145D01*
X27012786Y-64607150D01*
X26888686Y-64906752D01*
X26794548Y-65217086D01*
X26794545Y-65217097D01*
X26731287Y-65535125D01*
X26731284Y-65535142D01*
X26706666Y-65785099D01*
X26699500Y-65857857D01*
X22740500Y-65857857D01*
X22740500Y-54768713D01*
X48841250Y-54768713D01*
X48841250Y-55231286D01*
X48874503Y-55441239D01*
X48940194Y-55643414D01*
X49036701Y-55832820D01*
X49161640Y-56004786D01*
X49311963Y-56155109D01*
X49483929Y-56280048D01*
X49483931Y-56280049D01*
X49483934Y-56280051D01*
X49673338Y-56376557D01*
X49875507Y-56442246D01*
X50085463Y-56475500D01*
X50085464Y-56475500D01*
X50298036Y-56475500D01*
X50298037Y-56475500D01*
X50507993Y-56442246D01*
X50710162Y-56376557D01*
X50899566Y-56280051D01*
X50960531Y-56235758D01*
X51071536Y-56155109D01*
X51071538Y-56155106D01*
X51071542Y-56155104D01*
X51221854Y-56004792D01*
X51221856Y-56004788D01*
X51221859Y-56004786D01*
X51346798Y-55832820D01*
X51346797Y-55832820D01*
X51346801Y-55832816D01*
X51443307Y-55643412D01*
X51508996Y-55441243D01*
X51542250Y-55231287D01*
X51542250Y-54768713D01*
X51508996Y-54558757D01*
X51448318Y-54372012D01*
X51442250Y-54333696D01*
X51442250Y-51427586D01*
X51461935Y-51360547D01*
X51478569Y-51339905D01*
X54744825Y-48073649D01*
X58055579Y-44762896D01*
X58171274Y-44603655D01*
X58260634Y-44428276D01*
X58321459Y-44241076D01*
X58340556Y-44120500D01*
X58352250Y-44046667D01*
X58352250Y-41720132D01*
X58370710Y-41655036D01*
X58386564Y-41629334D01*
X58441749Y-41462797D01*
X58452250Y-41360009D01*
X58452249Y-39759992D01*
X58445120Y-39690208D01*
X58441749Y-39657203D01*
X58441748Y-39657200D01*
X58413365Y-39571546D01*
X58386564Y-39490666D01*
X58294462Y-39341344D01*
X58170406Y-39217288D01*
X58042924Y-39138657D01*
X58021086Y-39125187D01*
X58021081Y-39125185D01*
X58019612Y-39124698D01*
X57854547Y-39070001D01*
X57854545Y-39070000D01*
X57751760Y-39059500D01*
X56451748Y-39059500D01*
X56451731Y-39059501D01*
X56348953Y-39070000D01*
X56348950Y-39070001D01*
X56182418Y-39125185D01*
X56182413Y-39125187D01*
X56033092Y-39217289D01*
X55909039Y-39341342D01*
X55816937Y-39490663D01*
X55816935Y-39490668D01*
X55796811Y-39551398D01*
X55761751Y-39657203D01*
X55761751Y-39657204D01*
X55761750Y-39657204D01*
X55751250Y-39759983D01*
X55751250Y-41360001D01*
X55751251Y-41360018D01*
X55761750Y-41462796D01*
X55761751Y-41462799D01*
X55807250Y-41600103D01*
X55816936Y-41629334D01*
X55832789Y-41655036D01*
X55851250Y-41720132D01*
X55851250Y-43378913D01*
X55831565Y-43445952D01*
X55814931Y-43466594D01*
X49237924Y-50043601D01*
X49237922Y-50043604D01*
X49193901Y-50104194D01*
X49122226Y-50202844D01*
X49032419Y-50379101D01*
X49031358Y-50382862D01*
X48972041Y-50565419D01*
X48972041Y-50565422D01*
X48941250Y-50759827D01*
X48941250Y-54333696D01*
X48935181Y-54372014D01*
X48874503Y-54558760D01*
X48841250Y-54768713D01*
X22740500Y-54768713D01*
X22740500Y-51428549D01*
X39421250Y-51428549D01*
X39421250Y-51651450D01*
X39421251Y-51651466D01*
X39450344Y-51872452D01*
X39450345Y-51872457D01*
X39450346Y-51872463D01*
X39508040Y-52087780D01*
X39508043Y-52087790D01*
X39593343Y-52293722D01*
X39593345Y-52293726D01*
X39704802Y-52486774D01*
X39704807Y-52486780D01*
X39704808Y-52486782D01*
X39840501Y-52663622D01*
X39840507Y-52663629D01*
X39998120Y-52821242D01*
X39998126Y-52821247D01*
X40174976Y-52956948D01*
X40368024Y-53068405D01*
X40573969Y-53153710D01*
X40789287Y-53211404D01*
X41010293Y-53240500D01*
X41010300Y-53240500D01*
X41233200Y-53240500D01*
X41233207Y-53240500D01*
X41454213Y-53211404D01*
X41669531Y-53153710D01*
X41875476Y-53068405D01*
X42068524Y-52956948D01*
X42245374Y-52821247D01*
X42402997Y-52663624D01*
X42538698Y-52486774D01*
X42650155Y-52293726D01*
X42735460Y-52087781D01*
X42793154Y-51872463D01*
X42822250Y-51651457D01*
X42822250Y-51428543D01*
X42793154Y-51207537D01*
X42735460Y-50992219D01*
X42650155Y-50786274D01*
X42538698Y-50593226D01*
X42439320Y-50463713D01*
X42402998Y-50416377D01*
X42402992Y-50416370D01*
X42245379Y-50258757D01*
X42245372Y-50258751D01*
X42068532Y-50123058D01*
X42068530Y-50123057D01*
X42068524Y-50123052D01*
X41875476Y-50011595D01*
X41875472Y-50011593D01*
X41669540Y-49926293D01*
X41669533Y-49926291D01*
X41669531Y-49926290D01*
X41454213Y-49868596D01*
X41454207Y-49868595D01*
X41454202Y-49868594D01*
X41233216Y-49839501D01*
X41233213Y-49839500D01*
X41233207Y-49839500D01*
X41010293Y-49839500D01*
X41010287Y-49839500D01*
X41010283Y-49839501D01*
X40789297Y-49868594D01*
X40789290Y-49868595D01*
X40789287Y-49868596D01*
X40595466Y-49920530D01*
X40573969Y-49926290D01*
X40573959Y-49926293D01*
X40368027Y-50011593D01*
X40368023Y-50011595D01*
X40174976Y-50123052D01*
X40174967Y-50123058D01*
X39998127Y-50258751D01*
X39998120Y-50258757D01*
X39840507Y-50416370D01*
X39840501Y-50416377D01*
X39704808Y-50593217D01*
X39704802Y-50593226D01*
X39593345Y-50786273D01*
X39593343Y-50786277D01*
X39508043Y-50992209D01*
X39508040Y-50992219D01*
X39460595Y-51169289D01*
X39450347Y-51207534D01*
X39450344Y-51207547D01*
X39421251Y-51428533D01*
X39421250Y-51428549D01*
X22740500Y-51428549D01*
X22740500Y-41857857D01*
X26699500Y-41857857D01*
X26699500Y-42182143D01*
X26700874Y-42196092D01*
X26731284Y-42504857D01*
X26731287Y-42504874D01*
X26794545Y-42822902D01*
X26794548Y-42822913D01*
X26888686Y-43133247D01*
X27012786Y-43432849D01*
X27012788Y-43432854D01*
X27165646Y-43718830D01*
X27165657Y-43718848D01*
X27345811Y-43988467D01*
X27345821Y-43988481D01*
X27551546Y-44239158D01*
X27780841Y-44468453D01*
X27780846Y-44468457D01*
X27780847Y-44468458D01*
X28031524Y-44674183D01*
X28301158Y-44854347D01*
X28301167Y-44854352D01*
X28301169Y-44854353D01*
X28587145Y-45007211D01*
X28587147Y-45007211D01*
X28587153Y-45007215D01*
X28886754Y-45131314D01*
X29197077Y-45225449D01*
X29197083Y-45225450D01*
X29197086Y-45225451D01*
X29197097Y-45225454D01*
X29396528Y-45265122D01*
X29515132Y-45288714D01*
X29837857Y-45320500D01*
X29837860Y-45320500D01*
X30162140Y-45320500D01*
X30162143Y-45320500D01*
X30484868Y-45288714D01*
X30660609Y-45253757D01*
X30802902Y-45225454D01*
X30802913Y-45225451D01*
X30802913Y-45225450D01*
X30802923Y-45225449D01*
X31113246Y-45131314D01*
X31412847Y-45007215D01*
X31698842Y-44854347D01*
X31968476Y-44674183D01*
X32219153Y-44468458D01*
X32448458Y-44239153D01*
X32654183Y-43988476D01*
X32834347Y-43718842D01*
X32987215Y-43432847D01*
X33111314Y-43133246D01*
X33191236Y-42869778D01*
X39681250Y-42869778D01*
X39681250Y-43090221D01*
X39715735Y-43307952D01*
X39783853Y-43517603D01*
X39783854Y-43517606D01*
X39883937Y-43714025D01*
X40013502Y-43892358D01*
X40013506Y-43892363D01*
X40169386Y-44048243D01*
X40169391Y-44048247D01*
X40324942Y-44161260D01*
X40347728Y-44177815D01*
X40471883Y-44241076D01*
X40544143Y-44277895D01*
X40544146Y-44277896D01*
X40648971Y-44311955D01*
X40753799Y-44346015D01*
X40971528Y-44380500D01*
X40971529Y-44380500D01*
X41191971Y-44380500D01*
X41191972Y-44380500D01*
X41409701Y-44346015D01*
X41619356Y-44277895D01*
X41815772Y-44177815D01*
X41994115Y-44048242D01*
X42149992Y-43892365D01*
X42279565Y-43714022D01*
X42379645Y-43517606D01*
X42447765Y-43307951D01*
X42482250Y-43090222D01*
X42482250Y-42869778D01*
X42447765Y-42652049D01*
X42379645Y-42442394D01*
X42379645Y-42442393D01*
X42344987Y-42374375D01*
X42279565Y-42245978D01*
X42243317Y-42196086D01*
X42149997Y-42067641D01*
X42149993Y-42067636D01*
X41994113Y-41911756D01*
X41994108Y-41911752D01*
X41815775Y-41782187D01*
X41815774Y-41782186D01*
X41815772Y-41782185D01*
X41752846Y-41750122D01*
X41619356Y-41682104D01*
X41619353Y-41682103D01*
X41409702Y-41613985D01*
X41300836Y-41596742D01*
X41191972Y-41579500D01*
X40971528Y-41579500D01*
X40898951Y-41590995D01*
X40753797Y-41613985D01*
X40544146Y-41682103D01*
X40544143Y-41682104D01*
X40347724Y-41782187D01*
X40169391Y-41911752D01*
X40169386Y-41911756D01*
X40013506Y-42067636D01*
X40013502Y-42067641D01*
X39883937Y-42245974D01*
X39783854Y-42442393D01*
X39783853Y-42442396D01*
X39715735Y-42652047D01*
X39681250Y-42869778D01*
X33191236Y-42869778D01*
X33205449Y-42822923D01*
X33205451Y-42822910D01*
X33205454Y-42822902D01*
X33255468Y-42571459D01*
X33268714Y-42504868D01*
X33300500Y-42182143D01*
X33300500Y-41857857D01*
X33268714Y-41535132D01*
X33233882Y-41360018D01*
X33205454Y-41217097D01*
X33205451Y-41217086D01*
X33205450Y-41217083D01*
X33205449Y-41217077D01*
X33111314Y-40906754D01*
X32987215Y-40607153D01*
X32910544Y-40463713D01*
X32834353Y-40321169D01*
X32834352Y-40321167D01*
X32834347Y-40321158D01*
X32654183Y-40051524D01*
X32448458Y-39800847D01*
X32448457Y-39800846D01*
X32448453Y-39800841D01*
X32219158Y-39571546D01*
X31968481Y-39365821D01*
X31968480Y-39365820D01*
X31968476Y-39365817D01*
X31698842Y-39185653D01*
X31698837Y-39185650D01*
X31698830Y-39185646D01*
X31412854Y-39032788D01*
X31412849Y-39032786D01*
X31113247Y-38908686D01*
X30802913Y-38814548D01*
X30802902Y-38814545D01*
X30484874Y-38751287D01*
X30484857Y-38751284D01*
X30240812Y-38727248D01*
X30162143Y-38719500D01*
X29837857Y-38719500D01*
X29765099Y-38726666D01*
X29515142Y-38751284D01*
X29515125Y-38751287D01*
X29197097Y-38814545D01*
X29197086Y-38814548D01*
X28886752Y-38908686D01*
X28587150Y-39032786D01*
X28587145Y-39032788D01*
X28301169Y-39185646D01*
X28301151Y-39185657D01*
X28031532Y-39365811D01*
X28031518Y-39365821D01*
X27780841Y-39571546D01*
X27551546Y-39800841D01*
X27345821Y-40051518D01*
X27345811Y-40051532D01*
X27165657Y-40321151D01*
X27165646Y-40321169D01*
X27012788Y-40607145D01*
X27012786Y-40607150D01*
X26888686Y-40906752D01*
X26794548Y-41217086D01*
X26794545Y-41217097D01*
X26731287Y-41535125D01*
X26731284Y-41535142D01*
X26719476Y-41655035D01*
X26699500Y-41857857D01*
X22740500Y-41857857D01*
X22740500Y-33524500D01*
X22760185Y-33457461D01*
X22812989Y-33411706D01*
X22864500Y-33400500D01*
X118077250Y-33400500D01*
X118144289Y-33420185D01*
G37*
%TD.AperFunction*%
%TA.AperFunction,Conductor*%
G36*
X69878977Y-68585389D02*
G01*
X69891558Y-68584850D01*
X69911423Y-68596445D01*
X69933195Y-68603865D01*
X69942469Y-68614568D01*
X69951900Y-68620073D01*
X69972233Y-68648916D01*
X70011339Y-68725666D01*
X70019465Y-68741614D01*
X70139778Y-68907213D01*
X70284536Y-69051971D01*
X70439499Y-69164556D01*
X70450140Y-69172287D01*
X70554476Y-69225449D01*
X70632526Y-69265218D01*
X70632528Y-69265218D01*
X70632531Y-69265220D01*
X70721581Y-69294154D01*
X70827215Y-69328477D01*
X70922786Y-69343614D01*
X71029398Y-69360500D01*
X71178099Y-69360500D01*
X71245138Y-69380185D01*
X71265780Y-69396819D01*
X72774931Y-70905969D01*
X72789634Y-70932896D01*
X72806227Y-70958715D01*
X72807118Y-70964915D01*
X72808416Y-70967292D01*
X72811250Y-70993650D01*
X72811250Y-71040701D01*
X72791565Y-71107740D01*
X72774931Y-71128382D01*
X72632454Y-71270858D01*
X72501932Y-71457265D01*
X72501931Y-71457267D01*
X72405761Y-71663502D01*
X72405758Y-71663511D01*
X72346866Y-71883302D01*
X72346864Y-71883312D01*
X72339152Y-71971466D01*
X72332000Y-72053216D01*
X72332000Y-73607648D01*
X72332000Y-73812352D01*
X72340906Y-73868582D01*
X72346865Y-73936692D01*
X72358671Y-73980756D01*
X72359688Y-73987175D01*
X72359690Y-73987181D01*
X72364021Y-74014525D01*
X72364022Y-74014530D01*
X72384117Y-74076378D01*
X72385960Y-74082600D01*
X72405760Y-74156494D01*
X72417029Y-74180662D01*
X72420233Y-74187532D01*
X72427280Y-74209219D01*
X72463430Y-74280169D01*
X72464344Y-74282128D01*
X72501932Y-74362734D01*
X72510062Y-74374346D01*
X72515035Y-74381448D01*
X72520213Y-74391610D01*
X72573664Y-74465180D01*
X72574293Y-74466078D01*
X72632453Y-74549140D01*
X72793358Y-74710045D01*
X72876420Y-74768205D01*
X72878143Y-74769433D01*
X72930912Y-74807772D01*
X72973577Y-74863102D01*
X72979556Y-74932715D01*
X72946950Y-74994510D01*
X72886111Y-75028868D01*
X72858111Y-75032090D01*
X69323715Y-75034519D01*
X69256662Y-75014880D01*
X69210871Y-74962108D01*
X69200880Y-74892956D01*
X69229861Y-74829381D01*
X69250740Y-74810203D01*
X69306879Y-74769416D01*
X69308546Y-74768227D01*
X69391639Y-74710047D01*
X69552547Y-74549139D01*
X69611321Y-74465199D01*
X69664787Y-74391610D01*
X69669965Y-74381446D01*
X69683068Y-74362734D01*
X69721567Y-74280172D01*
X69757720Y-74209219D01*
X69764766Y-74187532D01*
X69779239Y-74156496D01*
X69799877Y-74079471D01*
X69820977Y-74014534D01*
X69826325Y-73980766D01*
X69838135Y-73936692D01*
X69843715Y-73872892D01*
X69844770Y-73864306D01*
X69849651Y-73833496D01*
X69853000Y-73812352D01*
X69853000Y-73607648D01*
X69853000Y-72053216D01*
X69838135Y-71883308D01*
X69779239Y-71663504D01*
X69683068Y-71457266D01*
X69552547Y-71270861D01*
X69552545Y-71270858D01*
X69478569Y-71196882D01*
X69445084Y-71135559D01*
X69442250Y-71109201D01*
X69442250Y-69100047D01*
X69461935Y-69033008D01*
X69478569Y-69012366D01*
X69522753Y-68968182D01*
X69583716Y-68907219D01*
X69583718Y-68907215D01*
X69583721Y-68907213D01*
X69689787Y-68761224D01*
X69704037Y-68741610D01*
X69751266Y-68648917D01*
X69759911Y-68639764D01*
X69764646Y-68628099D01*
X69783443Y-68614847D01*
X69799239Y-68598123D01*
X69811461Y-68595096D01*
X69821752Y-68587842D01*
X69844732Y-68586856D01*
X69867060Y-68581328D01*
X69878977Y-68585389D01*
G37*
%TD.AperFunction*%
%TA.AperFunction,Conductor*%
G36*
X82558026Y-71352813D02*
G01*
X82560766Y-71352792D01*
X82585234Y-71362687D01*
X82587134Y-71363702D01*
X82587137Y-71363704D01*
X82686073Y-71404684D01*
X82741918Y-71427816D01*
X82903448Y-71459946D01*
X82906228Y-71460499D01*
X82906232Y-71460500D01*
X82906233Y-71460500D01*
X84196349Y-71460500D01*
X84263388Y-71480185D01*
X84284030Y-71496819D01*
X84995681Y-72208470D01*
X85029166Y-72269793D01*
X85032000Y-72296151D01*
X85032000Y-73607648D01*
X85032000Y-73812352D01*
X85040906Y-73868582D01*
X85046865Y-73936692D01*
X85058671Y-73980756D01*
X85059688Y-73987175D01*
X85059690Y-73987181D01*
X85064021Y-74014525D01*
X85064022Y-74014530D01*
X85084117Y-74076378D01*
X85085960Y-74082600D01*
X85105760Y-74156494D01*
X85117029Y-74180662D01*
X85120233Y-74187532D01*
X85127280Y-74209219D01*
X85163430Y-74280169D01*
X85164344Y-74282128D01*
X85201932Y-74362734D01*
X85210062Y-74374346D01*
X85215035Y-74381448D01*
X85220213Y-74391610D01*
X85273664Y-74465180D01*
X85274293Y-74466078D01*
X85332453Y-74549140D01*
X85493358Y-74710045D01*
X85576420Y-74768205D01*
X85578182Y-74769462D01*
X85618908Y-74799051D01*
X85661574Y-74854381D01*
X85667553Y-74923994D01*
X85634948Y-74985789D01*
X85574109Y-75020146D01*
X85546108Y-75023369D01*
X82035741Y-75025782D01*
X81968688Y-75006143D01*
X81922897Y-74953371D01*
X81912906Y-74884219D01*
X81941887Y-74820644D01*
X81962769Y-74801465D01*
X81984416Y-74785737D01*
X82006858Y-74769432D01*
X82008547Y-74768227D01*
X82091639Y-74710047D01*
X82252547Y-74549139D01*
X82311321Y-74465199D01*
X82364787Y-74391610D01*
X82369965Y-74381446D01*
X82383068Y-74362734D01*
X82421567Y-74280172D01*
X82457720Y-74209219D01*
X82464766Y-74187532D01*
X82479239Y-74156496D01*
X82499877Y-74079471D01*
X82520977Y-74014534D01*
X82526325Y-73980766D01*
X82538135Y-73936692D01*
X82543715Y-73872892D01*
X82544770Y-73864306D01*
X82549651Y-73833496D01*
X82553000Y-73812352D01*
X82553000Y-73607648D01*
X82553000Y-72053216D01*
X82538135Y-71883308D01*
X82479239Y-71663504D01*
X82414394Y-71524445D01*
X82409795Y-71494164D01*
X82403019Y-71464297D01*
X82404597Y-71459946D01*
X82403903Y-71455371D01*
X82416404Y-71427411D01*
X82426853Y-71398618D01*
X82430533Y-71395811D01*
X82432422Y-71391587D01*
X82458053Y-71374825D01*
X82482412Y-71356251D01*
X82487025Y-71355879D01*
X82490899Y-71353347D01*
X82521525Y-71353103D01*
X82552056Y-71350647D01*
X82558026Y-71352813D01*
G37*
%TD.AperFunction*%
%TA.AperFunction,Conductor*%
G36*
X95268977Y-68585389D02*
G01*
X95281558Y-68584850D01*
X95301423Y-68596445D01*
X95323195Y-68603865D01*
X95332469Y-68614568D01*
X95341900Y-68620073D01*
X95362233Y-68648916D01*
X95401339Y-68725666D01*
X95409465Y-68741614D01*
X95529778Y-68907213D01*
X95674536Y-69051971D01*
X95829499Y-69164556D01*
X95840140Y-69172287D01*
X95944476Y-69225449D01*
X96022526Y-69265218D01*
X96022528Y-69265218D01*
X96022531Y-69265220D01*
X96111581Y-69294154D01*
X96217215Y-69328477D01*
X96312786Y-69343614D01*
X96419398Y-69360500D01*
X96568099Y-69360500D01*
X96635138Y-69380185D01*
X96655780Y-69396819D01*
X98174931Y-70915969D01*
X98189634Y-70942896D01*
X98206227Y-70968715D01*
X98207118Y-70974915D01*
X98208416Y-70977292D01*
X98211250Y-71003650D01*
X98211250Y-71040701D01*
X98191565Y-71107740D01*
X98174931Y-71128382D01*
X98032454Y-71270858D01*
X97901932Y-71457265D01*
X97901931Y-71457267D01*
X97805761Y-71663502D01*
X97805758Y-71663511D01*
X97746866Y-71883302D01*
X97746864Y-71883312D01*
X97739152Y-71971466D01*
X97732000Y-72053216D01*
X97732000Y-73607648D01*
X97732000Y-73812352D01*
X97740906Y-73868582D01*
X97746865Y-73936692D01*
X97758671Y-73980756D01*
X97759688Y-73987175D01*
X97759690Y-73987181D01*
X97764021Y-74014525D01*
X97764022Y-74014530D01*
X97784117Y-74076378D01*
X97785960Y-74082600D01*
X97805760Y-74156494D01*
X97817029Y-74180662D01*
X97820233Y-74187532D01*
X97827280Y-74209219D01*
X97863430Y-74280169D01*
X97864344Y-74282128D01*
X97901932Y-74362734D01*
X97910062Y-74374346D01*
X97915035Y-74381448D01*
X97920213Y-74391610D01*
X97973664Y-74465180D01*
X97974293Y-74466078D01*
X98032453Y-74549140D01*
X98193358Y-74710045D01*
X98276420Y-74768205D01*
X98278153Y-74769441D01*
X98306906Y-74790331D01*
X98349571Y-74845657D01*
X98355552Y-74915270D01*
X98322948Y-74977066D01*
X98262110Y-75011425D01*
X98234106Y-75014648D01*
X94747766Y-75017045D01*
X94680713Y-74997407D01*
X94634922Y-74944634D01*
X94624931Y-74875482D01*
X94653912Y-74811907D01*
X94674795Y-74792728D01*
X94706831Y-74769452D01*
X94708548Y-74768226D01*
X94791639Y-74710047D01*
X94952547Y-74549139D01*
X95011321Y-74465199D01*
X95064787Y-74391610D01*
X95069965Y-74381446D01*
X95083068Y-74362734D01*
X95121567Y-74280172D01*
X95157720Y-74209219D01*
X95164766Y-74187532D01*
X95179239Y-74156496D01*
X95199877Y-74079471D01*
X95220977Y-74014534D01*
X95226325Y-73980766D01*
X95238135Y-73936692D01*
X95243715Y-73872892D01*
X95244770Y-73864306D01*
X95249651Y-73833496D01*
X95253000Y-73812352D01*
X95253000Y-73607648D01*
X95253000Y-72053216D01*
X95238135Y-71883308D01*
X95179239Y-71663504D01*
X95083068Y-71457266D01*
X94952547Y-71270861D01*
X94952545Y-71270858D01*
X94868569Y-71186882D01*
X94835084Y-71125559D01*
X94832250Y-71099201D01*
X94832250Y-69100047D01*
X94851935Y-69033008D01*
X94868569Y-69012366D01*
X94912753Y-68968182D01*
X94973716Y-68907219D01*
X94973718Y-68907215D01*
X94973721Y-68907213D01*
X95079787Y-68761224D01*
X95094037Y-68741610D01*
X95141266Y-68648917D01*
X95149911Y-68639764D01*
X95154646Y-68628099D01*
X95173443Y-68614847D01*
X95189239Y-68598123D01*
X95201461Y-68595096D01*
X95211752Y-68587842D01*
X95234732Y-68586856D01*
X95257060Y-68581328D01*
X95268977Y-68585389D01*
G37*
%TD.AperFunction*%
%TA.AperFunction,Conductor*%
G36*
X107127530Y-69294154D02*
G01*
X107158323Y-69293275D01*
X107162326Y-69295573D01*
X107166555Y-69295746D01*
X107184221Y-69308145D01*
X107214481Y-69325520D01*
X110395681Y-72506720D01*
X110429166Y-72568043D01*
X110432000Y-72594401D01*
X110432000Y-73607648D01*
X110432000Y-73812352D01*
X110440906Y-73868582D01*
X110446865Y-73936692D01*
X110458671Y-73980756D01*
X110459688Y-73987175D01*
X110459690Y-73987181D01*
X110464021Y-74014525D01*
X110464022Y-74014530D01*
X110484117Y-74076378D01*
X110485960Y-74082600D01*
X110505760Y-74156494D01*
X110517029Y-74180662D01*
X110520233Y-74187532D01*
X110527280Y-74209219D01*
X110563430Y-74280169D01*
X110564344Y-74282128D01*
X110601932Y-74362734D01*
X110610062Y-74374346D01*
X110615035Y-74381448D01*
X110620213Y-74391610D01*
X110673664Y-74465180D01*
X110674293Y-74466078D01*
X110732453Y-74549140D01*
X110893358Y-74710045D01*
X110976420Y-74768205D01*
X110978153Y-74769441D01*
X110994902Y-74781609D01*
X111037568Y-74836938D01*
X111043549Y-74906551D01*
X111010944Y-74968346D01*
X110950106Y-75002705D01*
X110922103Y-75005928D01*
X107459791Y-75008308D01*
X107392738Y-74988669D01*
X107346947Y-74935897D01*
X107336956Y-74866745D01*
X107365937Y-74803170D01*
X107386816Y-74783992D01*
X107406879Y-74769416D01*
X107408546Y-74768227D01*
X107491639Y-74710047D01*
X107652547Y-74549139D01*
X107711321Y-74465199D01*
X107764787Y-74391610D01*
X107769965Y-74381446D01*
X107783068Y-74362734D01*
X107821567Y-74280172D01*
X107857720Y-74209219D01*
X107864766Y-74187532D01*
X107879239Y-74156496D01*
X107899877Y-74079471D01*
X107920977Y-74014534D01*
X107926325Y-73980766D01*
X107938135Y-73936692D01*
X107943715Y-73872892D01*
X107944770Y-73864306D01*
X107949651Y-73833496D01*
X107953000Y-73812352D01*
X107953000Y-73607648D01*
X107953000Y-72053216D01*
X107938135Y-71883308D01*
X107879239Y-71663504D01*
X107783068Y-71457266D01*
X107652547Y-71270861D01*
X107652545Y-71270858D01*
X107568569Y-71186882D01*
X107535084Y-71125559D01*
X107532250Y-71099201D01*
X107532250Y-70516232D01*
X107532249Y-70516228D01*
X107517695Y-70443058D01*
X107499566Y-70351918D01*
X107435453Y-70197137D01*
X107342376Y-70057838D01*
X107223912Y-69939374D01*
X106836135Y-69551597D01*
X106832714Y-69545332D01*
X106826872Y-69541232D01*
X106816191Y-69515073D01*
X106802650Y-69490274D01*
X106803159Y-69483154D01*
X106800461Y-69476546D01*
X106805618Y-69448768D01*
X106807634Y-69420582D01*
X106811912Y-69414866D01*
X106813215Y-69407851D01*
X106832572Y-69387269D01*
X106849506Y-69364649D01*
X106857356Y-69360917D01*
X106861083Y-69356955D01*
X106879748Y-69350273D01*
X106893759Y-69343614D01*
X106899031Y-69342296D01*
X106986284Y-69328477D01*
X107092578Y-69293939D01*
X107096743Y-69292899D01*
X107127530Y-69294154D01*
G37*
%TD.AperFunction*%
%TD*%
M02*
