%TF.GenerationSoftware,KiCad,Pcbnew,9.0.7*%
%TF.CreationDate,2026-08-20T17:34:48+02:00*%
%TF.ProjectId,Robotdriver,526f626f-7464-4726-9976-65722e6b6963,rev?*%
%TF.SameCoordinates,Original*%
%TF.FileFunction,Drillmap*%
%TF.FilePolarity,Positive*%
%FSLAX45Y45*%
G04 Gerber Fmt 4.5, Leading zero omitted, Abs format (unit mm)*
G04 Created by KiCad (PCBNEW 9.0.7) date 2026-08-20 17:34:48*
%MOMM*%
%LPD*%
G01*
G04 APERTURE LIST*
%ADD10C,0.050000*%
%ADD11C,0.200000*%
%ADD12C,0.185000*%
%ADD13C,0.220000*%
G04 APERTURE END LIST*
D10*
X2224000Y-3290000D02*
X11870175Y-3290000D01*
X11870175Y-10101000D01*
X2224000Y-10101000D01*
X2224000Y-3290000D01*
D11*
D12*
X11018750Y-7925000D02*
X11203750Y-8110000D01*
X11203750Y-7925000D02*
X11018750Y-8110000D01*
X11018750Y-8410000D02*
X11203750Y-8595000D01*
X11203750Y-8410000D02*
X11018750Y-8595000D01*
D13*
X11524250Y-7987500D02*
G75*
G02*
X11304250Y-7987500I-110000J0D01*
G01*
X11304250Y-7987500D02*
G75*
G02*
X11524250Y-7987500I110000J0D01*
G01*
X11524250Y-8532500D02*
G75*
G02*
X11304250Y-8532500I-110000J0D01*
G01*
X11304250Y-8532500D02*
G75*
G02*
X11524250Y-8532500I110000J0D01*
G01*
D11*
X2482277Y-10414984D02*
X2482277Y-10214984D01*
X2482277Y-10214984D02*
X2529896Y-10214984D01*
X2529896Y-10214984D02*
X2558467Y-10224508D01*
X2558467Y-10224508D02*
X2577515Y-10243555D01*
X2577515Y-10243555D02*
X2587039Y-10262603D01*
X2587039Y-10262603D02*
X2596563Y-10300698D01*
X2596563Y-10300698D02*
X2596563Y-10329270D01*
X2596563Y-10329270D02*
X2587039Y-10367365D01*
X2587039Y-10367365D02*
X2577515Y-10386412D01*
X2577515Y-10386412D02*
X2558467Y-10405460D01*
X2558467Y-10405460D02*
X2529896Y-10414984D01*
X2529896Y-10414984D02*
X2482277Y-10414984D01*
X2682277Y-10414984D02*
X2682277Y-10281650D01*
X2682277Y-10319746D02*
X2691801Y-10300698D01*
X2691801Y-10300698D02*
X2701324Y-10291174D01*
X2701324Y-10291174D02*
X2720372Y-10281650D01*
X2720372Y-10281650D02*
X2739420Y-10281650D01*
X2806086Y-10414984D02*
X2806086Y-10281650D01*
X2806086Y-10214984D02*
X2796562Y-10224508D01*
X2796562Y-10224508D02*
X2806086Y-10234031D01*
X2806086Y-10234031D02*
X2815610Y-10224508D01*
X2815610Y-10224508D02*
X2806086Y-10214984D01*
X2806086Y-10214984D02*
X2806086Y-10234031D01*
X2929896Y-10414984D02*
X2910848Y-10405460D01*
X2910848Y-10405460D02*
X2901324Y-10386412D01*
X2901324Y-10386412D02*
X2901324Y-10214984D01*
X3034658Y-10414984D02*
X3015610Y-10405460D01*
X3015610Y-10405460D02*
X3006086Y-10386412D01*
X3006086Y-10386412D02*
X3006086Y-10214984D01*
X3263229Y-10414984D02*
X3263229Y-10214984D01*
X3263229Y-10214984D02*
X3329896Y-10357841D01*
X3329896Y-10357841D02*
X3396562Y-10214984D01*
X3396562Y-10214984D02*
X3396562Y-10414984D01*
X3577515Y-10414984D02*
X3577515Y-10310222D01*
X3577515Y-10310222D02*
X3567991Y-10291174D01*
X3567991Y-10291174D02*
X3548943Y-10281650D01*
X3548943Y-10281650D02*
X3510848Y-10281650D01*
X3510848Y-10281650D02*
X3491801Y-10291174D01*
X3577515Y-10405460D02*
X3558467Y-10414984D01*
X3558467Y-10414984D02*
X3510848Y-10414984D01*
X3510848Y-10414984D02*
X3491801Y-10405460D01*
X3491801Y-10405460D02*
X3482277Y-10386412D01*
X3482277Y-10386412D02*
X3482277Y-10367365D01*
X3482277Y-10367365D02*
X3491801Y-10348317D01*
X3491801Y-10348317D02*
X3510848Y-10338793D01*
X3510848Y-10338793D02*
X3558467Y-10338793D01*
X3558467Y-10338793D02*
X3577515Y-10329270D01*
X3672753Y-10281650D02*
X3672753Y-10481650D01*
X3672753Y-10291174D02*
X3691801Y-10281650D01*
X3691801Y-10281650D02*
X3729896Y-10281650D01*
X3729896Y-10281650D02*
X3748943Y-10291174D01*
X3748943Y-10291174D02*
X3758467Y-10300698D01*
X3758467Y-10300698D02*
X3767991Y-10319746D01*
X3767991Y-10319746D02*
X3767991Y-10376889D01*
X3767991Y-10376889D02*
X3758467Y-10395936D01*
X3758467Y-10395936D02*
X3748943Y-10405460D01*
X3748943Y-10405460D02*
X3729896Y-10414984D01*
X3729896Y-10414984D02*
X3691801Y-10414984D01*
X3691801Y-10414984D02*
X3672753Y-10405460D01*
X3853705Y-10395936D02*
X3863229Y-10405460D01*
X3863229Y-10405460D02*
X3853705Y-10414984D01*
X3853705Y-10414984D02*
X3844182Y-10405460D01*
X3844182Y-10405460D02*
X3853705Y-10395936D01*
X3853705Y-10395936D02*
X3853705Y-10414984D01*
X3853705Y-10291174D02*
X3863229Y-10300698D01*
X3863229Y-10300698D02*
X3853705Y-10310222D01*
X3853705Y-10310222D02*
X3844182Y-10300698D01*
X3844182Y-10300698D02*
X3853705Y-10291174D01*
X3853705Y-10291174D02*
X3853705Y-10310222D01*
D12*
X2036500Y-10651000D02*
X2221500Y-10836000D01*
X2221500Y-10651000D02*
X2036500Y-10836000D01*
D11*
X2587039Y-10834984D02*
X2472753Y-10834984D01*
X2529896Y-10834984D02*
X2529896Y-10634984D01*
X2529896Y-10634984D02*
X2510848Y-10663555D01*
X2510848Y-10663555D02*
X2491801Y-10682603D01*
X2491801Y-10682603D02*
X2472753Y-10692127D01*
X2672753Y-10815936D02*
X2682277Y-10825460D01*
X2682277Y-10825460D02*
X2672753Y-10834984D01*
X2672753Y-10834984D02*
X2663229Y-10825460D01*
X2663229Y-10825460D02*
X2672753Y-10815936D01*
X2672753Y-10815936D02*
X2672753Y-10834984D01*
X2796562Y-10720698D02*
X2777515Y-10711174D01*
X2777515Y-10711174D02*
X2767991Y-10701650D01*
X2767991Y-10701650D02*
X2758467Y-10682603D01*
X2758467Y-10682603D02*
X2758467Y-10673079D01*
X2758467Y-10673079D02*
X2767991Y-10654031D01*
X2767991Y-10654031D02*
X2777515Y-10644508D01*
X2777515Y-10644508D02*
X2796562Y-10634984D01*
X2796562Y-10634984D02*
X2834658Y-10634984D01*
X2834658Y-10634984D02*
X2853705Y-10644508D01*
X2853705Y-10644508D02*
X2863229Y-10654031D01*
X2863229Y-10654031D02*
X2872753Y-10673079D01*
X2872753Y-10673079D02*
X2872753Y-10682603D01*
X2872753Y-10682603D02*
X2863229Y-10701650D01*
X2863229Y-10701650D02*
X2853705Y-10711174D01*
X2853705Y-10711174D02*
X2834658Y-10720698D01*
X2834658Y-10720698D02*
X2796562Y-10720698D01*
X2796562Y-10720698D02*
X2777515Y-10730222D01*
X2777515Y-10730222D02*
X2767991Y-10739746D01*
X2767991Y-10739746D02*
X2758467Y-10758793D01*
X2758467Y-10758793D02*
X2758467Y-10796889D01*
X2758467Y-10796889D02*
X2767991Y-10815936D01*
X2767991Y-10815936D02*
X2777515Y-10825460D01*
X2777515Y-10825460D02*
X2796562Y-10834984D01*
X2796562Y-10834984D02*
X2834658Y-10834984D01*
X2834658Y-10834984D02*
X2853705Y-10825460D01*
X2853705Y-10825460D02*
X2863229Y-10815936D01*
X2863229Y-10815936D02*
X2872753Y-10796889D01*
X2872753Y-10796889D02*
X2872753Y-10758793D01*
X2872753Y-10758793D02*
X2863229Y-10739746D01*
X2863229Y-10739746D02*
X2853705Y-10730222D01*
X2853705Y-10730222D02*
X2834658Y-10720698D01*
X3053705Y-10634984D02*
X2958467Y-10634984D01*
X2958467Y-10634984D02*
X2948943Y-10730222D01*
X2948943Y-10730222D02*
X2958467Y-10720698D01*
X2958467Y-10720698D02*
X2977515Y-10711174D01*
X2977515Y-10711174D02*
X3025134Y-10711174D01*
X3025134Y-10711174D02*
X3044182Y-10720698D01*
X3044182Y-10720698D02*
X3053705Y-10730222D01*
X3053705Y-10730222D02*
X3063229Y-10749270D01*
X3063229Y-10749270D02*
X3063229Y-10796889D01*
X3063229Y-10796889D02*
X3053705Y-10815936D01*
X3053705Y-10815936D02*
X3044182Y-10825460D01*
X3044182Y-10825460D02*
X3025134Y-10834984D01*
X3025134Y-10834984D02*
X2977515Y-10834984D01*
X2977515Y-10834984D02*
X2958467Y-10825460D01*
X2958467Y-10825460D02*
X2948943Y-10815936D01*
X3187039Y-10634984D02*
X3206086Y-10634984D01*
X3206086Y-10634984D02*
X3225134Y-10644508D01*
X3225134Y-10644508D02*
X3234658Y-10654031D01*
X3234658Y-10654031D02*
X3244182Y-10673079D01*
X3244182Y-10673079D02*
X3253705Y-10711174D01*
X3253705Y-10711174D02*
X3253705Y-10758793D01*
X3253705Y-10758793D02*
X3244182Y-10796889D01*
X3244182Y-10796889D02*
X3234658Y-10815936D01*
X3234658Y-10815936D02*
X3225134Y-10825460D01*
X3225134Y-10825460D02*
X3206086Y-10834984D01*
X3206086Y-10834984D02*
X3187039Y-10834984D01*
X3187039Y-10834984D02*
X3167991Y-10825460D01*
X3167991Y-10825460D02*
X3158467Y-10815936D01*
X3158467Y-10815936D02*
X3148943Y-10796889D01*
X3148943Y-10796889D02*
X3139420Y-10758793D01*
X3139420Y-10758793D02*
X3139420Y-10711174D01*
X3139420Y-10711174D02*
X3148943Y-10673079D01*
X3148943Y-10673079D02*
X3158467Y-10654031D01*
X3158467Y-10654031D02*
X3167991Y-10644508D01*
X3167991Y-10644508D02*
X3187039Y-10634984D01*
X3339420Y-10834984D02*
X3339420Y-10701650D01*
X3339420Y-10720698D02*
X3348943Y-10711174D01*
X3348943Y-10711174D02*
X3367991Y-10701650D01*
X3367991Y-10701650D02*
X3396563Y-10701650D01*
X3396563Y-10701650D02*
X3415610Y-10711174D01*
X3415610Y-10711174D02*
X3425134Y-10730222D01*
X3425134Y-10730222D02*
X3425134Y-10834984D01*
X3425134Y-10730222D02*
X3434658Y-10711174D01*
X3434658Y-10711174D02*
X3453705Y-10701650D01*
X3453705Y-10701650D02*
X3482277Y-10701650D01*
X3482277Y-10701650D02*
X3501324Y-10711174D01*
X3501324Y-10711174D02*
X3510848Y-10730222D01*
X3510848Y-10730222D02*
X3510848Y-10834984D01*
X3606086Y-10834984D02*
X3606086Y-10701650D01*
X3606086Y-10720698D02*
X3615610Y-10711174D01*
X3615610Y-10711174D02*
X3634658Y-10701650D01*
X3634658Y-10701650D02*
X3663229Y-10701650D01*
X3663229Y-10701650D02*
X3682277Y-10711174D01*
X3682277Y-10711174D02*
X3691801Y-10730222D01*
X3691801Y-10730222D02*
X3691801Y-10834984D01*
X3691801Y-10730222D02*
X3701324Y-10711174D01*
X3701324Y-10711174D02*
X3720372Y-10701650D01*
X3720372Y-10701650D02*
X3748943Y-10701650D01*
X3748943Y-10701650D02*
X3767991Y-10711174D01*
X3767991Y-10711174D02*
X3777515Y-10730222D01*
X3777515Y-10730222D02*
X3777515Y-10834984D01*
X4167991Y-10625460D02*
X3996563Y-10882603D01*
X4425134Y-10634984D02*
X4444182Y-10634984D01*
X4444182Y-10634984D02*
X4463229Y-10644508D01*
X4463229Y-10644508D02*
X4472753Y-10654031D01*
X4472753Y-10654031D02*
X4482277Y-10673079D01*
X4482277Y-10673079D02*
X4491801Y-10711174D01*
X4491801Y-10711174D02*
X4491801Y-10758793D01*
X4491801Y-10758793D02*
X4482277Y-10796889D01*
X4482277Y-10796889D02*
X4472753Y-10815936D01*
X4472753Y-10815936D02*
X4463229Y-10825460D01*
X4463229Y-10825460D02*
X4444182Y-10834984D01*
X4444182Y-10834984D02*
X4425134Y-10834984D01*
X4425134Y-10834984D02*
X4406087Y-10825460D01*
X4406087Y-10825460D02*
X4396563Y-10815936D01*
X4396563Y-10815936D02*
X4387039Y-10796889D01*
X4387039Y-10796889D02*
X4377515Y-10758793D01*
X4377515Y-10758793D02*
X4377515Y-10711174D01*
X4377515Y-10711174D02*
X4387039Y-10673079D01*
X4387039Y-10673079D02*
X4396563Y-10654031D01*
X4396563Y-10654031D02*
X4406087Y-10644508D01*
X4406087Y-10644508D02*
X4425134Y-10634984D01*
X4577515Y-10815936D02*
X4587039Y-10825460D01*
X4587039Y-10825460D02*
X4577515Y-10834984D01*
X4577515Y-10834984D02*
X4567991Y-10825460D01*
X4567991Y-10825460D02*
X4577515Y-10815936D01*
X4577515Y-10815936D02*
X4577515Y-10834984D01*
X4710848Y-10634984D02*
X4729896Y-10634984D01*
X4729896Y-10634984D02*
X4748944Y-10644508D01*
X4748944Y-10644508D02*
X4758468Y-10654031D01*
X4758468Y-10654031D02*
X4767991Y-10673079D01*
X4767991Y-10673079D02*
X4777515Y-10711174D01*
X4777515Y-10711174D02*
X4777515Y-10758793D01*
X4777515Y-10758793D02*
X4767991Y-10796889D01*
X4767991Y-10796889D02*
X4758468Y-10815936D01*
X4758468Y-10815936D02*
X4748944Y-10825460D01*
X4748944Y-10825460D02*
X4729896Y-10834984D01*
X4729896Y-10834984D02*
X4710848Y-10834984D01*
X4710848Y-10834984D02*
X4691801Y-10825460D01*
X4691801Y-10825460D02*
X4682277Y-10815936D01*
X4682277Y-10815936D02*
X4672753Y-10796889D01*
X4672753Y-10796889D02*
X4663229Y-10758793D01*
X4663229Y-10758793D02*
X4663229Y-10711174D01*
X4663229Y-10711174D02*
X4672753Y-10673079D01*
X4672753Y-10673079D02*
X4682277Y-10654031D01*
X4682277Y-10654031D02*
X4691801Y-10644508D01*
X4691801Y-10644508D02*
X4710848Y-10634984D01*
X4844182Y-10634984D02*
X4977515Y-10634984D01*
X4977515Y-10634984D02*
X4891801Y-10834984D01*
X5044182Y-10654031D02*
X5053706Y-10644508D01*
X5053706Y-10644508D02*
X5072753Y-10634984D01*
X5072753Y-10634984D02*
X5120372Y-10634984D01*
X5120372Y-10634984D02*
X5139420Y-10644508D01*
X5139420Y-10644508D02*
X5148944Y-10654031D01*
X5148944Y-10654031D02*
X5158468Y-10673079D01*
X5158468Y-10673079D02*
X5158468Y-10692127D01*
X5158468Y-10692127D02*
X5148944Y-10720698D01*
X5148944Y-10720698D02*
X5034658Y-10834984D01*
X5034658Y-10834984D02*
X5158468Y-10834984D01*
X5272753Y-10720698D02*
X5253706Y-10711174D01*
X5253706Y-10711174D02*
X5244182Y-10701650D01*
X5244182Y-10701650D02*
X5234658Y-10682603D01*
X5234658Y-10682603D02*
X5234658Y-10673079D01*
X5234658Y-10673079D02*
X5244182Y-10654031D01*
X5244182Y-10654031D02*
X5253706Y-10644508D01*
X5253706Y-10644508D02*
X5272753Y-10634984D01*
X5272753Y-10634984D02*
X5310849Y-10634984D01*
X5310849Y-10634984D02*
X5329896Y-10644508D01*
X5329896Y-10644508D02*
X5339420Y-10654031D01*
X5339420Y-10654031D02*
X5348944Y-10673079D01*
X5348944Y-10673079D02*
X5348944Y-10682603D01*
X5348944Y-10682603D02*
X5339420Y-10701650D01*
X5339420Y-10701650D02*
X5329896Y-10711174D01*
X5329896Y-10711174D02*
X5310849Y-10720698D01*
X5310849Y-10720698D02*
X5272753Y-10720698D01*
X5272753Y-10720698D02*
X5253706Y-10730222D01*
X5253706Y-10730222D02*
X5244182Y-10739746D01*
X5244182Y-10739746D02*
X5234658Y-10758793D01*
X5234658Y-10758793D02*
X5234658Y-10796889D01*
X5234658Y-10796889D02*
X5244182Y-10815936D01*
X5244182Y-10815936D02*
X5253706Y-10825460D01*
X5253706Y-10825460D02*
X5272753Y-10834984D01*
X5272753Y-10834984D02*
X5310849Y-10834984D01*
X5310849Y-10834984D02*
X5329896Y-10825460D01*
X5329896Y-10825460D02*
X5339420Y-10815936D01*
X5339420Y-10815936D02*
X5348944Y-10796889D01*
X5348944Y-10796889D02*
X5348944Y-10758793D01*
X5348944Y-10758793D02*
X5339420Y-10739746D01*
X5339420Y-10739746D02*
X5329896Y-10730222D01*
X5329896Y-10730222D02*
X5310849Y-10720698D01*
X5425134Y-10634984D02*
X5425134Y-10673079D01*
X5501325Y-10634984D02*
X5501325Y-10673079D01*
X5796563Y-10911174D02*
X5787039Y-10901650D01*
X5787039Y-10901650D02*
X5767991Y-10873079D01*
X5767991Y-10873079D02*
X5758468Y-10854031D01*
X5758468Y-10854031D02*
X5748944Y-10825460D01*
X5748944Y-10825460D02*
X5739420Y-10777841D01*
X5739420Y-10777841D02*
X5739420Y-10739746D01*
X5739420Y-10739746D02*
X5748944Y-10692127D01*
X5748944Y-10692127D02*
X5758468Y-10663555D01*
X5758468Y-10663555D02*
X5767991Y-10644508D01*
X5767991Y-10644508D02*
X5787039Y-10615936D01*
X5787039Y-10615936D02*
X5796563Y-10606412D01*
X5863229Y-10654031D02*
X5872753Y-10644508D01*
X5872753Y-10644508D02*
X5891801Y-10634984D01*
X5891801Y-10634984D02*
X5939420Y-10634984D01*
X5939420Y-10634984D02*
X5958468Y-10644508D01*
X5958468Y-10644508D02*
X5967991Y-10654031D01*
X5967991Y-10654031D02*
X5977515Y-10673079D01*
X5977515Y-10673079D02*
X5977515Y-10692127D01*
X5977515Y-10692127D02*
X5967991Y-10720698D01*
X5967991Y-10720698D02*
X5853706Y-10834984D01*
X5853706Y-10834984D02*
X5977515Y-10834984D01*
X6215610Y-10834984D02*
X6215610Y-10634984D01*
X6301325Y-10834984D02*
X6301325Y-10730222D01*
X6301325Y-10730222D02*
X6291801Y-10711174D01*
X6291801Y-10711174D02*
X6272753Y-10701650D01*
X6272753Y-10701650D02*
X6244182Y-10701650D01*
X6244182Y-10701650D02*
X6225134Y-10711174D01*
X6225134Y-10711174D02*
X6215610Y-10720698D01*
X6425134Y-10834984D02*
X6406087Y-10825460D01*
X6406087Y-10825460D02*
X6396563Y-10815936D01*
X6396563Y-10815936D02*
X6387039Y-10796889D01*
X6387039Y-10796889D02*
X6387039Y-10739746D01*
X6387039Y-10739746D02*
X6396563Y-10720698D01*
X6396563Y-10720698D02*
X6406087Y-10711174D01*
X6406087Y-10711174D02*
X6425134Y-10701650D01*
X6425134Y-10701650D02*
X6453706Y-10701650D01*
X6453706Y-10701650D02*
X6472753Y-10711174D01*
X6472753Y-10711174D02*
X6482277Y-10720698D01*
X6482277Y-10720698D02*
X6491801Y-10739746D01*
X6491801Y-10739746D02*
X6491801Y-10796889D01*
X6491801Y-10796889D02*
X6482277Y-10815936D01*
X6482277Y-10815936D02*
X6472753Y-10825460D01*
X6472753Y-10825460D02*
X6453706Y-10834984D01*
X6453706Y-10834984D02*
X6425134Y-10834984D01*
X6606087Y-10834984D02*
X6587039Y-10825460D01*
X6587039Y-10825460D02*
X6577515Y-10806412D01*
X6577515Y-10806412D02*
X6577515Y-10634984D01*
X6758468Y-10825460D02*
X6739420Y-10834984D01*
X6739420Y-10834984D02*
X6701325Y-10834984D01*
X6701325Y-10834984D02*
X6682277Y-10825460D01*
X6682277Y-10825460D02*
X6672753Y-10806412D01*
X6672753Y-10806412D02*
X6672753Y-10730222D01*
X6672753Y-10730222D02*
X6682277Y-10711174D01*
X6682277Y-10711174D02*
X6701325Y-10701650D01*
X6701325Y-10701650D02*
X6739420Y-10701650D01*
X6739420Y-10701650D02*
X6758468Y-10711174D01*
X6758468Y-10711174D02*
X6767991Y-10730222D01*
X6767991Y-10730222D02*
X6767991Y-10749270D01*
X6767991Y-10749270D02*
X6672753Y-10768317D01*
X6844182Y-10825460D02*
X6863230Y-10834984D01*
X6863230Y-10834984D02*
X6901325Y-10834984D01*
X6901325Y-10834984D02*
X6920372Y-10825460D01*
X6920372Y-10825460D02*
X6929896Y-10806412D01*
X6929896Y-10806412D02*
X6929896Y-10796889D01*
X6929896Y-10796889D02*
X6920372Y-10777841D01*
X6920372Y-10777841D02*
X6901325Y-10768317D01*
X6901325Y-10768317D02*
X6872753Y-10768317D01*
X6872753Y-10768317D02*
X6853706Y-10758793D01*
X6853706Y-10758793D02*
X6844182Y-10739746D01*
X6844182Y-10739746D02*
X6844182Y-10730222D01*
X6844182Y-10730222D02*
X6853706Y-10711174D01*
X6853706Y-10711174D02*
X6872753Y-10701650D01*
X6872753Y-10701650D02*
X6901325Y-10701650D01*
X6901325Y-10701650D02*
X6920372Y-10711174D01*
X6996563Y-10911174D02*
X7006087Y-10901650D01*
X7006087Y-10901650D02*
X7025134Y-10873079D01*
X7025134Y-10873079D02*
X7034658Y-10854031D01*
X7034658Y-10854031D02*
X7044182Y-10825460D01*
X7044182Y-10825460D02*
X7053706Y-10777841D01*
X7053706Y-10777841D02*
X7053706Y-10739746D01*
X7053706Y-10739746D02*
X7044182Y-10692127D01*
X7044182Y-10692127D02*
X7034658Y-10663555D01*
X7034658Y-10663555D02*
X7025134Y-10644508D01*
X7025134Y-10644508D02*
X7006087Y-10615936D01*
X7006087Y-10615936D02*
X6996563Y-10606412D01*
X7358468Y-10911174D02*
X7348944Y-10901650D01*
X7348944Y-10901650D02*
X7329896Y-10873079D01*
X7329896Y-10873079D02*
X7320372Y-10854031D01*
X7320372Y-10854031D02*
X7310849Y-10825460D01*
X7310849Y-10825460D02*
X7301325Y-10777841D01*
X7301325Y-10777841D02*
X7301325Y-10739746D01*
X7301325Y-10739746D02*
X7310849Y-10692127D01*
X7310849Y-10692127D02*
X7320372Y-10663555D01*
X7320372Y-10663555D02*
X7329896Y-10644508D01*
X7329896Y-10644508D02*
X7348944Y-10615936D01*
X7348944Y-10615936D02*
X7358468Y-10606412D01*
X7434658Y-10701650D02*
X7434658Y-10834984D01*
X7434658Y-10720698D02*
X7444182Y-10711174D01*
X7444182Y-10711174D02*
X7463230Y-10701650D01*
X7463230Y-10701650D02*
X7491801Y-10701650D01*
X7491801Y-10701650D02*
X7510849Y-10711174D01*
X7510849Y-10711174D02*
X7520372Y-10730222D01*
X7520372Y-10730222D02*
X7520372Y-10834984D01*
X7644182Y-10834984D02*
X7625134Y-10825460D01*
X7625134Y-10825460D02*
X7615611Y-10815936D01*
X7615611Y-10815936D02*
X7606087Y-10796889D01*
X7606087Y-10796889D02*
X7606087Y-10739746D01*
X7606087Y-10739746D02*
X7615611Y-10720698D01*
X7615611Y-10720698D02*
X7625134Y-10711174D01*
X7625134Y-10711174D02*
X7644182Y-10701650D01*
X7644182Y-10701650D02*
X7672753Y-10701650D01*
X7672753Y-10701650D02*
X7691801Y-10711174D01*
X7691801Y-10711174D02*
X7701325Y-10720698D01*
X7701325Y-10720698D02*
X7710849Y-10739746D01*
X7710849Y-10739746D02*
X7710849Y-10796889D01*
X7710849Y-10796889D02*
X7701325Y-10815936D01*
X7701325Y-10815936D02*
X7691801Y-10825460D01*
X7691801Y-10825460D02*
X7672753Y-10834984D01*
X7672753Y-10834984D02*
X7644182Y-10834984D01*
X7767992Y-10701650D02*
X7844182Y-10701650D01*
X7796563Y-10634984D02*
X7796563Y-10806412D01*
X7796563Y-10806412D02*
X7806087Y-10825460D01*
X7806087Y-10825460D02*
X7825134Y-10834984D01*
X7825134Y-10834984D02*
X7844182Y-10834984D01*
X8063230Y-10701650D02*
X8063230Y-10901650D01*
X8063230Y-10711174D02*
X8082277Y-10701650D01*
X8082277Y-10701650D02*
X8120373Y-10701650D01*
X8120373Y-10701650D02*
X8139420Y-10711174D01*
X8139420Y-10711174D02*
X8148944Y-10720698D01*
X8148944Y-10720698D02*
X8158468Y-10739746D01*
X8158468Y-10739746D02*
X8158468Y-10796889D01*
X8158468Y-10796889D02*
X8148944Y-10815936D01*
X8148944Y-10815936D02*
X8139420Y-10825460D01*
X8139420Y-10825460D02*
X8120373Y-10834984D01*
X8120373Y-10834984D02*
X8082277Y-10834984D01*
X8082277Y-10834984D02*
X8063230Y-10825460D01*
X8272753Y-10834984D02*
X8253706Y-10825460D01*
X8253706Y-10825460D02*
X8244182Y-10806412D01*
X8244182Y-10806412D02*
X8244182Y-10634984D01*
X8434658Y-10834984D02*
X8434658Y-10730222D01*
X8434658Y-10730222D02*
X8425135Y-10711174D01*
X8425135Y-10711174D02*
X8406087Y-10701650D01*
X8406087Y-10701650D02*
X8367992Y-10701650D01*
X8367992Y-10701650D02*
X8348944Y-10711174D01*
X8434658Y-10825460D02*
X8415611Y-10834984D01*
X8415611Y-10834984D02*
X8367992Y-10834984D01*
X8367992Y-10834984D02*
X8348944Y-10825460D01*
X8348944Y-10825460D02*
X8339420Y-10806412D01*
X8339420Y-10806412D02*
X8339420Y-10787365D01*
X8339420Y-10787365D02*
X8348944Y-10768317D01*
X8348944Y-10768317D02*
X8367992Y-10758793D01*
X8367992Y-10758793D02*
X8415611Y-10758793D01*
X8415611Y-10758793D02*
X8434658Y-10749270D01*
X8501325Y-10701650D02*
X8577515Y-10701650D01*
X8529896Y-10634984D02*
X8529896Y-10806412D01*
X8529896Y-10806412D02*
X8539420Y-10825460D01*
X8539420Y-10825460D02*
X8558468Y-10834984D01*
X8558468Y-10834984D02*
X8577515Y-10834984D01*
X8720373Y-10825460D02*
X8701325Y-10834984D01*
X8701325Y-10834984D02*
X8663230Y-10834984D01*
X8663230Y-10834984D02*
X8644182Y-10825460D01*
X8644182Y-10825460D02*
X8634658Y-10806412D01*
X8634658Y-10806412D02*
X8634658Y-10730222D01*
X8634658Y-10730222D02*
X8644182Y-10711174D01*
X8644182Y-10711174D02*
X8663230Y-10701650D01*
X8663230Y-10701650D02*
X8701325Y-10701650D01*
X8701325Y-10701650D02*
X8720373Y-10711174D01*
X8720373Y-10711174D02*
X8729896Y-10730222D01*
X8729896Y-10730222D02*
X8729896Y-10749270D01*
X8729896Y-10749270D02*
X8634658Y-10768317D01*
X8901325Y-10834984D02*
X8901325Y-10634984D01*
X8901325Y-10825460D02*
X8882277Y-10834984D01*
X8882277Y-10834984D02*
X8844182Y-10834984D01*
X8844182Y-10834984D02*
X8825135Y-10825460D01*
X8825135Y-10825460D02*
X8815611Y-10815936D01*
X8815611Y-10815936D02*
X8806087Y-10796889D01*
X8806087Y-10796889D02*
X8806087Y-10739746D01*
X8806087Y-10739746D02*
X8815611Y-10720698D01*
X8815611Y-10720698D02*
X8825135Y-10711174D01*
X8825135Y-10711174D02*
X8844182Y-10701650D01*
X8844182Y-10701650D02*
X8882277Y-10701650D01*
X8882277Y-10701650D02*
X8901325Y-10711174D01*
X8977516Y-10911174D02*
X8987039Y-10901650D01*
X8987039Y-10901650D02*
X9006087Y-10873079D01*
X9006087Y-10873079D02*
X9015611Y-10854031D01*
X9015611Y-10854031D02*
X9025135Y-10825460D01*
X9025135Y-10825460D02*
X9034658Y-10777841D01*
X9034658Y-10777841D02*
X9034658Y-10739746D01*
X9034658Y-10739746D02*
X9025135Y-10692127D01*
X9025135Y-10692127D02*
X9015611Y-10663555D01*
X9015611Y-10663555D02*
X9006087Y-10644508D01*
X9006087Y-10644508D02*
X8987039Y-10615936D01*
X8987039Y-10615936D02*
X8977516Y-10606412D01*
X2221500Y-11048500D02*
G75*
G02*
X2021500Y-11048500I-100000J0D01*
G01*
X2021500Y-11048500D02*
G75*
G02*
X2221500Y-11048500I100000J0D01*
G01*
X2472753Y-10959031D02*
X2482277Y-10949508D01*
X2482277Y-10949508D02*
X2501324Y-10939984D01*
X2501324Y-10939984D02*
X2548944Y-10939984D01*
X2548944Y-10939984D02*
X2567991Y-10949508D01*
X2567991Y-10949508D02*
X2577515Y-10959031D01*
X2577515Y-10959031D02*
X2587039Y-10978079D01*
X2587039Y-10978079D02*
X2587039Y-10997127D01*
X2587039Y-10997127D02*
X2577515Y-11025698D01*
X2577515Y-11025698D02*
X2463229Y-11139984D01*
X2463229Y-11139984D02*
X2587039Y-11139984D01*
X2672753Y-11120936D02*
X2682277Y-11130460D01*
X2682277Y-11130460D02*
X2672753Y-11139984D01*
X2672753Y-11139984D02*
X2663229Y-11130460D01*
X2663229Y-11130460D02*
X2672753Y-11120936D01*
X2672753Y-11120936D02*
X2672753Y-11139984D01*
X2758467Y-10959031D02*
X2767991Y-10949508D01*
X2767991Y-10949508D02*
X2787039Y-10939984D01*
X2787039Y-10939984D02*
X2834658Y-10939984D01*
X2834658Y-10939984D02*
X2853705Y-10949508D01*
X2853705Y-10949508D02*
X2863229Y-10959031D01*
X2863229Y-10959031D02*
X2872753Y-10978079D01*
X2872753Y-10978079D02*
X2872753Y-10997127D01*
X2872753Y-10997127D02*
X2863229Y-11025698D01*
X2863229Y-11025698D02*
X2748944Y-11139984D01*
X2748944Y-11139984D02*
X2872753Y-11139984D01*
X2996562Y-10939984D02*
X3015610Y-10939984D01*
X3015610Y-10939984D02*
X3034658Y-10949508D01*
X3034658Y-10949508D02*
X3044182Y-10959031D01*
X3044182Y-10959031D02*
X3053705Y-10978079D01*
X3053705Y-10978079D02*
X3063229Y-11016174D01*
X3063229Y-11016174D02*
X3063229Y-11063793D01*
X3063229Y-11063793D02*
X3053705Y-11101889D01*
X3053705Y-11101889D02*
X3044182Y-11120936D01*
X3044182Y-11120936D02*
X3034658Y-11130460D01*
X3034658Y-11130460D02*
X3015610Y-11139984D01*
X3015610Y-11139984D02*
X2996562Y-11139984D01*
X2996562Y-11139984D02*
X2977515Y-11130460D01*
X2977515Y-11130460D02*
X2967991Y-11120936D01*
X2967991Y-11120936D02*
X2958467Y-11101889D01*
X2958467Y-11101889D02*
X2948943Y-11063793D01*
X2948943Y-11063793D02*
X2948943Y-11016174D01*
X2948943Y-11016174D02*
X2958467Y-10978079D01*
X2958467Y-10978079D02*
X2967991Y-10959031D01*
X2967991Y-10959031D02*
X2977515Y-10949508D01*
X2977515Y-10949508D02*
X2996562Y-10939984D01*
X3187039Y-10939984D02*
X3206086Y-10939984D01*
X3206086Y-10939984D02*
X3225134Y-10949508D01*
X3225134Y-10949508D02*
X3234658Y-10959031D01*
X3234658Y-10959031D02*
X3244182Y-10978079D01*
X3244182Y-10978079D02*
X3253705Y-11016174D01*
X3253705Y-11016174D02*
X3253705Y-11063793D01*
X3253705Y-11063793D02*
X3244182Y-11101889D01*
X3244182Y-11101889D02*
X3234658Y-11120936D01*
X3234658Y-11120936D02*
X3225134Y-11130460D01*
X3225134Y-11130460D02*
X3206086Y-11139984D01*
X3206086Y-11139984D02*
X3187039Y-11139984D01*
X3187039Y-11139984D02*
X3167991Y-11130460D01*
X3167991Y-11130460D02*
X3158467Y-11120936D01*
X3158467Y-11120936D02*
X3148943Y-11101889D01*
X3148943Y-11101889D02*
X3139420Y-11063793D01*
X3139420Y-11063793D02*
X3139420Y-11016174D01*
X3139420Y-11016174D02*
X3148943Y-10978079D01*
X3148943Y-10978079D02*
X3158467Y-10959031D01*
X3158467Y-10959031D02*
X3167991Y-10949508D01*
X3167991Y-10949508D02*
X3187039Y-10939984D01*
X3339420Y-11139984D02*
X3339420Y-11006650D01*
X3339420Y-11025698D02*
X3348943Y-11016174D01*
X3348943Y-11016174D02*
X3367991Y-11006650D01*
X3367991Y-11006650D02*
X3396563Y-11006650D01*
X3396563Y-11006650D02*
X3415610Y-11016174D01*
X3415610Y-11016174D02*
X3425134Y-11035222D01*
X3425134Y-11035222D02*
X3425134Y-11139984D01*
X3425134Y-11035222D02*
X3434658Y-11016174D01*
X3434658Y-11016174D02*
X3453705Y-11006650D01*
X3453705Y-11006650D02*
X3482277Y-11006650D01*
X3482277Y-11006650D02*
X3501324Y-11016174D01*
X3501324Y-11016174D02*
X3510848Y-11035222D01*
X3510848Y-11035222D02*
X3510848Y-11139984D01*
X3606086Y-11139984D02*
X3606086Y-11006650D01*
X3606086Y-11025698D02*
X3615610Y-11016174D01*
X3615610Y-11016174D02*
X3634658Y-11006650D01*
X3634658Y-11006650D02*
X3663229Y-11006650D01*
X3663229Y-11006650D02*
X3682277Y-11016174D01*
X3682277Y-11016174D02*
X3691801Y-11035222D01*
X3691801Y-11035222D02*
X3691801Y-11139984D01*
X3691801Y-11035222D02*
X3701324Y-11016174D01*
X3701324Y-11016174D02*
X3720372Y-11006650D01*
X3720372Y-11006650D02*
X3748943Y-11006650D01*
X3748943Y-11006650D02*
X3767991Y-11016174D01*
X3767991Y-11016174D02*
X3777515Y-11035222D01*
X3777515Y-11035222D02*
X3777515Y-11139984D01*
X4167991Y-10930460D02*
X3996563Y-11187603D01*
X4425134Y-10939984D02*
X4444182Y-10939984D01*
X4444182Y-10939984D02*
X4463229Y-10949508D01*
X4463229Y-10949508D02*
X4472753Y-10959031D01*
X4472753Y-10959031D02*
X4482277Y-10978079D01*
X4482277Y-10978079D02*
X4491801Y-11016174D01*
X4491801Y-11016174D02*
X4491801Y-11063793D01*
X4491801Y-11063793D02*
X4482277Y-11101889D01*
X4482277Y-11101889D02*
X4472753Y-11120936D01*
X4472753Y-11120936D02*
X4463229Y-11130460D01*
X4463229Y-11130460D02*
X4444182Y-11139984D01*
X4444182Y-11139984D02*
X4425134Y-11139984D01*
X4425134Y-11139984D02*
X4406087Y-11130460D01*
X4406087Y-11130460D02*
X4396563Y-11120936D01*
X4396563Y-11120936D02*
X4387039Y-11101889D01*
X4387039Y-11101889D02*
X4377515Y-11063793D01*
X4377515Y-11063793D02*
X4377515Y-11016174D01*
X4377515Y-11016174D02*
X4387039Y-10978079D01*
X4387039Y-10978079D02*
X4396563Y-10959031D01*
X4396563Y-10959031D02*
X4406087Y-10949508D01*
X4406087Y-10949508D02*
X4425134Y-10939984D01*
X4577515Y-11120936D02*
X4587039Y-11130460D01*
X4587039Y-11130460D02*
X4577515Y-11139984D01*
X4577515Y-11139984D02*
X4567991Y-11130460D01*
X4567991Y-11130460D02*
X4577515Y-11120936D01*
X4577515Y-11120936D02*
X4577515Y-11139984D01*
X4710848Y-10939984D02*
X4729896Y-10939984D01*
X4729896Y-10939984D02*
X4748944Y-10949508D01*
X4748944Y-10949508D02*
X4758468Y-10959031D01*
X4758468Y-10959031D02*
X4767991Y-10978079D01*
X4767991Y-10978079D02*
X4777515Y-11016174D01*
X4777515Y-11016174D02*
X4777515Y-11063793D01*
X4777515Y-11063793D02*
X4767991Y-11101889D01*
X4767991Y-11101889D02*
X4758468Y-11120936D01*
X4758468Y-11120936D02*
X4748944Y-11130460D01*
X4748944Y-11130460D02*
X4729896Y-11139984D01*
X4729896Y-11139984D02*
X4710848Y-11139984D01*
X4710848Y-11139984D02*
X4691801Y-11130460D01*
X4691801Y-11130460D02*
X4682277Y-11120936D01*
X4682277Y-11120936D02*
X4672753Y-11101889D01*
X4672753Y-11101889D02*
X4663229Y-11063793D01*
X4663229Y-11063793D02*
X4663229Y-11016174D01*
X4663229Y-11016174D02*
X4672753Y-10978079D01*
X4672753Y-10978079D02*
X4682277Y-10959031D01*
X4682277Y-10959031D02*
X4691801Y-10949508D01*
X4691801Y-10949508D02*
X4710848Y-10939984D01*
X4891801Y-11025698D02*
X4872753Y-11016174D01*
X4872753Y-11016174D02*
X4863229Y-11006650D01*
X4863229Y-11006650D02*
X4853706Y-10987603D01*
X4853706Y-10987603D02*
X4853706Y-10978079D01*
X4853706Y-10978079D02*
X4863229Y-10959031D01*
X4863229Y-10959031D02*
X4872753Y-10949508D01*
X4872753Y-10949508D02*
X4891801Y-10939984D01*
X4891801Y-10939984D02*
X4929896Y-10939984D01*
X4929896Y-10939984D02*
X4948944Y-10949508D01*
X4948944Y-10949508D02*
X4958468Y-10959031D01*
X4958468Y-10959031D02*
X4967991Y-10978079D01*
X4967991Y-10978079D02*
X4967991Y-10987603D01*
X4967991Y-10987603D02*
X4958468Y-11006650D01*
X4958468Y-11006650D02*
X4948944Y-11016174D01*
X4948944Y-11016174D02*
X4929896Y-11025698D01*
X4929896Y-11025698D02*
X4891801Y-11025698D01*
X4891801Y-11025698D02*
X4872753Y-11035222D01*
X4872753Y-11035222D02*
X4863229Y-11044746D01*
X4863229Y-11044746D02*
X4853706Y-11063793D01*
X4853706Y-11063793D02*
X4853706Y-11101889D01*
X4853706Y-11101889D02*
X4863229Y-11120936D01*
X4863229Y-11120936D02*
X4872753Y-11130460D01*
X4872753Y-11130460D02*
X4891801Y-11139984D01*
X4891801Y-11139984D02*
X4929896Y-11139984D01*
X4929896Y-11139984D02*
X4948944Y-11130460D01*
X4948944Y-11130460D02*
X4958468Y-11120936D01*
X4958468Y-11120936D02*
X4967991Y-11101889D01*
X4967991Y-11101889D02*
X4967991Y-11063793D01*
X4967991Y-11063793D02*
X4958468Y-11044746D01*
X4958468Y-11044746D02*
X4948944Y-11035222D01*
X4948944Y-11035222D02*
X4929896Y-11025698D01*
X5139420Y-10939984D02*
X5101325Y-10939984D01*
X5101325Y-10939984D02*
X5082277Y-10949508D01*
X5082277Y-10949508D02*
X5072753Y-10959031D01*
X5072753Y-10959031D02*
X5053706Y-10987603D01*
X5053706Y-10987603D02*
X5044182Y-11025698D01*
X5044182Y-11025698D02*
X5044182Y-11101889D01*
X5044182Y-11101889D02*
X5053706Y-11120936D01*
X5053706Y-11120936D02*
X5063229Y-11130460D01*
X5063229Y-11130460D02*
X5082277Y-11139984D01*
X5082277Y-11139984D02*
X5120372Y-11139984D01*
X5120372Y-11139984D02*
X5139420Y-11130460D01*
X5139420Y-11130460D02*
X5148944Y-11120936D01*
X5148944Y-11120936D02*
X5158468Y-11101889D01*
X5158468Y-11101889D02*
X5158468Y-11054270D01*
X5158468Y-11054270D02*
X5148944Y-11035222D01*
X5148944Y-11035222D02*
X5139420Y-11025698D01*
X5139420Y-11025698D02*
X5120372Y-11016174D01*
X5120372Y-11016174D02*
X5082277Y-11016174D01*
X5082277Y-11016174D02*
X5063229Y-11025698D01*
X5063229Y-11025698D02*
X5053706Y-11035222D01*
X5053706Y-11035222D02*
X5044182Y-11054270D01*
X5329896Y-10939984D02*
X5291801Y-10939984D01*
X5291801Y-10939984D02*
X5272753Y-10949508D01*
X5272753Y-10949508D02*
X5263229Y-10959031D01*
X5263229Y-10959031D02*
X5244182Y-10987603D01*
X5244182Y-10987603D02*
X5234658Y-11025698D01*
X5234658Y-11025698D02*
X5234658Y-11101889D01*
X5234658Y-11101889D02*
X5244182Y-11120936D01*
X5244182Y-11120936D02*
X5253706Y-11130460D01*
X5253706Y-11130460D02*
X5272753Y-11139984D01*
X5272753Y-11139984D02*
X5310849Y-11139984D01*
X5310849Y-11139984D02*
X5329896Y-11130460D01*
X5329896Y-11130460D02*
X5339420Y-11120936D01*
X5339420Y-11120936D02*
X5348944Y-11101889D01*
X5348944Y-11101889D02*
X5348944Y-11054270D01*
X5348944Y-11054270D02*
X5339420Y-11035222D01*
X5339420Y-11035222D02*
X5329896Y-11025698D01*
X5329896Y-11025698D02*
X5310849Y-11016174D01*
X5310849Y-11016174D02*
X5272753Y-11016174D01*
X5272753Y-11016174D02*
X5253706Y-11025698D01*
X5253706Y-11025698D02*
X5244182Y-11035222D01*
X5244182Y-11035222D02*
X5234658Y-11054270D01*
X5425134Y-10939984D02*
X5425134Y-10978079D01*
X5501325Y-10939984D02*
X5501325Y-10978079D01*
X5796563Y-11216174D02*
X5787039Y-11206650D01*
X5787039Y-11206650D02*
X5767991Y-11178079D01*
X5767991Y-11178079D02*
X5758468Y-11159031D01*
X5758468Y-11159031D02*
X5748944Y-11130460D01*
X5748944Y-11130460D02*
X5739420Y-11082841D01*
X5739420Y-11082841D02*
X5739420Y-11044746D01*
X5739420Y-11044746D02*
X5748944Y-10997127D01*
X5748944Y-10997127D02*
X5758468Y-10968555D01*
X5758468Y-10968555D02*
X5767991Y-10949508D01*
X5767991Y-10949508D02*
X5787039Y-10920936D01*
X5787039Y-10920936D02*
X5796563Y-10911412D01*
X5863229Y-10959031D02*
X5872753Y-10949508D01*
X5872753Y-10949508D02*
X5891801Y-10939984D01*
X5891801Y-10939984D02*
X5939420Y-10939984D01*
X5939420Y-10939984D02*
X5958468Y-10949508D01*
X5958468Y-10949508D02*
X5967991Y-10959031D01*
X5967991Y-10959031D02*
X5977515Y-10978079D01*
X5977515Y-10978079D02*
X5977515Y-10997127D01*
X5977515Y-10997127D02*
X5967991Y-11025698D01*
X5967991Y-11025698D02*
X5853706Y-11139984D01*
X5853706Y-11139984D02*
X5977515Y-11139984D01*
X6215610Y-11139984D02*
X6215610Y-10939984D01*
X6301325Y-11139984D02*
X6301325Y-11035222D01*
X6301325Y-11035222D02*
X6291801Y-11016174D01*
X6291801Y-11016174D02*
X6272753Y-11006650D01*
X6272753Y-11006650D02*
X6244182Y-11006650D01*
X6244182Y-11006650D02*
X6225134Y-11016174D01*
X6225134Y-11016174D02*
X6215610Y-11025698D01*
X6425134Y-11139984D02*
X6406087Y-11130460D01*
X6406087Y-11130460D02*
X6396563Y-11120936D01*
X6396563Y-11120936D02*
X6387039Y-11101889D01*
X6387039Y-11101889D02*
X6387039Y-11044746D01*
X6387039Y-11044746D02*
X6396563Y-11025698D01*
X6396563Y-11025698D02*
X6406087Y-11016174D01*
X6406087Y-11016174D02*
X6425134Y-11006650D01*
X6425134Y-11006650D02*
X6453706Y-11006650D01*
X6453706Y-11006650D02*
X6472753Y-11016174D01*
X6472753Y-11016174D02*
X6482277Y-11025698D01*
X6482277Y-11025698D02*
X6491801Y-11044746D01*
X6491801Y-11044746D02*
X6491801Y-11101889D01*
X6491801Y-11101889D02*
X6482277Y-11120936D01*
X6482277Y-11120936D02*
X6472753Y-11130460D01*
X6472753Y-11130460D02*
X6453706Y-11139984D01*
X6453706Y-11139984D02*
X6425134Y-11139984D01*
X6606087Y-11139984D02*
X6587039Y-11130460D01*
X6587039Y-11130460D02*
X6577515Y-11111412D01*
X6577515Y-11111412D02*
X6577515Y-10939984D01*
X6758468Y-11130460D02*
X6739420Y-11139984D01*
X6739420Y-11139984D02*
X6701325Y-11139984D01*
X6701325Y-11139984D02*
X6682277Y-11130460D01*
X6682277Y-11130460D02*
X6672753Y-11111412D01*
X6672753Y-11111412D02*
X6672753Y-11035222D01*
X6672753Y-11035222D02*
X6682277Y-11016174D01*
X6682277Y-11016174D02*
X6701325Y-11006650D01*
X6701325Y-11006650D02*
X6739420Y-11006650D01*
X6739420Y-11006650D02*
X6758468Y-11016174D01*
X6758468Y-11016174D02*
X6767991Y-11035222D01*
X6767991Y-11035222D02*
X6767991Y-11054270D01*
X6767991Y-11054270D02*
X6672753Y-11073317D01*
X6844182Y-11130460D02*
X6863230Y-11139984D01*
X6863230Y-11139984D02*
X6901325Y-11139984D01*
X6901325Y-11139984D02*
X6920372Y-11130460D01*
X6920372Y-11130460D02*
X6929896Y-11111412D01*
X6929896Y-11111412D02*
X6929896Y-11101889D01*
X6929896Y-11101889D02*
X6920372Y-11082841D01*
X6920372Y-11082841D02*
X6901325Y-11073317D01*
X6901325Y-11073317D02*
X6872753Y-11073317D01*
X6872753Y-11073317D02*
X6853706Y-11063793D01*
X6853706Y-11063793D02*
X6844182Y-11044746D01*
X6844182Y-11044746D02*
X6844182Y-11035222D01*
X6844182Y-11035222D02*
X6853706Y-11016174D01*
X6853706Y-11016174D02*
X6872753Y-11006650D01*
X6872753Y-11006650D02*
X6901325Y-11006650D01*
X6901325Y-11006650D02*
X6920372Y-11016174D01*
X6996563Y-11216174D02*
X7006087Y-11206650D01*
X7006087Y-11206650D02*
X7025134Y-11178079D01*
X7025134Y-11178079D02*
X7034658Y-11159031D01*
X7034658Y-11159031D02*
X7044182Y-11130460D01*
X7044182Y-11130460D02*
X7053706Y-11082841D01*
X7053706Y-11082841D02*
X7053706Y-11044746D01*
X7053706Y-11044746D02*
X7044182Y-10997127D01*
X7044182Y-10997127D02*
X7034658Y-10968555D01*
X7034658Y-10968555D02*
X7025134Y-10949508D01*
X7025134Y-10949508D02*
X7006087Y-10920936D01*
X7006087Y-10920936D02*
X6996563Y-10911412D01*
X7358468Y-11216174D02*
X7348944Y-11206650D01*
X7348944Y-11206650D02*
X7329896Y-11178079D01*
X7329896Y-11178079D02*
X7320372Y-11159031D01*
X7320372Y-11159031D02*
X7310849Y-11130460D01*
X7310849Y-11130460D02*
X7301325Y-11082841D01*
X7301325Y-11082841D02*
X7301325Y-11044746D01*
X7301325Y-11044746D02*
X7310849Y-10997127D01*
X7310849Y-10997127D02*
X7320372Y-10968555D01*
X7320372Y-10968555D02*
X7329896Y-10949508D01*
X7329896Y-10949508D02*
X7348944Y-10920936D01*
X7348944Y-10920936D02*
X7358468Y-10911412D01*
X7434658Y-11006650D02*
X7434658Y-11139984D01*
X7434658Y-11025698D02*
X7444182Y-11016174D01*
X7444182Y-11016174D02*
X7463230Y-11006650D01*
X7463230Y-11006650D02*
X7491801Y-11006650D01*
X7491801Y-11006650D02*
X7510849Y-11016174D01*
X7510849Y-11016174D02*
X7520372Y-11035222D01*
X7520372Y-11035222D02*
X7520372Y-11139984D01*
X7644182Y-11139984D02*
X7625134Y-11130460D01*
X7625134Y-11130460D02*
X7615611Y-11120936D01*
X7615611Y-11120936D02*
X7606087Y-11101889D01*
X7606087Y-11101889D02*
X7606087Y-11044746D01*
X7606087Y-11044746D02*
X7615611Y-11025698D01*
X7615611Y-11025698D02*
X7625134Y-11016174D01*
X7625134Y-11016174D02*
X7644182Y-11006650D01*
X7644182Y-11006650D02*
X7672753Y-11006650D01*
X7672753Y-11006650D02*
X7691801Y-11016174D01*
X7691801Y-11016174D02*
X7701325Y-11025698D01*
X7701325Y-11025698D02*
X7710849Y-11044746D01*
X7710849Y-11044746D02*
X7710849Y-11101889D01*
X7710849Y-11101889D02*
X7701325Y-11120936D01*
X7701325Y-11120936D02*
X7691801Y-11130460D01*
X7691801Y-11130460D02*
X7672753Y-11139984D01*
X7672753Y-11139984D02*
X7644182Y-11139984D01*
X7767992Y-11006650D02*
X7844182Y-11006650D01*
X7796563Y-10939984D02*
X7796563Y-11111412D01*
X7796563Y-11111412D02*
X7806087Y-11130460D01*
X7806087Y-11130460D02*
X7825134Y-11139984D01*
X7825134Y-11139984D02*
X7844182Y-11139984D01*
X8063230Y-11006650D02*
X8063230Y-11206650D01*
X8063230Y-11016174D02*
X8082277Y-11006650D01*
X8082277Y-11006650D02*
X8120373Y-11006650D01*
X8120373Y-11006650D02*
X8139420Y-11016174D01*
X8139420Y-11016174D02*
X8148944Y-11025698D01*
X8148944Y-11025698D02*
X8158468Y-11044746D01*
X8158468Y-11044746D02*
X8158468Y-11101889D01*
X8158468Y-11101889D02*
X8148944Y-11120936D01*
X8148944Y-11120936D02*
X8139420Y-11130460D01*
X8139420Y-11130460D02*
X8120373Y-11139984D01*
X8120373Y-11139984D02*
X8082277Y-11139984D01*
X8082277Y-11139984D02*
X8063230Y-11130460D01*
X8272753Y-11139984D02*
X8253706Y-11130460D01*
X8253706Y-11130460D02*
X8244182Y-11111412D01*
X8244182Y-11111412D02*
X8244182Y-10939984D01*
X8434658Y-11139984D02*
X8434658Y-11035222D01*
X8434658Y-11035222D02*
X8425135Y-11016174D01*
X8425135Y-11016174D02*
X8406087Y-11006650D01*
X8406087Y-11006650D02*
X8367992Y-11006650D01*
X8367992Y-11006650D02*
X8348944Y-11016174D01*
X8434658Y-11130460D02*
X8415611Y-11139984D01*
X8415611Y-11139984D02*
X8367992Y-11139984D01*
X8367992Y-11139984D02*
X8348944Y-11130460D01*
X8348944Y-11130460D02*
X8339420Y-11111412D01*
X8339420Y-11111412D02*
X8339420Y-11092365D01*
X8339420Y-11092365D02*
X8348944Y-11073317D01*
X8348944Y-11073317D02*
X8367992Y-11063793D01*
X8367992Y-11063793D02*
X8415611Y-11063793D01*
X8415611Y-11063793D02*
X8434658Y-11054270D01*
X8501325Y-11006650D02*
X8577515Y-11006650D01*
X8529896Y-10939984D02*
X8529896Y-11111412D01*
X8529896Y-11111412D02*
X8539420Y-11130460D01*
X8539420Y-11130460D02*
X8558468Y-11139984D01*
X8558468Y-11139984D02*
X8577515Y-11139984D01*
X8720373Y-11130460D02*
X8701325Y-11139984D01*
X8701325Y-11139984D02*
X8663230Y-11139984D01*
X8663230Y-11139984D02*
X8644182Y-11130460D01*
X8644182Y-11130460D02*
X8634658Y-11111412D01*
X8634658Y-11111412D02*
X8634658Y-11035222D01*
X8634658Y-11035222D02*
X8644182Y-11016174D01*
X8644182Y-11016174D02*
X8663230Y-11006650D01*
X8663230Y-11006650D02*
X8701325Y-11006650D01*
X8701325Y-11006650D02*
X8720373Y-11016174D01*
X8720373Y-11016174D02*
X8729896Y-11035222D01*
X8729896Y-11035222D02*
X8729896Y-11054270D01*
X8729896Y-11054270D02*
X8634658Y-11073317D01*
X8901325Y-11139984D02*
X8901325Y-10939984D01*
X8901325Y-11130460D02*
X8882277Y-11139984D01*
X8882277Y-11139984D02*
X8844182Y-11139984D01*
X8844182Y-11139984D02*
X8825135Y-11130460D01*
X8825135Y-11130460D02*
X8815611Y-11120936D01*
X8815611Y-11120936D02*
X8806087Y-11101889D01*
X8806087Y-11101889D02*
X8806087Y-11044746D01*
X8806087Y-11044746D02*
X8815611Y-11025698D01*
X8815611Y-11025698D02*
X8825135Y-11016174D01*
X8825135Y-11016174D02*
X8844182Y-11006650D01*
X8844182Y-11006650D02*
X8882277Y-11006650D01*
X8882277Y-11006650D02*
X8901325Y-11016174D01*
X8977516Y-11216174D02*
X8987039Y-11206650D01*
X8987039Y-11206650D02*
X9006087Y-11178079D01*
X9006087Y-11178079D02*
X9015611Y-11159031D01*
X9015611Y-11159031D02*
X9025135Y-11130460D01*
X9025135Y-11130460D02*
X9034658Y-11082841D01*
X9034658Y-11082841D02*
X9034658Y-11044746D01*
X9034658Y-11044746D02*
X9025135Y-10997127D01*
X9025135Y-10997127D02*
X9015611Y-10968555D01*
X9015611Y-10968555D02*
X9006087Y-10949508D01*
X9006087Y-10949508D02*
X8987039Y-10920936D01*
X8987039Y-10920936D02*
X8977516Y-10911412D01*
M02*
