%TF.GenerationSoftware,KiCad,Pcbnew,9.0.7*%
%TF.CreationDate,2026-08-20T17:34:48+02:00*%
%TF.ProjectId,Robotdriver,526f626f-7464-4726-9976-65722e6b6963,rev?*%
%TF.SameCoordinates,Original*%
%TF.FileFunction,Drillmap*%
%TF.FilePolarity,Positive*%
%FSLAX45Y45*%
G04 Gerber Fmt 4.5, Leading zero omitted, Abs format (unit mm)*
G04 Created by KiCad (PCBNEW 9.0.7) date 2026-08-20 17:34:48*
%MOMM*%
%LPD*%
G01*
G04 APERTURE LIST*
%ADD10C,0.050000*%
%ADD11C,0.200000*%
%ADD12C,0.100000*%
%ADD13C,0.120000*%
%ADD14C,0.320000*%
G04 APERTURE END LIST*
D10*
X2224000Y-3290000D02*
X11870175Y-3290000D01*
X11870175Y-10101000D01*
X2224000Y-10101000D01*
X2224000Y-3290000D01*
D11*
D12*
X6565175Y-6004000D02*
X6645175Y-6084000D01*
X6645175Y-6004000D02*
X6565175Y-6084000D01*
X6565175Y-6766000D02*
X6645175Y-6846000D01*
X6645175Y-6766000D02*
X6565175Y-6846000D01*
X6819175Y-6004000D02*
X6899175Y-6084000D01*
X6899175Y-6004000D02*
X6819175Y-6084000D01*
X6819175Y-6766000D02*
X6899175Y-6846000D01*
X6899175Y-6766000D02*
X6819175Y-6846000D01*
X7073175Y-6004000D02*
X7153175Y-6084000D01*
X7153175Y-6004000D02*
X7073175Y-6084000D01*
X7073175Y-6766000D02*
X7153175Y-6846000D01*
X7153175Y-6766000D02*
X7073175Y-6846000D01*
X7327175Y-6004000D02*
X7407175Y-6084000D01*
X7407175Y-6004000D02*
X7327175Y-6084000D01*
X7327175Y-6766000D02*
X7407175Y-6846000D01*
X7407175Y-6766000D02*
X7327175Y-6846000D01*
X7581175Y-6004000D02*
X7661175Y-6084000D01*
X7661175Y-6004000D02*
X7581175Y-6084000D01*
X7581175Y-6766000D02*
X7661175Y-6846000D01*
X7661175Y-6766000D02*
X7581175Y-6846000D01*
X7835175Y-6004000D02*
X7915175Y-6084000D01*
X7915175Y-6004000D02*
X7835175Y-6084000D01*
X7835175Y-6766000D02*
X7915175Y-6846000D01*
X7915175Y-6766000D02*
X7835175Y-6846000D01*
X8089175Y-6004000D02*
X8169175Y-6084000D01*
X8169175Y-6004000D02*
X8089175Y-6084000D01*
X8089175Y-6766000D02*
X8169175Y-6846000D01*
X8169175Y-6766000D02*
X8089175Y-6846000D01*
X8343175Y-6004000D02*
X8423175Y-6084000D01*
X8423175Y-6004000D02*
X8343175Y-6084000D01*
X8343175Y-6766000D02*
X8423175Y-6846000D01*
X8423175Y-6766000D02*
X8343175Y-6846000D01*
X8597175Y-6004000D02*
X8677175Y-6084000D01*
X8677175Y-6004000D02*
X8597175Y-6084000D01*
X8597175Y-6766000D02*
X8677175Y-6846000D01*
X8677175Y-6766000D02*
X8597175Y-6846000D01*
X9104175Y-6004000D02*
X9184175Y-6084000D01*
X9184175Y-6004000D02*
X9104175Y-6084000D01*
X9104175Y-6766000D02*
X9184175Y-6846000D01*
X9184175Y-6766000D02*
X9104175Y-6846000D01*
X9358175Y-6004000D02*
X9438175Y-6084000D01*
X9438175Y-6004000D02*
X9358175Y-6084000D01*
X9358175Y-6766000D02*
X9438175Y-6846000D01*
X9438175Y-6766000D02*
X9358175Y-6846000D01*
X9612175Y-6004000D02*
X9692175Y-6084000D01*
X9692175Y-6004000D02*
X9612175Y-6084000D01*
X9612175Y-6766000D02*
X9692175Y-6846000D01*
X9692175Y-6766000D02*
X9612175Y-6846000D01*
X9866175Y-6004000D02*
X9946175Y-6084000D01*
X9946175Y-6004000D02*
X9866175Y-6084000D01*
X9866175Y-6766000D02*
X9946175Y-6846000D01*
X9946175Y-6766000D02*
X9866175Y-6846000D01*
X10120175Y-6004000D02*
X10200175Y-6084000D01*
X10200175Y-6004000D02*
X10120175Y-6084000D01*
X10120175Y-6766000D02*
X10200175Y-6846000D01*
X10200175Y-6766000D02*
X10120175Y-6846000D01*
X10374175Y-6004000D02*
X10454175Y-6084000D01*
X10454175Y-6004000D02*
X10374175Y-6084000D01*
X10374175Y-6766000D02*
X10454175Y-6846000D01*
X10454175Y-6766000D02*
X10374175Y-6846000D01*
X10628175Y-6004000D02*
X10708175Y-6084000D01*
X10708175Y-6004000D02*
X10628175Y-6084000D01*
X10628175Y-6766000D02*
X10708175Y-6846000D01*
X10708175Y-6766000D02*
X10628175Y-6846000D01*
X10882175Y-6004000D02*
X10962175Y-6084000D01*
X10962175Y-6004000D02*
X10882175Y-6084000D01*
X10882175Y-6766000D02*
X10962175Y-6846000D01*
X10962175Y-6766000D02*
X10882175Y-6846000D01*
X11136175Y-6004000D02*
X11216175Y-6084000D01*
X11216175Y-6004000D02*
X11136175Y-6084000D01*
X11136175Y-6766000D02*
X11216175Y-6846000D01*
X11216175Y-6766000D02*
X11136175Y-6846000D01*
X4153175Y-4298000D02*
G75*
G02*
X4063175Y-4298000I-45000J0D01*
G01*
X4063175Y-4298000D02*
G75*
G02*
X4153175Y-4298000I45000J0D01*
G01*
X4407175Y-4298000D02*
G75*
G02*
X4317175Y-4298000I-45000J0D01*
G01*
X4317175Y-4298000D02*
G75*
G02*
X4407175Y-4298000I45000J0D01*
G01*
X3404175Y-9138500D02*
X3404175Y-9233500D01*
X3356675Y-9186000D02*
X3451675Y-9186000D01*
X3404175Y-9388500D02*
X3404175Y-9483500D01*
X3356675Y-9436000D02*
X3451675Y-9436000D01*
X3404175Y-9638500D02*
X3404175Y-9733500D01*
X3356675Y-9686000D02*
X3451675Y-9686000D01*
X3407175Y-7853500D02*
X3407175Y-7948500D01*
X3359675Y-7901000D02*
X3454675Y-7901000D01*
X3407175Y-8103500D02*
X3407175Y-8198500D01*
X3359675Y-8151000D02*
X3454675Y-8151000D01*
X3407175Y-8353500D02*
X3407175Y-8448500D01*
X3359675Y-8401000D02*
X3454675Y-8401000D01*
X4385675Y-9138500D02*
X4385675Y-9233500D01*
X4338175Y-9186000D02*
X4433175Y-9186000D01*
X4385675Y-9388500D02*
X4385675Y-9483500D01*
X4338175Y-9436000D02*
X4433175Y-9436000D01*
X4385675Y-9638500D02*
X4385675Y-9733500D01*
X4338175Y-9686000D02*
X4433175Y-9686000D01*
X4388675Y-7853500D02*
X4388675Y-7948500D01*
X4341175Y-7901000D02*
X4436175Y-7901000D01*
X4388675Y-8103500D02*
X4388675Y-8198500D01*
X4341175Y-8151000D02*
X4436175Y-8151000D01*
X4388675Y-8353500D02*
X4388675Y-8448500D01*
X4341175Y-8401000D02*
X4436175Y-8401000D01*
X5019175Y-5452500D02*
X5019175Y-5547500D01*
X4971675Y-5500000D02*
X5066675Y-5500000D01*
X5019175Y-6191000D02*
X5019175Y-6286000D01*
X4971675Y-6238500D02*
X5066675Y-6238500D01*
X5019175Y-6929500D02*
X5019175Y-7024500D01*
X4971675Y-6977000D02*
X5066675Y-6977000D01*
X5269175Y-5452500D02*
X5269175Y-5547500D01*
X5221675Y-5500000D02*
X5316675Y-5500000D01*
X5269175Y-6191000D02*
X5269175Y-6286000D01*
X5221675Y-6238500D02*
X5316675Y-6238500D01*
X5269175Y-6929500D02*
X5269175Y-7024500D01*
X5221675Y-6977000D02*
X5316675Y-6977000D01*
X5367175Y-9138500D02*
X5367175Y-9233500D01*
X5319675Y-9186000D02*
X5414675Y-9186000D01*
X5367175Y-9388500D02*
X5367175Y-9483500D01*
X5319675Y-9436000D02*
X5414675Y-9436000D01*
X5367175Y-9638500D02*
X5367175Y-9733500D01*
X5319675Y-9686000D02*
X5414675Y-9686000D01*
X5370175Y-7853500D02*
X5370175Y-7948500D01*
X5322675Y-7901000D02*
X5417675Y-7901000D01*
X5370175Y-8103500D02*
X5370175Y-8198500D01*
X5322675Y-8151000D02*
X5417675Y-8151000D01*
X5370175Y-8353500D02*
X5370175Y-8448500D01*
X5322675Y-8401000D02*
X5417675Y-8401000D01*
X5519175Y-5452500D02*
X5519175Y-5547500D01*
X5471675Y-5500000D02*
X5566675Y-5500000D01*
X5519175Y-6191000D02*
X5519175Y-6286000D01*
X5471675Y-6238500D02*
X5566675Y-6238500D01*
X5519175Y-6929500D02*
X5519175Y-7024500D01*
X5471675Y-6977000D02*
X5566675Y-6977000D01*
X5769175Y-5452500D02*
X5769175Y-5547500D01*
X5721675Y-5500000D02*
X5816675Y-5500000D01*
X5769175Y-6191000D02*
X5769175Y-6286000D01*
X5721675Y-6238500D02*
X5816675Y-6238500D01*
X5769175Y-6929500D02*
X5769175Y-7024500D01*
X5721675Y-6977000D02*
X5816675Y-6977000D01*
X7065175Y-3759500D02*
X7065175Y-3854500D01*
X7017675Y-3807000D02*
X7112675Y-3807000D01*
X7065175Y-4009500D02*
X7065175Y-4104500D01*
X7017675Y-4057000D02*
X7112675Y-4057000D01*
X7065175Y-4259500D02*
X7065175Y-4354500D01*
X7017675Y-4307000D02*
X7112675Y-4307000D01*
X7065175Y-4509500D02*
X7065175Y-4604500D01*
X7017675Y-4557000D02*
X7112675Y-4557000D01*
X7065175Y-4759500D02*
X7065175Y-4854500D01*
X7017675Y-4807000D02*
X7112675Y-4807000D01*
X7065175Y-5009500D02*
X7065175Y-5104500D01*
X7017675Y-5057000D02*
X7112675Y-5057000D01*
X7863775Y-3759500D02*
X7863775Y-3854500D01*
X7816275Y-3807000D02*
X7911275Y-3807000D01*
X7863775Y-4009500D02*
X7863775Y-4104500D01*
X7816275Y-4057000D02*
X7911275Y-4057000D01*
X7863775Y-4259500D02*
X7863775Y-4354500D01*
X7816275Y-4307000D02*
X7911275Y-4307000D01*
X7863775Y-4509500D02*
X7863775Y-4604500D01*
X7816275Y-4557000D02*
X7911275Y-4557000D01*
X7863775Y-4759500D02*
X7863775Y-4854500D01*
X7816275Y-4807000D02*
X7911275Y-4807000D01*
X7863775Y-5009500D02*
X7863775Y-5104500D01*
X7816275Y-5057000D02*
X7911275Y-5057000D01*
X8382175Y-9634500D02*
X8382175Y-9729500D01*
X8334675Y-9682000D02*
X8429675Y-9682000D01*
X8632175Y-9634500D02*
X8632175Y-9729500D01*
X8584675Y-9682000D02*
X8679675Y-9682000D01*
X8662375Y-3759500D02*
X8662375Y-3854500D01*
X8614875Y-3807000D02*
X8709875Y-3807000D01*
X8662375Y-4009500D02*
X8662375Y-4104500D01*
X8614875Y-4057000D02*
X8709875Y-4057000D01*
X8662375Y-4259500D02*
X8662375Y-4354500D01*
X8614875Y-4307000D02*
X8709875Y-4307000D01*
X8662375Y-4509500D02*
X8662375Y-4604500D01*
X8614875Y-4557000D02*
X8709875Y-4557000D01*
X8662375Y-4759500D02*
X8662375Y-4854500D01*
X8614875Y-4807000D02*
X8709875Y-4807000D01*
X8662375Y-5009500D02*
X8662375Y-5104500D01*
X8614875Y-5057000D02*
X8709875Y-5057000D01*
X8882175Y-9634500D02*
X8882175Y-9729500D01*
X8834675Y-9682000D02*
X8929675Y-9682000D01*
X9460975Y-3759500D02*
X9460975Y-3854500D01*
X9413475Y-3807000D02*
X9508475Y-3807000D01*
X9460975Y-4009500D02*
X9460975Y-4104500D01*
X9413475Y-4057000D02*
X9508475Y-4057000D01*
X9460975Y-4259500D02*
X9460975Y-4354500D01*
X9413475Y-4307000D02*
X9508475Y-4307000D01*
X9460975Y-4509500D02*
X9460975Y-4604500D01*
X9413475Y-4557000D02*
X9508475Y-4557000D01*
X9460975Y-4759500D02*
X9460975Y-4854500D01*
X9413475Y-4807000D02*
X9508475Y-4807000D01*
X9460975Y-5009500D02*
X9460975Y-5104500D01*
X9413475Y-5057000D02*
X9508475Y-5057000D01*
X10259575Y-3759500D02*
X10259575Y-3854500D01*
X10212075Y-3807000D02*
X10307075Y-3807000D01*
X10259575Y-4009500D02*
X10259575Y-4104500D01*
X10212075Y-4057000D02*
X10307075Y-4057000D01*
X10259575Y-4259500D02*
X10259575Y-4354500D01*
X10212075Y-4307000D02*
X10307075Y-4307000D01*
X10259575Y-4509500D02*
X10259575Y-4604500D01*
X10212075Y-4557000D02*
X10307075Y-4557000D01*
X10259575Y-4759500D02*
X10259575Y-4854500D01*
X10212075Y-4807000D02*
X10307075Y-4807000D01*
X10259575Y-5009500D02*
X10259575Y-5104500D01*
X10212075Y-5057000D02*
X10307075Y-5057000D01*
X11058175Y-3759500D02*
X11058175Y-3854500D01*
X11010675Y-3807000D02*
X11105675Y-3807000D01*
X11058175Y-4009500D02*
X11058175Y-4104500D01*
X11010675Y-4057000D02*
X11105675Y-4057000D01*
X11058175Y-4259500D02*
X11058175Y-4354500D01*
X11010675Y-4307000D02*
X11105675Y-4307000D01*
X11058175Y-4509500D02*
X11058175Y-4604500D01*
X11010675Y-4557000D02*
X11105675Y-4557000D01*
X11058175Y-4759500D02*
X11058175Y-4854500D01*
X11010675Y-4807000D02*
X11105675Y-4807000D01*
X11058175Y-5009500D02*
X11058175Y-5104500D01*
X11010675Y-5057000D02*
X11105675Y-5057000D01*
X5495531Y-4091356D02*
X5495531Y-4020644D01*
X5424819Y-4020644D01*
X5424819Y-4091356D01*
X5495531Y-4091356D01*
X5745531Y-4091356D02*
X5745531Y-4020644D01*
X5674819Y-4020644D01*
X5674819Y-4091356D01*
X5745531Y-4091356D01*
X6636606Y-7406356D02*
X6636606Y-7335644D01*
X6565894Y-7335644D01*
X6565894Y-7406356D01*
X6636606Y-7406356D01*
X6636606Y-9184356D02*
X6636606Y-9113644D01*
X6565894Y-9113644D01*
X6565894Y-9184356D01*
X6636606Y-9184356D01*
X6890606Y-7406356D02*
X6890606Y-7335644D01*
X6819894Y-7335644D01*
X6819894Y-7406356D01*
X6890606Y-7406356D01*
X6890606Y-9184356D02*
X6890606Y-9113644D01*
X6819894Y-9113644D01*
X6819894Y-9184356D01*
X6890606Y-9184356D01*
X7144606Y-7406356D02*
X7144606Y-7335644D01*
X7073894Y-7335644D01*
X7073894Y-7406356D01*
X7144606Y-7406356D01*
X7144606Y-9184356D02*
X7144606Y-9113644D01*
X7073894Y-9113644D01*
X7073894Y-9184356D01*
X7144606Y-9184356D01*
X7398606Y-7406356D02*
X7398606Y-7335644D01*
X7327894Y-7335644D01*
X7327894Y-7406356D01*
X7398606Y-7406356D01*
X7398606Y-9184356D02*
X7398606Y-9113644D01*
X7327894Y-9113644D01*
X7327894Y-9184356D01*
X7398606Y-9184356D01*
X7652606Y-7406356D02*
X7652606Y-7335644D01*
X7581894Y-7335644D01*
X7581894Y-7406356D01*
X7652606Y-7406356D01*
X7652606Y-9184356D02*
X7652606Y-9113644D01*
X7581894Y-9113644D01*
X7581894Y-9184356D01*
X7652606Y-9184356D01*
X7906606Y-7406356D02*
X7906606Y-7335644D01*
X7835894Y-7335644D01*
X7835894Y-7406356D01*
X7906606Y-7406356D01*
X7906606Y-9184356D02*
X7906606Y-9113644D01*
X7835894Y-9113644D01*
X7835894Y-9184356D01*
X7906606Y-9184356D01*
X8160606Y-7406356D02*
X8160606Y-7335644D01*
X8089894Y-7335644D01*
X8089894Y-7406356D01*
X8160606Y-7406356D01*
X8160606Y-9184356D02*
X8160606Y-9113644D01*
X8089894Y-9113644D01*
X8089894Y-9184356D01*
X8160606Y-9184356D01*
X8414606Y-7406356D02*
X8414606Y-7335644D01*
X8343894Y-7335644D01*
X8343894Y-7406356D01*
X8414606Y-7406356D01*
X8414606Y-9184356D02*
X8414606Y-9113644D01*
X8343894Y-9113644D01*
X8343894Y-9184356D01*
X8414606Y-9184356D01*
X8668606Y-7406356D02*
X8668606Y-7335644D01*
X8597894Y-7335644D01*
X8597894Y-7406356D01*
X8668606Y-7406356D01*
X8668606Y-9184356D02*
X8668606Y-9113644D01*
X8597894Y-9113644D01*
X8597894Y-9184356D01*
X8668606Y-9184356D01*
X8922606Y-7406356D02*
X8922606Y-7335644D01*
X8851894Y-7335644D01*
X8851894Y-7406356D01*
X8922606Y-7406356D01*
X8922606Y-9184356D02*
X8922606Y-9113644D01*
X8851894Y-9113644D01*
X8851894Y-9184356D01*
X8922606Y-9184356D01*
X9176606Y-7406356D02*
X9176606Y-7335644D01*
X9105894Y-7335644D01*
X9105894Y-7406356D01*
X9176606Y-7406356D01*
X9176606Y-9184356D02*
X9176606Y-9113644D01*
X9105894Y-9113644D01*
X9105894Y-9184356D01*
X9176606Y-9184356D01*
X9430606Y-7406356D02*
X9430606Y-7335644D01*
X9359894Y-7335644D01*
X9359894Y-7406356D01*
X9430606Y-7406356D01*
X9430606Y-9184356D02*
X9430606Y-9113644D01*
X9359894Y-9113644D01*
X9359894Y-9184356D01*
X9430606Y-9184356D01*
X9684606Y-7406356D02*
X9684606Y-7335644D01*
X9613894Y-7335644D01*
X9613894Y-7406356D01*
X9684606Y-7406356D01*
X9684606Y-9184356D02*
X9684606Y-9113644D01*
X9613894Y-9113644D01*
X9613894Y-9184356D01*
X9684606Y-9184356D01*
X9938606Y-7406356D02*
X9938606Y-7335644D01*
X9867894Y-7335644D01*
X9867894Y-7406356D01*
X9938606Y-7406356D01*
X9938606Y-9184356D02*
X9938606Y-9113644D01*
X9867894Y-9113644D01*
X9867894Y-9184356D01*
X9938606Y-9184356D01*
X10192606Y-7406356D02*
X10192606Y-7335644D01*
X10121894Y-7335644D01*
X10121894Y-7406356D01*
X10192606Y-7406356D01*
X10192606Y-9184356D02*
X10192606Y-9113644D01*
X10121894Y-9113644D01*
X10121894Y-9184356D01*
X10192606Y-9184356D01*
X10446606Y-7406356D02*
X10446606Y-7335644D01*
X10375894Y-7335644D01*
X10375894Y-7406356D01*
X10446606Y-7406356D01*
X10446606Y-9184356D02*
X10446606Y-9113644D01*
X10375894Y-9113644D01*
X10375894Y-9184356D01*
X10446606Y-9184356D01*
X10700606Y-7406356D02*
X10700606Y-7335644D01*
X10629894Y-7335644D01*
X10629894Y-7406356D01*
X10700606Y-7406356D01*
X10700606Y-9184356D02*
X10700606Y-9113644D01*
X10629894Y-9113644D01*
X10629894Y-9184356D01*
X10700606Y-9184356D01*
X10954606Y-7406356D02*
X10954606Y-7335644D01*
X10883894Y-7335644D01*
X10883894Y-7406356D01*
X10954606Y-7406356D01*
X10954606Y-9184356D02*
X10954606Y-9113644D01*
X10883894Y-9113644D01*
X10883894Y-9184356D01*
X10954606Y-9184356D01*
X11208606Y-7406356D02*
X11208606Y-7335644D01*
X11137894Y-7335644D01*
X11137894Y-7406356D01*
X11208606Y-7406356D01*
X11208606Y-9184356D02*
X11208606Y-9113644D01*
X11137894Y-9113644D01*
X11137894Y-9184356D01*
X11208606Y-9184356D01*
X11462606Y-7406356D02*
X11462606Y-7335644D01*
X11391894Y-7335644D01*
X11391894Y-7406356D01*
X11462606Y-7406356D01*
X11462606Y-9184356D02*
X11462606Y-9113644D01*
X11391894Y-9113644D01*
X11391894Y-9184356D01*
X11462606Y-9184356D01*
D13*
X4112175Y-5214000D02*
X4172175Y-5154000D01*
X4112175Y-5094000D01*
X4052175Y-5154000D01*
X4112175Y-5214000D01*
X4112175Y-7246000D02*
X4172175Y-7186000D01*
X4112175Y-7126000D01*
X4052175Y-7186000D01*
X4112175Y-7246000D01*
D14*
X2840000Y-4042000D02*
X3160000Y-4362000D01*
X3160000Y-4042000D02*
X2840000Y-4362000D01*
X3160000Y-4202000D02*
G75*
G02*
X2840000Y-4202000I-160000J0D01*
G01*
X2840000Y-4202000D02*
G75*
G02*
X3160000Y-4202000I160000J0D01*
G01*
X2840000Y-6442000D02*
X3160000Y-6762000D01*
X3160000Y-6442000D02*
X2840000Y-6762000D01*
X3160000Y-6602000D02*
G75*
G02*
X2840000Y-6602000I-160000J0D01*
G01*
X2840000Y-6602000D02*
G75*
G02*
X3160000Y-6602000I160000J0D01*
G01*
X11350000Y-9582000D02*
X11670000Y-9902000D01*
X11670000Y-9582000D02*
X11350000Y-9902000D01*
X11670000Y-9742000D02*
G75*
G02*
X11350000Y-9742000I-160000J0D01*
G01*
X11350000Y-9742000D02*
G75*
G02*
X11670000Y-9742000I160000J0D01*
G01*
D11*
X2482277Y-10414984D02*
X2482277Y-10214984D01*
X2482277Y-10214984D02*
X2529896Y-10214984D01*
X2529896Y-10214984D02*
X2558467Y-10224508D01*
X2558467Y-10224508D02*
X2577515Y-10243555D01*
X2577515Y-10243555D02*
X2587039Y-10262603D01*
X2587039Y-10262603D02*
X2596563Y-10300698D01*
X2596563Y-10300698D02*
X2596563Y-10329270D01*
X2596563Y-10329270D02*
X2587039Y-10367365D01*
X2587039Y-10367365D02*
X2577515Y-10386412D01*
X2577515Y-10386412D02*
X2558467Y-10405460D01*
X2558467Y-10405460D02*
X2529896Y-10414984D01*
X2529896Y-10414984D02*
X2482277Y-10414984D01*
X2682277Y-10414984D02*
X2682277Y-10281650D01*
X2682277Y-10319746D02*
X2691801Y-10300698D01*
X2691801Y-10300698D02*
X2701324Y-10291174D01*
X2701324Y-10291174D02*
X2720372Y-10281650D01*
X2720372Y-10281650D02*
X2739420Y-10281650D01*
X2806086Y-10414984D02*
X2806086Y-10281650D01*
X2806086Y-10214984D02*
X2796562Y-10224508D01*
X2796562Y-10224508D02*
X2806086Y-10234031D01*
X2806086Y-10234031D02*
X2815610Y-10224508D01*
X2815610Y-10224508D02*
X2806086Y-10214984D01*
X2806086Y-10214984D02*
X2806086Y-10234031D01*
X2929896Y-10414984D02*
X2910848Y-10405460D01*
X2910848Y-10405460D02*
X2901324Y-10386412D01*
X2901324Y-10386412D02*
X2901324Y-10214984D01*
X3034658Y-10414984D02*
X3015610Y-10405460D01*
X3015610Y-10405460D02*
X3006086Y-10386412D01*
X3006086Y-10386412D02*
X3006086Y-10214984D01*
X3263229Y-10414984D02*
X3263229Y-10214984D01*
X3263229Y-10214984D02*
X3329896Y-10357841D01*
X3329896Y-10357841D02*
X3396562Y-10214984D01*
X3396562Y-10214984D02*
X3396562Y-10414984D01*
X3577515Y-10414984D02*
X3577515Y-10310222D01*
X3577515Y-10310222D02*
X3567991Y-10291174D01*
X3567991Y-10291174D02*
X3548943Y-10281650D01*
X3548943Y-10281650D02*
X3510848Y-10281650D01*
X3510848Y-10281650D02*
X3491801Y-10291174D01*
X3577515Y-10405460D02*
X3558467Y-10414984D01*
X3558467Y-10414984D02*
X3510848Y-10414984D01*
X3510848Y-10414984D02*
X3491801Y-10405460D01*
X3491801Y-10405460D02*
X3482277Y-10386412D01*
X3482277Y-10386412D02*
X3482277Y-10367365D01*
X3482277Y-10367365D02*
X3491801Y-10348317D01*
X3491801Y-10348317D02*
X3510848Y-10338793D01*
X3510848Y-10338793D02*
X3558467Y-10338793D01*
X3558467Y-10338793D02*
X3577515Y-10329270D01*
X3672753Y-10281650D02*
X3672753Y-10481650D01*
X3672753Y-10291174D02*
X3691801Y-10281650D01*
X3691801Y-10281650D02*
X3729896Y-10281650D01*
X3729896Y-10281650D02*
X3748943Y-10291174D01*
X3748943Y-10291174D02*
X3758467Y-10300698D01*
X3758467Y-10300698D02*
X3767991Y-10319746D01*
X3767991Y-10319746D02*
X3767991Y-10376889D01*
X3767991Y-10376889D02*
X3758467Y-10395936D01*
X3758467Y-10395936D02*
X3748943Y-10405460D01*
X3748943Y-10405460D02*
X3729896Y-10414984D01*
X3729896Y-10414984D02*
X3691801Y-10414984D01*
X3691801Y-10414984D02*
X3672753Y-10405460D01*
X3853705Y-10395936D02*
X3863229Y-10405460D01*
X3863229Y-10405460D02*
X3853705Y-10414984D01*
X3853705Y-10414984D02*
X3844182Y-10405460D01*
X3844182Y-10405460D02*
X3853705Y-10395936D01*
X3853705Y-10395936D02*
X3853705Y-10414984D01*
X3853705Y-10291174D02*
X3863229Y-10300698D01*
X3863229Y-10300698D02*
X3853705Y-10310222D01*
X3853705Y-10310222D02*
X3844182Y-10300698D01*
X3844182Y-10300698D02*
X3853705Y-10291174D01*
X3853705Y-10291174D02*
X3853705Y-10310222D01*
D12*
X2141500Y-10703500D02*
X2221500Y-10783500D01*
X2221500Y-10703500D02*
X2141500Y-10783500D01*
D11*
X2520372Y-10634984D02*
X2539420Y-10634984D01*
X2539420Y-10634984D02*
X2558467Y-10644508D01*
X2558467Y-10644508D02*
X2567991Y-10654031D01*
X2567991Y-10654031D02*
X2577515Y-10673079D01*
X2577515Y-10673079D02*
X2587039Y-10711174D01*
X2587039Y-10711174D02*
X2587039Y-10758793D01*
X2587039Y-10758793D02*
X2577515Y-10796889D01*
X2577515Y-10796889D02*
X2567991Y-10815936D01*
X2567991Y-10815936D02*
X2558467Y-10825460D01*
X2558467Y-10825460D02*
X2539420Y-10834984D01*
X2539420Y-10834984D02*
X2520372Y-10834984D01*
X2520372Y-10834984D02*
X2501324Y-10825460D01*
X2501324Y-10825460D02*
X2491801Y-10815936D01*
X2491801Y-10815936D02*
X2482277Y-10796889D01*
X2482277Y-10796889D02*
X2472753Y-10758793D01*
X2472753Y-10758793D02*
X2472753Y-10711174D01*
X2472753Y-10711174D02*
X2482277Y-10673079D01*
X2482277Y-10673079D02*
X2491801Y-10654031D01*
X2491801Y-10654031D02*
X2501324Y-10644508D01*
X2501324Y-10644508D02*
X2520372Y-10634984D01*
X2672753Y-10815936D02*
X2682277Y-10825460D01*
X2682277Y-10825460D02*
X2672753Y-10834984D01*
X2672753Y-10834984D02*
X2663229Y-10825460D01*
X2663229Y-10825460D02*
X2672753Y-10815936D01*
X2672753Y-10815936D02*
X2672753Y-10834984D01*
X2796562Y-10720698D02*
X2777515Y-10711174D01*
X2777515Y-10711174D02*
X2767991Y-10701650D01*
X2767991Y-10701650D02*
X2758467Y-10682603D01*
X2758467Y-10682603D02*
X2758467Y-10673079D01*
X2758467Y-10673079D02*
X2767991Y-10654031D01*
X2767991Y-10654031D02*
X2777515Y-10644508D01*
X2777515Y-10644508D02*
X2796562Y-10634984D01*
X2796562Y-10634984D02*
X2834658Y-10634984D01*
X2834658Y-10634984D02*
X2853705Y-10644508D01*
X2853705Y-10644508D02*
X2863229Y-10654031D01*
X2863229Y-10654031D02*
X2872753Y-10673079D01*
X2872753Y-10673079D02*
X2872753Y-10682603D01*
X2872753Y-10682603D02*
X2863229Y-10701650D01*
X2863229Y-10701650D02*
X2853705Y-10711174D01*
X2853705Y-10711174D02*
X2834658Y-10720698D01*
X2834658Y-10720698D02*
X2796562Y-10720698D01*
X2796562Y-10720698D02*
X2777515Y-10730222D01*
X2777515Y-10730222D02*
X2767991Y-10739746D01*
X2767991Y-10739746D02*
X2758467Y-10758793D01*
X2758467Y-10758793D02*
X2758467Y-10796889D01*
X2758467Y-10796889D02*
X2767991Y-10815936D01*
X2767991Y-10815936D02*
X2777515Y-10825460D01*
X2777515Y-10825460D02*
X2796562Y-10834984D01*
X2796562Y-10834984D02*
X2834658Y-10834984D01*
X2834658Y-10834984D02*
X2853705Y-10825460D01*
X2853705Y-10825460D02*
X2863229Y-10815936D01*
X2863229Y-10815936D02*
X2872753Y-10796889D01*
X2872753Y-10796889D02*
X2872753Y-10758793D01*
X2872753Y-10758793D02*
X2863229Y-10739746D01*
X2863229Y-10739746D02*
X2853705Y-10730222D01*
X2853705Y-10730222D02*
X2834658Y-10720698D01*
X2996562Y-10634984D02*
X3015610Y-10634984D01*
X3015610Y-10634984D02*
X3034658Y-10644508D01*
X3034658Y-10644508D02*
X3044182Y-10654031D01*
X3044182Y-10654031D02*
X3053705Y-10673079D01*
X3053705Y-10673079D02*
X3063229Y-10711174D01*
X3063229Y-10711174D02*
X3063229Y-10758793D01*
X3063229Y-10758793D02*
X3053705Y-10796889D01*
X3053705Y-10796889D02*
X3044182Y-10815936D01*
X3044182Y-10815936D02*
X3034658Y-10825460D01*
X3034658Y-10825460D02*
X3015610Y-10834984D01*
X3015610Y-10834984D02*
X2996562Y-10834984D01*
X2996562Y-10834984D02*
X2977515Y-10825460D01*
X2977515Y-10825460D02*
X2967991Y-10815936D01*
X2967991Y-10815936D02*
X2958467Y-10796889D01*
X2958467Y-10796889D02*
X2948943Y-10758793D01*
X2948943Y-10758793D02*
X2948943Y-10711174D01*
X2948943Y-10711174D02*
X2958467Y-10673079D01*
X2958467Y-10673079D02*
X2967991Y-10654031D01*
X2967991Y-10654031D02*
X2977515Y-10644508D01*
X2977515Y-10644508D02*
X2996562Y-10634984D01*
X3187039Y-10634984D02*
X3206086Y-10634984D01*
X3206086Y-10634984D02*
X3225134Y-10644508D01*
X3225134Y-10644508D02*
X3234658Y-10654031D01*
X3234658Y-10654031D02*
X3244182Y-10673079D01*
X3244182Y-10673079D02*
X3253705Y-10711174D01*
X3253705Y-10711174D02*
X3253705Y-10758793D01*
X3253705Y-10758793D02*
X3244182Y-10796889D01*
X3244182Y-10796889D02*
X3234658Y-10815936D01*
X3234658Y-10815936D02*
X3225134Y-10825460D01*
X3225134Y-10825460D02*
X3206086Y-10834984D01*
X3206086Y-10834984D02*
X3187039Y-10834984D01*
X3187039Y-10834984D02*
X3167991Y-10825460D01*
X3167991Y-10825460D02*
X3158467Y-10815936D01*
X3158467Y-10815936D02*
X3148943Y-10796889D01*
X3148943Y-10796889D02*
X3139420Y-10758793D01*
X3139420Y-10758793D02*
X3139420Y-10711174D01*
X3139420Y-10711174D02*
X3148943Y-10673079D01*
X3148943Y-10673079D02*
X3158467Y-10654031D01*
X3158467Y-10654031D02*
X3167991Y-10644508D01*
X3167991Y-10644508D02*
X3187039Y-10634984D01*
X3339420Y-10834984D02*
X3339420Y-10701650D01*
X3339420Y-10720698D02*
X3348943Y-10711174D01*
X3348943Y-10711174D02*
X3367991Y-10701650D01*
X3367991Y-10701650D02*
X3396563Y-10701650D01*
X3396563Y-10701650D02*
X3415610Y-10711174D01*
X3415610Y-10711174D02*
X3425134Y-10730222D01*
X3425134Y-10730222D02*
X3425134Y-10834984D01*
X3425134Y-10730222D02*
X3434658Y-10711174D01*
X3434658Y-10711174D02*
X3453705Y-10701650D01*
X3453705Y-10701650D02*
X3482277Y-10701650D01*
X3482277Y-10701650D02*
X3501324Y-10711174D01*
X3501324Y-10711174D02*
X3510848Y-10730222D01*
X3510848Y-10730222D02*
X3510848Y-10834984D01*
X3606086Y-10834984D02*
X3606086Y-10701650D01*
X3606086Y-10720698D02*
X3615610Y-10711174D01*
X3615610Y-10711174D02*
X3634658Y-10701650D01*
X3634658Y-10701650D02*
X3663229Y-10701650D01*
X3663229Y-10701650D02*
X3682277Y-10711174D01*
X3682277Y-10711174D02*
X3691801Y-10730222D01*
X3691801Y-10730222D02*
X3691801Y-10834984D01*
X3691801Y-10730222D02*
X3701324Y-10711174D01*
X3701324Y-10711174D02*
X3720372Y-10701650D01*
X3720372Y-10701650D02*
X3748943Y-10701650D01*
X3748943Y-10701650D02*
X3767991Y-10711174D01*
X3767991Y-10711174D02*
X3777515Y-10730222D01*
X3777515Y-10730222D02*
X3777515Y-10834984D01*
X4167991Y-10625460D02*
X3996563Y-10882603D01*
X4425134Y-10634984D02*
X4444182Y-10634984D01*
X4444182Y-10634984D02*
X4463229Y-10644508D01*
X4463229Y-10644508D02*
X4472753Y-10654031D01*
X4472753Y-10654031D02*
X4482277Y-10673079D01*
X4482277Y-10673079D02*
X4491801Y-10711174D01*
X4491801Y-10711174D02*
X4491801Y-10758793D01*
X4491801Y-10758793D02*
X4482277Y-10796889D01*
X4482277Y-10796889D02*
X4472753Y-10815936D01*
X4472753Y-10815936D02*
X4463229Y-10825460D01*
X4463229Y-10825460D02*
X4444182Y-10834984D01*
X4444182Y-10834984D02*
X4425134Y-10834984D01*
X4425134Y-10834984D02*
X4406087Y-10825460D01*
X4406087Y-10825460D02*
X4396563Y-10815936D01*
X4396563Y-10815936D02*
X4387039Y-10796889D01*
X4387039Y-10796889D02*
X4377515Y-10758793D01*
X4377515Y-10758793D02*
X4377515Y-10711174D01*
X4377515Y-10711174D02*
X4387039Y-10673079D01*
X4387039Y-10673079D02*
X4396563Y-10654031D01*
X4396563Y-10654031D02*
X4406087Y-10644508D01*
X4406087Y-10644508D02*
X4425134Y-10634984D01*
X4577515Y-10815936D02*
X4587039Y-10825460D01*
X4587039Y-10825460D02*
X4577515Y-10834984D01*
X4577515Y-10834984D02*
X4567991Y-10825460D01*
X4567991Y-10825460D02*
X4577515Y-10815936D01*
X4577515Y-10815936D02*
X4577515Y-10834984D01*
X4710848Y-10634984D02*
X4729896Y-10634984D01*
X4729896Y-10634984D02*
X4748944Y-10644508D01*
X4748944Y-10644508D02*
X4758468Y-10654031D01*
X4758468Y-10654031D02*
X4767991Y-10673079D01*
X4767991Y-10673079D02*
X4777515Y-10711174D01*
X4777515Y-10711174D02*
X4777515Y-10758793D01*
X4777515Y-10758793D02*
X4767991Y-10796889D01*
X4767991Y-10796889D02*
X4758468Y-10815936D01*
X4758468Y-10815936D02*
X4748944Y-10825460D01*
X4748944Y-10825460D02*
X4729896Y-10834984D01*
X4729896Y-10834984D02*
X4710848Y-10834984D01*
X4710848Y-10834984D02*
X4691801Y-10825460D01*
X4691801Y-10825460D02*
X4682277Y-10815936D01*
X4682277Y-10815936D02*
X4672753Y-10796889D01*
X4672753Y-10796889D02*
X4663229Y-10758793D01*
X4663229Y-10758793D02*
X4663229Y-10711174D01*
X4663229Y-10711174D02*
X4672753Y-10673079D01*
X4672753Y-10673079D02*
X4682277Y-10654031D01*
X4682277Y-10654031D02*
X4691801Y-10644508D01*
X4691801Y-10644508D02*
X4710848Y-10634984D01*
X4844182Y-10634984D02*
X4967991Y-10634984D01*
X4967991Y-10634984D02*
X4901325Y-10711174D01*
X4901325Y-10711174D02*
X4929896Y-10711174D01*
X4929896Y-10711174D02*
X4948944Y-10720698D01*
X4948944Y-10720698D02*
X4958468Y-10730222D01*
X4958468Y-10730222D02*
X4967991Y-10749270D01*
X4967991Y-10749270D02*
X4967991Y-10796889D01*
X4967991Y-10796889D02*
X4958468Y-10815936D01*
X4958468Y-10815936D02*
X4948944Y-10825460D01*
X4948944Y-10825460D02*
X4929896Y-10834984D01*
X4929896Y-10834984D02*
X4872753Y-10834984D01*
X4872753Y-10834984D02*
X4853706Y-10825460D01*
X4853706Y-10825460D02*
X4844182Y-10815936D01*
X5158468Y-10834984D02*
X5044182Y-10834984D01*
X5101325Y-10834984D02*
X5101325Y-10634984D01*
X5101325Y-10634984D02*
X5082277Y-10663555D01*
X5082277Y-10663555D02*
X5063229Y-10682603D01*
X5063229Y-10682603D02*
X5044182Y-10692127D01*
X5339420Y-10634984D02*
X5244182Y-10634984D01*
X5244182Y-10634984D02*
X5234658Y-10730222D01*
X5234658Y-10730222D02*
X5244182Y-10720698D01*
X5244182Y-10720698D02*
X5263229Y-10711174D01*
X5263229Y-10711174D02*
X5310849Y-10711174D01*
X5310849Y-10711174D02*
X5329896Y-10720698D01*
X5329896Y-10720698D02*
X5339420Y-10730222D01*
X5339420Y-10730222D02*
X5348944Y-10749270D01*
X5348944Y-10749270D02*
X5348944Y-10796889D01*
X5348944Y-10796889D02*
X5339420Y-10815936D01*
X5339420Y-10815936D02*
X5329896Y-10825460D01*
X5329896Y-10825460D02*
X5310849Y-10834984D01*
X5310849Y-10834984D02*
X5263229Y-10834984D01*
X5263229Y-10834984D02*
X5244182Y-10825460D01*
X5244182Y-10825460D02*
X5234658Y-10815936D01*
X5425134Y-10634984D02*
X5425134Y-10673079D01*
X5501325Y-10634984D02*
X5501325Y-10673079D01*
X5796563Y-10911174D02*
X5787039Y-10901650D01*
X5787039Y-10901650D02*
X5767991Y-10873079D01*
X5767991Y-10873079D02*
X5758468Y-10854031D01*
X5758468Y-10854031D02*
X5748944Y-10825460D01*
X5748944Y-10825460D02*
X5739420Y-10777841D01*
X5739420Y-10777841D02*
X5739420Y-10739746D01*
X5739420Y-10739746D02*
X5748944Y-10692127D01*
X5748944Y-10692127D02*
X5758468Y-10663555D01*
X5758468Y-10663555D02*
X5767991Y-10644508D01*
X5767991Y-10644508D02*
X5787039Y-10615936D01*
X5787039Y-10615936D02*
X5796563Y-10606412D01*
X5853706Y-10634984D02*
X5977515Y-10634984D01*
X5977515Y-10634984D02*
X5910848Y-10711174D01*
X5910848Y-10711174D02*
X5939420Y-10711174D01*
X5939420Y-10711174D02*
X5958468Y-10720698D01*
X5958468Y-10720698D02*
X5967991Y-10730222D01*
X5967991Y-10730222D02*
X5977515Y-10749270D01*
X5977515Y-10749270D02*
X5977515Y-10796889D01*
X5977515Y-10796889D02*
X5967991Y-10815936D01*
X5967991Y-10815936D02*
X5958468Y-10825460D01*
X5958468Y-10825460D02*
X5939420Y-10834984D01*
X5939420Y-10834984D02*
X5882277Y-10834984D01*
X5882277Y-10834984D02*
X5863229Y-10825460D01*
X5863229Y-10825460D02*
X5853706Y-10815936D01*
X6148944Y-10634984D02*
X6110848Y-10634984D01*
X6110848Y-10634984D02*
X6091801Y-10644508D01*
X6091801Y-10644508D02*
X6082277Y-10654031D01*
X6082277Y-10654031D02*
X6063229Y-10682603D01*
X6063229Y-10682603D02*
X6053706Y-10720698D01*
X6053706Y-10720698D02*
X6053706Y-10796889D01*
X6053706Y-10796889D02*
X6063229Y-10815936D01*
X6063229Y-10815936D02*
X6072753Y-10825460D01*
X6072753Y-10825460D02*
X6091801Y-10834984D01*
X6091801Y-10834984D02*
X6129896Y-10834984D01*
X6129896Y-10834984D02*
X6148944Y-10825460D01*
X6148944Y-10825460D02*
X6158468Y-10815936D01*
X6158468Y-10815936D02*
X6167991Y-10796889D01*
X6167991Y-10796889D02*
X6167991Y-10749270D01*
X6167991Y-10749270D02*
X6158468Y-10730222D01*
X6158468Y-10730222D02*
X6148944Y-10720698D01*
X6148944Y-10720698D02*
X6129896Y-10711174D01*
X6129896Y-10711174D02*
X6091801Y-10711174D01*
X6091801Y-10711174D02*
X6072753Y-10720698D01*
X6072753Y-10720698D02*
X6063229Y-10730222D01*
X6063229Y-10730222D02*
X6053706Y-10749270D01*
X6406087Y-10834984D02*
X6406087Y-10634984D01*
X6491801Y-10834984D02*
X6491801Y-10730222D01*
X6491801Y-10730222D02*
X6482277Y-10711174D01*
X6482277Y-10711174D02*
X6463230Y-10701650D01*
X6463230Y-10701650D02*
X6434658Y-10701650D01*
X6434658Y-10701650D02*
X6415610Y-10711174D01*
X6415610Y-10711174D02*
X6406087Y-10720698D01*
X6615610Y-10834984D02*
X6596563Y-10825460D01*
X6596563Y-10825460D02*
X6587039Y-10815936D01*
X6587039Y-10815936D02*
X6577515Y-10796889D01*
X6577515Y-10796889D02*
X6577515Y-10739746D01*
X6577515Y-10739746D02*
X6587039Y-10720698D01*
X6587039Y-10720698D02*
X6596563Y-10711174D01*
X6596563Y-10711174D02*
X6615610Y-10701650D01*
X6615610Y-10701650D02*
X6644182Y-10701650D01*
X6644182Y-10701650D02*
X6663230Y-10711174D01*
X6663230Y-10711174D02*
X6672753Y-10720698D01*
X6672753Y-10720698D02*
X6682277Y-10739746D01*
X6682277Y-10739746D02*
X6682277Y-10796889D01*
X6682277Y-10796889D02*
X6672753Y-10815936D01*
X6672753Y-10815936D02*
X6663230Y-10825460D01*
X6663230Y-10825460D02*
X6644182Y-10834984D01*
X6644182Y-10834984D02*
X6615610Y-10834984D01*
X6796563Y-10834984D02*
X6777515Y-10825460D01*
X6777515Y-10825460D02*
X6767991Y-10806412D01*
X6767991Y-10806412D02*
X6767991Y-10634984D01*
X6948944Y-10825460D02*
X6929896Y-10834984D01*
X6929896Y-10834984D02*
X6891801Y-10834984D01*
X6891801Y-10834984D02*
X6872753Y-10825460D01*
X6872753Y-10825460D02*
X6863230Y-10806412D01*
X6863230Y-10806412D02*
X6863230Y-10730222D01*
X6863230Y-10730222D02*
X6872753Y-10711174D01*
X6872753Y-10711174D02*
X6891801Y-10701650D01*
X6891801Y-10701650D02*
X6929896Y-10701650D01*
X6929896Y-10701650D02*
X6948944Y-10711174D01*
X6948944Y-10711174D02*
X6958468Y-10730222D01*
X6958468Y-10730222D02*
X6958468Y-10749270D01*
X6958468Y-10749270D02*
X6863230Y-10768317D01*
X7034658Y-10825460D02*
X7053706Y-10834984D01*
X7053706Y-10834984D02*
X7091801Y-10834984D01*
X7091801Y-10834984D02*
X7110849Y-10825460D01*
X7110849Y-10825460D02*
X7120372Y-10806412D01*
X7120372Y-10806412D02*
X7120372Y-10796889D01*
X7120372Y-10796889D02*
X7110849Y-10777841D01*
X7110849Y-10777841D02*
X7091801Y-10768317D01*
X7091801Y-10768317D02*
X7063230Y-10768317D01*
X7063230Y-10768317D02*
X7044182Y-10758793D01*
X7044182Y-10758793D02*
X7034658Y-10739746D01*
X7034658Y-10739746D02*
X7034658Y-10730222D01*
X7034658Y-10730222D02*
X7044182Y-10711174D01*
X7044182Y-10711174D02*
X7063230Y-10701650D01*
X7063230Y-10701650D02*
X7091801Y-10701650D01*
X7091801Y-10701650D02*
X7110849Y-10711174D01*
X7187039Y-10911174D02*
X7196563Y-10901650D01*
X7196563Y-10901650D02*
X7215611Y-10873079D01*
X7215611Y-10873079D02*
X7225134Y-10854031D01*
X7225134Y-10854031D02*
X7234658Y-10825460D01*
X7234658Y-10825460D02*
X7244182Y-10777841D01*
X7244182Y-10777841D02*
X7244182Y-10739746D01*
X7244182Y-10739746D02*
X7234658Y-10692127D01*
X7234658Y-10692127D02*
X7225134Y-10663555D01*
X7225134Y-10663555D02*
X7215611Y-10644508D01*
X7215611Y-10644508D02*
X7196563Y-10615936D01*
X7196563Y-10615936D02*
X7187039Y-10606412D01*
D12*
X2221500Y-11007500D02*
G75*
G02*
X2131500Y-11007500I-45000J0D01*
G01*
X2131500Y-11007500D02*
G75*
G02*
X2221500Y-11007500I45000J0D01*
G01*
D11*
X2520372Y-10898984D02*
X2539420Y-10898984D01*
X2539420Y-10898984D02*
X2558467Y-10908508D01*
X2558467Y-10908508D02*
X2567991Y-10918031D01*
X2567991Y-10918031D02*
X2577515Y-10937079D01*
X2577515Y-10937079D02*
X2587039Y-10975174D01*
X2587039Y-10975174D02*
X2587039Y-11022793D01*
X2587039Y-11022793D02*
X2577515Y-11060889D01*
X2577515Y-11060889D02*
X2567991Y-11079936D01*
X2567991Y-11079936D02*
X2558467Y-11089460D01*
X2558467Y-11089460D02*
X2539420Y-11098984D01*
X2539420Y-11098984D02*
X2520372Y-11098984D01*
X2520372Y-11098984D02*
X2501324Y-11089460D01*
X2501324Y-11089460D02*
X2491801Y-11079936D01*
X2491801Y-11079936D02*
X2482277Y-11060889D01*
X2482277Y-11060889D02*
X2472753Y-11022793D01*
X2472753Y-11022793D02*
X2472753Y-10975174D01*
X2472753Y-10975174D02*
X2482277Y-10937079D01*
X2482277Y-10937079D02*
X2491801Y-10918031D01*
X2491801Y-10918031D02*
X2501324Y-10908508D01*
X2501324Y-10908508D02*
X2520372Y-10898984D01*
X2672753Y-11079936D02*
X2682277Y-11089460D01*
X2682277Y-11089460D02*
X2672753Y-11098984D01*
X2672753Y-11098984D02*
X2663229Y-11089460D01*
X2663229Y-11089460D02*
X2672753Y-11079936D01*
X2672753Y-11079936D02*
X2672753Y-11098984D01*
X2777515Y-11098984D02*
X2815610Y-11098984D01*
X2815610Y-11098984D02*
X2834658Y-11089460D01*
X2834658Y-11089460D02*
X2844182Y-11079936D01*
X2844182Y-11079936D02*
X2863229Y-11051365D01*
X2863229Y-11051365D02*
X2872753Y-11013270D01*
X2872753Y-11013270D02*
X2872753Y-10937079D01*
X2872753Y-10937079D02*
X2863229Y-10918031D01*
X2863229Y-10918031D02*
X2853705Y-10908508D01*
X2853705Y-10908508D02*
X2834658Y-10898984D01*
X2834658Y-10898984D02*
X2796562Y-10898984D01*
X2796562Y-10898984D02*
X2777515Y-10908508D01*
X2777515Y-10908508D02*
X2767991Y-10918031D01*
X2767991Y-10918031D02*
X2758467Y-10937079D01*
X2758467Y-10937079D02*
X2758467Y-10984698D01*
X2758467Y-10984698D02*
X2767991Y-11003746D01*
X2767991Y-11003746D02*
X2777515Y-11013270D01*
X2777515Y-11013270D02*
X2796562Y-11022793D01*
X2796562Y-11022793D02*
X2834658Y-11022793D01*
X2834658Y-11022793D02*
X2853705Y-11013270D01*
X2853705Y-11013270D02*
X2863229Y-11003746D01*
X2863229Y-11003746D02*
X2872753Y-10984698D01*
X2996562Y-10898984D02*
X3015610Y-10898984D01*
X3015610Y-10898984D02*
X3034658Y-10908508D01*
X3034658Y-10908508D02*
X3044182Y-10918031D01*
X3044182Y-10918031D02*
X3053705Y-10937079D01*
X3053705Y-10937079D02*
X3063229Y-10975174D01*
X3063229Y-10975174D02*
X3063229Y-11022793D01*
X3063229Y-11022793D02*
X3053705Y-11060889D01*
X3053705Y-11060889D02*
X3044182Y-11079936D01*
X3044182Y-11079936D02*
X3034658Y-11089460D01*
X3034658Y-11089460D02*
X3015610Y-11098984D01*
X3015610Y-11098984D02*
X2996562Y-11098984D01*
X2996562Y-11098984D02*
X2977515Y-11089460D01*
X2977515Y-11089460D02*
X2967991Y-11079936D01*
X2967991Y-11079936D02*
X2958467Y-11060889D01*
X2958467Y-11060889D02*
X2948943Y-11022793D01*
X2948943Y-11022793D02*
X2948943Y-10975174D01*
X2948943Y-10975174D02*
X2958467Y-10937079D01*
X2958467Y-10937079D02*
X2967991Y-10918031D01*
X2967991Y-10918031D02*
X2977515Y-10908508D01*
X2977515Y-10908508D02*
X2996562Y-10898984D01*
X3187039Y-10898984D02*
X3206086Y-10898984D01*
X3206086Y-10898984D02*
X3225134Y-10908508D01*
X3225134Y-10908508D02*
X3234658Y-10918031D01*
X3234658Y-10918031D02*
X3244182Y-10937079D01*
X3244182Y-10937079D02*
X3253705Y-10975174D01*
X3253705Y-10975174D02*
X3253705Y-11022793D01*
X3253705Y-11022793D02*
X3244182Y-11060889D01*
X3244182Y-11060889D02*
X3234658Y-11079936D01*
X3234658Y-11079936D02*
X3225134Y-11089460D01*
X3225134Y-11089460D02*
X3206086Y-11098984D01*
X3206086Y-11098984D02*
X3187039Y-11098984D01*
X3187039Y-11098984D02*
X3167991Y-11089460D01*
X3167991Y-11089460D02*
X3158467Y-11079936D01*
X3158467Y-11079936D02*
X3148943Y-11060889D01*
X3148943Y-11060889D02*
X3139420Y-11022793D01*
X3139420Y-11022793D02*
X3139420Y-10975174D01*
X3139420Y-10975174D02*
X3148943Y-10937079D01*
X3148943Y-10937079D02*
X3158467Y-10918031D01*
X3158467Y-10918031D02*
X3167991Y-10908508D01*
X3167991Y-10908508D02*
X3187039Y-10898984D01*
X3339420Y-11098984D02*
X3339420Y-10965650D01*
X3339420Y-10984698D02*
X3348943Y-10975174D01*
X3348943Y-10975174D02*
X3367991Y-10965650D01*
X3367991Y-10965650D02*
X3396563Y-10965650D01*
X3396563Y-10965650D02*
X3415610Y-10975174D01*
X3415610Y-10975174D02*
X3425134Y-10994222D01*
X3425134Y-10994222D02*
X3425134Y-11098984D01*
X3425134Y-10994222D02*
X3434658Y-10975174D01*
X3434658Y-10975174D02*
X3453705Y-10965650D01*
X3453705Y-10965650D02*
X3482277Y-10965650D01*
X3482277Y-10965650D02*
X3501324Y-10975174D01*
X3501324Y-10975174D02*
X3510848Y-10994222D01*
X3510848Y-10994222D02*
X3510848Y-11098984D01*
X3606086Y-11098984D02*
X3606086Y-10965650D01*
X3606086Y-10984698D02*
X3615610Y-10975174D01*
X3615610Y-10975174D02*
X3634658Y-10965650D01*
X3634658Y-10965650D02*
X3663229Y-10965650D01*
X3663229Y-10965650D02*
X3682277Y-10975174D01*
X3682277Y-10975174D02*
X3691801Y-10994222D01*
X3691801Y-10994222D02*
X3691801Y-11098984D01*
X3691801Y-10994222D02*
X3701324Y-10975174D01*
X3701324Y-10975174D02*
X3720372Y-10965650D01*
X3720372Y-10965650D02*
X3748943Y-10965650D01*
X3748943Y-10965650D02*
X3767991Y-10975174D01*
X3767991Y-10975174D02*
X3777515Y-10994222D01*
X3777515Y-10994222D02*
X3777515Y-11098984D01*
X4167991Y-10889460D02*
X3996563Y-11146603D01*
X4425134Y-10898984D02*
X4444182Y-10898984D01*
X4444182Y-10898984D02*
X4463229Y-10908508D01*
X4463229Y-10908508D02*
X4472753Y-10918031D01*
X4472753Y-10918031D02*
X4482277Y-10937079D01*
X4482277Y-10937079D02*
X4491801Y-10975174D01*
X4491801Y-10975174D02*
X4491801Y-11022793D01*
X4491801Y-11022793D02*
X4482277Y-11060889D01*
X4482277Y-11060889D02*
X4472753Y-11079936D01*
X4472753Y-11079936D02*
X4463229Y-11089460D01*
X4463229Y-11089460D02*
X4444182Y-11098984D01*
X4444182Y-11098984D02*
X4425134Y-11098984D01*
X4425134Y-11098984D02*
X4406087Y-11089460D01*
X4406087Y-11089460D02*
X4396563Y-11079936D01*
X4396563Y-11079936D02*
X4387039Y-11060889D01*
X4387039Y-11060889D02*
X4377515Y-11022793D01*
X4377515Y-11022793D02*
X4377515Y-10975174D01*
X4377515Y-10975174D02*
X4387039Y-10937079D01*
X4387039Y-10937079D02*
X4396563Y-10918031D01*
X4396563Y-10918031D02*
X4406087Y-10908508D01*
X4406087Y-10908508D02*
X4425134Y-10898984D01*
X4577515Y-11079936D02*
X4587039Y-11089460D01*
X4587039Y-11089460D02*
X4577515Y-11098984D01*
X4577515Y-11098984D02*
X4567991Y-11089460D01*
X4567991Y-11089460D02*
X4577515Y-11079936D01*
X4577515Y-11079936D02*
X4577515Y-11098984D01*
X4710848Y-10898984D02*
X4729896Y-10898984D01*
X4729896Y-10898984D02*
X4748944Y-10908508D01*
X4748944Y-10908508D02*
X4758468Y-10918031D01*
X4758468Y-10918031D02*
X4767991Y-10937079D01*
X4767991Y-10937079D02*
X4777515Y-10975174D01*
X4777515Y-10975174D02*
X4777515Y-11022793D01*
X4777515Y-11022793D02*
X4767991Y-11060889D01*
X4767991Y-11060889D02*
X4758468Y-11079936D01*
X4758468Y-11079936D02*
X4748944Y-11089460D01*
X4748944Y-11089460D02*
X4729896Y-11098984D01*
X4729896Y-11098984D02*
X4710848Y-11098984D01*
X4710848Y-11098984D02*
X4691801Y-11089460D01*
X4691801Y-11089460D02*
X4682277Y-11079936D01*
X4682277Y-11079936D02*
X4672753Y-11060889D01*
X4672753Y-11060889D02*
X4663229Y-11022793D01*
X4663229Y-11022793D02*
X4663229Y-10975174D01*
X4663229Y-10975174D02*
X4672753Y-10937079D01*
X4672753Y-10937079D02*
X4682277Y-10918031D01*
X4682277Y-10918031D02*
X4691801Y-10908508D01*
X4691801Y-10908508D02*
X4710848Y-10898984D01*
X4844182Y-10898984D02*
X4967991Y-10898984D01*
X4967991Y-10898984D02*
X4901325Y-10975174D01*
X4901325Y-10975174D02*
X4929896Y-10975174D01*
X4929896Y-10975174D02*
X4948944Y-10984698D01*
X4948944Y-10984698D02*
X4958468Y-10994222D01*
X4958468Y-10994222D02*
X4967991Y-11013270D01*
X4967991Y-11013270D02*
X4967991Y-11060889D01*
X4967991Y-11060889D02*
X4958468Y-11079936D01*
X4958468Y-11079936D02*
X4948944Y-11089460D01*
X4948944Y-11089460D02*
X4929896Y-11098984D01*
X4929896Y-11098984D02*
X4872753Y-11098984D01*
X4872753Y-11098984D02*
X4853706Y-11089460D01*
X4853706Y-11089460D02*
X4844182Y-11079936D01*
X5148944Y-10898984D02*
X5053706Y-10898984D01*
X5053706Y-10898984D02*
X5044182Y-10994222D01*
X5044182Y-10994222D02*
X5053706Y-10984698D01*
X5053706Y-10984698D02*
X5072753Y-10975174D01*
X5072753Y-10975174D02*
X5120372Y-10975174D01*
X5120372Y-10975174D02*
X5139420Y-10984698D01*
X5139420Y-10984698D02*
X5148944Y-10994222D01*
X5148944Y-10994222D02*
X5158468Y-11013270D01*
X5158468Y-11013270D02*
X5158468Y-11060889D01*
X5158468Y-11060889D02*
X5148944Y-11079936D01*
X5148944Y-11079936D02*
X5139420Y-11089460D01*
X5139420Y-11089460D02*
X5120372Y-11098984D01*
X5120372Y-11098984D02*
X5072753Y-11098984D01*
X5072753Y-11098984D02*
X5053706Y-11089460D01*
X5053706Y-11089460D02*
X5044182Y-11079936D01*
X5329896Y-10965650D02*
X5329896Y-11098984D01*
X5282277Y-10889460D02*
X5234658Y-11032317D01*
X5234658Y-11032317D02*
X5358468Y-11032317D01*
X5425134Y-10898984D02*
X5425134Y-10937079D01*
X5501325Y-10898984D02*
X5501325Y-10937079D01*
X5796563Y-11175174D02*
X5787039Y-11165650D01*
X5787039Y-11165650D02*
X5767991Y-11137079D01*
X5767991Y-11137079D02*
X5758468Y-11118031D01*
X5758468Y-11118031D02*
X5748944Y-11089460D01*
X5748944Y-11089460D02*
X5739420Y-11041841D01*
X5739420Y-11041841D02*
X5739420Y-11003746D01*
X5739420Y-11003746D02*
X5748944Y-10956127D01*
X5748944Y-10956127D02*
X5758468Y-10927555D01*
X5758468Y-10927555D02*
X5767991Y-10908508D01*
X5767991Y-10908508D02*
X5787039Y-10879936D01*
X5787039Y-10879936D02*
X5796563Y-10870412D01*
X5863229Y-10918031D02*
X5872753Y-10908508D01*
X5872753Y-10908508D02*
X5891801Y-10898984D01*
X5891801Y-10898984D02*
X5939420Y-10898984D01*
X5939420Y-10898984D02*
X5958468Y-10908508D01*
X5958468Y-10908508D02*
X5967991Y-10918031D01*
X5967991Y-10918031D02*
X5977515Y-10937079D01*
X5977515Y-10937079D02*
X5977515Y-10956127D01*
X5977515Y-10956127D02*
X5967991Y-10984698D01*
X5967991Y-10984698D02*
X5853706Y-11098984D01*
X5853706Y-11098984D02*
X5977515Y-11098984D01*
X6215610Y-11098984D02*
X6215610Y-10898984D01*
X6301325Y-11098984D02*
X6301325Y-10994222D01*
X6301325Y-10994222D02*
X6291801Y-10975174D01*
X6291801Y-10975174D02*
X6272753Y-10965650D01*
X6272753Y-10965650D02*
X6244182Y-10965650D01*
X6244182Y-10965650D02*
X6225134Y-10975174D01*
X6225134Y-10975174D02*
X6215610Y-10984698D01*
X6425134Y-11098984D02*
X6406087Y-11089460D01*
X6406087Y-11089460D02*
X6396563Y-11079936D01*
X6396563Y-11079936D02*
X6387039Y-11060889D01*
X6387039Y-11060889D02*
X6387039Y-11003746D01*
X6387039Y-11003746D02*
X6396563Y-10984698D01*
X6396563Y-10984698D02*
X6406087Y-10975174D01*
X6406087Y-10975174D02*
X6425134Y-10965650D01*
X6425134Y-10965650D02*
X6453706Y-10965650D01*
X6453706Y-10965650D02*
X6472753Y-10975174D01*
X6472753Y-10975174D02*
X6482277Y-10984698D01*
X6482277Y-10984698D02*
X6491801Y-11003746D01*
X6491801Y-11003746D02*
X6491801Y-11060889D01*
X6491801Y-11060889D02*
X6482277Y-11079936D01*
X6482277Y-11079936D02*
X6472753Y-11089460D01*
X6472753Y-11089460D02*
X6453706Y-11098984D01*
X6453706Y-11098984D02*
X6425134Y-11098984D01*
X6606087Y-11098984D02*
X6587039Y-11089460D01*
X6587039Y-11089460D02*
X6577515Y-11070412D01*
X6577515Y-11070412D02*
X6577515Y-10898984D01*
X6758468Y-11089460D02*
X6739420Y-11098984D01*
X6739420Y-11098984D02*
X6701325Y-11098984D01*
X6701325Y-11098984D02*
X6682277Y-11089460D01*
X6682277Y-11089460D02*
X6672753Y-11070412D01*
X6672753Y-11070412D02*
X6672753Y-10994222D01*
X6672753Y-10994222D02*
X6682277Y-10975174D01*
X6682277Y-10975174D02*
X6701325Y-10965650D01*
X6701325Y-10965650D02*
X6739420Y-10965650D01*
X6739420Y-10965650D02*
X6758468Y-10975174D01*
X6758468Y-10975174D02*
X6767991Y-10994222D01*
X6767991Y-10994222D02*
X6767991Y-11013270D01*
X6767991Y-11013270D02*
X6672753Y-11032317D01*
X6844182Y-11089460D02*
X6863230Y-11098984D01*
X6863230Y-11098984D02*
X6901325Y-11098984D01*
X6901325Y-11098984D02*
X6920372Y-11089460D01*
X6920372Y-11089460D02*
X6929896Y-11070412D01*
X6929896Y-11070412D02*
X6929896Y-11060889D01*
X6929896Y-11060889D02*
X6920372Y-11041841D01*
X6920372Y-11041841D02*
X6901325Y-11032317D01*
X6901325Y-11032317D02*
X6872753Y-11032317D01*
X6872753Y-11032317D02*
X6853706Y-11022793D01*
X6853706Y-11022793D02*
X6844182Y-11003746D01*
X6844182Y-11003746D02*
X6844182Y-10994222D01*
X6844182Y-10994222D02*
X6853706Y-10975174D01*
X6853706Y-10975174D02*
X6872753Y-10965650D01*
X6872753Y-10965650D02*
X6901325Y-10965650D01*
X6901325Y-10965650D02*
X6920372Y-10975174D01*
X6996563Y-11175174D02*
X7006087Y-11165650D01*
X7006087Y-11165650D02*
X7025134Y-11137079D01*
X7025134Y-11137079D02*
X7034658Y-11118031D01*
X7034658Y-11118031D02*
X7044182Y-11089460D01*
X7044182Y-11089460D02*
X7053706Y-11041841D01*
X7053706Y-11041841D02*
X7053706Y-11003746D01*
X7053706Y-11003746D02*
X7044182Y-10956127D01*
X7044182Y-10956127D02*
X7034658Y-10927555D01*
X7034658Y-10927555D02*
X7025134Y-10908508D01*
X7025134Y-10908508D02*
X7006087Y-10879936D01*
X7006087Y-10879936D02*
X6996563Y-10870412D01*
D12*
X2174000Y-11224000D02*
X2174000Y-11319000D01*
X2126500Y-11271500D02*
X2221500Y-11271500D01*
D11*
X2520372Y-11162984D02*
X2539420Y-11162984D01*
X2539420Y-11162984D02*
X2558467Y-11172508D01*
X2558467Y-11172508D02*
X2567991Y-11182031D01*
X2567991Y-11182031D02*
X2577515Y-11201079D01*
X2577515Y-11201079D02*
X2587039Y-11239174D01*
X2587039Y-11239174D02*
X2587039Y-11286793D01*
X2587039Y-11286793D02*
X2577515Y-11324888D01*
X2577515Y-11324888D02*
X2567991Y-11343936D01*
X2567991Y-11343936D02*
X2558467Y-11353460D01*
X2558467Y-11353460D02*
X2539420Y-11362984D01*
X2539420Y-11362984D02*
X2520372Y-11362984D01*
X2520372Y-11362984D02*
X2501324Y-11353460D01*
X2501324Y-11353460D02*
X2491801Y-11343936D01*
X2491801Y-11343936D02*
X2482277Y-11324888D01*
X2482277Y-11324888D02*
X2472753Y-11286793D01*
X2472753Y-11286793D02*
X2472753Y-11239174D01*
X2472753Y-11239174D02*
X2482277Y-11201079D01*
X2482277Y-11201079D02*
X2491801Y-11182031D01*
X2491801Y-11182031D02*
X2501324Y-11172508D01*
X2501324Y-11172508D02*
X2520372Y-11162984D01*
X2672753Y-11343936D02*
X2682277Y-11353460D01*
X2682277Y-11353460D02*
X2672753Y-11362984D01*
X2672753Y-11362984D02*
X2663229Y-11353460D01*
X2663229Y-11353460D02*
X2672753Y-11343936D01*
X2672753Y-11343936D02*
X2672753Y-11362984D01*
X2777515Y-11362984D02*
X2815610Y-11362984D01*
X2815610Y-11362984D02*
X2834658Y-11353460D01*
X2834658Y-11353460D02*
X2844182Y-11343936D01*
X2844182Y-11343936D02*
X2863229Y-11315365D01*
X2863229Y-11315365D02*
X2872753Y-11277269D01*
X2872753Y-11277269D02*
X2872753Y-11201079D01*
X2872753Y-11201079D02*
X2863229Y-11182031D01*
X2863229Y-11182031D02*
X2853705Y-11172508D01*
X2853705Y-11172508D02*
X2834658Y-11162984D01*
X2834658Y-11162984D02*
X2796562Y-11162984D01*
X2796562Y-11162984D02*
X2777515Y-11172508D01*
X2777515Y-11172508D02*
X2767991Y-11182031D01*
X2767991Y-11182031D02*
X2758467Y-11201079D01*
X2758467Y-11201079D02*
X2758467Y-11248698D01*
X2758467Y-11248698D02*
X2767991Y-11267746D01*
X2767991Y-11267746D02*
X2777515Y-11277269D01*
X2777515Y-11277269D02*
X2796562Y-11286793D01*
X2796562Y-11286793D02*
X2834658Y-11286793D01*
X2834658Y-11286793D02*
X2853705Y-11277269D01*
X2853705Y-11277269D02*
X2863229Y-11267746D01*
X2863229Y-11267746D02*
X2872753Y-11248698D01*
X3053705Y-11162984D02*
X2958467Y-11162984D01*
X2958467Y-11162984D02*
X2948943Y-11258222D01*
X2948943Y-11258222D02*
X2958467Y-11248698D01*
X2958467Y-11248698D02*
X2977515Y-11239174D01*
X2977515Y-11239174D02*
X3025134Y-11239174D01*
X3025134Y-11239174D02*
X3044182Y-11248698D01*
X3044182Y-11248698D02*
X3053705Y-11258222D01*
X3053705Y-11258222D02*
X3063229Y-11277269D01*
X3063229Y-11277269D02*
X3063229Y-11324888D01*
X3063229Y-11324888D02*
X3053705Y-11343936D01*
X3053705Y-11343936D02*
X3044182Y-11353460D01*
X3044182Y-11353460D02*
X3025134Y-11362984D01*
X3025134Y-11362984D02*
X2977515Y-11362984D01*
X2977515Y-11362984D02*
X2958467Y-11353460D01*
X2958467Y-11353460D02*
X2948943Y-11343936D01*
X3187039Y-11162984D02*
X3206086Y-11162984D01*
X3206086Y-11162984D02*
X3225134Y-11172508D01*
X3225134Y-11172508D02*
X3234658Y-11182031D01*
X3234658Y-11182031D02*
X3244182Y-11201079D01*
X3244182Y-11201079D02*
X3253705Y-11239174D01*
X3253705Y-11239174D02*
X3253705Y-11286793D01*
X3253705Y-11286793D02*
X3244182Y-11324888D01*
X3244182Y-11324888D02*
X3234658Y-11343936D01*
X3234658Y-11343936D02*
X3225134Y-11353460D01*
X3225134Y-11353460D02*
X3206086Y-11362984D01*
X3206086Y-11362984D02*
X3187039Y-11362984D01*
X3187039Y-11362984D02*
X3167991Y-11353460D01*
X3167991Y-11353460D02*
X3158467Y-11343936D01*
X3158467Y-11343936D02*
X3148943Y-11324888D01*
X3148943Y-11324888D02*
X3139420Y-11286793D01*
X3139420Y-11286793D02*
X3139420Y-11239174D01*
X3139420Y-11239174D02*
X3148943Y-11201079D01*
X3148943Y-11201079D02*
X3158467Y-11182031D01*
X3158467Y-11182031D02*
X3167991Y-11172508D01*
X3167991Y-11172508D02*
X3187039Y-11162984D01*
X3339420Y-11362984D02*
X3339420Y-11229650D01*
X3339420Y-11248698D02*
X3348943Y-11239174D01*
X3348943Y-11239174D02*
X3367991Y-11229650D01*
X3367991Y-11229650D02*
X3396563Y-11229650D01*
X3396563Y-11229650D02*
X3415610Y-11239174D01*
X3415610Y-11239174D02*
X3425134Y-11258222D01*
X3425134Y-11258222D02*
X3425134Y-11362984D01*
X3425134Y-11258222D02*
X3434658Y-11239174D01*
X3434658Y-11239174D02*
X3453705Y-11229650D01*
X3453705Y-11229650D02*
X3482277Y-11229650D01*
X3482277Y-11229650D02*
X3501324Y-11239174D01*
X3501324Y-11239174D02*
X3510848Y-11258222D01*
X3510848Y-11258222D02*
X3510848Y-11362984D01*
X3606086Y-11362984D02*
X3606086Y-11229650D01*
X3606086Y-11248698D02*
X3615610Y-11239174D01*
X3615610Y-11239174D02*
X3634658Y-11229650D01*
X3634658Y-11229650D02*
X3663229Y-11229650D01*
X3663229Y-11229650D02*
X3682277Y-11239174D01*
X3682277Y-11239174D02*
X3691801Y-11258222D01*
X3691801Y-11258222D02*
X3691801Y-11362984D01*
X3691801Y-11258222D02*
X3701324Y-11239174D01*
X3701324Y-11239174D02*
X3720372Y-11229650D01*
X3720372Y-11229650D02*
X3748943Y-11229650D01*
X3748943Y-11229650D02*
X3767991Y-11239174D01*
X3767991Y-11239174D02*
X3777515Y-11258222D01*
X3777515Y-11258222D02*
X3777515Y-11362984D01*
X4167991Y-11153460D02*
X3996563Y-11410603D01*
X4425134Y-11162984D02*
X4444182Y-11162984D01*
X4444182Y-11162984D02*
X4463229Y-11172508D01*
X4463229Y-11172508D02*
X4472753Y-11182031D01*
X4472753Y-11182031D02*
X4482277Y-11201079D01*
X4482277Y-11201079D02*
X4491801Y-11239174D01*
X4491801Y-11239174D02*
X4491801Y-11286793D01*
X4491801Y-11286793D02*
X4482277Y-11324888D01*
X4482277Y-11324888D02*
X4472753Y-11343936D01*
X4472753Y-11343936D02*
X4463229Y-11353460D01*
X4463229Y-11353460D02*
X4444182Y-11362984D01*
X4444182Y-11362984D02*
X4425134Y-11362984D01*
X4425134Y-11362984D02*
X4406087Y-11353460D01*
X4406087Y-11353460D02*
X4396563Y-11343936D01*
X4396563Y-11343936D02*
X4387039Y-11324888D01*
X4387039Y-11324888D02*
X4377515Y-11286793D01*
X4377515Y-11286793D02*
X4377515Y-11239174D01*
X4377515Y-11239174D02*
X4387039Y-11201079D01*
X4387039Y-11201079D02*
X4396563Y-11182031D01*
X4396563Y-11182031D02*
X4406087Y-11172508D01*
X4406087Y-11172508D02*
X4425134Y-11162984D01*
X4577515Y-11343936D02*
X4587039Y-11353460D01*
X4587039Y-11353460D02*
X4577515Y-11362984D01*
X4577515Y-11362984D02*
X4567991Y-11353460D01*
X4567991Y-11353460D02*
X4577515Y-11343936D01*
X4577515Y-11343936D02*
X4577515Y-11362984D01*
X4710848Y-11162984D02*
X4729896Y-11162984D01*
X4729896Y-11162984D02*
X4748944Y-11172508D01*
X4748944Y-11172508D02*
X4758468Y-11182031D01*
X4758468Y-11182031D02*
X4767991Y-11201079D01*
X4767991Y-11201079D02*
X4777515Y-11239174D01*
X4777515Y-11239174D02*
X4777515Y-11286793D01*
X4777515Y-11286793D02*
X4767991Y-11324888D01*
X4767991Y-11324888D02*
X4758468Y-11343936D01*
X4758468Y-11343936D02*
X4748944Y-11353460D01*
X4748944Y-11353460D02*
X4729896Y-11362984D01*
X4729896Y-11362984D02*
X4710848Y-11362984D01*
X4710848Y-11362984D02*
X4691801Y-11353460D01*
X4691801Y-11353460D02*
X4682277Y-11343936D01*
X4682277Y-11343936D02*
X4672753Y-11324888D01*
X4672753Y-11324888D02*
X4663229Y-11286793D01*
X4663229Y-11286793D02*
X4663229Y-11239174D01*
X4663229Y-11239174D02*
X4672753Y-11201079D01*
X4672753Y-11201079D02*
X4682277Y-11182031D01*
X4682277Y-11182031D02*
X4691801Y-11172508D01*
X4691801Y-11172508D02*
X4710848Y-11162984D01*
X4844182Y-11162984D02*
X4967991Y-11162984D01*
X4967991Y-11162984D02*
X4901325Y-11239174D01*
X4901325Y-11239174D02*
X4929896Y-11239174D01*
X4929896Y-11239174D02*
X4948944Y-11248698D01*
X4948944Y-11248698D02*
X4958468Y-11258222D01*
X4958468Y-11258222D02*
X4967991Y-11277269D01*
X4967991Y-11277269D02*
X4967991Y-11324888D01*
X4967991Y-11324888D02*
X4958468Y-11343936D01*
X4958468Y-11343936D02*
X4948944Y-11353460D01*
X4948944Y-11353460D02*
X4929896Y-11362984D01*
X4929896Y-11362984D02*
X4872753Y-11362984D01*
X4872753Y-11362984D02*
X4853706Y-11353460D01*
X4853706Y-11353460D02*
X4844182Y-11343936D01*
X5034658Y-11162984D02*
X5167991Y-11162984D01*
X5167991Y-11162984D02*
X5082277Y-11362984D01*
X5329896Y-11229650D02*
X5329896Y-11362984D01*
X5282277Y-11153460D02*
X5234658Y-11296317D01*
X5234658Y-11296317D02*
X5358468Y-11296317D01*
X5425134Y-11162984D02*
X5425134Y-11201079D01*
X5501325Y-11162984D02*
X5501325Y-11201079D01*
X5796563Y-11439174D02*
X5787039Y-11429650D01*
X5787039Y-11429650D02*
X5767991Y-11401079D01*
X5767991Y-11401079D02*
X5758468Y-11382031D01*
X5758468Y-11382031D02*
X5748944Y-11353460D01*
X5748944Y-11353460D02*
X5739420Y-11305841D01*
X5739420Y-11305841D02*
X5739420Y-11267746D01*
X5739420Y-11267746D02*
X5748944Y-11220127D01*
X5748944Y-11220127D02*
X5758468Y-11191555D01*
X5758468Y-11191555D02*
X5767991Y-11172508D01*
X5767991Y-11172508D02*
X5787039Y-11143936D01*
X5787039Y-11143936D02*
X5796563Y-11134412D01*
X5958468Y-11162984D02*
X5920372Y-11162984D01*
X5920372Y-11162984D02*
X5901325Y-11172508D01*
X5901325Y-11172508D02*
X5891801Y-11182031D01*
X5891801Y-11182031D02*
X5872753Y-11210603D01*
X5872753Y-11210603D02*
X5863229Y-11248698D01*
X5863229Y-11248698D02*
X5863229Y-11324888D01*
X5863229Y-11324888D02*
X5872753Y-11343936D01*
X5872753Y-11343936D02*
X5882277Y-11353460D01*
X5882277Y-11353460D02*
X5901325Y-11362984D01*
X5901325Y-11362984D02*
X5939420Y-11362984D01*
X5939420Y-11362984D02*
X5958468Y-11353460D01*
X5958468Y-11353460D02*
X5967991Y-11343936D01*
X5967991Y-11343936D02*
X5977515Y-11324888D01*
X5977515Y-11324888D02*
X5977515Y-11277269D01*
X5977515Y-11277269D02*
X5967991Y-11258222D01*
X5967991Y-11258222D02*
X5958468Y-11248698D01*
X5958468Y-11248698D02*
X5939420Y-11239174D01*
X5939420Y-11239174D02*
X5901325Y-11239174D01*
X5901325Y-11239174D02*
X5882277Y-11248698D01*
X5882277Y-11248698D02*
X5872753Y-11258222D01*
X5872753Y-11258222D02*
X5863229Y-11277269D01*
X6072753Y-11362984D02*
X6110848Y-11362984D01*
X6110848Y-11362984D02*
X6129896Y-11353460D01*
X6129896Y-11353460D02*
X6139420Y-11343936D01*
X6139420Y-11343936D02*
X6158468Y-11315365D01*
X6158468Y-11315365D02*
X6167991Y-11277269D01*
X6167991Y-11277269D02*
X6167991Y-11201079D01*
X6167991Y-11201079D02*
X6158468Y-11182031D01*
X6158468Y-11182031D02*
X6148944Y-11172508D01*
X6148944Y-11172508D02*
X6129896Y-11162984D01*
X6129896Y-11162984D02*
X6091801Y-11162984D01*
X6091801Y-11162984D02*
X6072753Y-11172508D01*
X6072753Y-11172508D02*
X6063229Y-11182031D01*
X6063229Y-11182031D02*
X6053706Y-11201079D01*
X6053706Y-11201079D02*
X6053706Y-11248698D01*
X6053706Y-11248698D02*
X6063229Y-11267746D01*
X6063229Y-11267746D02*
X6072753Y-11277269D01*
X6072753Y-11277269D02*
X6091801Y-11286793D01*
X6091801Y-11286793D02*
X6129896Y-11286793D01*
X6129896Y-11286793D02*
X6148944Y-11277269D01*
X6148944Y-11277269D02*
X6158468Y-11267746D01*
X6158468Y-11267746D02*
X6167991Y-11248698D01*
X6406087Y-11362984D02*
X6406087Y-11162984D01*
X6491801Y-11362984D02*
X6491801Y-11258222D01*
X6491801Y-11258222D02*
X6482277Y-11239174D01*
X6482277Y-11239174D02*
X6463230Y-11229650D01*
X6463230Y-11229650D02*
X6434658Y-11229650D01*
X6434658Y-11229650D02*
X6415610Y-11239174D01*
X6415610Y-11239174D02*
X6406087Y-11248698D01*
X6615610Y-11362984D02*
X6596563Y-11353460D01*
X6596563Y-11353460D02*
X6587039Y-11343936D01*
X6587039Y-11343936D02*
X6577515Y-11324888D01*
X6577515Y-11324888D02*
X6577515Y-11267746D01*
X6577515Y-11267746D02*
X6587039Y-11248698D01*
X6587039Y-11248698D02*
X6596563Y-11239174D01*
X6596563Y-11239174D02*
X6615610Y-11229650D01*
X6615610Y-11229650D02*
X6644182Y-11229650D01*
X6644182Y-11229650D02*
X6663230Y-11239174D01*
X6663230Y-11239174D02*
X6672753Y-11248698D01*
X6672753Y-11248698D02*
X6682277Y-11267746D01*
X6682277Y-11267746D02*
X6682277Y-11324888D01*
X6682277Y-11324888D02*
X6672753Y-11343936D01*
X6672753Y-11343936D02*
X6663230Y-11353460D01*
X6663230Y-11353460D02*
X6644182Y-11362984D01*
X6644182Y-11362984D02*
X6615610Y-11362984D01*
X6796563Y-11362984D02*
X6777515Y-11353460D01*
X6777515Y-11353460D02*
X6767991Y-11334412D01*
X6767991Y-11334412D02*
X6767991Y-11162984D01*
X6948944Y-11353460D02*
X6929896Y-11362984D01*
X6929896Y-11362984D02*
X6891801Y-11362984D01*
X6891801Y-11362984D02*
X6872753Y-11353460D01*
X6872753Y-11353460D02*
X6863230Y-11334412D01*
X6863230Y-11334412D02*
X6863230Y-11258222D01*
X6863230Y-11258222D02*
X6872753Y-11239174D01*
X6872753Y-11239174D02*
X6891801Y-11229650D01*
X6891801Y-11229650D02*
X6929896Y-11229650D01*
X6929896Y-11229650D02*
X6948944Y-11239174D01*
X6948944Y-11239174D02*
X6958468Y-11258222D01*
X6958468Y-11258222D02*
X6958468Y-11277269D01*
X6958468Y-11277269D02*
X6863230Y-11296317D01*
X7034658Y-11353460D02*
X7053706Y-11362984D01*
X7053706Y-11362984D02*
X7091801Y-11362984D01*
X7091801Y-11362984D02*
X7110849Y-11353460D01*
X7110849Y-11353460D02*
X7120372Y-11334412D01*
X7120372Y-11334412D02*
X7120372Y-11324888D01*
X7120372Y-11324888D02*
X7110849Y-11305841D01*
X7110849Y-11305841D02*
X7091801Y-11296317D01*
X7091801Y-11296317D02*
X7063230Y-11296317D01*
X7063230Y-11296317D02*
X7044182Y-11286793D01*
X7044182Y-11286793D02*
X7034658Y-11267746D01*
X7034658Y-11267746D02*
X7034658Y-11258222D01*
X7034658Y-11258222D02*
X7044182Y-11239174D01*
X7044182Y-11239174D02*
X7063230Y-11229650D01*
X7063230Y-11229650D02*
X7091801Y-11229650D01*
X7091801Y-11229650D02*
X7110849Y-11239174D01*
X7187039Y-11439174D02*
X7196563Y-11429650D01*
X7196563Y-11429650D02*
X7215611Y-11401079D01*
X7215611Y-11401079D02*
X7225134Y-11382031D01*
X7225134Y-11382031D02*
X7234658Y-11353460D01*
X7234658Y-11353460D02*
X7244182Y-11305841D01*
X7244182Y-11305841D02*
X7244182Y-11267746D01*
X7244182Y-11267746D02*
X7234658Y-11220127D01*
X7234658Y-11220127D02*
X7225134Y-11191555D01*
X7225134Y-11191555D02*
X7215611Y-11172508D01*
X7215611Y-11172508D02*
X7196563Y-11143936D01*
X7196563Y-11143936D02*
X7187039Y-11134412D01*
D12*
X2206856Y-11570856D02*
X2206856Y-11500144D01*
X2136144Y-11500144D01*
X2136144Y-11570856D01*
X2206856Y-11570856D01*
D11*
X2587039Y-11626984D02*
X2472753Y-11626984D01*
X2529896Y-11626984D02*
X2529896Y-11426984D01*
X2529896Y-11426984D02*
X2510848Y-11455555D01*
X2510848Y-11455555D02*
X2491801Y-11474603D01*
X2491801Y-11474603D02*
X2472753Y-11484127D01*
X2672753Y-11607936D02*
X2682277Y-11617460D01*
X2682277Y-11617460D02*
X2672753Y-11626984D01*
X2672753Y-11626984D02*
X2663229Y-11617460D01*
X2663229Y-11617460D02*
X2672753Y-11607936D01*
X2672753Y-11607936D02*
X2672753Y-11626984D01*
X2806086Y-11426984D02*
X2825134Y-11426984D01*
X2825134Y-11426984D02*
X2844182Y-11436508D01*
X2844182Y-11436508D02*
X2853705Y-11446031D01*
X2853705Y-11446031D02*
X2863229Y-11465079D01*
X2863229Y-11465079D02*
X2872753Y-11503174D01*
X2872753Y-11503174D02*
X2872753Y-11550793D01*
X2872753Y-11550793D02*
X2863229Y-11588888D01*
X2863229Y-11588888D02*
X2853705Y-11607936D01*
X2853705Y-11607936D02*
X2844182Y-11617460D01*
X2844182Y-11617460D02*
X2825134Y-11626984D01*
X2825134Y-11626984D02*
X2806086Y-11626984D01*
X2806086Y-11626984D02*
X2787039Y-11617460D01*
X2787039Y-11617460D02*
X2777515Y-11607936D01*
X2777515Y-11607936D02*
X2767991Y-11588888D01*
X2767991Y-11588888D02*
X2758467Y-11550793D01*
X2758467Y-11550793D02*
X2758467Y-11503174D01*
X2758467Y-11503174D02*
X2767991Y-11465079D01*
X2767991Y-11465079D02*
X2777515Y-11446031D01*
X2777515Y-11446031D02*
X2787039Y-11436508D01*
X2787039Y-11436508D02*
X2806086Y-11426984D01*
X2996562Y-11426984D02*
X3015610Y-11426984D01*
X3015610Y-11426984D02*
X3034658Y-11436508D01*
X3034658Y-11436508D02*
X3044182Y-11446031D01*
X3044182Y-11446031D02*
X3053705Y-11465079D01*
X3053705Y-11465079D02*
X3063229Y-11503174D01*
X3063229Y-11503174D02*
X3063229Y-11550793D01*
X3063229Y-11550793D02*
X3053705Y-11588888D01*
X3053705Y-11588888D02*
X3044182Y-11607936D01*
X3044182Y-11607936D02*
X3034658Y-11617460D01*
X3034658Y-11617460D02*
X3015610Y-11626984D01*
X3015610Y-11626984D02*
X2996562Y-11626984D01*
X2996562Y-11626984D02*
X2977515Y-11617460D01*
X2977515Y-11617460D02*
X2967991Y-11607936D01*
X2967991Y-11607936D02*
X2958467Y-11588888D01*
X2958467Y-11588888D02*
X2948943Y-11550793D01*
X2948943Y-11550793D02*
X2948943Y-11503174D01*
X2948943Y-11503174D02*
X2958467Y-11465079D01*
X2958467Y-11465079D02*
X2967991Y-11446031D01*
X2967991Y-11446031D02*
X2977515Y-11436508D01*
X2977515Y-11436508D02*
X2996562Y-11426984D01*
X3187039Y-11426984D02*
X3206086Y-11426984D01*
X3206086Y-11426984D02*
X3225134Y-11436508D01*
X3225134Y-11436508D02*
X3234658Y-11446031D01*
X3234658Y-11446031D02*
X3244182Y-11465079D01*
X3244182Y-11465079D02*
X3253705Y-11503174D01*
X3253705Y-11503174D02*
X3253705Y-11550793D01*
X3253705Y-11550793D02*
X3244182Y-11588888D01*
X3244182Y-11588888D02*
X3234658Y-11607936D01*
X3234658Y-11607936D02*
X3225134Y-11617460D01*
X3225134Y-11617460D02*
X3206086Y-11626984D01*
X3206086Y-11626984D02*
X3187039Y-11626984D01*
X3187039Y-11626984D02*
X3167991Y-11617460D01*
X3167991Y-11617460D02*
X3158467Y-11607936D01*
X3158467Y-11607936D02*
X3148943Y-11588888D01*
X3148943Y-11588888D02*
X3139420Y-11550793D01*
X3139420Y-11550793D02*
X3139420Y-11503174D01*
X3139420Y-11503174D02*
X3148943Y-11465079D01*
X3148943Y-11465079D02*
X3158467Y-11446031D01*
X3158467Y-11446031D02*
X3167991Y-11436508D01*
X3167991Y-11436508D02*
X3187039Y-11426984D01*
X3339420Y-11626984D02*
X3339420Y-11493650D01*
X3339420Y-11512698D02*
X3348943Y-11503174D01*
X3348943Y-11503174D02*
X3367991Y-11493650D01*
X3367991Y-11493650D02*
X3396563Y-11493650D01*
X3396563Y-11493650D02*
X3415610Y-11503174D01*
X3415610Y-11503174D02*
X3425134Y-11522222D01*
X3425134Y-11522222D02*
X3425134Y-11626984D01*
X3425134Y-11522222D02*
X3434658Y-11503174D01*
X3434658Y-11503174D02*
X3453705Y-11493650D01*
X3453705Y-11493650D02*
X3482277Y-11493650D01*
X3482277Y-11493650D02*
X3501324Y-11503174D01*
X3501324Y-11503174D02*
X3510848Y-11522222D01*
X3510848Y-11522222D02*
X3510848Y-11626984D01*
X3606086Y-11626984D02*
X3606086Y-11493650D01*
X3606086Y-11512698D02*
X3615610Y-11503174D01*
X3615610Y-11503174D02*
X3634658Y-11493650D01*
X3634658Y-11493650D02*
X3663229Y-11493650D01*
X3663229Y-11493650D02*
X3682277Y-11503174D01*
X3682277Y-11503174D02*
X3691801Y-11522222D01*
X3691801Y-11522222D02*
X3691801Y-11626984D01*
X3691801Y-11522222D02*
X3701324Y-11503174D01*
X3701324Y-11503174D02*
X3720372Y-11493650D01*
X3720372Y-11493650D02*
X3748943Y-11493650D01*
X3748943Y-11493650D02*
X3767991Y-11503174D01*
X3767991Y-11503174D02*
X3777515Y-11522222D01*
X3777515Y-11522222D02*
X3777515Y-11626984D01*
X4167991Y-11417460D02*
X3996563Y-11674603D01*
X4425134Y-11426984D02*
X4444182Y-11426984D01*
X4444182Y-11426984D02*
X4463229Y-11436508D01*
X4463229Y-11436508D02*
X4472753Y-11446031D01*
X4472753Y-11446031D02*
X4482277Y-11465079D01*
X4482277Y-11465079D02*
X4491801Y-11503174D01*
X4491801Y-11503174D02*
X4491801Y-11550793D01*
X4491801Y-11550793D02*
X4482277Y-11588888D01*
X4482277Y-11588888D02*
X4472753Y-11607936D01*
X4472753Y-11607936D02*
X4463229Y-11617460D01*
X4463229Y-11617460D02*
X4444182Y-11626984D01*
X4444182Y-11626984D02*
X4425134Y-11626984D01*
X4425134Y-11626984D02*
X4406087Y-11617460D01*
X4406087Y-11617460D02*
X4396563Y-11607936D01*
X4396563Y-11607936D02*
X4387039Y-11588888D01*
X4387039Y-11588888D02*
X4377515Y-11550793D01*
X4377515Y-11550793D02*
X4377515Y-11503174D01*
X4377515Y-11503174D02*
X4387039Y-11465079D01*
X4387039Y-11465079D02*
X4396563Y-11446031D01*
X4396563Y-11446031D02*
X4406087Y-11436508D01*
X4406087Y-11436508D02*
X4425134Y-11426984D01*
X4577515Y-11607936D02*
X4587039Y-11617460D01*
X4587039Y-11617460D02*
X4577515Y-11626984D01*
X4577515Y-11626984D02*
X4567991Y-11617460D01*
X4567991Y-11617460D02*
X4577515Y-11607936D01*
X4577515Y-11607936D02*
X4577515Y-11626984D01*
X4710848Y-11426984D02*
X4729896Y-11426984D01*
X4729896Y-11426984D02*
X4748944Y-11436508D01*
X4748944Y-11436508D02*
X4758468Y-11446031D01*
X4758468Y-11446031D02*
X4767991Y-11465079D01*
X4767991Y-11465079D02*
X4777515Y-11503174D01*
X4777515Y-11503174D02*
X4777515Y-11550793D01*
X4777515Y-11550793D02*
X4767991Y-11588888D01*
X4767991Y-11588888D02*
X4758468Y-11607936D01*
X4758468Y-11607936D02*
X4748944Y-11617460D01*
X4748944Y-11617460D02*
X4729896Y-11626984D01*
X4729896Y-11626984D02*
X4710848Y-11626984D01*
X4710848Y-11626984D02*
X4691801Y-11617460D01*
X4691801Y-11617460D02*
X4682277Y-11607936D01*
X4682277Y-11607936D02*
X4672753Y-11588888D01*
X4672753Y-11588888D02*
X4663229Y-11550793D01*
X4663229Y-11550793D02*
X4663229Y-11503174D01*
X4663229Y-11503174D02*
X4672753Y-11465079D01*
X4672753Y-11465079D02*
X4682277Y-11446031D01*
X4682277Y-11446031D02*
X4691801Y-11436508D01*
X4691801Y-11436508D02*
X4710848Y-11426984D01*
X4844182Y-11426984D02*
X4967991Y-11426984D01*
X4967991Y-11426984D02*
X4901325Y-11503174D01*
X4901325Y-11503174D02*
X4929896Y-11503174D01*
X4929896Y-11503174D02*
X4948944Y-11512698D01*
X4948944Y-11512698D02*
X4958468Y-11522222D01*
X4958468Y-11522222D02*
X4967991Y-11541269D01*
X4967991Y-11541269D02*
X4967991Y-11588888D01*
X4967991Y-11588888D02*
X4958468Y-11607936D01*
X4958468Y-11607936D02*
X4948944Y-11617460D01*
X4948944Y-11617460D02*
X4929896Y-11626984D01*
X4929896Y-11626984D02*
X4872753Y-11626984D01*
X4872753Y-11626984D02*
X4853706Y-11617460D01*
X4853706Y-11617460D02*
X4844182Y-11607936D01*
X5063229Y-11626984D02*
X5101325Y-11626984D01*
X5101325Y-11626984D02*
X5120372Y-11617460D01*
X5120372Y-11617460D02*
X5129896Y-11607936D01*
X5129896Y-11607936D02*
X5148944Y-11579365D01*
X5148944Y-11579365D02*
X5158468Y-11541269D01*
X5158468Y-11541269D02*
X5158468Y-11465079D01*
X5158468Y-11465079D02*
X5148944Y-11446031D01*
X5148944Y-11446031D02*
X5139420Y-11436508D01*
X5139420Y-11436508D02*
X5120372Y-11426984D01*
X5120372Y-11426984D02*
X5082277Y-11426984D01*
X5082277Y-11426984D02*
X5063229Y-11436508D01*
X5063229Y-11436508D02*
X5053706Y-11446031D01*
X5053706Y-11446031D02*
X5044182Y-11465079D01*
X5044182Y-11465079D02*
X5044182Y-11512698D01*
X5044182Y-11512698D02*
X5053706Y-11531746D01*
X5053706Y-11531746D02*
X5063229Y-11541269D01*
X5063229Y-11541269D02*
X5082277Y-11550793D01*
X5082277Y-11550793D02*
X5120372Y-11550793D01*
X5120372Y-11550793D02*
X5139420Y-11541269D01*
X5139420Y-11541269D02*
X5148944Y-11531746D01*
X5148944Y-11531746D02*
X5158468Y-11512698D01*
X5329896Y-11493650D02*
X5329896Y-11626984D01*
X5282277Y-11417460D02*
X5234658Y-11560317D01*
X5234658Y-11560317D02*
X5358468Y-11560317D01*
X5425134Y-11426984D02*
X5425134Y-11465079D01*
X5501325Y-11426984D02*
X5501325Y-11465079D01*
X5796563Y-11703174D02*
X5787039Y-11693650D01*
X5787039Y-11693650D02*
X5767991Y-11665079D01*
X5767991Y-11665079D02*
X5758468Y-11646031D01*
X5758468Y-11646031D02*
X5748944Y-11617460D01*
X5748944Y-11617460D02*
X5739420Y-11569841D01*
X5739420Y-11569841D02*
X5739420Y-11531746D01*
X5739420Y-11531746D02*
X5748944Y-11484127D01*
X5748944Y-11484127D02*
X5758468Y-11455555D01*
X5758468Y-11455555D02*
X5767991Y-11436508D01*
X5767991Y-11436508D02*
X5787039Y-11407936D01*
X5787039Y-11407936D02*
X5796563Y-11398412D01*
X5958468Y-11493650D02*
X5958468Y-11626984D01*
X5910848Y-11417460D02*
X5863229Y-11560317D01*
X5863229Y-11560317D02*
X5987039Y-11560317D01*
X6053706Y-11446031D02*
X6063229Y-11436508D01*
X6063229Y-11436508D02*
X6082277Y-11426984D01*
X6082277Y-11426984D02*
X6129896Y-11426984D01*
X6129896Y-11426984D02*
X6148944Y-11436508D01*
X6148944Y-11436508D02*
X6158468Y-11446031D01*
X6158468Y-11446031D02*
X6167991Y-11465079D01*
X6167991Y-11465079D02*
X6167991Y-11484127D01*
X6167991Y-11484127D02*
X6158468Y-11512698D01*
X6158468Y-11512698D02*
X6044182Y-11626984D01*
X6044182Y-11626984D02*
X6167991Y-11626984D01*
X6406087Y-11626984D02*
X6406087Y-11426984D01*
X6491801Y-11626984D02*
X6491801Y-11522222D01*
X6491801Y-11522222D02*
X6482277Y-11503174D01*
X6482277Y-11503174D02*
X6463230Y-11493650D01*
X6463230Y-11493650D02*
X6434658Y-11493650D01*
X6434658Y-11493650D02*
X6415610Y-11503174D01*
X6415610Y-11503174D02*
X6406087Y-11512698D01*
X6615610Y-11626984D02*
X6596563Y-11617460D01*
X6596563Y-11617460D02*
X6587039Y-11607936D01*
X6587039Y-11607936D02*
X6577515Y-11588888D01*
X6577515Y-11588888D02*
X6577515Y-11531746D01*
X6577515Y-11531746D02*
X6587039Y-11512698D01*
X6587039Y-11512698D02*
X6596563Y-11503174D01*
X6596563Y-11503174D02*
X6615610Y-11493650D01*
X6615610Y-11493650D02*
X6644182Y-11493650D01*
X6644182Y-11493650D02*
X6663230Y-11503174D01*
X6663230Y-11503174D02*
X6672753Y-11512698D01*
X6672753Y-11512698D02*
X6682277Y-11531746D01*
X6682277Y-11531746D02*
X6682277Y-11588888D01*
X6682277Y-11588888D02*
X6672753Y-11607936D01*
X6672753Y-11607936D02*
X6663230Y-11617460D01*
X6663230Y-11617460D02*
X6644182Y-11626984D01*
X6644182Y-11626984D02*
X6615610Y-11626984D01*
X6796563Y-11626984D02*
X6777515Y-11617460D01*
X6777515Y-11617460D02*
X6767991Y-11598412D01*
X6767991Y-11598412D02*
X6767991Y-11426984D01*
X6948944Y-11617460D02*
X6929896Y-11626984D01*
X6929896Y-11626984D02*
X6891801Y-11626984D01*
X6891801Y-11626984D02*
X6872753Y-11617460D01*
X6872753Y-11617460D02*
X6863230Y-11598412D01*
X6863230Y-11598412D02*
X6863230Y-11522222D01*
X6863230Y-11522222D02*
X6872753Y-11503174D01*
X6872753Y-11503174D02*
X6891801Y-11493650D01*
X6891801Y-11493650D02*
X6929896Y-11493650D01*
X6929896Y-11493650D02*
X6948944Y-11503174D01*
X6948944Y-11503174D02*
X6958468Y-11522222D01*
X6958468Y-11522222D02*
X6958468Y-11541269D01*
X6958468Y-11541269D02*
X6863230Y-11560317D01*
X7034658Y-11617460D02*
X7053706Y-11626984D01*
X7053706Y-11626984D02*
X7091801Y-11626984D01*
X7091801Y-11626984D02*
X7110849Y-11617460D01*
X7110849Y-11617460D02*
X7120372Y-11598412D01*
X7120372Y-11598412D02*
X7120372Y-11588888D01*
X7120372Y-11588888D02*
X7110849Y-11569841D01*
X7110849Y-11569841D02*
X7091801Y-11560317D01*
X7091801Y-11560317D02*
X7063230Y-11560317D01*
X7063230Y-11560317D02*
X7044182Y-11550793D01*
X7044182Y-11550793D02*
X7034658Y-11531746D01*
X7034658Y-11531746D02*
X7034658Y-11522222D01*
X7034658Y-11522222D02*
X7044182Y-11503174D01*
X7044182Y-11503174D02*
X7063230Y-11493650D01*
X7063230Y-11493650D02*
X7091801Y-11493650D01*
X7091801Y-11493650D02*
X7110849Y-11503174D01*
X7187039Y-11703174D02*
X7196563Y-11693650D01*
X7196563Y-11693650D02*
X7215611Y-11665079D01*
X7215611Y-11665079D02*
X7225134Y-11646031D01*
X7225134Y-11646031D02*
X7234658Y-11617460D01*
X7234658Y-11617460D02*
X7244182Y-11569841D01*
X7244182Y-11569841D02*
X7244182Y-11531746D01*
X7244182Y-11531746D02*
X7234658Y-11484127D01*
X7234658Y-11484127D02*
X7225134Y-11455555D01*
X7225134Y-11455555D02*
X7215611Y-11436508D01*
X7215611Y-11436508D02*
X7196563Y-11407936D01*
X7196563Y-11407936D02*
X7187039Y-11398412D01*
D13*
X2161500Y-11859500D02*
X2221500Y-11799500D01*
X2161500Y-11739500D01*
X2101500Y-11799500D01*
X2161500Y-11859500D01*
D11*
X2587039Y-11890984D02*
X2472753Y-11890984D01*
X2529896Y-11890984D02*
X2529896Y-11690984D01*
X2529896Y-11690984D02*
X2510848Y-11719555D01*
X2510848Y-11719555D02*
X2491801Y-11738603D01*
X2491801Y-11738603D02*
X2472753Y-11748127D01*
X2672753Y-11871936D02*
X2682277Y-11881460D01*
X2682277Y-11881460D02*
X2672753Y-11890984D01*
X2672753Y-11890984D02*
X2663229Y-11881460D01*
X2663229Y-11881460D02*
X2672753Y-11871936D01*
X2672753Y-11871936D02*
X2672753Y-11890984D01*
X2758467Y-11710031D02*
X2767991Y-11700508D01*
X2767991Y-11700508D02*
X2787039Y-11690984D01*
X2787039Y-11690984D02*
X2834658Y-11690984D01*
X2834658Y-11690984D02*
X2853705Y-11700508D01*
X2853705Y-11700508D02*
X2863229Y-11710031D01*
X2863229Y-11710031D02*
X2872753Y-11729079D01*
X2872753Y-11729079D02*
X2872753Y-11748127D01*
X2872753Y-11748127D02*
X2863229Y-11776698D01*
X2863229Y-11776698D02*
X2748944Y-11890984D01*
X2748944Y-11890984D02*
X2872753Y-11890984D01*
X2996562Y-11690984D02*
X3015610Y-11690984D01*
X3015610Y-11690984D02*
X3034658Y-11700508D01*
X3034658Y-11700508D02*
X3044182Y-11710031D01*
X3044182Y-11710031D02*
X3053705Y-11729079D01*
X3053705Y-11729079D02*
X3063229Y-11767174D01*
X3063229Y-11767174D02*
X3063229Y-11814793D01*
X3063229Y-11814793D02*
X3053705Y-11852888D01*
X3053705Y-11852888D02*
X3044182Y-11871936D01*
X3044182Y-11871936D02*
X3034658Y-11881460D01*
X3034658Y-11881460D02*
X3015610Y-11890984D01*
X3015610Y-11890984D02*
X2996562Y-11890984D01*
X2996562Y-11890984D02*
X2977515Y-11881460D01*
X2977515Y-11881460D02*
X2967991Y-11871936D01*
X2967991Y-11871936D02*
X2958467Y-11852888D01*
X2958467Y-11852888D02*
X2948943Y-11814793D01*
X2948943Y-11814793D02*
X2948943Y-11767174D01*
X2948943Y-11767174D02*
X2958467Y-11729079D01*
X2958467Y-11729079D02*
X2967991Y-11710031D01*
X2967991Y-11710031D02*
X2977515Y-11700508D01*
X2977515Y-11700508D02*
X2996562Y-11690984D01*
X3187039Y-11690984D02*
X3206086Y-11690984D01*
X3206086Y-11690984D02*
X3225134Y-11700508D01*
X3225134Y-11700508D02*
X3234658Y-11710031D01*
X3234658Y-11710031D02*
X3244182Y-11729079D01*
X3244182Y-11729079D02*
X3253705Y-11767174D01*
X3253705Y-11767174D02*
X3253705Y-11814793D01*
X3253705Y-11814793D02*
X3244182Y-11852888D01*
X3244182Y-11852888D02*
X3234658Y-11871936D01*
X3234658Y-11871936D02*
X3225134Y-11881460D01*
X3225134Y-11881460D02*
X3206086Y-11890984D01*
X3206086Y-11890984D02*
X3187039Y-11890984D01*
X3187039Y-11890984D02*
X3167991Y-11881460D01*
X3167991Y-11881460D02*
X3158467Y-11871936D01*
X3158467Y-11871936D02*
X3148943Y-11852888D01*
X3148943Y-11852888D02*
X3139420Y-11814793D01*
X3139420Y-11814793D02*
X3139420Y-11767174D01*
X3139420Y-11767174D02*
X3148943Y-11729079D01*
X3148943Y-11729079D02*
X3158467Y-11710031D01*
X3158467Y-11710031D02*
X3167991Y-11700508D01*
X3167991Y-11700508D02*
X3187039Y-11690984D01*
X3339420Y-11890984D02*
X3339420Y-11757650D01*
X3339420Y-11776698D02*
X3348943Y-11767174D01*
X3348943Y-11767174D02*
X3367991Y-11757650D01*
X3367991Y-11757650D02*
X3396563Y-11757650D01*
X3396563Y-11757650D02*
X3415610Y-11767174D01*
X3415610Y-11767174D02*
X3425134Y-11786222D01*
X3425134Y-11786222D02*
X3425134Y-11890984D01*
X3425134Y-11786222D02*
X3434658Y-11767174D01*
X3434658Y-11767174D02*
X3453705Y-11757650D01*
X3453705Y-11757650D02*
X3482277Y-11757650D01*
X3482277Y-11757650D02*
X3501324Y-11767174D01*
X3501324Y-11767174D02*
X3510848Y-11786222D01*
X3510848Y-11786222D02*
X3510848Y-11890984D01*
X3606086Y-11890984D02*
X3606086Y-11757650D01*
X3606086Y-11776698D02*
X3615610Y-11767174D01*
X3615610Y-11767174D02*
X3634658Y-11757650D01*
X3634658Y-11757650D02*
X3663229Y-11757650D01*
X3663229Y-11757650D02*
X3682277Y-11767174D01*
X3682277Y-11767174D02*
X3691801Y-11786222D01*
X3691801Y-11786222D02*
X3691801Y-11890984D01*
X3691801Y-11786222D02*
X3701324Y-11767174D01*
X3701324Y-11767174D02*
X3720372Y-11757650D01*
X3720372Y-11757650D02*
X3748943Y-11757650D01*
X3748943Y-11757650D02*
X3767991Y-11767174D01*
X3767991Y-11767174D02*
X3777515Y-11786222D01*
X3777515Y-11786222D02*
X3777515Y-11890984D01*
X4167991Y-11681460D02*
X3996563Y-11938603D01*
X4425134Y-11690984D02*
X4444182Y-11690984D01*
X4444182Y-11690984D02*
X4463229Y-11700508D01*
X4463229Y-11700508D02*
X4472753Y-11710031D01*
X4472753Y-11710031D02*
X4482277Y-11729079D01*
X4482277Y-11729079D02*
X4491801Y-11767174D01*
X4491801Y-11767174D02*
X4491801Y-11814793D01*
X4491801Y-11814793D02*
X4482277Y-11852888D01*
X4482277Y-11852888D02*
X4472753Y-11871936D01*
X4472753Y-11871936D02*
X4463229Y-11881460D01*
X4463229Y-11881460D02*
X4444182Y-11890984D01*
X4444182Y-11890984D02*
X4425134Y-11890984D01*
X4425134Y-11890984D02*
X4406087Y-11881460D01*
X4406087Y-11881460D02*
X4396563Y-11871936D01*
X4396563Y-11871936D02*
X4387039Y-11852888D01*
X4387039Y-11852888D02*
X4377515Y-11814793D01*
X4377515Y-11814793D02*
X4377515Y-11767174D01*
X4377515Y-11767174D02*
X4387039Y-11729079D01*
X4387039Y-11729079D02*
X4396563Y-11710031D01*
X4396563Y-11710031D02*
X4406087Y-11700508D01*
X4406087Y-11700508D02*
X4425134Y-11690984D01*
X4577515Y-11871936D02*
X4587039Y-11881460D01*
X4587039Y-11881460D02*
X4577515Y-11890984D01*
X4577515Y-11890984D02*
X4567991Y-11881460D01*
X4567991Y-11881460D02*
X4577515Y-11871936D01*
X4577515Y-11871936D02*
X4577515Y-11890984D01*
X4710848Y-11690984D02*
X4729896Y-11690984D01*
X4729896Y-11690984D02*
X4748944Y-11700508D01*
X4748944Y-11700508D02*
X4758468Y-11710031D01*
X4758468Y-11710031D02*
X4767991Y-11729079D01*
X4767991Y-11729079D02*
X4777515Y-11767174D01*
X4777515Y-11767174D02*
X4777515Y-11814793D01*
X4777515Y-11814793D02*
X4767991Y-11852888D01*
X4767991Y-11852888D02*
X4758468Y-11871936D01*
X4758468Y-11871936D02*
X4748944Y-11881460D01*
X4748944Y-11881460D02*
X4729896Y-11890984D01*
X4729896Y-11890984D02*
X4710848Y-11890984D01*
X4710848Y-11890984D02*
X4691801Y-11881460D01*
X4691801Y-11881460D02*
X4682277Y-11871936D01*
X4682277Y-11871936D02*
X4672753Y-11852888D01*
X4672753Y-11852888D02*
X4663229Y-11814793D01*
X4663229Y-11814793D02*
X4663229Y-11767174D01*
X4663229Y-11767174D02*
X4672753Y-11729079D01*
X4672753Y-11729079D02*
X4682277Y-11710031D01*
X4682277Y-11710031D02*
X4691801Y-11700508D01*
X4691801Y-11700508D02*
X4710848Y-11690984D01*
X4948944Y-11757650D02*
X4948944Y-11890984D01*
X4901325Y-11681460D02*
X4853706Y-11824317D01*
X4853706Y-11824317D02*
X4977515Y-11824317D01*
X5034658Y-11690984D02*
X5167991Y-11690984D01*
X5167991Y-11690984D02*
X5082277Y-11890984D01*
X5234658Y-11710031D02*
X5244182Y-11700508D01*
X5244182Y-11700508D02*
X5263229Y-11690984D01*
X5263229Y-11690984D02*
X5310849Y-11690984D01*
X5310849Y-11690984D02*
X5329896Y-11700508D01*
X5329896Y-11700508D02*
X5339420Y-11710031D01*
X5339420Y-11710031D02*
X5348944Y-11729079D01*
X5348944Y-11729079D02*
X5348944Y-11748127D01*
X5348944Y-11748127D02*
X5339420Y-11776698D01*
X5339420Y-11776698D02*
X5225134Y-11890984D01*
X5225134Y-11890984D02*
X5348944Y-11890984D01*
X5425134Y-11690984D02*
X5425134Y-11729079D01*
X5501325Y-11690984D02*
X5501325Y-11729079D01*
X5796563Y-11967174D02*
X5787039Y-11957650D01*
X5787039Y-11957650D02*
X5767991Y-11929079D01*
X5767991Y-11929079D02*
X5758468Y-11910031D01*
X5758468Y-11910031D02*
X5748944Y-11881460D01*
X5748944Y-11881460D02*
X5739420Y-11833841D01*
X5739420Y-11833841D02*
X5739420Y-11795746D01*
X5739420Y-11795746D02*
X5748944Y-11748127D01*
X5748944Y-11748127D02*
X5758468Y-11719555D01*
X5758468Y-11719555D02*
X5767991Y-11700508D01*
X5767991Y-11700508D02*
X5787039Y-11671936D01*
X5787039Y-11671936D02*
X5796563Y-11662412D01*
X5863229Y-11710031D02*
X5872753Y-11700508D01*
X5872753Y-11700508D02*
X5891801Y-11690984D01*
X5891801Y-11690984D02*
X5939420Y-11690984D01*
X5939420Y-11690984D02*
X5958468Y-11700508D01*
X5958468Y-11700508D02*
X5967991Y-11710031D01*
X5967991Y-11710031D02*
X5977515Y-11729079D01*
X5977515Y-11729079D02*
X5977515Y-11748127D01*
X5977515Y-11748127D02*
X5967991Y-11776698D01*
X5967991Y-11776698D02*
X5853706Y-11890984D01*
X5853706Y-11890984D02*
X5977515Y-11890984D01*
X6215610Y-11890984D02*
X6215610Y-11690984D01*
X6301325Y-11890984D02*
X6301325Y-11786222D01*
X6301325Y-11786222D02*
X6291801Y-11767174D01*
X6291801Y-11767174D02*
X6272753Y-11757650D01*
X6272753Y-11757650D02*
X6244182Y-11757650D01*
X6244182Y-11757650D02*
X6225134Y-11767174D01*
X6225134Y-11767174D02*
X6215610Y-11776698D01*
X6425134Y-11890984D02*
X6406087Y-11881460D01*
X6406087Y-11881460D02*
X6396563Y-11871936D01*
X6396563Y-11871936D02*
X6387039Y-11852888D01*
X6387039Y-11852888D02*
X6387039Y-11795746D01*
X6387039Y-11795746D02*
X6396563Y-11776698D01*
X6396563Y-11776698D02*
X6406087Y-11767174D01*
X6406087Y-11767174D02*
X6425134Y-11757650D01*
X6425134Y-11757650D02*
X6453706Y-11757650D01*
X6453706Y-11757650D02*
X6472753Y-11767174D01*
X6472753Y-11767174D02*
X6482277Y-11776698D01*
X6482277Y-11776698D02*
X6491801Y-11795746D01*
X6491801Y-11795746D02*
X6491801Y-11852888D01*
X6491801Y-11852888D02*
X6482277Y-11871936D01*
X6482277Y-11871936D02*
X6472753Y-11881460D01*
X6472753Y-11881460D02*
X6453706Y-11890984D01*
X6453706Y-11890984D02*
X6425134Y-11890984D01*
X6606087Y-11890984D02*
X6587039Y-11881460D01*
X6587039Y-11881460D02*
X6577515Y-11862412D01*
X6577515Y-11862412D02*
X6577515Y-11690984D01*
X6758468Y-11881460D02*
X6739420Y-11890984D01*
X6739420Y-11890984D02*
X6701325Y-11890984D01*
X6701325Y-11890984D02*
X6682277Y-11881460D01*
X6682277Y-11881460D02*
X6672753Y-11862412D01*
X6672753Y-11862412D02*
X6672753Y-11786222D01*
X6672753Y-11786222D02*
X6682277Y-11767174D01*
X6682277Y-11767174D02*
X6701325Y-11757650D01*
X6701325Y-11757650D02*
X6739420Y-11757650D01*
X6739420Y-11757650D02*
X6758468Y-11767174D01*
X6758468Y-11767174D02*
X6767991Y-11786222D01*
X6767991Y-11786222D02*
X6767991Y-11805269D01*
X6767991Y-11805269D02*
X6672753Y-11824317D01*
X6844182Y-11881460D02*
X6863230Y-11890984D01*
X6863230Y-11890984D02*
X6901325Y-11890984D01*
X6901325Y-11890984D02*
X6920372Y-11881460D01*
X6920372Y-11881460D02*
X6929896Y-11862412D01*
X6929896Y-11862412D02*
X6929896Y-11852888D01*
X6929896Y-11852888D02*
X6920372Y-11833841D01*
X6920372Y-11833841D02*
X6901325Y-11824317D01*
X6901325Y-11824317D02*
X6872753Y-11824317D01*
X6872753Y-11824317D02*
X6853706Y-11814793D01*
X6853706Y-11814793D02*
X6844182Y-11795746D01*
X6844182Y-11795746D02*
X6844182Y-11786222D01*
X6844182Y-11786222D02*
X6853706Y-11767174D01*
X6853706Y-11767174D02*
X6872753Y-11757650D01*
X6872753Y-11757650D02*
X6901325Y-11757650D01*
X6901325Y-11757650D02*
X6920372Y-11767174D01*
X6996563Y-11967174D02*
X7006087Y-11957650D01*
X7006087Y-11957650D02*
X7025134Y-11929079D01*
X7025134Y-11929079D02*
X7034658Y-11910031D01*
X7034658Y-11910031D02*
X7044182Y-11881460D01*
X7044182Y-11881460D02*
X7053706Y-11833841D01*
X7053706Y-11833841D02*
X7053706Y-11795746D01*
X7053706Y-11795746D02*
X7044182Y-11748127D01*
X7044182Y-11748127D02*
X7034658Y-11719555D01*
X7034658Y-11719555D02*
X7025134Y-11700508D01*
X7025134Y-11700508D02*
X7006087Y-11671936D01*
X7006087Y-11671936D02*
X6996563Y-11662412D01*
X2021500Y-11963500D02*
X2221500Y-12163500D01*
X2221500Y-11963500D02*
X2021500Y-12163500D01*
X2221500Y-12063500D02*
G75*
G02*
X2021500Y-12063500I-100000J0D01*
G01*
X2021500Y-12063500D02*
G75*
G02*
X2221500Y-12063500I100000J0D01*
G01*
X2463229Y-11954984D02*
X2587039Y-11954984D01*
X2587039Y-11954984D02*
X2520372Y-12031174D01*
X2520372Y-12031174D02*
X2548944Y-12031174D01*
X2548944Y-12031174D02*
X2567991Y-12040698D01*
X2567991Y-12040698D02*
X2577515Y-12050222D01*
X2577515Y-12050222D02*
X2587039Y-12069269D01*
X2587039Y-12069269D02*
X2587039Y-12116888D01*
X2587039Y-12116888D02*
X2577515Y-12135936D01*
X2577515Y-12135936D02*
X2567991Y-12145460D01*
X2567991Y-12145460D02*
X2548944Y-12154984D01*
X2548944Y-12154984D02*
X2491801Y-12154984D01*
X2491801Y-12154984D02*
X2472753Y-12145460D01*
X2472753Y-12145460D02*
X2463229Y-12135936D01*
X2672753Y-12135936D02*
X2682277Y-12145460D01*
X2682277Y-12145460D02*
X2672753Y-12154984D01*
X2672753Y-12154984D02*
X2663229Y-12145460D01*
X2663229Y-12145460D02*
X2672753Y-12135936D01*
X2672753Y-12135936D02*
X2672753Y-12154984D01*
X2758467Y-11974031D02*
X2767991Y-11964508D01*
X2767991Y-11964508D02*
X2787039Y-11954984D01*
X2787039Y-11954984D02*
X2834658Y-11954984D01*
X2834658Y-11954984D02*
X2853705Y-11964508D01*
X2853705Y-11964508D02*
X2863229Y-11974031D01*
X2863229Y-11974031D02*
X2872753Y-11993079D01*
X2872753Y-11993079D02*
X2872753Y-12012127D01*
X2872753Y-12012127D02*
X2863229Y-12040698D01*
X2863229Y-12040698D02*
X2748944Y-12154984D01*
X2748944Y-12154984D02*
X2872753Y-12154984D01*
X2996562Y-11954984D02*
X3015610Y-11954984D01*
X3015610Y-11954984D02*
X3034658Y-11964508D01*
X3034658Y-11964508D02*
X3044182Y-11974031D01*
X3044182Y-11974031D02*
X3053705Y-11993079D01*
X3053705Y-11993079D02*
X3063229Y-12031174D01*
X3063229Y-12031174D02*
X3063229Y-12078793D01*
X3063229Y-12078793D02*
X3053705Y-12116888D01*
X3053705Y-12116888D02*
X3044182Y-12135936D01*
X3044182Y-12135936D02*
X3034658Y-12145460D01*
X3034658Y-12145460D02*
X3015610Y-12154984D01*
X3015610Y-12154984D02*
X2996562Y-12154984D01*
X2996562Y-12154984D02*
X2977515Y-12145460D01*
X2977515Y-12145460D02*
X2967991Y-12135936D01*
X2967991Y-12135936D02*
X2958467Y-12116888D01*
X2958467Y-12116888D02*
X2948943Y-12078793D01*
X2948943Y-12078793D02*
X2948943Y-12031174D01*
X2948943Y-12031174D02*
X2958467Y-11993079D01*
X2958467Y-11993079D02*
X2967991Y-11974031D01*
X2967991Y-11974031D02*
X2977515Y-11964508D01*
X2977515Y-11964508D02*
X2996562Y-11954984D01*
X3187039Y-11954984D02*
X3206086Y-11954984D01*
X3206086Y-11954984D02*
X3225134Y-11964508D01*
X3225134Y-11964508D02*
X3234658Y-11974031D01*
X3234658Y-11974031D02*
X3244182Y-11993079D01*
X3244182Y-11993079D02*
X3253705Y-12031174D01*
X3253705Y-12031174D02*
X3253705Y-12078793D01*
X3253705Y-12078793D02*
X3244182Y-12116888D01*
X3244182Y-12116888D02*
X3234658Y-12135936D01*
X3234658Y-12135936D02*
X3225134Y-12145460D01*
X3225134Y-12145460D02*
X3206086Y-12154984D01*
X3206086Y-12154984D02*
X3187039Y-12154984D01*
X3187039Y-12154984D02*
X3167991Y-12145460D01*
X3167991Y-12145460D02*
X3158467Y-12135936D01*
X3158467Y-12135936D02*
X3148943Y-12116888D01*
X3148943Y-12116888D02*
X3139420Y-12078793D01*
X3139420Y-12078793D02*
X3139420Y-12031174D01*
X3139420Y-12031174D02*
X3148943Y-11993079D01*
X3148943Y-11993079D02*
X3158467Y-11974031D01*
X3158467Y-11974031D02*
X3167991Y-11964508D01*
X3167991Y-11964508D02*
X3187039Y-11954984D01*
X3339420Y-12154984D02*
X3339420Y-12021650D01*
X3339420Y-12040698D02*
X3348943Y-12031174D01*
X3348943Y-12031174D02*
X3367991Y-12021650D01*
X3367991Y-12021650D02*
X3396563Y-12021650D01*
X3396563Y-12021650D02*
X3415610Y-12031174D01*
X3415610Y-12031174D02*
X3425134Y-12050222D01*
X3425134Y-12050222D02*
X3425134Y-12154984D01*
X3425134Y-12050222D02*
X3434658Y-12031174D01*
X3434658Y-12031174D02*
X3453705Y-12021650D01*
X3453705Y-12021650D02*
X3482277Y-12021650D01*
X3482277Y-12021650D02*
X3501324Y-12031174D01*
X3501324Y-12031174D02*
X3510848Y-12050222D01*
X3510848Y-12050222D02*
X3510848Y-12154984D01*
X3606086Y-12154984D02*
X3606086Y-12021650D01*
X3606086Y-12040698D02*
X3615610Y-12031174D01*
X3615610Y-12031174D02*
X3634658Y-12021650D01*
X3634658Y-12021650D02*
X3663229Y-12021650D01*
X3663229Y-12021650D02*
X3682277Y-12031174D01*
X3682277Y-12031174D02*
X3691801Y-12050222D01*
X3691801Y-12050222D02*
X3691801Y-12154984D01*
X3691801Y-12050222D02*
X3701324Y-12031174D01*
X3701324Y-12031174D02*
X3720372Y-12021650D01*
X3720372Y-12021650D02*
X3748943Y-12021650D01*
X3748943Y-12021650D02*
X3767991Y-12031174D01*
X3767991Y-12031174D02*
X3777515Y-12050222D01*
X3777515Y-12050222D02*
X3777515Y-12154984D01*
X4167991Y-11945460D02*
X3996563Y-12202603D01*
X4425134Y-11954984D02*
X4444182Y-11954984D01*
X4444182Y-11954984D02*
X4463229Y-11964508D01*
X4463229Y-11964508D02*
X4472753Y-11974031D01*
X4472753Y-11974031D02*
X4482277Y-11993079D01*
X4482277Y-11993079D02*
X4491801Y-12031174D01*
X4491801Y-12031174D02*
X4491801Y-12078793D01*
X4491801Y-12078793D02*
X4482277Y-12116888D01*
X4482277Y-12116888D02*
X4472753Y-12135936D01*
X4472753Y-12135936D02*
X4463229Y-12145460D01*
X4463229Y-12145460D02*
X4444182Y-12154984D01*
X4444182Y-12154984D02*
X4425134Y-12154984D01*
X4425134Y-12154984D02*
X4406087Y-12145460D01*
X4406087Y-12145460D02*
X4396563Y-12135936D01*
X4396563Y-12135936D02*
X4387039Y-12116888D01*
X4387039Y-12116888D02*
X4377515Y-12078793D01*
X4377515Y-12078793D02*
X4377515Y-12031174D01*
X4377515Y-12031174D02*
X4387039Y-11993079D01*
X4387039Y-11993079D02*
X4396563Y-11974031D01*
X4396563Y-11974031D02*
X4406087Y-11964508D01*
X4406087Y-11964508D02*
X4425134Y-11954984D01*
X4577515Y-12135936D02*
X4587039Y-12145460D01*
X4587039Y-12145460D02*
X4577515Y-12154984D01*
X4577515Y-12154984D02*
X4567991Y-12145460D01*
X4567991Y-12145460D02*
X4577515Y-12135936D01*
X4577515Y-12135936D02*
X4577515Y-12154984D01*
X4777515Y-12154984D02*
X4663229Y-12154984D01*
X4720372Y-12154984D02*
X4720372Y-11954984D01*
X4720372Y-11954984D02*
X4701325Y-11983555D01*
X4701325Y-11983555D02*
X4682277Y-12002603D01*
X4682277Y-12002603D02*
X4663229Y-12012127D01*
X4853706Y-11974031D02*
X4863229Y-11964508D01*
X4863229Y-11964508D02*
X4882277Y-11954984D01*
X4882277Y-11954984D02*
X4929896Y-11954984D01*
X4929896Y-11954984D02*
X4948944Y-11964508D01*
X4948944Y-11964508D02*
X4958468Y-11974031D01*
X4958468Y-11974031D02*
X4967991Y-11993079D01*
X4967991Y-11993079D02*
X4967991Y-12012127D01*
X4967991Y-12012127D02*
X4958468Y-12040698D01*
X4958468Y-12040698D02*
X4844182Y-12154984D01*
X4844182Y-12154984D02*
X4967991Y-12154984D01*
X5139420Y-11954984D02*
X5101325Y-11954984D01*
X5101325Y-11954984D02*
X5082277Y-11964508D01*
X5082277Y-11964508D02*
X5072753Y-11974031D01*
X5072753Y-11974031D02*
X5053706Y-12002603D01*
X5053706Y-12002603D02*
X5044182Y-12040698D01*
X5044182Y-12040698D02*
X5044182Y-12116888D01*
X5044182Y-12116888D02*
X5053706Y-12135936D01*
X5053706Y-12135936D02*
X5063229Y-12145460D01*
X5063229Y-12145460D02*
X5082277Y-12154984D01*
X5082277Y-12154984D02*
X5120372Y-12154984D01*
X5120372Y-12154984D02*
X5139420Y-12145460D01*
X5139420Y-12145460D02*
X5148944Y-12135936D01*
X5148944Y-12135936D02*
X5158468Y-12116888D01*
X5158468Y-12116888D02*
X5158468Y-12069269D01*
X5158468Y-12069269D02*
X5148944Y-12050222D01*
X5148944Y-12050222D02*
X5139420Y-12040698D01*
X5139420Y-12040698D02*
X5120372Y-12031174D01*
X5120372Y-12031174D02*
X5082277Y-12031174D01*
X5082277Y-12031174D02*
X5063229Y-12040698D01*
X5063229Y-12040698D02*
X5053706Y-12050222D01*
X5053706Y-12050222D02*
X5044182Y-12069269D01*
X5282277Y-11954984D02*
X5301325Y-11954984D01*
X5301325Y-11954984D02*
X5320372Y-11964508D01*
X5320372Y-11964508D02*
X5329896Y-11974031D01*
X5329896Y-11974031D02*
X5339420Y-11993079D01*
X5339420Y-11993079D02*
X5348944Y-12031174D01*
X5348944Y-12031174D02*
X5348944Y-12078793D01*
X5348944Y-12078793D02*
X5339420Y-12116888D01*
X5339420Y-12116888D02*
X5329896Y-12135936D01*
X5329896Y-12135936D02*
X5320372Y-12145460D01*
X5320372Y-12145460D02*
X5301325Y-12154984D01*
X5301325Y-12154984D02*
X5282277Y-12154984D01*
X5282277Y-12154984D02*
X5263229Y-12145460D01*
X5263229Y-12145460D02*
X5253706Y-12135936D01*
X5253706Y-12135936D02*
X5244182Y-12116888D01*
X5244182Y-12116888D02*
X5234658Y-12078793D01*
X5234658Y-12078793D02*
X5234658Y-12031174D01*
X5234658Y-12031174D02*
X5244182Y-11993079D01*
X5244182Y-11993079D02*
X5253706Y-11974031D01*
X5253706Y-11974031D02*
X5263229Y-11964508D01*
X5263229Y-11964508D02*
X5282277Y-11954984D01*
X5425134Y-11954984D02*
X5425134Y-11993079D01*
X5501325Y-11954984D02*
X5501325Y-11993079D01*
X5796563Y-12231174D02*
X5787039Y-12221650D01*
X5787039Y-12221650D02*
X5767991Y-12193079D01*
X5767991Y-12193079D02*
X5758468Y-12174031D01*
X5758468Y-12174031D02*
X5748944Y-12145460D01*
X5748944Y-12145460D02*
X5739420Y-12097841D01*
X5739420Y-12097841D02*
X5739420Y-12059746D01*
X5739420Y-12059746D02*
X5748944Y-12012127D01*
X5748944Y-12012127D02*
X5758468Y-11983555D01*
X5758468Y-11983555D02*
X5767991Y-11964508D01*
X5767991Y-11964508D02*
X5787039Y-11935936D01*
X5787039Y-11935936D02*
X5796563Y-11926412D01*
X5853706Y-11954984D02*
X5977515Y-11954984D01*
X5977515Y-11954984D02*
X5910848Y-12031174D01*
X5910848Y-12031174D02*
X5939420Y-12031174D01*
X5939420Y-12031174D02*
X5958468Y-12040698D01*
X5958468Y-12040698D02*
X5967991Y-12050222D01*
X5967991Y-12050222D02*
X5977515Y-12069269D01*
X5977515Y-12069269D02*
X5977515Y-12116888D01*
X5977515Y-12116888D02*
X5967991Y-12135936D01*
X5967991Y-12135936D02*
X5958468Y-12145460D01*
X5958468Y-12145460D02*
X5939420Y-12154984D01*
X5939420Y-12154984D02*
X5882277Y-12154984D01*
X5882277Y-12154984D02*
X5863229Y-12145460D01*
X5863229Y-12145460D02*
X5853706Y-12135936D01*
X6215610Y-12154984D02*
X6215610Y-11954984D01*
X6301325Y-12154984D02*
X6301325Y-12050222D01*
X6301325Y-12050222D02*
X6291801Y-12031174D01*
X6291801Y-12031174D02*
X6272753Y-12021650D01*
X6272753Y-12021650D02*
X6244182Y-12021650D01*
X6244182Y-12021650D02*
X6225134Y-12031174D01*
X6225134Y-12031174D02*
X6215610Y-12040698D01*
X6425134Y-12154984D02*
X6406087Y-12145460D01*
X6406087Y-12145460D02*
X6396563Y-12135936D01*
X6396563Y-12135936D02*
X6387039Y-12116888D01*
X6387039Y-12116888D02*
X6387039Y-12059746D01*
X6387039Y-12059746D02*
X6396563Y-12040698D01*
X6396563Y-12040698D02*
X6406087Y-12031174D01*
X6406087Y-12031174D02*
X6425134Y-12021650D01*
X6425134Y-12021650D02*
X6453706Y-12021650D01*
X6453706Y-12021650D02*
X6472753Y-12031174D01*
X6472753Y-12031174D02*
X6482277Y-12040698D01*
X6482277Y-12040698D02*
X6491801Y-12059746D01*
X6491801Y-12059746D02*
X6491801Y-12116888D01*
X6491801Y-12116888D02*
X6482277Y-12135936D01*
X6482277Y-12135936D02*
X6472753Y-12145460D01*
X6472753Y-12145460D02*
X6453706Y-12154984D01*
X6453706Y-12154984D02*
X6425134Y-12154984D01*
X6606087Y-12154984D02*
X6587039Y-12145460D01*
X6587039Y-12145460D02*
X6577515Y-12126412D01*
X6577515Y-12126412D02*
X6577515Y-11954984D01*
X6758468Y-12145460D02*
X6739420Y-12154984D01*
X6739420Y-12154984D02*
X6701325Y-12154984D01*
X6701325Y-12154984D02*
X6682277Y-12145460D01*
X6682277Y-12145460D02*
X6672753Y-12126412D01*
X6672753Y-12126412D02*
X6672753Y-12050222D01*
X6672753Y-12050222D02*
X6682277Y-12031174D01*
X6682277Y-12031174D02*
X6701325Y-12021650D01*
X6701325Y-12021650D02*
X6739420Y-12021650D01*
X6739420Y-12021650D02*
X6758468Y-12031174D01*
X6758468Y-12031174D02*
X6767991Y-12050222D01*
X6767991Y-12050222D02*
X6767991Y-12069269D01*
X6767991Y-12069269D02*
X6672753Y-12088317D01*
X6844182Y-12145460D02*
X6863230Y-12154984D01*
X6863230Y-12154984D02*
X6901325Y-12154984D01*
X6901325Y-12154984D02*
X6920372Y-12145460D01*
X6920372Y-12145460D02*
X6929896Y-12126412D01*
X6929896Y-12126412D02*
X6929896Y-12116888D01*
X6929896Y-12116888D02*
X6920372Y-12097841D01*
X6920372Y-12097841D02*
X6901325Y-12088317D01*
X6901325Y-12088317D02*
X6872753Y-12088317D01*
X6872753Y-12088317D02*
X6853706Y-12078793D01*
X6853706Y-12078793D02*
X6844182Y-12059746D01*
X6844182Y-12059746D02*
X6844182Y-12050222D01*
X6844182Y-12050222D02*
X6853706Y-12031174D01*
X6853706Y-12031174D02*
X6872753Y-12021650D01*
X6872753Y-12021650D02*
X6901325Y-12021650D01*
X6901325Y-12021650D02*
X6920372Y-12031174D01*
X6996563Y-12231174D02*
X7006087Y-12221650D01*
X7006087Y-12221650D02*
X7025134Y-12193079D01*
X7025134Y-12193079D02*
X7034658Y-12174031D01*
X7034658Y-12174031D02*
X7044182Y-12145460D01*
X7044182Y-12145460D02*
X7053706Y-12097841D01*
X7053706Y-12097841D02*
X7053706Y-12059746D01*
X7053706Y-12059746D02*
X7044182Y-12012127D01*
X7044182Y-12012127D02*
X7034658Y-11983555D01*
X7034658Y-11983555D02*
X7025134Y-11964508D01*
X7025134Y-11964508D02*
X7006087Y-11935936D01*
X7006087Y-11935936D02*
X6996563Y-11926412D01*
M02*
